M48
; DRILL file {KiCad (5.1.10)-1} date 07/22/21 01:03:45
; FORMAT={-:-/ absolute / inch / decimal}
; #@! TF.CreationDate,2021-07-22T01:03:45+03:00
; #@! TF.GenerationSoftware,Kicad,Pcbnew,(5.1.10)-1
; #@! TF.FileFunction,Plated,1,2,PTH
FMAT,2
INCH
T1C0.0157
T2C0.0300
T3C0.0315
T4C0.0354
T5C0.0394
T6C0.0591
%
G90
G05
T1
X3.3071Y-3.0039
X3.3228Y-4.3268
X3.5Y-2.9291
X3.8051Y-2.9291
X3.8855Y-5.2087
X4.2172Y-2.9652
X4.2283Y-2.8602
X4.2283Y-5.2421
X4.2793Y-2.9505
X5.5079Y-2.8661
X5.6457Y-5.2559
X5.6772Y-4.9409
X5.7041Y-4.4427
X5.7244Y-3.5197
X5.7244Y-3.5787
X5.7244Y-3.6969
X5.7244Y-4.9961
X5.7458Y-4.4881
X5.7481Y-4.3887
X5.7795Y-4.3346
X5.8176Y-5.0354
X8.374Y-4.7303
X8.5079Y-4.6909
X8.5522Y-4.2825
X8.8937Y-4.5728
X8.9783Y-4.5413
T2
X3.3071Y-5.2539
X3.4094Y-5.2543
X3.5079Y-2.8465
X3.5094Y-5.2543
X3.6079Y-2.8465
X3.6142Y-5.2539
X3.7126Y-5.2539
X5.7319Y-4.5776
X5.7319Y-4.7776
X5.7339Y-4.6772
X5.8319Y-4.5776
X5.8319Y-4.7776
X5.8339Y-4.6776
T3
X4.3976Y-2.8701
X4.7323Y-2.8701
T4
X8.0583Y-3.9012
X8.0583Y-4.1472
X8.0583Y-4.6295
X8.0583Y-4.7378
T5
X3.3346Y-4.5354
X3.3346Y-4.6354
X3.3346Y-4.7354
X3.4114Y-5.3543
X3.5114Y-5.3543
X3.6114Y-5.3543
X3.7114Y-5.3543
X4.3323Y-5.3209
X4.4323Y-5.3209
X4.5323Y-5.3209
X4.6323Y-5.3209
X4.7323Y-5.3209
X5.2409Y-5.2717
X5.3409Y-5.2717
X5.4409Y-5.2717
X5.5409Y-5.2717
X7.9748Y-5.0984
X8.0748Y-5.0984
X8.1748Y-5.0984
X8.2748Y-5.0984
X8.3748Y-5.0984
T6
X7.4535Y-3.624
X7.6535Y-3.2933
X7.6681Y-3.624
X7.8504Y-3.2933
X7.8827Y-3.624
X8.3039Y-3.624
X8.4646Y-3.2933
X8.5185Y-3.624
X8.6614Y-3.2933
X8.7331Y-3.624
T0
M30
