%TF.GenerationSoftware,KiCad,Pcbnew,(5.1.10)-1*%
%TF.CreationDate,2021-08-15T00:34:02+03:00*%
%TF.ProjectId,Dimmer,44696d6d-6572-42e6-9b69-6361645f7063,rev?*%
%TF.SameCoordinates,Original*%
%TF.FileFunction,Legend,Bot*%
%TF.FilePolarity,Positive*%
%FSLAX46Y46*%
G04 Gerber Fmt 4.6, Leading zero omitted, Abs format (unit mm)*
G04 Created by KiCad (PCBNEW (5.1.10)-1) date 2021-08-15 00:34:02*
%MOMM*%
%LPD*%
G01*
G04 APERTURE LIST*
%ADD10C,0.150000*%
%ADD11C,0.120000*%
G04 APERTURE END LIST*
D10*
X91995714Y-137771428D02*
X92195714Y-137485714D01*
X92338571Y-137771428D02*
X92338571Y-137171428D01*
X92110000Y-137171428D01*
X92052857Y-137200000D01*
X92024285Y-137228571D01*
X91995714Y-137285714D01*
X91995714Y-137371428D01*
X92024285Y-137428571D01*
X92052857Y-137457142D01*
X92110000Y-137485714D01*
X92338571Y-137485714D01*
X91795714Y-137171428D02*
X91395714Y-137771428D01*
X91395714Y-137171428D02*
X91795714Y-137771428D01*
X91052857Y-137171428D02*
X90995714Y-137171428D01*
X90938571Y-137200000D01*
X90910000Y-137228571D01*
X90881428Y-137285714D01*
X90852857Y-137400000D01*
X90852857Y-137542857D01*
X90881428Y-137657142D01*
X90910000Y-137714285D01*
X90938571Y-137742857D01*
X90995714Y-137771428D01*
X91052857Y-137771428D01*
X91110000Y-137742857D01*
X91138571Y-137714285D01*
X91167142Y-137657142D01*
X91195714Y-137542857D01*
X91195714Y-137400000D01*
X91167142Y-137285714D01*
X91138571Y-137228571D01*
X91110000Y-137200000D01*
X91052857Y-137171428D01*
X92671428Y-131971428D02*
X92671428Y-131371428D01*
X92442857Y-131371428D01*
X92385714Y-131400000D01*
X92357142Y-131428571D01*
X92328571Y-131485714D01*
X92328571Y-131571428D01*
X92357142Y-131628571D01*
X92385714Y-131657142D01*
X92442857Y-131685714D01*
X92671428Y-131685714D01*
X91728571Y-131971428D02*
X91928571Y-131685714D01*
X92071428Y-131971428D02*
X92071428Y-131371428D01*
X91842857Y-131371428D01*
X91785714Y-131400000D01*
X91757142Y-131428571D01*
X91728571Y-131485714D01*
X91728571Y-131571428D01*
X91757142Y-131628571D01*
X91785714Y-131657142D01*
X91842857Y-131685714D01*
X92071428Y-131685714D01*
X91357142Y-131371428D02*
X91242857Y-131371428D01*
X91185714Y-131400000D01*
X91128571Y-131457142D01*
X91100000Y-131571428D01*
X91100000Y-131771428D01*
X91128571Y-131885714D01*
X91185714Y-131942857D01*
X91242857Y-131971428D01*
X91357142Y-131971428D01*
X91414285Y-131942857D01*
X91471428Y-131885714D01*
X91500000Y-131771428D01*
X91500000Y-131571428D01*
X91471428Y-131457142D01*
X91414285Y-131400000D01*
X91357142Y-131371428D01*
X90528571Y-131400000D02*
X90585714Y-131371428D01*
X90671428Y-131371428D01*
X90757142Y-131400000D01*
X90814285Y-131457142D01*
X90842857Y-131514285D01*
X90871428Y-131628571D01*
X90871428Y-131714285D01*
X90842857Y-131828571D01*
X90814285Y-131885714D01*
X90757142Y-131942857D01*
X90671428Y-131971428D01*
X90614285Y-131971428D01*
X90528571Y-131942857D01*
X90500000Y-131914285D01*
X90500000Y-131714285D01*
X90614285Y-131714285D01*
X110786971Y-137406857D02*
X110701257Y-137435428D01*
X110558400Y-137435428D01*
X110501257Y-137406857D01*
X110472685Y-137378285D01*
X110444114Y-137321142D01*
X110444114Y-137264000D01*
X110472685Y-137206857D01*
X110501257Y-137178285D01*
X110558400Y-137149714D01*
X110672685Y-137121142D01*
X110729828Y-137092571D01*
X110758400Y-137064000D01*
X110786971Y-137006857D01*
X110786971Y-136949714D01*
X110758400Y-136892571D01*
X110729828Y-136864000D01*
X110672685Y-136835428D01*
X110529828Y-136835428D01*
X110444114Y-136864000D01*
X110186971Y-137435428D02*
X110186971Y-136835428D01*
X110044114Y-136835428D01*
X109958400Y-136864000D01*
X109901257Y-136921142D01*
X109872685Y-136978285D01*
X109844114Y-137092571D01*
X109844114Y-137178285D01*
X109872685Y-137292571D01*
X109901257Y-137349714D01*
X109958400Y-137406857D01*
X110044114Y-137435428D01*
X110186971Y-137435428D01*
X109615542Y-137264000D02*
X109329828Y-137264000D01*
X109672685Y-137435428D02*
X109472685Y-136835428D01*
X109272685Y-137435428D01*
X116071428Y-137471428D02*
X116071428Y-136871428D01*
X115728571Y-137471428D01*
X115728571Y-136871428D01*
X115442857Y-136871428D02*
X115442857Y-137357142D01*
X115414285Y-137414285D01*
X115385714Y-137442857D01*
X115328571Y-137471428D01*
X115214285Y-137471428D01*
X115157142Y-137442857D01*
X115128571Y-137414285D01*
X115100000Y-137357142D01*
X115100000Y-136871428D01*
X114528571Y-137471428D02*
X114814285Y-137471428D01*
X114814285Y-136871428D01*
X114042857Y-137471428D02*
X114328571Y-137471428D01*
X114328571Y-136871428D01*
X108076942Y-136885400D02*
X108134085Y-136856828D01*
X108219800Y-136856828D01*
X108305514Y-136885400D01*
X108362657Y-136942542D01*
X108391228Y-136999685D01*
X108419800Y-137113971D01*
X108419800Y-137199685D01*
X108391228Y-137313971D01*
X108362657Y-137371114D01*
X108305514Y-137428257D01*
X108219800Y-137456828D01*
X108162657Y-137456828D01*
X108076942Y-137428257D01*
X108048371Y-137399685D01*
X108048371Y-137199685D01*
X108162657Y-137199685D01*
X107791228Y-137456828D02*
X107791228Y-136856828D01*
X107448371Y-137456828D01*
X107448371Y-136856828D01*
X107162657Y-137456828D02*
X107162657Y-136856828D01*
X107019800Y-136856828D01*
X106934085Y-136885400D01*
X106876942Y-136942542D01*
X106848371Y-136999685D01*
X106819800Y-137113971D01*
X106819800Y-137199685D01*
X106848371Y-137313971D01*
X106876942Y-137371114D01*
X106934085Y-137428257D01*
X107019800Y-137456828D01*
X107162657Y-137456828D01*
X87742857Y-137492857D02*
X87285714Y-137492857D01*
X87514285Y-137721428D02*
X87514285Y-137264285D01*
X87057142Y-137121428D02*
X86685714Y-137121428D01*
X86885714Y-137350000D01*
X86800000Y-137350000D01*
X86742857Y-137378571D01*
X86714285Y-137407142D01*
X86685714Y-137464285D01*
X86685714Y-137607142D01*
X86714285Y-137664285D01*
X86742857Y-137692857D01*
X86800000Y-137721428D01*
X86971428Y-137721428D01*
X87028571Y-137692857D01*
X87057142Y-137664285D01*
X86428571Y-137664285D02*
X86400000Y-137692857D01*
X86428571Y-137721428D01*
X86457142Y-137692857D01*
X86428571Y-137664285D01*
X86428571Y-137721428D01*
X86200000Y-137121428D02*
X85828571Y-137121428D01*
X86028571Y-137350000D01*
X85942857Y-137350000D01*
X85885714Y-137378571D01*
X85857142Y-137407142D01*
X85828571Y-137464285D01*
X85828571Y-137607142D01*
X85857142Y-137664285D01*
X85885714Y-137692857D01*
X85942857Y-137721428D01*
X86114285Y-137721428D01*
X86171428Y-137692857D01*
X86200000Y-137664285D01*
X94757142Y-137100000D02*
X94814285Y-137071428D01*
X94900000Y-137071428D01*
X94985714Y-137100000D01*
X95042857Y-137157142D01*
X95071428Y-137214285D01*
X95100000Y-137328571D01*
X95100000Y-137414285D01*
X95071428Y-137528571D01*
X95042857Y-137585714D01*
X94985714Y-137642857D01*
X94900000Y-137671428D01*
X94842857Y-137671428D01*
X94757142Y-137642857D01*
X94728571Y-137614285D01*
X94728571Y-137414285D01*
X94842857Y-137414285D01*
X94471428Y-137671428D02*
X94471428Y-137071428D01*
X94128571Y-137671428D01*
X94128571Y-137071428D01*
X93842857Y-137671428D02*
X93842857Y-137071428D01*
X93700000Y-137071428D01*
X93614285Y-137100000D01*
X93557142Y-137157142D01*
X93528571Y-137214285D01*
X93500000Y-137328571D01*
X93500000Y-137414285D01*
X93528571Y-137528571D01*
X93557142Y-137585714D01*
X93614285Y-137642857D01*
X93700000Y-137671428D01*
X93842857Y-137671428D01*
X89942857Y-137171428D02*
X89600000Y-137171428D01*
X89771428Y-137771428D02*
X89771428Y-137171428D01*
X89457142Y-137171428D02*
X89057142Y-137771428D01*
X89057142Y-137171428D02*
X89457142Y-137771428D01*
X88714285Y-137171428D02*
X88657142Y-137171428D01*
X88600000Y-137200000D01*
X88571428Y-137228571D01*
X88542857Y-137285714D01*
X88514285Y-137400000D01*
X88514285Y-137542857D01*
X88542857Y-137657142D01*
X88571428Y-137714285D01*
X88600000Y-137742857D01*
X88657142Y-137771428D01*
X88714285Y-137771428D01*
X88771428Y-137742857D01*
X88800000Y-137714285D01*
X88828571Y-137657142D01*
X88857142Y-137542857D01*
X88857142Y-137400000D01*
X88828571Y-137285714D01*
X88800000Y-137228571D01*
X88771428Y-137200000D01*
X88714285Y-137171428D01*
X94657142Y-131400000D02*
X94714285Y-131371428D01*
X94800000Y-131371428D01*
X94885714Y-131400000D01*
X94942857Y-131457142D01*
X94971428Y-131514285D01*
X95000000Y-131628571D01*
X95000000Y-131714285D01*
X94971428Y-131828571D01*
X94942857Y-131885714D01*
X94885714Y-131942857D01*
X94800000Y-131971428D01*
X94742857Y-131971428D01*
X94657142Y-131942857D01*
X94628571Y-131914285D01*
X94628571Y-131714285D01*
X94742857Y-131714285D01*
X94371428Y-131971428D02*
X94371428Y-131371428D01*
X94028571Y-131971428D01*
X94028571Y-131371428D01*
X93742857Y-131971428D02*
X93742857Y-131371428D01*
X93600000Y-131371428D01*
X93514285Y-131400000D01*
X93457142Y-131457142D01*
X93428571Y-131514285D01*
X93400000Y-131628571D01*
X93400000Y-131714285D01*
X93428571Y-131828571D01*
X93457142Y-131885714D01*
X93514285Y-131942857D01*
X93600000Y-131971428D01*
X93742857Y-131971428D01*
X141000000Y-131964285D02*
X141028571Y-131992857D01*
X141114285Y-132021428D01*
X141171428Y-132021428D01*
X141257142Y-131992857D01*
X141314285Y-131935714D01*
X141342857Y-131878571D01*
X141371428Y-131764285D01*
X141371428Y-131678571D01*
X141342857Y-131564285D01*
X141314285Y-131507142D01*
X141257142Y-131450000D01*
X141171428Y-131421428D01*
X141114285Y-131421428D01*
X141028571Y-131450000D01*
X141000000Y-131478571D01*
X140771428Y-131992857D02*
X140685714Y-132021428D01*
X140542857Y-132021428D01*
X140485714Y-131992857D01*
X140457142Y-131964285D01*
X140428571Y-131907142D01*
X140428571Y-131850000D01*
X140457142Y-131792857D01*
X140485714Y-131764285D01*
X140542857Y-131735714D01*
X140657142Y-131707142D01*
X140714285Y-131678571D01*
X140742857Y-131650000D01*
X140771428Y-131592857D01*
X140771428Y-131535714D01*
X140742857Y-131478571D01*
X140714285Y-131450000D01*
X140657142Y-131421428D01*
X140514285Y-131421428D01*
X140428571Y-131450000D01*
X138657142Y-131864285D02*
X138685714Y-131892857D01*
X138771428Y-131921428D01*
X138828571Y-131921428D01*
X138914285Y-131892857D01*
X138971428Y-131835714D01*
X139000000Y-131778571D01*
X139028571Y-131664285D01*
X139028571Y-131578571D01*
X139000000Y-131464285D01*
X138971428Y-131407142D01*
X138914285Y-131350000D01*
X138828571Y-131321428D01*
X138771428Y-131321428D01*
X138685714Y-131350000D01*
X138657142Y-131378571D01*
X138114285Y-131921428D02*
X138400000Y-131921428D01*
X138400000Y-131321428D01*
X137914285Y-131921428D02*
X137914285Y-131321428D01*
X137571428Y-131921428D02*
X137828571Y-131578571D01*
X137571428Y-131321428D02*
X137914285Y-131664285D01*
X136642857Y-131921428D02*
X136642857Y-131321428D01*
X136442857Y-131750000D01*
X136242857Y-131321428D01*
X136242857Y-131921428D01*
X135957142Y-131921428D02*
X135957142Y-131321428D01*
X135700000Y-131892857D02*
X135614285Y-131921428D01*
X135471428Y-131921428D01*
X135414285Y-131892857D01*
X135385714Y-131864285D01*
X135357142Y-131807142D01*
X135357142Y-131750000D01*
X135385714Y-131692857D01*
X135414285Y-131664285D01*
X135471428Y-131635714D01*
X135585714Y-131607142D01*
X135642857Y-131578571D01*
X135671428Y-131550000D01*
X135700000Y-131492857D01*
X135700000Y-131435714D01*
X135671428Y-131378571D01*
X135642857Y-131350000D01*
X135585714Y-131321428D01*
X135442857Y-131321428D01*
X135357142Y-131350000D01*
X134985714Y-131321428D02*
X134871428Y-131321428D01*
X134814285Y-131350000D01*
X134757142Y-131407142D01*
X134728571Y-131521428D01*
X134728571Y-131721428D01*
X134757142Y-131835714D01*
X134814285Y-131892857D01*
X134871428Y-131921428D01*
X134985714Y-131921428D01*
X135042857Y-131892857D01*
X135100000Y-131835714D01*
X135128571Y-131721428D01*
X135128571Y-131521428D01*
X135100000Y-131407142D01*
X135042857Y-131350000D01*
X134985714Y-131321428D01*
X133942857Y-131921428D02*
X133942857Y-131321428D01*
X133742857Y-131750000D01*
X133542857Y-131321428D01*
X133542857Y-131921428D01*
X133142857Y-131321428D02*
X133028571Y-131321428D01*
X132971428Y-131350000D01*
X132914285Y-131407142D01*
X132885714Y-131521428D01*
X132885714Y-131721428D01*
X132914285Y-131835714D01*
X132971428Y-131892857D01*
X133028571Y-131921428D01*
X133142857Y-131921428D01*
X133200000Y-131892857D01*
X133257142Y-131835714D01*
X133285714Y-131721428D01*
X133285714Y-131521428D01*
X133257142Y-131407142D01*
X133200000Y-131350000D01*
X133142857Y-131321428D01*
X132657142Y-131892857D02*
X132571428Y-131921428D01*
X132428571Y-131921428D01*
X132371428Y-131892857D01*
X132342857Y-131864285D01*
X132314285Y-131807142D01*
X132314285Y-131750000D01*
X132342857Y-131692857D01*
X132371428Y-131664285D01*
X132428571Y-131635714D01*
X132542857Y-131607142D01*
X132600000Y-131578571D01*
X132628571Y-131550000D01*
X132657142Y-131492857D01*
X132657142Y-131435714D01*
X132628571Y-131378571D01*
X132600000Y-131350000D01*
X132542857Y-131321428D01*
X132400000Y-131321428D01*
X132314285Y-131350000D01*
X132057142Y-131921428D02*
X132057142Y-131321428D01*
X113414285Y-133342857D02*
X113328571Y-133371428D01*
X113185714Y-133371428D01*
X113128571Y-133342857D01*
X113100000Y-133314285D01*
X113071428Y-133257142D01*
X113071428Y-133200000D01*
X113100000Y-133142857D01*
X113128571Y-133114285D01*
X113185714Y-133085714D01*
X113300000Y-133057142D01*
X113357142Y-133028571D01*
X113385714Y-133000000D01*
X113414285Y-132942857D01*
X113414285Y-132885714D01*
X113385714Y-132828571D01*
X113357142Y-132800000D01*
X113300000Y-132771428D01*
X113157142Y-132771428D01*
X113071428Y-132800000D01*
X112471428Y-133314285D02*
X112500000Y-133342857D01*
X112585714Y-133371428D01*
X112642857Y-133371428D01*
X112728571Y-133342857D01*
X112785714Y-133285714D01*
X112814285Y-133228571D01*
X112842857Y-133114285D01*
X112842857Y-133028571D01*
X112814285Y-132914285D01*
X112785714Y-132857142D01*
X112728571Y-132800000D01*
X112642857Y-132771428D01*
X112585714Y-132771428D01*
X112500000Y-132800000D01*
X112471428Y-132828571D01*
X111928571Y-133371428D02*
X112214285Y-133371428D01*
X112214285Y-132771428D01*
X118200000Y-133414285D02*
X118228571Y-133442857D01*
X118314285Y-133471428D01*
X118371428Y-133471428D01*
X118457142Y-133442857D01*
X118514285Y-133385714D01*
X118542857Y-133328571D01*
X118571428Y-133214285D01*
X118571428Y-133128571D01*
X118542857Y-133014285D01*
X118514285Y-132957142D01*
X118457142Y-132900000D01*
X118371428Y-132871428D01*
X118314285Y-132871428D01*
X118228571Y-132900000D01*
X118200000Y-132928571D01*
X117942857Y-133071428D02*
X117942857Y-133471428D01*
X117942857Y-133128571D02*
X117914285Y-133100000D01*
X117857142Y-133071428D01*
X117771428Y-133071428D01*
X117714285Y-133100000D01*
X117685714Y-133157142D01*
X117685714Y-133471428D01*
X117485714Y-133071428D02*
X117257142Y-133071428D01*
X117400000Y-132871428D02*
X117400000Y-133385714D01*
X117371428Y-133442857D01*
X117314285Y-133471428D01*
X117257142Y-133471428D01*
X117057142Y-133471428D02*
X117057142Y-133071428D01*
X117057142Y-133185714D02*
X117028571Y-133128571D01*
X117000000Y-133100000D01*
X116942857Y-133071428D01*
X116885714Y-133071428D01*
X116600000Y-133471428D02*
X116657142Y-133442857D01*
X116685714Y-133385714D01*
X116685714Y-132871428D01*
X121313457Y-137355257D02*
X120856314Y-137355257D01*
X121084885Y-137583828D02*
X121084885Y-137126685D01*
X120627742Y-136983828D02*
X120256314Y-136983828D01*
X120456314Y-137212400D01*
X120370600Y-137212400D01*
X120313457Y-137240971D01*
X120284885Y-137269542D01*
X120256314Y-137326685D01*
X120256314Y-137469542D01*
X120284885Y-137526685D01*
X120313457Y-137555257D01*
X120370600Y-137583828D01*
X120542028Y-137583828D01*
X120599171Y-137555257D01*
X120627742Y-137526685D01*
X119999171Y-137526685D02*
X119970600Y-137555257D01*
X119999171Y-137583828D01*
X120027742Y-137555257D01*
X119999171Y-137526685D01*
X119999171Y-137583828D01*
X119770600Y-136983828D02*
X119399171Y-136983828D01*
X119599171Y-137212400D01*
X119513457Y-137212400D01*
X119456314Y-137240971D01*
X119427742Y-137269542D01*
X119399171Y-137326685D01*
X119399171Y-137469542D01*
X119427742Y-137526685D01*
X119456314Y-137555257D01*
X119513457Y-137583828D01*
X119684885Y-137583828D01*
X119742028Y-137555257D01*
X119770600Y-137526685D01*
X142000000Y-135050000D02*
X131800000Y-135050000D01*
X142000000Y-132350000D02*
X142000000Y-135050000D01*
X131800000Y-132350000D02*
X142000000Y-132350000D01*
X131800000Y-132450000D02*
X131800000Y-132350000D01*
X131800000Y-135050000D02*
X131800000Y-132450000D01*
X121500000Y-136500000D02*
X108700000Y-136500000D01*
X121500000Y-133800000D02*
X121500000Y-136500000D01*
X108700000Y-133800000D02*
X121500000Y-133800000D01*
X108700000Y-136500000D02*
X108700000Y-133800000D01*
X85600000Y-134550000D02*
X85400000Y-134550000D01*
D11*
%TO.C,U22*%
X187397900Y-116546840D02*
X187397900Y-117806840D01*
X187397900Y-123366840D02*
X187397900Y-122106840D01*
X183637900Y-116546840D02*
X187397900Y-116546840D01*
X181387900Y-123366840D02*
X187397900Y-123366840D01*
%TO.C,J16*%
X121530000Y-136480000D02*
X121530000Y-135150000D01*
X120200000Y-136480000D02*
X121530000Y-136480000D01*
X118930000Y-136480000D02*
X118930000Y-133820000D01*
X118930000Y-133820000D02*
X106170000Y-133820000D01*
X118930000Y-136480000D02*
X106170000Y-136480000D01*
X106170000Y-136480000D02*
X106170000Y-133820000D01*
%TO.C,C11*%
X173823300Y-124544188D02*
X173823300Y-125066692D01*
X172353300Y-124544188D02*
X172353300Y-125066692D01*
%TO.C,R8*%
X187975642Y-113144340D02*
X188450158Y-113144340D01*
X187975642Y-114189340D02*
X188450158Y-114189340D01*
%TO.C,D7*%
X199547900Y-112066840D02*
X199547900Y-114516840D01*
X196327900Y-113866840D02*
X196327900Y-112066840D01*
%TO.C,Q1*%
X159737900Y-97126840D02*
X175877900Y-97126840D01*
X159737900Y-118316840D02*
X175877900Y-118316840D01*
X159737900Y-118316840D02*
X159737900Y-97126840D01*
X175877900Y-118316840D02*
X175877900Y-97126840D01*
X162357900Y-97126840D02*
X162357900Y-94566840D01*
X167807900Y-97126840D02*
X167807900Y-94566840D01*
X173257900Y-97126840D02*
X173257900Y-94566840D01*
%TO.C,D4*%
X187137900Y-106666840D02*
X187137900Y-104816840D01*
X185937900Y-106666840D02*
X185937900Y-104816840D01*
X185937900Y-104816840D02*
X187137900Y-104816840D01*
%TO.C,U4*%
X194787900Y-118476840D02*
X198837900Y-118476840D01*
X194787900Y-118476840D02*
X192512900Y-118476840D01*
X194787900Y-122396840D02*
X197062900Y-122396840D01*
X194787900Y-122396840D02*
X192512900Y-122396840D01*
%TO.C,D1*%
X185777900Y-112096840D02*
X187237900Y-112096840D01*
X185777900Y-108936840D02*
X187937900Y-108936840D01*
X185777900Y-108936840D02*
X185777900Y-109866840D01*
X185777900Y-112096840D02*
X185777900Y-111166840D01*
%TO.C,C1*%
X193819152Y-101131840D02*
X193296648Y-101131840D01*
X193819152Y-102601840D02*
X193296648Y-102601840D01*
%TO.C,R7*%
X193564964Y-96406840D02*
X189210836Y-96406840D01*
X193564964Y-99826840D02*
X189210836Y-99826840D01*
%TO.C,R4*%
X183515400Y-105079098D02*
X183515400Y-104604582D01*
X184560400Y-105079098D02*
X184560400Y-104604582D01*
%TO.C,Q3*%
X197297900Y-103586840D02*
X195837900Y-103586840D01*
X197297900Y-106746840D02*
X195137900Y-106746840D01*
X197297900Y-106746840D02*
X197297900Y-105816840D01*
X197297900Y-103586840D02*
X197297900Y-104516840D01*
%TO.C,D2*%
X194117900Y-115426840D02*
X194117900Y-113966840D01*
X190957900Y-115426840D02*
X190957900Y-113266840D01*
X190957900Y-115426840D02*
X191887900Y-115426840D01*
X194117900Y-115426840D02*
X193187900Y-115426840D01*
%TO.C,R6*%
X182015400Y-112329098D02*
X182015400Y-111854582D01*
X183060400Y-112329098D02*
X183060400Y-111854582D01*
%TO.C,D3*%
X194117900Y-110426840D02*
X194117900Y-108966840D01*
X190957900Y-110426840D02*
X190957900Y-108266840D01*
X190957900Y-110426840D02*
X191887900Y-110426840D01*
X194117900Y-110426840D02*
X193187900Y-110426840D01*
%TO.C,C2*%
X189826648Y-106901840D02*
X190349152Y-106901840D01*
X189826648Y-105431840D02*
X190349152Y-105431840D01*
%TO.C,R10*%
X188864964Y-101306840D02*
X187410836Y-101306840D01*
X188864964Y-103126840D02*
X187410836Y-103126840D01*
%TO.C,J22*%
X142070000Y-132570000D02*
X142070000Y-135230000D01*
X134390000Y-132570000D02*
X142070000Y-132570000D01*
X134390000Y-135230000D02*
X142070000Y-135230000D01*
X134390000Y-132570000D02*
X134390000Y-135230000D01*
X133120000Y-132570000D02*
X131790000Y-132570000D01*
X131790000Y-132570000D02*
X131790000Y-133900000D01*
%TO.C,U2*%
X121485000Y-93280000D02*
X122265000Y-93280000D01*
X122265000Y-93280000D02*
X122265000Y-94280000D01*
X121485000Y-111520000D02*
X122265000Y-111520000D01*
X122265000Y-111520000D02*
X122265000Y-110520000D01*
X96520000Y-93280000D02*
X96520000Y-111520000D01*
X96520000Y-111520000D02*
X102940000Y-111520000D01*
X96520000Y-93280000D02*
X102940000Y-93280000D01*
X102940000Y-93280000D02*
X102940000Y-92900000D01*
%TO.C,R5*%
X124812258Y-113777500D02*
X124337742Y-113777500D01*
X124812258Y-114822500D02*
X124337742Y-114822500D01*
%TO.C,R1*%
X109991855Y-82841723D02*
X111020079Y-81813499D01*
X108704921Y-81554789D02*
X109733145Y-80526565D01*
%TO.C,C4*%
X90640000Y-83463748D02*
X90640000Y-84886252D01*
X93360000Y-83463748D02*
X93360000Y-84886252D01*
%TO.C,R2*%
X97969718Y-83509165D02*
X98290835Y-83830282D01*
X99009165Y-82469718D02*
X99330282Y-82790835D01*
%TO.C,U22*%
D10*
X186725995Y-123909220D02*
X186725995Y-124718744D01*
X186678376Y-124813982D01*
X186630757Y-124861601D01*
X186535519Y-124909220D01*
X186345042Y-124909220D01*
X186249804Y-124861601D01*
X186202185Y-124813982D01*
X186154566Y-124718744D01*
X186154566Y-123909220D01*
X185725995Y-124004459D02*
X185678376Y-123956840D01*
X185583138Y-123909220D01*
X185345042Y-123909220D01*
X185249804Y-123956840D01*
X185202185Y-124004459D01*
X185154566Y-124099697D01*
X185154566Y-124194935D01*
X185202185Y-124337792D01*
X185773614Y-124909220D01*
X185154566Y-124909220D01*
X184773614Y-124004459D02*
X184725995Y-123956840D01*
X184630757Y-123909220D01*
X184392661Y-123909220D01*
X184297423Y-123956840D01*
X184249804Y-124004459D01*
X184202185Y-124099697D01*
X184202185Y-124194935D01*
X184249804Y-124337792D01*
X184821233Y-124909220D01*
X184202185Y-124909220D01*
%TO.C,J16*%
X121982380Y-134340476D02*
X122696666Y-134340476D01*
X122839523Y-134292857D01*
X122934761Y-134197619D01*
X122982380Y-134054761D01*
X122982380Y-133959523D01*
X122982380Y-135340476D02*
X122982380Y-134769047D01*
X122982380Y-135054761D02*
X121982380Y-135054761D01*
X122125238Y-134959523D01*
X122220476Y-134864285D01*
X122268095Y-134769047D01*
X121982380Y-136197619D02*
X121982380Y-136007142D01*
X122030000Y-135911904D01*
X122077619Y-135864285D01*
X122220476Y-135769047D01*
X122410952Y-135721428D01*
X122791904Y-135721428D01*
X122887142Y-135769047D01*
X122934761Y-135816666D01*
X122982380Y-135911904D01*
X122982380Y-136102380D01*
X122934761Y-136197619D01*
X122887142Y-136245238D01*
X122791904Y-136292857D01*
X122553809Y-136292857D01*
X122458571Y-136245238D01*
X122410952Y-136197619D01*
X122363333Y-136102380D01*
X122363333Y-135911904D01*
X122410952Y-135816666D01*
X122458571Y-135769047D01*
X122553809Y-135721428D01*
%TO.C,C11*%
X175245442Y-124097582D02*
X175293061Y-124049963D01*
X175340680Y-123907106D01*
X175340680Y-123811868D01*
X175293061Y-123669011D01*
X175197823Y-123573773D01*
X175102585Y-123526154D01*
X174912109Y-123478535D01*
X174769252Y-123478535D01*
X174578776Y-123526154D01*
X174483538Y-123573773D01*
X174388300Y-123669011D01*
X174340680Y-123811868D01*
X174340680Y-123907106D01*
X174388300Y-124049963D01*
X174435919Y-124097582D01*
X175340680Y-125049963D02*
X175340680Y-124478535D01*
X175340680Y-124764249D02*
X174340680Y-124764249D01*
X174483538Y-124669011D01*
X174578776Y-124573773D01*
X174626395Y-124478535D01*
X175340680Y-126002344D02*
X175340680Y-125430916D01*
X175340680Y-125716630D02*
X174340680Y-125716630D01*
X174483538Y-125621392D01*
X174578776Y-125526154D01*
X174626395Y-125430916D01*
%TO.C,R8*%
X188379566Y-115549220D02*
X188712900Y-115073030D01*
X188950995Y-115549220D02*
X188950995Y-114549220D01*
X188570042Y-114549220D01*
X188474804Y-114596840D01*
X188427185Y-114644459D01*
X188379566Y-114739697D01*
X188379566Y-114882554D01*
X188427185Y-114977792D01*
X188474804Y-115025411D01*
X188570042Y-115073030D01*
X188950995Y-115073030D01*
X187808138Y-114977792D02*
X187903376Y-114930173D01*
X187950995Y-114882554D01*
X187998614Y-114787316D01*
X187998614Y-114739697D01*
X187950995Y-114644459D01*
X187903376Y-114596840D01*
X187808138Y-114549220D01*
X187617661Y-114549220D01*
X187522423Y-114596840D01*
X187474804Y-114644459D01*
X187427185Y-114739697D01*
X187427185Y-114787316D01*
X187474804Y-114882554D01*
X187522423Y-114930173D01*
X187617661Y-114977792D01*
X187808138Y-114977792D01*
X187903376Y-115025411D01*
X187950995Y-115073030D01*
X187998614Y-115168268D01*
X187998614Y-115358744D01*
X187950995Y-115453982D01*
X187903376Y-115501601D01*
X187808138Y-115549220D01*
X187617661Y-115549220D01*
X187522423Y-115501601D01*
X187474804Y-115453982D01*
X187427185Y-115358744D01*
X187427185Y-115168268D01*
X187474804Y-115073030D01*
X187522423Y-115025411D01*
X187617661Y-114977792D01*
%TO.C,D7*%
X201140280Y-112128744D02*
X200140280Y-112128744D01*
X200140280Y-112366840D01*
X200187900Y-112509697D01*
X200283138Y-112604935D01*
X200378376Y-112652554D01*
X200568852Y-112700173D01*
X200711709Y-112700173D01*
X200902185Y-112652554D01*
X200997423Y-112604935D01*
X201092661Y-112509697D01*
X201140280Y-112366840D01*
X201140280Y-112128744D01*
X200140280Y-113033506D02*
X200140280Y-113700173D01*
X201140280Y-113271601D01*
%TO.C,Q1*%
X167903138Y-119864459D02*
X167998376Y-119816840D01*
X168093614Y-119721601D01*
X168236471Y-119578744D01*
X168331709Y-119531125D01*
X168426947Y-119531125D01*
X168379328Y-119769220D02*
X168474566Y-119721601D01*
X168569804Y-119626363D01*
X168617423Y-119435887D01*
X168617423Y-119102554D01*
X168569804Y-118912078D01*
X168474566Y-118816840D01*
X168379328Y-118769220D01*
X168188852Y-118769220D01*
X168093614Y-118816840D01*
X167998376Y-118912078D01*
X167950757Y-119102554D01*
X167950757Y-119435887D01*
X167998376Y-119626363D01*
X168093614Y-119721601D01*
X168188852Y-119769220D01*
X168379328Y-119769220D01*
X166998376Y-119769220D02*
X167569804Y-119769220D01*
X167284090Y-119769220D02*
X167284090Y-118769220D01*
X167379328Y-118912078D01*
X167474566Y-119007316D01*
X167569804Y-119054935D01*
%TO.C,D4*%
X188240280Y-105478744D02*
X187240280Y-105478744D01*
X187240280Y-105716840D01*
X187287900Y-105859697D01*
X187383138Y-105954935D01*
X187478376Y-106002554D01*
X187668852Y-106050173D01*
X187811709Y-106050173D01*
X188002185Y-106002554D01*
X188097423Y-105954935D01*
X188192661Y-105859697D01*
X188240280Y-105716840D01*
X188240280Y-105478744D01*
X187573614Y-106907316D02*
X188240280Y-106907316D01*
X187192661Y-106669220D02*
X187906947Y-106431125D01*
X187906947Y-107050173D01*
%TO.C,U4*%
X195549804Y-117089220D02*
X195549804Y-117898744D01*
X195502185Y-117993982D01*
X195454566Y-118041601D01*
X195359328Y-118089220D01*
X195168852Y-118089220D01*
X195073614Y-118041601D01*
X195025995Y-117993982D01*
X194978376Y-117898744D01*
X194978376Y-117089220D01*
X194073614Y-117422554D02*
X194073614Y-118089220D01*
X194311709Y-117041601D02*
X194549804Y-117755887D01*
X193930757Y-117755887D01*
%TO.C,D1*%
X187275995Y-108469220D02*
X187275995Y-107469220D01*
X187037900Y-107469220D01*
X186895042Y-107516840D01*
X186799804Y-107612078D01*
X186752185Y-107707316D01*
X186704566Y-107897792D01*
X186704566Y-108040649D01*
X186752185Y-108231125D01*
X186799804Y-108326363D01*
X186895042Y-108421601D01*
X187037900Y-108469220D01*
X187275995Y-108469220D01*
X185752185Y-108469220D02*
X186323614Y-108469220D01*
X186037900Y-108469220D02*
X186037900Y-107469220D01*
X186133138Y-107612078D01*
X186228376Y-107707316D01*
X186323614Y-107754935D01*
%TO.C,C1*%
X193654566Y-103773982D02*
X193702185Y-103821601D01*
X193845042Y-103869220D01*
X193940280Y-103869220D01*
X194083138Y-103821601D01*
X194178376Y-103726363D01*
X194225995Y-103631125D01*
X194273614Y-103440649D01*
X194273614Y-103297792D01*
X194225995Y-103107316D01*
X194178376Y-103012078D01*
X194083138Y-102916840D01*
X193940280Y-102869220D01*
X193845042Y-102869220D01*
X193702185Y-102916840D01*
X193654566Y-102964459D01*
X192702185Y-103869220D02*
X193273614Y-103869220D01*
X192987900Y-103869220D02*
X192987900Y-102869220D01*
X193083138Y-103012078D01*
X193178376Y-103107316D01*
X193273614Y-103154935D01*
%TO.C,R7*%
X190854566Y-96269220D02*
X191187900Y-95793030D01*
X191425995Y-96269220D02*
X191425995Y-95269220D01*
X191045042Y-95269220D01*
X190949804Y-95316840D01*
X190902185Y-95364459D01*
X190854566Y-95459697D01*
X190854566Y-95602554D01*
X190902185Y-95697792D01*
X190949804Y-95745411D01*
X191045042Y-95793030D01*
X191425995Y-95793030D01*
X190521233Y-95269220D02*
X189854566Y-95269220D01*
X190283138Y-96269220D01*
%TO.C,R4*%
X183140280Y-104750173D02*
X182664090Y-104416840D01*
X183140280Y-104178744D02*
X182140280Y-104178744D01*
X182140280Y-104559697D01*
X182187900Y-104654935D01*
X182235519Y-104702554D01*
X182330757Y-104750173D01*
X182473614Y-104750173D01*
X182568852Y-104702554D01*
X182616471Y-104654935D01*
X182664090Y-104559697D01*
X182664090Y-104178744D01*
X182473614Y-105607316D02*
X183140280Y-105607316D01*
X182092661Y-105369220D02*
X182806947Y-105131125D01*
X182806947Y-105750173D01*
%TO.C,Q3*%
X196633138Y-108214459D02*
X196728376Y-108166840D01*
X196823614Y-108071601D01*
X196966471Y-107928744D01*
X197061709Y-107881125D01*
X197156947Y-107881125D01*
X197109328Y-108119220D02*
X197204566Y-108071601D01*
X197299804Y-107976363D01*
X197347423Y-107785887D01*
X197347423Y-107452554D01*
X197299804Y-107262078D01*
X197204566Y-107166840D01*
X197109328Y-107119220D01*
X196918852Y-107119220D01*
X196823614Y-107166840D01*
X196728376Y-107262078D01*
X196680757Y-107452554D01*
X196680757Y-107785887D01*
X196728376Y-107976363D01*
X196823614Y-108071601D01*
X196918852Y-108119220D01*
X197109328Y-108119220D01*
X196347423Y-107119220D02*
X195728376Y-107119220D01*
X196061709Y-107500173D01*
X195918852Y-107500173D01*
X195823614Y-107547792D01*
X195775995Y-107595411D01*
X195728376Y-107690649D01*
X195728376Y-107928744D01*
X195775995Y-108023982D01*
X195823614Y-108071601D01*
X195918852Y-108119220D01*
X196204566Y-108119220D01*
X196299804Y-108071601D01*
X196347423Y-108023982D01*
%TO.C,D2*%
X195490280Y-113928744D02*
X194490280Y-113928744D01*
X194490280Y-114166840D01*
X194537900Y-114309697D01*
X194633138Y-114404935D01*
X194728376Y-114452554D01*
X194918852Y-114500173D01*
X195061709Y-114500173D01*
X195252185Y-114452554D01*
X195347423Y-114404935D01*
X195442661Y-114309697D01*
X195490280Y-114166840D01*
X195490280Y-113928744D01*
X194585519Y-114881125D02*
X194537900Y-114928744D01*
X194490280Y-115023982D01*
X194490280Y-115262078D01*
X194537900Y-115357316D01*
X194585519Y-115404935D01*
X194680757Y-115452554D01*
X194775995Y-115452554D01*
X194918852Y-115404935D01*
X195490280Y-114833506D01*
X195490280Y-115452554D01*
%TO.C,R6*%
X184420280Y-111925173D02*
X183944090Y-111591840D01*
X184420280Y-111353744D02*
X183420280Y-111353744D01*
X183420280Y-111734697D01*
X183467900Y-111829935D01*
X183515519Y-111877554D01*
X183610757Y-111925173D01*
X183753614Y-111925173D01*
X183848852Y-111877554D01*
X183896471Y-111829935D01*
X183944090Y-111734697D01*
X183944090Y-111353744D01*
X183420280Y-112782316D02*
X183420280Y-112591840D01*
X183467900Y-112496601D01*
X183515519Y-112448982D01*
X183658376Y-112353744D01*
X183848852Y-112306125D01*
X184229804Y-112306125D01*
X184325042Y-112353744D01*
X184372661Y-112401363D01*
X184420280Y-112496601D01*
X184420280Y-112687078D01*
X184372661Y-112782316D01*
X184325042Y-112829935D01*
X184229804Y-112877554D01*
X183991709Y-112877554D01*
X183896471Y-112829935D01*
X183848852Y-112782316D01*
X183801233Y-112687078D01*
X183801233Y-112496601D01*
X183848852Y-112401363D01*
X183896471Y-112353744D01*
X183991709Y-112306125D01*
%TO.C,D3*%
X190490280Y-108928744D02*
X189490280Y-108928744D01*
X189490280Y-109166840D01*
X189537900Y-109309697D01*
X189633138Y-109404935D01*
X189728376Y-109452554D01*
X189918852Y-109500173D01*
X190061709Y-109500173D01*
X190252185Y-109452554D01*
X190347423Y-109404935D01*
X190442661Y-109309697D01*
X190490280Y-109166840D01*
X190490280Y-108928744D01*
X189490280Y-109833506D02*
X189490280Y-110452554D01*
X189871233Y-110119220D01*
X189871233Y-110262078D01*
X189918852Y-110357316D01*
X189966471Y-110404935D01*
X190061709Y-110452554D01*
X190299804Y-110452554D01*
X190395042Y-110404935D01*
X190442661Y-110357316D01*
X190490280Y-110262078D01*
X190490280Y-109976363D01*
X190442661Y-109881125D01*
X190395042Y-109833506D01*
%TO.C,C2*%
X190254566Y-104973982D02*
X190302185Y-105021601D01*
X190445042Y-105069220D01*
X190540280Y-105069220D01*
X190683138Y-105021601D01*
X190778376Y-104926363D01*
X190825995Y-104831125D01*
X190873614Y-104640649D01*
X190873614Y-104497792D01*
X190825995Y-104307316D01*
X190778376Y-104212078D01*
X190683138Y-104116840D01*
X190540280Y-104069220D01*
X190445042Y-104069220D01*
X190302185Y-104116840D01*
X190254566Y-104164459D01*
X189873614Y-104164459D02*
X189825995Y-104116840D01*
X189730757Y-104069220D01*
X189492661Y-104069220D01*
X189397423Y-104116840D01*
X189349804Y-104164459D01*
X189302185Y-104259697D01*
X189302185Y-104354935D01*
X189349804Y-104497792D01*
X189921233Y-105069220D01*
X189302185Y-105069220D01*
%TO.C,R10*%
X188668257Y-101119220D02*
X189001590Y-100643030D01*
X189239685Y-101119220D02*
X189239685Y-100119220D01*
X188858733Y-100119220D01*
X188763495Y-100166840D01*
X188715876Y-100214459D01*
X188668257Y-100309697D01*
X188668257Y-100452554D01*
X188715876Y-100547792D01*
X188763495Y-100595411D01*
X188858733Y-100643030D01*
X189239685Y-100643030D01*
X187715876Y-101119220D02*
X188287304Y-101119220D01*
X188001590Y-101119220D02*
X188001590Y-100119220D01*
X188096828Y-100262078D01*
X188192066Y-100357316D01*
X188287304Y-100404935D01*
X187096828Y-100119220D02*
X187001590Y-100119220D01*
X186906352Y-100166840D01*
X186858733Y-100214459D01*
X186811114Y-100309697D01*
X186763495Y-100500173D01*
X186763495Y-100738268D01*
X186811114Y-100928744D01*
X186858733Y-101023982D01*
X186906352Y-101071601D01*
X187001590Y-101119220D01*
X187096828Y-101119220D01*
X187192066Y-101071601D01*
X187239685Y-101023982D01*
X187287304Y-100928744D01*
X187334923Y-100738268D01*
X187334923Y-100500173D01*
X187287304Y-100309697D01*
X187239685Y-100214459D01*
X187192066Y-100166840D01*
X187096828Y-100119220D01*
%TO.C,J22*%
X130452380Y-132940476D02*
X131166666Y-132940476D01*
X131309523Y-132892857D01*
X131404761Y-132797619D01*
X131452380Y-132654761D01*
X131452380Y-132559523D01*
X130547619Y-133369047D02*
X130500000Y-133416666D01*
X130452380Y-133511904D01*
X130452380Y-133750000D01*
X130500000Y-133845238D01*
X130547619Y-133892857D01*
X130642857Y-133940476D01*
X130738095Y-133940476D01*
X130880952Y-133892857D01*
X131452380Y-133321428D01*
X131452380Y-133940476D01*
X130547619Y-134321428D02*
X130500000Y-134369047D01*
X130452380Y-134464285D01*
X130452380Y-134702380D01*
X130500000Y-134797619D01*
X130547619Y-134845238D01*
X130642857Y-134892857D01*
X130738095Y-134892857D01*
X130880952Y-134845238D01*
X131452380Y-134273809D01*
X131452380Y-134892857D01*
%TO.C,RST1*%
X84614285Y-135121428D02*
X84814285Y-134835714D01*
X84957142Y-135121428D02*
X84957142Y-134521428D01*
X84728571Y-134521428D01*
X84671428Y-134550000D01*
X84642857Y-134578571D01*
X84614285Y-134635714D01*
X84614285Y-134721428D01*
X84642857Y-134778571D01*
X84671428Y-134807142D01*
X84728571Y-134835714D01*
X84957142Y-134835714D01*
X84385714Y-135092857D02*
X84300000Y-135121428D01*
X84157142Y-135121428D01*
X84100000Y-135092857D01*
X84071428Y-135064285D01*
X84042857Y-135007142D01*
X84042857Y-134950000D01*
X84071428Y-134892857D01*
X84100000Y-134864285D01*
X84157142Y-134835714D01*
X84271428Y-134807142D01*
X84328571Y-134778571D01*
X84357142Y-134750000D01*
X84385714Y-134692857D01*
X84385714Y-134635714D01*
X84357142Y-134578571D01*
X84328571Y-134550000D01*
X84271428Y-134521428D01*
X84128571Y-134521428D01*
X84042857Y-134550000D01*
X83871428Y-134521428D02*
X83528571Y-134521428D01*
X83700000Y-135121428D02*
X83700000Y-134521428D01*
X83014285Y-135121428D02*
X83357142Y-135121428D01*
X83185714Y-135121428D02*
X83185714Y-134521428D01*
X83242857Y-134607142D01*
X83300000Y-134664285D01*
X83357142Y-134692857D01*
%TO.C,U2*%
X100702380Y-91388095D02*
X101511904Y-91388095D01*
X101607142Y-91435714D01*
X101654761Y-91483333D01*
X101702380Y-91578571D01*
X101702380Y-91769047D01*
X101654761Y-91864285D01*
X101607142Y-91911904D01*
X101511904Y-91959523D01*
X100702380Y-91959523D01*
X100797619Y-92388095D02*
X100750000Y-92435714D01*
X100702380Y-92530952D01*
X100702380Y-92769047D01*
X100750000Y-92864285D01*
X100797619Y-92911904D01*
X100892857Y-92959523D01*
X100988095Y-92959523D01*
X101130952Y-92911904D01*
X101702380Y-92340476D01*
X101702380Y-92959523D01*
%TO.C,R5*%
X124741666Y-113322380D02*
X125075000Y-112846190D01*
X125313095Y-113322380D02*
X125313095Y-112322380D01*
X124932142Y-112322380D01*
X124836904Y-112370000D01*
X124789285Y-112417619D01*
X124741666Y-112512857D01*
X124741666Y-112655714D01*
X124789285Y-112750952D01*
X124836904Y-112798571D01*
X124932142Y-112846190D01*
X125313095Y-112846190D01*
X123836904Y-112322380D02*
X124313095Y-112322380D01*
X124360714Y-112798571D01*
X124313095Y-112750952D01*
X124217857Y-112703333D01*
X123979761Y-112703333D01*
X123884523Y-112750952D01*
X123836904Y-112798571D01*
X123789285Y-112893809D01*
X123789285Y-113131904D01*
X123836904Y-113227142D01*
X123884523Y-113274761D01*
X123979761Y-113322380D01*
X124217857Y-113322380D01*
X124313095Y-113274761D01*
X124360714Y-113227142D01*
%TO.C,R1*%
X109089312Y-80551510D02*
X108988297Y-79979090D01*
X109493373Y-80147449D02*
X108786267Y-79440342D01*
X108516892Y-79709716D01*
X108483221Y-79810731D01*
X108483221Y-79878075D01*
X108516892Y-79979090D01*
X108617908Y-80080105D01*
X108718923Y-80113777D01*
X108786267Y-80113777D01*
X108887282Y-80080105D01*
X109156656Y-79810731D01*
X108415877Y-81224945D02*
X108819938Y-80820884D01*
X108617908Y-81022915D02*
X107910801Y-80315808D01*
X108079160Y-80349480D01*
X108213847Y-80349480D01*
X108314862Y-80315808D01*
%TO.C,C4*%
X90057142Y-84008333D02*
X90104761Y-83960714D01*
X90152380Y-83817857D01*
X90152380Y-83722619D01*
X90104761Y-83579761D01*
X90009523Y-83484523D01*
X89914285Y-83436904D01*
X89723809Y-83389285D01*
X89580952Y-83389285D01*
X89390476Y-83436904D01*
X89295238Y-83484523D01*
X89200000Y-83579761D01*
X89152380Y-83722619D01*
X89152380Y-83817857D01*
X89200000Y-83960714D01*
X89247619Y-84008333D01*
X89485714Y-84865476D02*
X90152380Y-84865476D01*
X89104761Y-84627380D02*
X89819047Y-84389285D01*
X89819047Y-85008333D01*
%TO.C,R2*%
X97281243Y-84754458D02*
X97853663Y-84653443D01*
X97685304Y-85158519D02*
X98392411Y-84451413D01*
X98123037Y-84182038D01*
X98022022Y-84148367D01*
X97954678Y-84148367D01*
X97853663Y-84182038D01*
X97752648Y-84283054D01*
X97718976Y-84384069D01*
X97718976Y-84451413D01*
X97752648Y-84552428D01*
X98022022Y-84821802D01*
X97651632Y-83845321D02*
X97651632Y-83777977D01*
X97617961Y-83676962D01*
X97449602Y-83508603D01*
X97348586Y-83474932D01*
X97281243Y-83474932D01*
X97180228Y-83508603D01*
X97112884Y-83575947D01*
X97045541Y-83710634D01*
X97045541Y-84518756D01*
X96607808Y-84081023D01*
%TO.C,SD1*%
X146457142Y-120392857D02*
X146371428Y-120421428D01*
X146228571Y-120421428D01*
X146171428Y-120392857D01*
X146142857Y-120364285D01*
X146114285Y-120307142D01*
X146114285Y-120250000D01*
X146142857Y-120192857D01*
X146171428Y-120164285D01*
X146228571Y-120135714D01*
X146342857Y-120107142D01*
X146400000Y-120078571D01*
X146428571Y-120050000D01*
X146457142Y-119992857D01*
X146457142Y-119935714D01*
X146428571Y-119878571D01*
X146400000Y-119850000D01*
X146342857Y-119821428D01*
X146200000Y-119821428D01*
X146114285Y-119850000D01*
X145857142Y-120421428D02*
X145857142Y-119821428D01*
X145714285Y-119821428D01*
X145628571Y-119850000D01*
X145571428Y-119907142D01*
X145542857Y-119964285D01*
X145514285Y-120078571D01*
X145514285Y-120164285D01*
X145542857Y-120278571D01*
X145571428Y-120335714D01*
X145628571Y-120392857D01*
X145714285Y-120421428D01*
X145857142Y-120421428D01*
X144942857Y-120421428D02*
X145285714Y-120421428D01*
X145114285Y-120421428D02*
X145114285Y-119821428D01*
X145171428Y-119907142D01*
X145228571Y-119964285D01*
X145285714Y-119992857D01*
%TO.C,SD2*%
X148907142Y-115092857D02*
X148821428Y-115121428D01*
X148678571Y-115121428D01*
X148621428Y-115092857D01*
X148592857Y-115064285D01*
X148564285Y-115007142D01*
X148564285Y-114950000D01*
X148592857Y-114892857D01*
X148621428Y-114864285D01*
X148678571Y-114835714D01*
X148792857Y-114807142D01*
X148850000Y-114778571D01*
X148878571Y-114750000D01*
X148907142Y-114692857D01*
X148907142Y-114635714D01*
X148878571Y-114578571D01*
X148850000Y-114550000D01*
X148792857Y-114521428D01*
X148650000Y-114521428D01*
X148564285Y-114550000D01*
X148307142Y-115121428D02*
X148307142Y-114521428D01*
X148164285Y-114521428D01*
X148078571Y-114550000D01*
X148021428Y-114607142D01*
X147992857Y-114664285D01*
X147964285Y-114778571D01*
X147964285Y-114864285D01*
X147992857Y-114978571D01*
X148021428Y-115035714D01*
X148078571Y-115092857D01*
X148164285Y-115121428D01*
X148307142Y-115121428D01*
X147735714Y-114578571D02*
X147707142Y-114550000D01*
X147650000Y-114521428D01*
X147507142Y-114521428D01*
X147450000Y-114550000D01*
X147421428Y-114578571D01*
X147392857Y-114635714D01*
X147392857Y-114692857D01*
X147421428Y-114778571D01*
X147764285Y-115121428D01*
X147392857Y-115121428D01*
%TO.C,S_VP1*%
X90252857Y-71072857D02*
X90167142Y-71101428D01*
X90024285Y-71101428D01*
X89967142Y-71072857D01*
X89938571Y-71044285D01*
X89910000Y-70987142D01*
X89910000Y-70930000D01*
X89938571Y-70872857D01*
X89967142Y-70844285D01*
X90024285Y-70815714D01*
X90138571Y-70787142D01*
X90195714Y-70758571D01*
X90224285Y-70730000D01*
X90252857Y-70672857D01*
X90252857Y-70615714D01*
X90224285Y-70558571D01*
X90195714Y-70530000D01*
X90138571Y-70501428D01*
X89995714Y-70501428D01*
X89910000Y-70530000D01*
X89795714Y-71158571D02*
X89338571Y-71158571D01*
X89281428Y-70501428D02*
X89081428Y-71101428D01*
X88881428Y-70501428D01*
X88681428Y-71101428D02*
X88681428Y-70501428D01*
X88452857Y-70501428D01*
X88395714Y-70530000D01*
X88367142Y-70558571D01*
X88338571Y-70615714D01*
X88338571Y-70701428D01*
X88367142Y-70758571D01*
X88395714Y-70787142D01*
X88452857Y-70815714D01*
X88681428Y-70815714D01*
X87767142Y-71101428D02*
X88110000Y-71101428D01*
X87938571Y-71101428D02*
X87938571Y-70501428D01*
X87995714Y-70587142D01*
X88052857Y-70644285D01*
X88110000Y-70672857D01*
%TO.C,CLK1*%
X146392857Y-117764285D02*
X146421428Y-117792857D01*
X146507142Y-117821428D01*
X146564285Y-117821428D01*
X146650000Y-117792857D01*
X146707142Y-117735714D01*
X146735714Y-117678571D01*
X146764285Y-117564285D01*
X146764285Y-117478571D01*
X146735714Y-117364285D01*
X146707142Y-117307142D01*
X146650000Y-117250000D01*
X146564285Y-117221428D01*
X146507142Y-117221428D01*
X146421428Y-117250000D01*
X146392857Y-117278571D01*
X145850000Y-117821428D02*
X146135714Y-117821428D01*
X146135714Y-117221428D01*
X145650000Y-117821428D02*
X145650000Y-117221428D01*
X145307142Y-117821428D02*
X145564285Y-117478571D01*
X145307142Y-117221428D02*
X145650000Y-117564285D01*
X144735714Y-117821428D02*
X145078571Y-117821428D01*
X144907142Y-117821428D02*
X144907142Y-117221428D01*
X144964285Y-117307142D01*
X145021428Y-117364285D01*
X145078571Y-117392857D01*
%TO.C,S_VN1*%
X93107142Y-71072857D02*
X93021428Y-71101428D01*
X92878571Y-71101428D01*
X92821428Y-71072857D01*
X92792857Y-71044285D01*
X92764285Y-70987142D01*
X92764285Y-70930000D01*
X92792857Y-70872857D01*
X92821428Y-70844285D01*
X92878571Y-70815714D01*
X92992857Y-70787142D01*
X93050000Y-70758571D01*
X93078571Y-70730000D01*
X93107142Y-70672857D01*
X93107142Y-70615714D01*
X93078571Y-70558571D01*
X93050000Y-70530000D01*
X92992857Y-70501428D01*
X92850000Y-70501428D01*
X92764285Y-70530000D01*
X92650000Y-71158571D02*
X92192857Y-71158571D01*
X92135714Y-70501428D02*
X91935714Y-71101428D01*
X91735714Y-70501428D01*
X91535714Y-71101428D02*
X91535714Y-70501428D01*
X91192857Y-71101428D01*
X91192857Y-70501428D01*
X90592857Y-71101428D02*
X90935714Y-71101428D01*
X90764285Y-71101428D02*
X90764285Y-70501428D01*
X90821428Y-70587142D01*
X90878571Y-70644285D01*
X90935714Y-70672857D01*
%TO.C,SD0*%
X149007142Y-120292857D02*
X148921428Y-120321428D01*
X148778571Y-120321428D01*
X148721428Y-120292857D01*
X148692857Y-120264285D01*
X148664285Y-120207142D01*
X148664285Y-120150000D01*
X148692857Y-120092857D01*
X148721428Y-120064285D01*
X148778571Y-120035714D01*
X148892857Y-120007142D01*
X148950000Y-119978571D01*
X148978571Y-119950000D01*
X149007142Y-119892857D01*
X149007142Y-119835714D01*
X148978571Y-119778571D01*
X148950000Y-119750000D01*
X148892857Y-119721428D01*
X148750000Y-119721428D01*
X148664285Y-119750000D01*
X148407142Y-120321428D02*
X148407142Y-119721428D01*
X148264285Y-119721428D01*
X148178571Y-119750000D01*
X148121428Y-119807142D01*
X148092857Y-119864285D01*
X148064285Y-119978571D01*
X148064285Y-120064285D01*
X148092857Y-120178571D01*
X148121428Y-120235714D01*
X148178571Y-120292857D01*
X148264285Y-120321428D01*
X148407142Y-120321428D01*
X147692857Y-119721428D02*
X147635714Y-119721428D01*
X147578571Y-119750000D01*
X147550000Y-119778571D01*
X147521428Y-119835714D01*
X147492857Y-119950000D01*
X147492857Y-120092857D01*
X147521428Y-120207142D01*
X147550000Y-120264285D01*
X147578571Y-120292857D01*
X147635714Y-120321428D01*
X147692857Y-120321428D01*
X147750000Y-120292857D01*
X147778571Y-120264285D01*
X147807142Y-120207142D01*
X147835714Y-120092857D01*
X147835714Y-119950000D01*
X147807142Y-119835714D01*
X147778571Y-119778571D01*
X147750000Y-119750000D01*
X147692857Y-119721428D01*
%TO.C,CMD1*%
X148992857Y-117814285D02*
X149021428Y-117842857D01*
X149107142Y-117871428D01*
X149164285Y-117871428D01*
X149250000Y-117842857D01*
X149307142Y-117785714D01*
X149335714Y-117728571D01*
X149364285Y-117614285D01*
X149364285Y-117528571D01*
X149335714Y-117414285D01*
X149307142Y-117357142D01*
X149250000Y-117300000D01*
X149164285Y-117271428D01*
X149107142Y-117271428D01*
X149021428Y-117300000D01*
X148992857Y-117328571D01*
X148735714Y-117871428D02*
X148735714Y-117271428D01*
X148535714Y-117700000D01*
X148335714Y-117271428D01*
X148335714Y-117871428D01*
X148050000Y-117871428D02*
X148050000Y-117271428D01*
X147907142Y-117271428D01*
X147821428Y-117300000D01*
X147764285Y-117357142D01*
X147735714Y-117414285D01*
X147707142Y-117528571D01*
X147707142Y-117614285D01*
X147735714Y-117728571D01*
X147764285Y-117785714D01*
X147821428Y-117842857D01*
X147907142Y-117871428D01*
X148050000Y-117871428D01*
X147135714Y-117871428D02*
X147478571Y-117871428D01*
X147307142Y-117871428D02*
X147307142Y-117271428D01*
X147364285Y-117357142D01*
X147421428Y-117414285D01*
X147478571Y-117442857D01*
%TO.C,SD3*%
X146357142Y-115142857D02*
X146271428Y-115171428D01*
X146128571Y-115171428D01*
X146071428Y-115142857D01*
X146042857Y-115114285D01*
X146014285Y-115057142D01*
X146014285Y-115000000D01*
X146042857Y-114942857D01*
X146071428Y-114914285D01*
X146128571Y-114885714D01*
X146242857Y-114857142D01*
X146300000Y-114828571D01*
X146328571Y-114800000D01*
X146357142Y-114742857D01*
X146357142Y-114685714D01*
X146328571Y-114628571D01*
X146300000Y-114600000D01*
X146242857Y-114571428D01*
X146100000Y-114571428D01*
X146014285Y-114600000D01*
X145757142Y-115171428D02*
X145757142Y-114571428D01*
X145614285Y-114571428D01*
X145528571Y-114600000D01*
X145471428Y-114657142D01*
X145442857Y-114714285D01*
X145414285Y-114828571D01*
X145414285Y-114914285D01*
X145442857Y-115028571D01*
X145471428Y-115085714D01*
X145528571Y-115142857D01*
X145614285Y-115171428D01*
X145757142Y-115171428D01*
X145214285Y-114571428D02*
X144842857Y-114571428D01*
X145042857Y-114800000D01*
X144957142Y-114800000D01*
X144900000Y-114828571D01*
X144871428Y-114857142D01*
X144842857Y-114914285D01*
X144842857Y-115057142D01*
X144871428Y-115114285D01*
X144900000Y-115142857D01*
X144957142Y-115171428D01*
X145128571Y-115171428D01*
X145185714Y-115142857D01*
X145214285Y-115114285D01*
%TO.C,J3*%
X86052380Y-135666666D02*
X86766666Y-135666666D01*
X86909523Y-135619047D01*
X87004761Y-135523809D01*
X87052380Y-135380952D01*
X87052380Y-135285714D01*
X86052380Y-136047619D02*
X86052380Y-136666666D01*
X86433333Y-136333333D01*
X86433333Y-136476190D01*
X86480952Y-136571428D01*
X86528571Y-136619047D01*
X86623809Y-136666666D01*
X86861904Y-136666666D01*
X86957142Y-136619047D01*
X87004761Y-136571428D01*
X87052380Y-136476190D01*
X87052380Y-136190476D01*
X87004761Y-136095238D01*
X86957142Y-136047619D01*
%TD*%
M02*
