M48
; DRILL file {KiCad (5.1.10)-1} date 08/15/21 00:34:11
; FORMAT={-:-/ absolute / inch / decimal}
; #@! TF.CreationDate,2021-08-15T00:34:11+03:00
; #@! TF.GenerationSoftware,Kicad,Pcbnew,(5.1.10)-1
; #@! TF.FileFunction,Plated,1,2,PTH
FMAT,2
INCH
T1C0.0157
T2C0.0300
T3C0.0315
T4C0.0354
T5C0.0394
T6C0.0591
%
G90
G05
T1
X3.3071Y-3.0039
X3.3228Y-4.3268
X3.3346Y-4.7354
X3.5Y-2.9291
X3.5094Y-5.2543
X3.8051Y-2.9291
X4.1561Y-5.2047
X4.204Y-5.214
X4.2172Y-2.9652
X4.2283Y-2.8602
X4.2793Y-2.9505
X4.331Y-5.2162
X4.482Y-5.3775
X4.51Y-5.23
X5.5079Y-2.8661
X5.6457Y-5.2559
X5.7Y-4.85
X5.7041Y-4.4427
X5.7244Y-3.5197
X5.7244Y-3.5787
X5.7244Y-3.6969
X5.7458Y-4.4881
X5.75Y-4.9
X5.7795Y-4.3346
X5.8484Y-5.05
X7.0487Y-4.9062
X7.242Y-4.7227
X7.3243Y-4.8168
X7.4369Y-4.7751
X7.4464Y-4.6955
X7.4907Y-4.2871
X7.8322Y-4.5774
X7.9168Y-4.5459
T2
X3.3071Y-5.2539
X3.4094Y-5.3543
X3.5079Y-2.8465
X3.5079Y-5.3543
X3.6063Y-5.2539
X3.6063Y-5.3543
X3.6079Y-2.8465
X3.7047Y-5.2539
X3.7047Y-5.3543
X5.7319Y-4.5776
X5.7319Y-4.7776
X5.7339Y-4.6772
X5.8319Y-4.5776
X5.8319Y-4.7776
X5.8339Y-4.6776
T3
X4.3976Y-2.8701
X4.7323Y-2.8701
T4
X6.9968Y-3.9058
X6.9968Y-4.1518
X6.9968Y-4.6341
X6.9968Y-4.7424
T5
X4.2323Y-5.3209
X4.3323Y-5.3209
X4.4323Y-5.3209
X4.5323Y-5.3209
X4.6323Y-5.3209
X4.7323Y-5.3209
X5.2409Y-5.2717
X5.3409Y-5.2717
X5.4409Y-5.2717
X5.5409Y-5.2717
X6.8133Y-5.103
X6.9133Y-5.103
X7.0133Y-5.103
X7.1133Y-5.103
X7.2133Y-5.103
X7.3133Y-5.103
T6
X6.392Y-3.6286
X6.6066Y-3.6286
X6.6361Y-3.3408
X6.8212Y-3.6286
X6.833Y-3.3408
X7.2346Y-3.3408
X7.2424Y-3.6286
X7.4314Y-3.3408
X7.457Y-3.6286
X7.6716Y-3.6286
T0
M30
