%TF.GenerationSoftware,KiCad,Pcbnew,(5.1.10)-1*%
%TF.CreationDate,2021-08-15T00:34:02+03:00*%
%TF.ProjectId,Dimmer,44696d6d-6572-42e6-9b69-6361645f7063,rev?*%
%TF.SameCoordinates,Original*%
%TF.FileFunction,Paste,Top*%
%TF.FilePolarity,Positive*%
%FSLAX46Y46*%
G04 Gerber Fmt 4.6, Leading zero omitted, Abs format (unit mm)*
G04 Created by KiCad (PCBNEW (5.1.10)-1) date 2021-08-15 00:34:02*
%MOMM*%
%LPD*%
G01*
G04 APERTURE LIST*
%ADD10R,1.500000X1.500000*%
%ADD11R,1.300000X1.300000*%
%ADD12R,1.505000X0.802000*%
G04 APERTURE END LIST*
D10*
%TO.C,RST2*%
X82550000Y-133175000D03*
D11*
X84620000Y-131775000D03*
X84620000Y-127475000D03*
D10*
X82550000Y-126085600D03*
%TD*%
%TO.C,Mode1*%
X103965000Y-135255000D03*
D11*
X102565000Y-133185000D03*
X98265000Y-133185000D03*
D10*
X96875600Y-135255000D03*
%TD*%
D12*
%TO.C,U1*%
X186037900Y-122346840D03*
X186037900Y-123616840D03*
X186037900Y-124886840D03*
X186037900Y-126156840D03*
X181042900Y-126156840D03*
X181042900Y-124886840D03*
X181042900Y-123616840D03*
X181042900Y-122346840D03*
%TD*%
%TO.C,C8*%
G36*
G01*
X188422900Y-122686840D02*
X189372900Y-122686840D01*
G75*
G02*
X189622900Y-122936840I0J-250000D01*
G01*
X189622900Y-123436840D01*
G75*
G02*
X189372900Y-123686840I-250000J0D01*
G01*
X188422900Y-123686840D01*
G75*
G02*
X188172900Y-123436840I0J250000D01*
G01*
X188172900Y-122936840D01*
G75*
G02*
X188422900Y-122686840I250000J0D01*
G01*
G37*
G36*
G01*
X188422900Y-120786840D02*
X189372900Y-120786840D01*
G75*
G02*
X189622900Y-121036840I0J-250000D01*
G01*
X189622900Y-121536840D01*
G75*
G02*
X189372900Y-121786840I-250000J0D01*
G01*
X188422900Y-121786840D01*
G75*
G02*
X188172900Y-121536840I0J250000D01*
G01*
X188172900Y-121036840D01*
G75*
G02*
X188422900Y-120786840I250000J0D01*
G01*
G37*
%TD*%
%TO.C,D5*%
G36*
G01*
X100662500Y-73106250D02*
X100662500Y-72193750D01*
G75*
G02*
X100906250Y-71950000I243750J0D01*
G01*
X101393750Y-71950000D01*
G75*
G02*
X101637500Y-72193750I0J-243750D01*
G01*
X101637500Y-73106250D01*
G75*
G02*
X101393750Y-73350000I-243750J0D01*
G01*
X100906250Y-73350000D01*
G75*
G02*
X100662500Y-73106250I0J243750D01*
G01*
G37*
G36*
G01*
X98787500Y-73106250D02*
X98787500Y-72193750D01*
G75*
G02*
X99031250Y-71950000I243750J0D01*
G01*
X99518750Y-71950000D01*
G75*
G02*
X99762500Y-72193750I0J-243750D01*
G01*
X99762500Y-73106250D01*
G75*
G02*
X99518750Y-73350000I-243750J0D01*
G01*
X99031250Y-73350000D01*
G75*
G02*
X98787500Y-73106250I0J243750D01*
G01*
G37*
%TD*%
%TO.C,D6*%
G36*
G01*
X133137500Y-73306250D02*
X133137500Y-72393750D01*
G75*
G02*
X133381250Y-72150000I243750J0D01*
G01*
X133868750Y-72150000D01*
G75*
G02*
X134112500Y-72393750I0J-243750D01*
G01*
X134112500Y-73306250D01*
G75*
G02*
X133868750Y-73550000I-243750J0D01*
G01*
X133381250Y-73550000D01*
G75*
G02*
X133137500Y-73306250I0J243750D01*
G01*
G37*
G36*
G01*
X131262500Y-73306250D02*
X131262500Y-72393750D01*
G75*
G02*
X131506250Y-72150000I243750J0D01*
G01*
X131993750Y-72150000D01*
G75*
G02*
X132237500Y-72393750I0J-243750D01*
G01*
X132237500Y-73306250D01*
G75*
G02*
X131993750Y-73550000I-243750J0D01*
G01*
X131506250Y-73550000D01*
G75*
G02*
X131262500Y-73306250I0J243750D01*
G01*
G37*
%TD*%
%TO.C,R12*%
G36*
G01*
X137537500Y-72174997D02*
X137537500Y-73425003D01*
G75*
G02*
X137287503Y-73675000I-249997J0D01*
G01*
X136662497Y-73675000D01*
G75*
G02*
X136412500Y-73425003I0J249997D01*
G01*
X136412500Y-72174997D01*
G75*
G02*
X136662497Y-71925000I249997J0D01*
G01*
X137287503Y-71925000D01*
G75*
G02*
X137537500Y-72174997I0J-249997D01*
G01*
G37*
G36*
G01*
X140462500Y-72174997D02*
X140462500Y-73425003D01*
G75*
G02*
X140212503Y-73675000I-249997J0D01*
G01*
X139587497Y-73675000D01*
G75*
G02*
X139337500Y-73425003I0J249997D01*
G01*
X139337500Y-72174997D01*
G75*
G02*
X139587497Y-71925000I249997J0D01*
G01*
X140212503Y-71925000D01*
G75*
G02*
X140462500Y-72174997I0J-249997D01*
G01*
G37*
%TD*%
%TO.C,R11*%
G36*
G01*
X107962500Y-72024997D02*
X107962500Y-73275003D01*
G75*
G02*
X107712503Y-73525000I-249997J0D01*
G01*
X107087497Y-73525000D01*
G75*
G02*
X106837500Y-73275003I0J249997D01*
G01*
X106837500Y-72024997D01*
G75*
G02*
X107087497Y-71775000I249997J0D01*
G01*
X107712503Y-71775000D01*
G75*
G02*
X107962500Y-72024997I0J-249997D01*
G01*
G37*
G36*
G01*
X105037500Y-72024997D02*
X105037500Y-73275003D01*
G75*
G02*
X104787503Y-73525000I-249997J0D01*
G01*
X104162497Y-73525000D01*
G75*
G02*
X103912500Y-73275003I0J249997D01*
G01*
X103912500Y-72024997D01*
G75*
G02*
X104162497Y-71775000I249997J0D01*
G01*
X104787503Y-71775000D01*
G75*
G02*
X105037500Y-72024997I0J-249997D01*
G01*
G37*
%TD*%
%TO.C,R9*%
G36*
G01*
X184087900Y-119341840D02*
X184087900Y-119891840D01*
G75*
G02*
X183887900Y-120091840I-200000J0D01*
G01*
X183487900Y-120091840D01*
G75*
G02*
X183287900Y-119891840I0J200000D01*
G01*
X183287900Y-119341840D01*
G75*
G02*
X183487900Y-119141840I200000J0D01*
G01*
X183887900Y-119141840D01*
G75*
G02*
X184087900Y-119341840I0J-200000D01*
G01*
G37*
G36*
G01*
X182437900Y-119341840D02*
X182437900Y-119891840D01*
G75*
G02*
X182237900Y-120091840I-200000J0D01*
G01*
X181837900Y-120091840D01*
G75*
G02*
X181637900Y-119891840I0J200000D01*
G01*
X181637900Y-119341840D01*
G75*
G02*
X181837900Y-119141840I200000J0D01*
G01*
X182237900Y-119141840D01*
G75*
G02*
X182437900Y-119341840I0J-200000D01*
G01*
G37*
%TD*%
%TO.C,R13*%
G36*
G01*
X177082900Y-126664040D02*
X177082900Y-127214040D01*
G75*
G02*
X176882900Y-127414040I-200000J0D01*
G01*
X176482900Y-127414040D01*
G75*
G02*
X176282900Y-127214040I0J200000D01*
G01*
X176282900Y-126664040D01*
G75*
G02*
X176482900Y-126464040I200000J0D01*
G01*
X176882900Y-126464040D01*
G75*
G02*
X177082900Y-126664040I0J-200000D01*
G01*
G37*
G36*
G01*
X178732900Y-126664040D02*
X178732900Y-127214040D01*
G75*
G02*
X178532900Y-127414040I-200000J0D01*
G01*
X178132900Y-127414040D01*
G75*
G02*
X177932900Y-127214040I0J200000D01*
G01*
X177932900Y-126664040D01*
G75*
G02*
X178132900Y-126464040I200000J0D01*
G01*
X178532900Y-126464040D01*
G75*
G02*
X178732900Y-126664040I0J-200000D01*
G01*
G37*
%TD*%
M02*
