%TF.GenerationSoftware,KiCad,Pcbnew,(5.1.10)-1*%
%TF.CreationDate,2021-07-22T01:03:41+03:00*%
%TF.ProjectId,Dimmer,44696d6d-6572-42e6-9b69-6361645f7063,rev?*%
%TF.SameCoordinates,Original*%
%TF.FileFunction,Legend,Top*%
%TF.FilePolarity,Positive*%
%FSLAX46Y46*%
G04 Gerber Fmt 4.6, Leading zero omitted, Abs format (unit mm)*
G04 Created by KiCad (PCBNEW (5.1.10)-1) date 2021-07-22 01:03:41*
%MOMM*%
%LPD*%
G01*
G04 APERTURE LIST*
%ADD10C,0.150000*%
%ADD11C,3.000000*%
%ADD12C,0.500000*%
%ADD13C,0.120000*%
%ADD14C,0.254000*%
%ADD15C,0.100000*%
G04 APERTURE END LIST*
D10*
X201378571Y-105721428D02*
X201378571Y-105121428D01*
X201721428Y-105721428D01*
X201721428Y-105121428D01*
X201542857Y-120000000D02*
X201485714Y-119971428D01*
X201400000Y-119971428D01*
X201314285Y-120000000D01*
X201257142Y-120057142D01*
X201228571Y-120114285D01*
X201200000Y-120228571D01*
X201200000Y-120314285D01*
X201228571Y-120428571D01*
X201257142Y-120485714D01*
X201314285Y-120542857D01*
X201400000Y-120571428D01*
X201457142Y-120571428D01*
X201542857Y-120542857D01*
X201571428Y-120514285D01*
X201571428Y-120314285D01*
X201457142Y-120314285D01*
X201828571Y-120571428D02*
X201828571Y-119971428D01*
X202171428Y-120571428D01*
X202171428Y-119971428D01*
X202457142Y-120571428D02*
X202457142Y-119971428D01*
X202600000Y-119971428D01*
X202685714Y-120000000D01*
X202742857Y-120057142D01*
X202771428Y-120114285D01*
X202800000Y-120228571D01*
X202800000Y-120314285D01*
X202771428Y-120428571D01*
X202742857Y-120485714D01*
X202685714Y-120542857D01*
X202600000Y-120571428D01*
X202457142Y-120571428D01*
X209600000Y-127914285D02*
X209571428Y-127942857D01*
X209485714Y-127971428D01*
X209428571Y-127971428D01*
X209342857Y-127942857D01*
X209285714Y-127885714D01*
X209257142Y-127828571D01*
X209228571Y-127714285D01*
X209228571Y-127628571D01*
X209257142Y-127514285D01*
X209285714Y-127457142D01*
X209342857Y-127400000D01*
X209428571Y-127371428D01*
X209485714Y-127371428D01*
X209571428Y-127400000D01*
X209600000Y-127428571D01*
X209857142Y-127571428D02*
X209857142Y-127971428D01*
X209857142Y-127628571D02*
X209885714Y-127600000D01*
X209942857Y-127571428D01*
X210028571Y-127571428D01*
X210085714Y-127600000D01*
X210114285Y-127657142D01*
X210114285Y-127971428D01*
X210314285Y-127571428D02*
X210542857Y-127571428D01*
X210400000Y-127371428D02*
X210400000Y-127885714D01*
X210428571Y-127942857D01*
X210485714Y-127971428D01*
X210542857Y-127971428D01*
X210742857Y-127971428D02*
X210742857Y-127571428D01*
X210742857Y-127685714D02*
X210771428Y-127628571D01*
X210800000Y-127600000D01*
X210857142Y-127571428D01*
X210914285Y-127571428D01*
X211200000Y-127971428D02*
X211142857Y-127942857D01*
X211114285Y-127885714D01*
X211114285Y-127371428D01*
X200950000Y-117842857D02*
X201407142Y-117842857D01*
X201178571Y-118071428D02*
X201178571Y-117614285D01*
X202007142Y-118071428D02*
X201664285Y-118071428D01*
X201835714Y-118071428D02*
X201835714Y-117471428D01*
X201778571Y-117557142D01*
X201721428Y-117614285D01*
X201664285Y-117642857D01*
X202235714Y-117528571D02*
X202264285Y-117500000D01*
X202321428Y-117471428D01*
X202464285Y-117471428D01*
X202521428Y-117500000D01*
X202550000Y-117528571D01*
X202578571Y-117585714D01*
X202578571Y-117642857D01*
X202550000Y-117728571D01*
X202207142Y-118071428D01*
X202578571Y-118071428D01*
X204442857Y-127921428D02*
X204442857Y-127321428D01*
X204785714Y-127921428D01*
X204785714Y-127321428D01*
X205328571Y-127521428D02*
X205328571Y-127921428D01*
X205071428Y-127521428D02*
X205071428Y-127835714D01*
X205100000Y-127892857D01*
X205157142Y-127921428D01*
X205242857Y-127921428D01*
X205300000Y-127892857D01*
X205328571Y-127864285D01*
X205700000Y-127921428D02*
X205642857Y-127892857D01*
X205614285Y-127835714D01*
X205614285Y-127321428D01*
X206014285Y-127921428D02*
X205957142Y-127892857D01*
X205928571Y-127835714D01*
X205928571Y-127321428D01*
X201585714Y-99171428D02*
X201300000Y-99171428D01*
X201300000Y-98571428D01*
X211807142Y-131392857D02*
X212264285Y-131392857D01*
X212035714Y-131621428D02*
X212035714Y-131164285D01*
X212492857Y-131021428D02*
X212864285Y-131021428D01*
X212664285Y-131250000D01*
X212750000Y-131250000D01*
X212807142Y-131278571D01*
X212835714Y-131307142D01*
X212864285Y-131364285D01*
X212864285Y-131507142D01*
X212835714Y-131564285D01*
X212807142Y-131592857D01*
X212750000Y-131621428D01*
X212578571Y-131621428D01*
X212521428Y-131592857D01*
X212492857Y-131564285D01*
X213121428Y-131564285D02*
X213150000Y-131592857D01*
X213121428Y-131621428D01*
X213092857Y-131592857D01*
X213121428Y-131564285D01*
X213121428Y-131621428D01*
X213350000Y-131021428D02*
X213721428Y-131021428D01*
X213521428Y-131250000D01*
X213607142Y-131250000D01*
X213664285Y-131278571D01*
X213692857Y-131307142D01*
X213721428Y-131364285D01*
X213721428Y-131507142D01*
X213692857Y-131564285D01*
X213664285Y-131592857D01*
X213607142Y-131621428D01*
X213435714Y-131621428D01*
X213378571Y-131592857D01*
X213350000Y-131564285D01*
X201992857Y-131100000D02*
X201935714Y-131071428D01*
X201850000Y-131071428D01*
X201764285Y-131100000D01*
X201707142Y-131157142D01*
X201678571Y-131214285D01*
X201650000Y-131328571D01*
X201650000Y-131414285D01*
X201678571Y-131528571D01*
X201707142Y-131585714D01*
X201764285Y-131642857D01*
X201850000Y-131671428D01*
X201907142Y-131671428D01*
X201992857Y-131642857D01*
X202021428Y-131614285D01*
X202021428Y-131414285D01*
X201907142Y-131414285D01*
X202278571Y-131671428D02*
X202278571Y-131071428D01*
X202621428Y-131671428D01*
X202621428Y-131071428D01*
X202907142Y-131671428D02*
X202907142Y-131071428D01*
X203050000Y-131071428D01*
X203135714Y-131100000D01*
X203192857Y-131157142D01*
X203221428Y-131214285D01*
X203250000Y-131328571D01*
X203250000Y-131414285D01*
X203221428Y-131528571D01*
X203192857Y-131585714D01*
X203135714Y-131642857D01*
X203050000Y-131671428D01*
X202907142Y-131671428D01*
X205450000Y-131221428D02*
X205792857Y-131221428D01*
X205621428Y-131821428D02*
X205621428Y-131221428D01*
X206221428Y-131792857D02*
X206164285Y-131821428D01*
X206050000Y-131821428D01*
X205992857Y-131792857D01*
X205964285Y-131735714D01*
X205964285Y-131507142D01*
X205992857Y-131450000D01*
X206050000Y-131421428D01*
X206164285Y-131421428D01*
X206221428Y-131450000D01*
X206250000Y-131507142D01*
X206250000Y-131564285D01*
X205964285Y-131621428D01*
X206507142Y-131821428D02*
X206507142Y-131421428D01*
X206507142Y-131535714D02*
X206535714Y-131478571D01*
X206564285Y-131450000D01*
X206621428Y-131421428D01*
X206678571Y-131421428D01*
X206878571Y-131821428D02*
X206878571Y-131421428D01*
X206878571Y-131478571D02*
X206907142Y-131450000D01*
X206964285Y-131421428D01*
X207050000Y-131421428D01*
X207107142Y-131450000D01*
X207135714Y-131507142D01*
X207135714Y-131821428D01*
X207135714Y-131507142D02*
X207164285Y-131450000D01*
X207221428Y-131421428D01*
X207307142Y-131421428D01*
X207364285Y-131450000D01*
X207392857Y-131507142D01*
X207392857Y-131821428D01*
X207764285Y-131821428D02*
X207707142Y-131792857D01*
X207678571Y-131764285D01*
X207650000Y-131707142D01*
X207650000Y-131535714D01*
X207678571Y-131478571D01*
X207707142Y-131450000D01*
X207764285Y-131421428D01*
X207850000Y-131421428D01*
X207907142Y-131450000D01*
X207935714Y-131478571D01*
X207964285Y-131535714D01*
X207964285Y-131707142D01*
X207935714Y-131764285D01*
X207907142Y-131792857D01*
X207850000Y-131821428D01*
X207764285Y-131821428D01*
X208078571Y-131878571D02*
X208535714Y-131878571D01*
X208678571Y-131821428D02*
X208678571Y-131221428D01*
X208907142Y-131221428D01*
X208964285Y-131250000D01*
X208992857Y-131278571D01*
X209021428Y-131335714D01*
X209021428Y-131421428D01*
X208992857Y-131478571D01*
X208964285Y-131507142D01*
X208907142Y-131535714D01*
X208678571Y-131535714D01*
X209250000Y-131792857D02*
X209335714Y-131821428D01*
X209478571Y-131821428D01*
X209535714Y-131792857D01*
X209564285Y-131764285D01*
X209592857Y-131707142D01*
X209592857Y-131650000D01*
X209564285Y-131592857D01*
X209535714Y-131564285D01*
X209478571Y-131535714D01*
X209364285Y-131507142D01*
X209307142Y-131478571D01*
X209278571Y-131450000D01*
X209250000Y-131392857D01*
X209250000Y-131335714D01*
X209278571Y-131278571D01*
X209307142Y-131250000D01*
X209364285Y-131221428D01*
X209507142Y-131221428D01*
X209592857Y-131250000D01*
D11*
X104700000Y-96400000D02*
X104700000Y-102600000D01*
D12*
X112400001Y-104200000D02*
G75*
G03*
X112400001Y-104200000I-7601000J0D01*
G01*
X125000000Y-79700000D02*
X139400000Y-128700000D01*
X139400000Y-79700000D02*
X125000000Y-79700000D01*
X139400000Y-128700000D02*
X139400000Y-79700000D01*
D13*
%TO.C,TH1*%
X210122936Y-126060000D02*
X211577064Y-126060000D01*
X210122936Y-124240000D02*
X211577064Y-124240000D01*
%TO.C,Q2*%
X224440000Y-97010000D02*
X208300000Y-97010000D01*
X224440000Y-118200000D02*
X208300000Y-118200000D01*
X224440000Y-118200000D02*
X224440000Y-97010000D01*
X208300000Y-118200000D02*
X208300000Y-97010000D01*
X221820000Y-97010000D02*
X221820000Y-94450000D01*
X216370000Y-97010000D02*
X216370000Y-94450000D01*
X210920000Y-97010000D02*
X210920000Y-94450000D01*
%TO.C,OUT*%
X212475000Y-79025000D02*
X222475000Y-79025000D01*
X212475000Y-88025000D02*
X212475000Y-79025000D01*
X222475000Y-88025000D02*
X212475000Y-88025000D01*
X222475000Y-79025000D02*
X222475000Y-88025000D01*
%TO.C,PS*%
X203180000Y-108790000D02*
X203180000Y-95090000D01*
X188180000Y-95090000D02*
X203180000Y-95090000D01*
X203180000Y-108790000D02*
X205780000Y-108790000D01*
X205780000Y-116290000D02*
X205780000Y-108790000D01*
X203180000Y-116290000D02*
X205780000Y-116290000D01*
X203180000Y-122090000D02*
X203180000Y-116290000D01*
X188180000Y-122090000D02*
X203180000Y-122090000D01*
X188180000Y-95090000D02*
X188180000Y-122090000D01*
%TO.C,IN*%
X191875000Y-79025000D02*
X201875000Y-79025000D01*
X191875000Y-88025000D02*
X191875000Y-79025000D01*
X201875000Y-88025000D02*
X191875000Y-88025000D01*
X201875000Y-79025000D02*
X201875000Y-88025000D01*
%TO.C,C8*%
X212011252Y-121615000D02*
X211488748Y-121615000D01*
X212011252Y-123085000D02*
X211488748Y-123085000D01*
%TO.C,J4*%
X201230000Y-128170000D02*
X201230000Y-130830000D01*
X211450000Y-128170000D02*
X201230000Y-128170000D01*
X211450000Y-130830000D02*
X201230000Y-130830000D01*
X211450000Y-128170000D02*
X211450000Y-130830000D01*
X212720000Y-128170000D02*
X214050000Y-128170000D01*
X214050000Y-128170000D02*
X214050000Y-129500000D01*
%TO.C,C11*%
X202635000Y-124553748D02*
X202635000Y-125076252D01*
X201165000Y-124553748D02*
X201165000Y-125076252D01*
%TO.C,R9*%
X207235000Y-124210436D02*
X207235000Y-124664564D01*
X205765000Y-124210436D02*
X205765000Y-124664564D01*
%TO.C,R3*%
X114350000Y-75050000D02*
X117400000Y-75050000D01*
X114350000Y-70750000D02*
X117400000Y-70750000D01*
X117444513Y-75018249D02*
G75*
G03*
X117400000Y-70750000I-1544513J2118249D01*
G01*
X114371766Y-70734474D02*
G75*
G03*
X114350000Y-75050000I1528234J-2165526D01*
G01*
%TO.C,D5*%
X101212500Y-71690000D02*
X98527500Y-71690000D01*
X98527500Y-71690000D02*
X98527500Y-73610000D01*
X98527500Y-73610000D02*
X101212500Y-73610000D01*
%TO.C,D6*%
X133687500Y-71890000D02*
X131002500Y-71890000D01*
X131002500Y-71890000D02*
X131002500Y-73810000D01*
X131002500Y-73810000D02*
X133687500Y-73810000D01*
%TO.C,SW_RST*%
X85910000Y-123890000D02*
X85910000Y-130710000D01*
X81690000Y-123890000D02*
X81690000Y-130710000D01*
X85910000Y-123890000D02*
X84600000Y-123890000D01*
X83000000Y-123890000D02*
X81690000Y-123890000D01*
X85910000Y-130710000D02*
X84600000Y-130710000D01*
X83000000Y-130710000D02*
X81690000Y-130710000D01*
X86150000Y-123650000D02*
X86150000Y-125033000D01*
X86150000Y-123650000D02*
X84767000Y-123650000D01*
X84435000Y-125490000D02*
X83165000Y-125490000D01*
X83165000Y-125490000D02*
X83165000Y-129110000D01*
X83165000Y-129110000D02*
X84435000Y-129110000D01*
X84435000Y-129110000D02*
X84435000Y-125490000D01*
X84315000Y-125490000D02*
X84315000Y-126696667D01*
X84195000Y-125490000D02*
X84195000Y-126696667D01*
X84075000Y-125490000D02*
X84075000Y-126696667D01*
X83955000Y-125490000D02*
X83955000Y-126696667D01*
X83835000Y-125490000D02*
X83835000Y-126696667D01*
X83715000Y-125490000D02*
X83715000Y-126696667D01*
X83595000Y-125490000D02*
X83595000Y-126696667D01*
X83475000Y-125490000D02*
X83475000Y-126696667D01*
X83355000Y-125490000D02*
X83355000Y-126696667D01*
X83235000Y-125490000D02*
X83235000Y-126696667D01*
X84435000Y-126696667D02*
X83165000Y-126696667D01*
%TO.C,SW_MODE*%
X104410000Y-137410000D02*
X97590000Y-137410000D01*
X104410000Y-133190000D02*
X97590000Y-133190000D01*
X104410000Y-137410000D02*
X104410000Y-136100000D01*
X104410000Y-134500000D02*
X104410000Y-133190000D01*
X97590000Y-137410000D02*
X97590000Y-136100000D01*
X97590000Y-134500000D02*
X97590000Y-133190000D01*
X104650000Y-137650000D02*
X103267000Y-137650000D01*
X104650000Y-137650000D02*
X104650000Y-136267000D01*
X102810000Y-135935000D02*
X102810000Y-134665000D01*
X102810000Y-134665000D02*
X99190000Y-134665000D01*
X99190000Y-134665000D02*
X99190000Y-135935000D01*
X99190000Y-135935000D02*
X102810000Y-135935000D01*
X102810000Y-135815000D02*
X101603333Y-135815000D01*
X102810000Y-135695000D02*
X101603333Y-135695000D01*
X102810000Y-135575000D02*
X101603333Y-135575000D01*
X102810000Y-135455000D02*
X101603333Y-135455000D01*
X102810000Y-135335000D02*
X101603333Y-135335000D01*
X102810000Y-135215000D02*
X101603333Y-135215000D01*
X102810000Y-135095000D02*
X101603333Y-135095000D01*
X102810000Y-134975000D02*
X101603333Y-134975000D01*
X102810000Y-134855000D02*
X101603333Y-134855000D01*
X102810000Y-134735000D02*
X101603333Y-134735000D01*
X101603333Y-135935000D02*
X101603333Y-134665000D01*
%TO.C,R12*%
X139164564Y-73710000D02*
X137710436Y-73710000D01*
X139164564Y-71890000D02*
X137710436Y-71890000D01*
%TO.C,R11*%
X106664564Y-71740000D02*
X105210436Y-71740000D01*
X106664564Y-73560000D02*
X105210436Y-73560000D01*
%TO.C,TH1*%
D10*
X207864285Y-122952380D02*
X208435714Y-122952380D01*
X208150000Y-123952380D02*
X208150000Y-122952380D01*
X208769047Y-123952380D02*
X208769047Y-122952380D01*
X208769047Y-123428571D02*
X209340476Y-123428571D01*
X209340476Y-123952380D02*
X209340476Y-122952380D01*
X210340476Y-123952380D02*
X209769047Y-123952380D01*
X210054761Y-123952380D02*
X210054761Y-122952380D01*
X209959523Y-123095238D01*
X209864285Y-123190476D01*
X209769047Y-123238095D01*
%TO.C,Q2*%
X216274761Y-119747619D02*
X216179523Y-119700000D01*
X216084285Y-119604761D01*
X215941428Y-119461904D01*
X215846190Y-119414285D01*
X215750952Y-119414285D01*
X215798571Y-119652380D02*
X215703333Y-119604761D01*
X215608095Y-119509523D01*
X215560476Y-119319047D01*
X215560476Y-118985714D01*
X215608095Y-118795238D01*
X215703333Y-118700000D01*
X215798571Y-118652380D01*
X215989047Y-118652380D01*
X216084285Y-118700000D01*
X216179523Y-118795238D01*
X216227142Y-118985714D01*
X216227142Y-119319047D01*
X216179523Y-119509523D01*
X216084285Y-119604761D01*
X215989047Y-119652380D01*
X215798571Y-119652380D01*
X216608095Y-118747619D02*
X216655714Y-118700000D01*
X216750952Y-118652380D01*
X216989047Y-118652380D01*
X217084285Y-118700000D01*
X217131904Y-118747619D01*
X217179523Y-118842857D01*
X217179523Y-118938095D01*
X217131904Y-119080952D01*
X216560476Y-119652380D01*
X217179523Y-119652380D01*
%TO.C,OUT*%
X223150000Y-86352380D02*
X223340476Y-86352380D01*
X223435714Y-86400000D01*
X223530952Y-86495238D01*
X223578571Y-86685714D01*
X223578571Y-87019047D01*
X223530952Y-87209523D01*
X223435714Y-87304761D01*
X223340476Y-87352380D01*
X223150000Y-87352380D01*
X223054761Y-87304761D01*
X222959523Y-87209523D01*
X222911904Y-87019047D01*
X222911904Y-86685714D01*
X222959523Y-86495238D01*
X223054761Y-86400000D01*
X223150000Y-86352380D01*
X224007142Y-86352380D02*
X224007142Y-87161904D01*
X224054761Y-87257142D01*
X224102380Y-87304761D01*
X224197619Y-87352380D01*
X224388095Y-87352380D01*
X224483333Y-87304761D01*
X224530952Y-87257142D01*
X224578571Y-87161904D01*
X224578571Y-86352380D01*
X224911904Y-86352380D02*
X225483333Y-86352380D01*
X225197619Y-87352380D02*
X225197619Y-86352380D01*
%TO.C,PS*%
X187402380Y-100438095D02*
X186402380Y-100438095D01*
X186402380Y-100057142D01*
X186450000Y-99961904D01*
X186497619Y-99914285D01*
X186592857Y-99866666D01*
X186735714Y-99866666D01*
X186830952Y-99914285D01*
X186878571Y-99961904D01*
X186926190Y-100057142D01*
X186926190Y-100438095D01*
X187354761Y-99485714D02*
X187402380Y-99342857D01*
X187402380Y-99104761D01*
X187354761Y-99009523D01*
X187307142Y-98961904D01*
X187211904Y-98914285D01*
X187116666Y-98914285D01*
X187021428Y-98961904D01*
X186973809Y-99009523D01*
X186926190Y-99104761D01*
X186878571Y-99295238D01*
X186830952Y-99390476D01*
X186783333Y-99438095D01*
X186688095Y-99485714D01*
X186592857Y-99485714D01*
X186497619Y-99438095D01*
X186450000Y-99390476D01*
X186402380Y-99295238D01*
X186402380Y-99057142D01*
X186450000Y-98914285D01*
%TO.C,IN*%
X202926190Y-87202380D02*
X202926190Y-86202380D01*
X203402380Y-87202380D02*
X203402380Y-86202380D01*
X203973809Y-87202380D01*
X203973809Y-86202380D01*
%TO.C,C8*%
X211183333Y-121257142D02*
X211135714Y-121304761D01*
X210992857Y-121352380D01*
X210897619Y-121352380D01*
X210754761Y-121304761D01*
X210659523Y-121209523D01*
X210611904Y-121114285D01*
X210564285Y-120923809D01*
X210564285Y-120780952D01*
X210611904Y-120590476D01*
X210659523Y-120495238D01*
X210754761Y-120400000D01*
X210897619Y-120352380D01*
X210992857Y-120352380D01*
X211135714Y-120400000D01*
X211183333Y-120447619D01*
X211754761Y-120780952D02*
X211659523Y-120733333D01*
X211611904Y-120685714D01*
X211564285Y-120590476D01*
X211564285Y-120542857D01*
X211611904Y-120447619D01*
X211659523Y-120400000D01*
X211754761Y-120352380D01*
X211945238Y-120352380D01*
X212040476Y-120400000D01*
X212088095Y-120447619D01*
X212135714Y-120542857D01*
X212135714Y-120590476D01*
X212088095Y-120685714D01*
X212040476Y-120733333D01*
X211945238Y-120780952D01*
X211754761Y-120780952D01*
X211659523Y-120828571D01*
X211611904Y-120876190D01*
X211564285Y-120971428D01*
X211564285Y-121161904D01*
X211611904Y-121257142D01*
X211659523Y-121304761D01*
X211754761Y-121352380D01*
X211945238Y-121352380D01*
X212040476Y-121304761D01*
X212088095Y-121257142D01*
X212135714Y-121161904D01*
X212135714Y-120971428D01*
X212088095Y-120876190D01*
X212040476Y-120828571D01*
X211945238Y-120780952D01*
%TO.C,C11*%
X200457142Y-125392857D02*
X200504761Y-125440476D01*
X200552380Y-125583333D01*
X200552380Y-125678571D01*
X200504761Y-125821428D01*
X200409523Y-125916666D01*
X200314285Y-125964285D01*
X200123809Y-126011904D01*
X199980952Y-126011904D01*
X199790476Y-125964285D01*
X199695238Y-125916666D01*
X199600000Y-125821428D01*
X199552380Y-125678571D01*
X199552380Y-125583333D01*
X199600000Y-125440476D01*
X199647619Y-125392857D01*
X200552380Y-124440476D02*
X200552380Y-125011904D01*
X200552380Y-124726190D02*
X199552380Y-124726190D01*
X199695238Y-124821428D01*
X199790476Y-124916666D01*
X199838095Y-125011904D01*
X200552380Y-123488095D02*
X200552380Y-124059523D01*
X200552380Y-123773809D02*
X199552380Y-123773809D01*
X199695238Y-123869047D01*
X199790476Y-123964285D01*
X199838095Y-124059523D01*
%TO.C,R9*%
X205452380Y-124666666D02*
X204976190Y-125000000D01*
X205452380Y-125238095D02*
X204452380Y-125238095D01*
X204452380Y-124857142D01*
X204500000Y-124761904D01*
X204547619Y-124714285D01*
X204642857Y-124666666D01*
X204785714Y-124666666D01*
X204880952Y-124714285D01*
X204928571Y-124761904D01*
X204976190Y-124857142D01*
X204976190Y-125238095D01*
X205452380Y-124190476D02*
X205452380Y-124000000D01*
X205404761Y-123904761D01*
X205357142Y-123857142D01*
X205214285Y-123761904D01*
X205023809Y-123714285D01*
X204642857Y-123714285D01*
X204547619Y-123761904D01*
X204500000Y-123809523D01*
X204452380Y-123904761D01*
X204452380Y-124095238D01*
X204500000Y-124190476D01*
X204547619Y-124238095D01*
X204642857Y-124285714D01*
X204880952Y-124285714D01*
X204976190Y-124238095D01*
X205023809Y-124190476D01*
X205071428Y-124095238D01*
X205071428Y-123904761D01*
X205023809Y-123809523D01*
X204976190Y-123761904D01*
X204880952Y-123714285D01*
%TO.C,R3*%
X118602380Y-76266666D02*
X118126190Y-76600000D01*
X118602380Y-76838095D02*
X117602380Y-76838095D01*
X117602380Y-76457142D01*
X117650000Y-76361904D01*
X117697619Y-76314285D01*
X117792857Y-76266666D01*
X117935714Y-76266666D01*
X118030952Y-76314285D01*
X118078571Y-76361904D01*
X118126190Y-76457142D01*
X118126190Y-76838095D01*
X117602380Y-75933333D02*
X117602380Y-75314285D01*
X117983333Y-75647619D01*
X117983333Y-75504761D01*
X118030952Y-75409523D01*
X118078571Y-75361904D01*
X118173809Y-75314285D01*
X118411904Y-75314285D01*
X118507142Y-75361904D01*
X118554761Y-75409523D01*
X118602380Y-75504761D01*
X118602380Y-75790476D01*
X118554761Y-75885714D01*
X118507142Y-75933333D01*
%TO.C,D5*%
X99381904Y-71442380D02*
X99381904Y-70442380D01*
X99620000Y-70442380D01*
X99762857Y-70490000D01*
X99858095Y-70585238D01*
X99905714Y-70680476D01*
X99953333Y-70870952D01*
X99953333Y-71013809D01*
X99905714Y-71204285D01*
X99858095Y-71299523D01*
X99762857Y-71394761D01*
X99620000Y-71442380D01*
X99381904Y-71442380D01*
X100858095Y-70442380D02*
X100381904Y-70442380D01*
X100334285Y-70918571D01*
X100381904Y-70870952D01*
X100477142Y-70823333D01*
X100715238Y-70823333D01*
X100810476Y-70870952D01*
X100858095Y-70918571D01*
X100905714Y-71013809D01*
X100905714Y-71251904D01*
X100858095Y-71347142D01*
X100810476Y-71394761D01*
X100715238Y-71442380D01*
X100477142Y-71442380D01*
X100381904Y-71394761D01*
X100334285Y-71347142D01*
%TO.C,D6*%
X131861904Y-71602380D02*
X131861904Y-70602380D01*
X132100000Y-70602380D01*
X132242857Y-70650000D01*
X132338095Y-70745238D01*
X132385714Y-70840476D01*
X132433333Y-71030952D01*
X132433333Y-71173809D01*
X132385714Y-71364285D01*
X132338095Y-71459523D01*
X132242857Y-71554761D01*
X132100000Y-71602380D01*
X131861904Y-71602380D01*
X133290476Y-70602380D02*
X133100000Y-70602380D01*
X133004761Y-70650000D01*
X132957142Y-70697619D01*
X132861904Y-70840476D01*
X132814285Y-71030952D01*
X132814285Y-71411904D01*
X132861904Y-71507142D01*
X132909523Y-71554761D01*
X133004761Y-71602380D01*
X133195238Y-71602380D01*
X133290476Y-71554761D01*
X133338095Y-71507142D01*
X133385714Y-71411904D01*
X133385714Y-71173809D01*
X133338095Y-71078571D01*
X133290476Y-71030952D01*
X133195238Y-70983333D01*
X133004761Y-70983333D01*
X132909523Y-71030952D01*
X132861904Y-71078571D01*
X132814285Y-71173809D01*
%TO.C,k2*%
X137757142Y-122752380D02*
X137757142Y-121752380D01*
X137852380Y-122371428D02*
X138138095Y-122752380D01*
X138138095Y-122085714D02*
X137757142Y-122466666D01*
X138519047Y-121847619D02*
X138566666Y-121800000D01*
X138661904Y-121752380D01*
X138900000Y-121752380D01*
X138995238Y-121800000D01*
X139042857Y-121847619D01*
X139090476Y-121942857D01*
X139090476Y-122038095D01*
X139042857Y-122180952D01*
X138471428Y-122752380D01*
X139090476Y-122752380D01*
%TO.C,k5*%
X136157142Y-111352380D02*
X136157142Y-110352380D01*
X136252380Y-110971428D02*
X136538095Y-111352380D01*
X136538095Y-110685714D02*
X136157142Y-111066666D01*
X137442857Y-110352380D02*
X136966666Y-110352380D01*
X136919047Y-110828571D01*
X136966666Y-110780952D01*
X137061904Y-110733333D01*
X137300000Y-110733333D01*
X137395238Y-110780952D01*
X137442857Y-110828571D01*
X137490476Y-110923809D01*
X137490476Y-111161904D01*
X137442857Y-111257142D01*
X137395238Y-111304761D01*
X137300000Y-111352380D01*
X137061904Y-111352380D01*
X136966666Y-111304761D01*
X136919047Y-111257142D01*
%TO.C,k4*%
X134557142Y-100352380D02*
X134557142Y-99352380D01*
X134652380Y-99971428D02*
X134938095Y-100352380D01*
X134938095Y-99685714D02*
X134557142Y-100066666D01*
X135795238Y-99685714D02*
X135795238Y-100352380D01*
X135557142Y-99304761D02*
X135319047Y-100019047D01*
X135938095Y-100019047D01*
%TO.C,k7*%
X132557142Y-80952380D02*
X132557142Y-79952380D01*
X132652380Y-80571428D02*
X132938095Y-80952380D01*
X132938095Y-80285714D02*
X132557142Y-80666666D01*
X133271428Y-79952380D02*
X133938095Y-79952380D01*
X133509523Y-80952380D01*
%TO.C,k6*%
X132557142Y-88952380D02*
X132557142Y-87952380D01*
X132652380Y-88571428D02*
X132938095Y-88952380D01*
X132938095Y-88285714D02*
X132557142Y-88666666D01*
X133795238Y-87952380D02*
X133604761Y-87952380D01*
X133509523Y-88000000D01*
X133461904Y-88047619D01*
X133366666Y-88190476D01*
X133319047Y-88380952D01*
X133319047Y-88761904D01*
X133366666Y-88857142D01*
X133414285Y-88904761D01*
X133509523Y-88952380D01*
X133700000Y-88952380D01*
X133795238Y-88904761D01*
X133842857Y-88857142D01*
X133890476Y-88761904D01*
X133890476Y-88523809D01*
X133842857Y-88428571D01*
X133795238Y-88380952D01*
X133700000Y-88333333D01*
X133509523Y-88333333D01*
X133414285Y-88380952D01*
X133366666Y-88428571D01*
X133319047Y-88523809D01*
%TO.C,SW_RST*%
X85704761Y-129895238D02*
X85752380Y-129752380D01*
X85752380Y-129514285D01*
X85704761Y-129419047D01*
X85657142Y-129371428D01*
X85561904Y-129323809D01*
X85466666Y-129323809D01*
X85371428Y-129371428D01*
X85323809Y-129419047D01*
X85276190Y-129514285D01*
X85228571Y-129704761D01*
X85180952Y-129800000D01*
X85133333Y-129847619D01*
X85038095Y-129895238D01*
X84942857Y-129895238D01*
X84847619Y-129847619D01*
X84800000Y-129800000D01*
X84752380Y-129704761D01*
X84752380Y-129466666D01*
X84800000Y-129323809D01*
X84752380Y-128990476D02*
X85752380Y-128752380D01*
X85038095Y-128561904D01*
X85752380Y-128371428D01*
X84752380Y-128133333D01*
X85847619Y-127990476D02*
X85847619Y-127228571D01*
X85752380Y-126419047D02*
X85276190Y-126752380D01*
X85752380Y-126990476D02*
X84752380Y-126990476D01*
X84752380Y-126609523D01*
X84800000Y-126514285D01*
X84847619Y-126466666D01*
X84942857Y-126419047D01*
X85085714Y-126419047D01*
X85180952Y-126466666D01*
X85228571Y-126514285D01*
X85276190Y-126609523D01*
X85276190Y-126990476D01*
X85704761Y-126038095D02*
X85752380Y-125895238D01*
X85752380Y-125657142D01*
X85704761Y-125561904D01*
X85657142Y-125514285D01*
X85561904Y-125466666D01*
X85466666Y-125466666D01*
X85371428Y-125514285D01*
X85323809Y-125561904D01*
X85276190Y-125657142D01*
X85228571Y-125847619D01*
X85180952Y-125942857D01*
X85133333Y-125990476D01*
X85038095Y-126038095D01*
X84942857Y-126038095D01*
X84847619Y-125990476D01*
X84800000Y-125942857D01*
X84752380Y-125847619D01*
X84752380Y-125609523D01*
X84800000Y-125466666D01*
X84752380Y-125180952D02*
X84752380Y-124609523D01*
X85752380Y-124895238D02*
X84752380Y-124895238D01*
%TO.C,SW_MODE*%
X97714285Y-137104761D02*
X97857142Y-137152380D01*
X98095238Y-137152380D01*
X98190476Y-137104761D01*
X98238095Y-137057142D01*
X98285714Y-136961904D01*
X98285714Y-136866666D01*
X98238095Y-136771428D01*
X98190476Y-136723809D01*
X98095238Y-136676190D01*
X97904761Y-136628571D01*
X97809523Y-136580952D01*
X97761904Y-136533333D01*
X97714285Y-136438095D01*
X97714285Y-136342857D01*
X97761904Y-136247619D01*
X97809523Y-136200000D01*
X97904761Y-136152380D01*
X98142857Y-136152380D01*
X98285714Y-136200000D01*
X98619047Y-136152380D02*
X98857142Y-137152380D01*
X99047619Y-136438095D01*
X99238095Y-137152380D01*
X99476190Y-136152380D01*
X99619047Y-137247619D02*
X100380952Y-137247619D01*
X100619047Y-137152380D02*
X100619047Y-136152380D01*
X100952380Y-136866666D01*
X101285714Y-136152380D01*
X101285714Y-137152380D01*
X101952380Y-136152380D02*
X102142857Y-136152380D01*
X102238095Y-136200000D01*
X102333333Y-136295238D01*
X102380952Y-136485714D01*
X102380952Y-136819047D01*
X102333333Y-137009523D01*
X102238095Y-137104761D01*
X102142857Y-137152380D01*
X101952380Y-137152380D01*
X101857142Y-137104761D01*
X101761904Y-137009523D01*
X101714285Y-136819047D01*
X101714285Y-136485714D01*
X101761904Y-136295238D01*
X101857142Y-136200000D01*
X101952380Y-136152380D01*
X102809523Y-137152380D02*
X102809523Y-136152380D01*
X103047619Y-136152380D01*
X103190476Y-136200000D01*
X103285714Y-136295238D01*
X103333333Y-136390476D01*
X103380952Y-136580952D01*
X103380952Y-136723809D01*
X103333333Y-136914285D01*
X103285714Y-137009523D01*
X103190476Y-137104761D01*
X103047619Y-137152380D01*
X102809523Y-137152380D01*
X103809523Y-136628571D02*
X104142857Y-136628571D01*
X104285714Y-137152380D02*
X103809523Y-137152380D01*
X103809523Y-136152380D01*
X104285714Y-136152380D01*
%TO.C,R12*%
X137764285Y-71471428D02*
X137564285Y-71185714D01*
X137421428Y-71471428D02*
X137421428Y-70871428D01*
X137650000Y-70871428D01*
X137707142Y-70900000D01*
X137735714Y-70928571D01*
X137764285Y-70985714D01*
X137764285Y-71071428D01*
X137735714Y-71128571D01*
X137707142Y-71157142D01*
X137650000Y-71185714D01*
X137421428Y-71185714D01*
X138335714Y-71471428D02*
X137992857Y-71471428D01*
X138164285Y-71471428D02*
X138164285Y-70871428D01*
X138107142Y-70957142D01*
X138050000Y-71014285D01*
X137992857Y-71042857D01*
X138564285Y-70928571D02*
X138592857Y-70900000D01*
X138650000Y-70871428D01*
X138792857Y-70871428D01*
X138850000Y-70900000D01*
X138878571Y-70928571D01*
X138907142Y-70985714D01*
X138907142Y-71042857D01*
X138878571Y-71128571D01*
X138535714Y-71471428D01*
X138907142Y-71471428D01*
%TO.C,R11*%
X105564285Y-71371428D02*
X105364285Y-71085714D01*
X105221428Y-71371428D02*
X105221428Y-70771428D01*
X105450000Y-70771428D01*
X105507142Y-70800000D01*
X105535714Y-70828571D01*
X105564285Y-70885714D01*
X105564285Y-70971428D01*
X105535714Y-71028571D01*
X105507142Y-71057142D01*
X105450000Y-71085714D01*
X105221428Y-71085714D01*
X106135714Y-71371428D02*
X105792857Y-71371428D01*
X105964285Y-71371428D02*
X105964285Y-70771428D01*
X105907142Y-70857142D01*
X105850000Y-70914285D01*
X105792857Y-70942857D01*
X106707142Y-71371428D02*
X106364285Y-71371428D01*
X106535714Y-71371428D02*
X106535714Y-70771428D01*
X106478571Y-70857142D01*
X106421428Y-70914285D01*
X106364285Y-70942857D01*
%TD*%
D14*
X139273000Y-127694878D02*
X137374569Y-121827000D01*
X139273000Y-121827000D01*
X139273000Y-127694878D01*
D15*
G36*
X139273000Y-127694878D02*
G01*
X137374569Y-121827000D01*
X139273000Y-121827000D01*
X139273000Y-127694878D01*
G37*
D14*
X139273000Y-120973000D02*
X137294827Y-120973000D01*
X134170087Y-110427000D01*
X139273000Y-110427000D01*
X139273000Y-120973000D01*
D15*
G36*
X139273000Y-120973000D02*
G01*
X137294827Y-120973000D01*
X134170087Y-110427000D01*
X139273000Y-110427000D01*
X139273000Y-120973000D01*
G37*
D14*
X139273000Y-109573000D02*
X134094322Y-109573000D01*
X130971001Y-99227000D01*
X139273000Y-99227000D01*
X139273000Y-109573000D01*
D15*
G36*
X139273000Y-109573000D02*
G01*
X134094322Y-109573000D01*
X130971001Y-99227000D01*
X139273000Y-99227000D01*
X139273000Y-109573000D01*
G37*
D14*
X139273000Y-98373000D02*
X130694827Y-98373000D01*
X127570087Y-87827000D01*
X139273000Y-87827000D01*
X139273000Y-98373000D01*
D15*
G36*
X139273000Y-98373000D02*
G01*
X130694827Y-98373000D01*
X127570087Y-87827000D01*
X139273000Y-87827000D01*
X139273000Y-98373000D01*
G37*
D14*
X139269423Y-86973000D02*
X127296531Y-86973000D01*
X125367087Y-80027000D01*
X139076479Y-80027000D01*
X139269423Y-86973000D01*
D15*
G36*
X139269423Y-86973000D02*
G01*
X127296531Y-86973000D01*
X125367087Y-80027000D01*
X139076479Y-80027000D01*
X139269423Y-86973000D01*
G37*
M02*
