%TF.GenerationSoftware,KiCad,Pcbnew,(5.1.10)-1*%
%TF.CreationDate,2021-07-22T01:03:41+03:00*%
%TF.ProjectId,Dimmer,44696d6d-6572-42e6-9b69-6361645f7063,rev?*%
%TF.SameCoordinates,Original*%
%TF.FileFunction,Copper,L1,Top*%
%TF.FilePolarity,Positive*%
%FSLAX46Y46*%
G04 Gerber Fmt 4.6, Leading zero omitted, Abs format (unit mm)*
G04 Created by KiCad (PCBNEW (5.1.10)-1) date 2021-07-22 01:03:41*
%MOMM*%
%LPD*%
G01*
G04 APERTURE LIST*
%TA.AperFunction,ConnectorPad*%
%ADD10O,3.600000X3.600000*%
%TD*%
%TA.AperFunction,ComponentPad*%
%ADD11R,2.500000X4.500000*%
%TD*%
%TA.AperFunction,ComponentPad*%
%ADD12O,2.500000X4.500000*%
%TD*%
%TA.AperFunction,ComponentPad*%
%ADD13C,3.000000*%
%TD*%
%TA.AperFunction,ComponentPad*%
%ADD14R,2.200000X2.200000*%
%TD*%
%TA.AperFunction,ComponentPad*%
%ADD15R,2.200000X3.200000*%
%TD*%
%TA.AperFunction,ComponentPad*%
%ADD16O,1.700000X1.700000*%
%TD*%
%TA.AperFunction,ComponentPad*%
%ADD17R,1.700000X1.700000*%
%TD*%
%TA.AperFunction,ComponentPad*%
%ADD18C,1.500000*%
%TD*%
%TA.AperFunction,SMDPad,CuDef*%
%ADD19R,1.120000X2.160000*%
%TD*%
%TA.AperFunction,ComponentPad*%
%ADD20C,1.524000*%
%TD*%
%TA.AperFunction,SMDPad,CuDef*%
%ADD21R,2.160000X1.120000*%
%TD*%
%TA.AperFunction,ComponentPad*%
%ADD22R,1.524000X1.524000*%
%TD*%
%TA.AperFunction,ViaPad*%
%ADD23C,0.800000*%
%TD*%
%TA.AperFunction,Conductor*%
%ADD24C,0.500000*%
%TD*%
%TA.AperFunction,Conductor*%
%ADD25C,3.000000*%
%TD*%
%TA.AperFunction,Conductor*%
%ADD26C,0.254000*%
%TD*%
%TA.AperFunction,Conductor*%
%ADD27C,0.100000*%
%TD*%
G04 APERTURE END LIST*
%TO.P,TH1,2*%
%TO.N,GND*%
%TA.AperFunction,SMDPad,CuDef*%
G36*
G01*
X211750000Y-125775000D02*
X211750000Y-124525000D01*
G75*
G02*
X212000000Y-124275000I250000J0D01*
G01*
X212800000Y-124275000D01*
G75*
G02*
X213050000Y-124525000I0J-250000D01*
G01*
X213050000Y-125775000D01*
G75*
G02*
X212800000Y-126025000I-250000J0D01*
G01*
X212000000Y-126025000D01*
G75*
G02*
X211750000Y-125775000I0J250000D01*
G01*
G37*
%TD.AperFunction*%
%TO.P,TH1,1*%
%TO.N,Net-(J4-Pad3)*%
%TA.AperFunction,SMDPad,CuDef*%
G36*
G01*
X208650000Y-125775000D02*
X208650000Y-124525000D01*
G75*
G02*
X208900000Y-124275000I250000J0D01*
G01*
X209700000Y-124275000D01*
G75*
G02*
X209950000Y-124525000I0J-250000D01*
G01*
X209950000Y-125775000D01*
G75*
G02*
X209700000Y-126025000I-250000J0D01*
G01*
X208900000Y-126025000D01*
G75*
G02*
X208650000Y-125775000I0J250000D01*
G01*
G37*
%TD.AperFunction*%
%TD*%
D10*
%TO.P,Q2,*%
%TO.N,*%
X216370000Y-111910000D03*
D11*
%TO.P,Q2,1*%
%TO.N,Net-(D7-Pad5)*%
X221820000Y-92050000D03*
D12*
%TO.P,Q2,2*%
%TO.N,Net-(C1-Pad2)*%
X216370000Y-92050000D03*
%TO.P,Q2,3*%
%TO.N,GND*%
X210920000Y-92050000D03*
%TD*%
%TO.P,Q1,3*%
%TO.N,GND*%
X200220000Y-92050000D03*
%TO.P,Q1,2*%
%TO.N,Net-(J1-Pad1)*%
X194770000Y-92050000D03*
D11*
%TO.P,Q1,1*%
%TO.N,Net-(D7-Pad5)*%
X189320000Y-92050000D03*
%TD*%
D13*
%TO.P,OUT,1*%
%TO.N,Net-(C1-Pad2)*%
X220000000Y-83650000D03*
%TO.P,OUT,2*%
%TO.N,Net-(J1-Pad2)*%
X215000000Y-83650000D03*
%TD*%
D14*
%TO.P,PS,4*%
%TO.N,GND*%
X204680000Y-120340000D03*
%TO.P,PS,3*%
%TO.N,+12V*%
X204680000Y-117590000D03*
D15*
%TO.P,PS,2*%
%TO.N,Net-(J1-Pad2)*%
X204680000Y-105340000D03*
%TO.P,PS,1*%
%TO.N,Net-(J1-Pad1)*%
X204680000Y-99090000D03*
%TD*%
D13*
%TO.P,IN,1*%
%TO.N,Net-(J1-Pad2)*%
X199400000Y-83650000D03*
%TO.P,IN,2*%
%TO.N,Net-(J1-Pad1)*%
X194400000Y-83650000D03*
%TD*%
%TO.P,C8,2*%
%TO.N,GND*%
%TA.AperFunction,SMDPad,CuDef*%
G36*
G01*
X211300000Y-121875000D02*
X211300000Y-122825000D01*
G75*
G02*
X211050000Y-123075000I-250000J0D01*
G01*
X210550000Y-123075000D01*
G75*
G02*
X210300000Y-122825000I0J250000D01*
G01*
X210300000Y-121875000D01*
G75*
G02*
X210550000Y-121625000I250000J0D01*
G01*
X211050000Y-121625000D01*
G75*
G02*
X211300000Y-121875000I0J-250000D01*
G01*
G37*
%TD.AperFunction*%
%TO.P,C8,1*%
%TO.N,+3V3*%
%TA.AperFunction,SMDPad,CuDef*%
G36*
G01*
X213200000Y-121875000D02*
X213200000Y-122825000D01*
G75*
G02*
X212950000Y-123075000I-250000J0D01*
G01*
X212450000Y-123075000D01*
G75*
G02*
X212200000Y-122825000I0J250000D01*
G01*
X212200000Y-121875000D01*
G75*
G02*
X212450000Y-121625000I250000J0D01*
G01*
X212950000Y-121625000D01*
G75*
G02*
X213200000Y-121875000I0J-250000D01*
G01*
G37*
%TD.AperFunction*%
%TD*%
D16*
%TO.P,J4,5*%
%TO.N,GND*%
X202560000Y-129500000D03*
%TO.P,J4,4*%
%TO.N,Detect_null*%
X205100000Y-129500000D03*
%TO.P,J4,3*%
%TO.N,Net-(J4-Pad3)*%
X207640000Y-129500000D03*
%TO.P,J4,2*%
%TO.N,Load_cntrl*%
X210180000Y-129500000D03*
D17*
%TO.P,J4,1*%
%TO.N,+3V3*%
X212720000Y-129500000D03*
%TD*%
%TO.P,C11,2*%
%TO.N,GND*%
%TA.AperFunction,SMDPad,CuDef*%
G36*
G01*
X201425000Y-125265000D02*
X202375000Y-125265000D01*
G75*
G02*
X202625000Y-125515000I0J-250000D01*
G01*
X202625000Y-126015000D01*
G75*
G02*
X202375000Y-126265000I-250000J0D01*
G01*
X201425000Y-126265000D01*
G75*
G02*
X201175000Y-126015000I0J250000D01*
G01*
X201175000Y-125515000D01*
G75*
G02*
X201425000Y-125265000I250000J0D01*
G01*
G37*
%TD.AperFunction*%
%TO.P,C11,1*%
%TO.N,+12V*%
%TA.AperFunction,SMDPad,CuDef*%
G36*
G01*
X201425000Y-123365000D02*
X202375000Y-123365000D01*
G75*
G02*
X202625000Y-123615000I0J-250000D01*
G01*
X202625000Y-124115000D01*
G75*
G02*
X202375000Y-124365000I-250000J0D01*
G01*
X201425000Y-124365000D01*
G75*
G02*
X201175000Y-124115000I0J250000D01*
G01*
X201175000Y-123615000D01*
G75*
G02*
X201425000Y-123365000I250000J0D01*
G01*
G37*
%TD.AperFunction*%
%TD*%
%TO.P,R9,2*%
%TO.N,Net-(J4-Pad3)*%
%TA.AperFunction,SMDPad,CuDef*%
G36*
G01*
X206049999Y-124837500D02*
X206950001Y-124837500D01*
G75*
G02*
X207200000Y-125087499I0J-249999D01*
G01*
X207200000Y-125612501D01*
G75*
G02*
X206950001Y-125862500I-249999J0D01*
G01*
X206049999Y-125862500D01*
G75*
G02*
X205800000Y-125612501I0J249999D01*
G01*
X205800000Y-125087499D01*
G75*
G02*
X206049999Y-124837500I249999J0D01*
G01*
G37*
%TD.AperFunction*%
%TO.P,R9,1*%
%TO.N,+3V3*%
%TA.AperFunction,SMDPad,CuDef*%
G36*
G01*
X206049999Y-123012500D02*
X206950001Y-123012500D01*
G75*
G02*
X207200000Y-123262499I0J-249999D01*
G01*
X207200000Y-123787501D01*
G75*
G02*
X206950001Y-124037500I-249999J0D01*
G01*
X206049999Y-124037500D01*
G75*
G02*
X205800000Y-123787501I0J249999D01*
G01*
X205800000Y-123262499D01*
G75*
G02*
X206049999Y-123012500I249999J0D01*
G01*
G37*
%TD.AperFunction*%
%TD*%
D18*
%TO.P,R3,2*%
%TO.N,GND*%
X120200000Y-72900000D03*
%TO.P,R3,1*%
%TO.N,photo*%
X111700000Y-72900000D03*
%TD*%
%TO.P,D5,2*%
%TO.N,Net-(D5-Pad2)*%
%TA.AperFunction,SMDPad,CuDef*%
G36*
G01*
X100662500Y-73106250D02*
X100662500Y-72193750D01*
G75*
G02*
X100906250Y-71950000I243750J0D01*
G01*
X101393750Y-71950000D01*
G75*
G02*
X101637500Y-72193750I0J-243750D01*
G01*
X101637500Y-73106250D01*
G75*
G02*
X101393750Y-73350000I-243750J0D01*
G01*
X100906250Y-73350000D01*
G75*
G02*
X100662500Y-73106250I0J243750D01*
G01*
G37*
%TD.AperFunction*%
%TO.P,D5,1*%
%TO.N,GND*%
%TA.AperFunction,SMDPad,CuDef*%
G36*
G01*
X98787500Y-73106250D02*
X98787500Y-72193750D01*
G75*
G02*
X99031250Y-71950000I243750J0D01*
G01*
X99518750Y-71950000D01*
G75*
G02*
X99762500Y-72193750I0J-243750D01*
G01*
X99762500Y-73106250D01*
G75*
G02*
X99518750Y-73350000I-243750J0D01*
G01*
X99031250Y-73350000D01*
G75*
G02*
X98787500Y-73106250I0J243750D01*
G01*
G37*
%TD.AperFunction*%
%TD*%
%TO.P,D6,2*%
%TO.N,Net-(D6-Pad2)*%
%TA.AperFunction,SMDPad,CuDef*%
G36*
G01*
X133137500Y-73306250D02*
X133137500Y-72393750D01*
G75*
G02*
X133381250Y-72150000I243750J0D01*
G01*
X133868750Y-72150000D01*
G75*
G02*
X134112500Y-72393750I0J-243750D01*
G01*
X134112500Y-73306250D01*
G75*
G02*
X133868750Y-73550000I-243750J0D01*
G01*
X133381250Y-73550000D01*
G75*
G02*
X133137500Y-73306250I0J243750D01*
G01*
G37*
%TD.AperFunction*%
%TO.P,D6,1*%
%TO.N,GND*%
%TA.AperFunction,SMDPad,CuDef*%
G36*
G01*
X131262500Y-73306250D02*
X131262500Y-72393750D01*
G75*
G02*
X131506250Y-72150000I243750J0D01*
G01*
X131993750Y-72150000D01*
G75*
G02*
X132237500Y-72393750I0J-243750D01*
G01*
X132237500Y-73306250D01*
G75*
G02*
X131993750Y-73550000I-243750J0D01*
G01*
X131506250Y-73550000D01*
G75*
G02*
X131262500Y-73306250I0J243750D01*
G01*
G37*
%TD.AperFunction*%
%TD*%
D16*
%TO.P,RX0,4*%
%TO.N,GND*%
X94270000Y-136000000D03*
%TO.P,RX0,3*%
%TO.N,Net-(J3-Pad3)*%
X91730000Y-136000000D03*
%TO.P,RX0,2*%
%TO.N,Net-(J3-Pad2)*%
X89190000Y-136000000D03*
D17*
%TO.P,RX0,1*%
%TO.N,+3V3*%
X86650000Y-136000000D03*
%TD*%
D16*
%TO.P,I2C,3*%
%TO.N,GND*%
X84700000Y-120280000D03*
%TO.P,I2C,2*%
%TO.N,Net-(J7-Pad2)*%
X84700000Y-117740000D03*
D17*
%TO.P,I2C,1*%
%TO.N,Net-(J7-Pad1)*%
X84700000Y-115200000D03*
%TD*%
%TO.P,k2,1*%
%TO.N,Net-(U2-Pad24)*%
%TA.AperFunction,SMDPad,CuDef*%
G36*
G01*
X122200000Y-129450000D02*
X122200000Y-123950000D01*
G75*
G02*
X124950000Y-121200000I2750000J0D01*
G01*
X141450000Y-121200000D01*
G75*
G02*
X144200000Y-123950000I0J-2750000D01*
G01*
X144200000Y-129450000D01*
G75*
G02*
X141450000Y-132200000I-2750000J0D01*
G01*
X124950000Y-132200000D01*
G75*
G02*
X122200000Y-129450000I0J2750000D01*
G01*
G37*
%TD.AperFunction*%
%TD*%
%TO.P,k5,1*%
%TO.N,Net-(U2-Pad16)*%
%TA.AperFunction,SMDPad,CuDef*%
G36*
G01*
X122200000Y-118125000D02*
X122200000Y-112875000D01*
G75*
G02*
X124825000Y-110250000I2625000J0D01*
G01*
X141575000Y-110250000D01*
G75*
G02*
X144200000Y-112875000I0J-2625000D01*
G01*
X144200000Y-118125000D01*
G75*
G02*
X141575000Y-120750000I-2625000J0D01*
G01*
X124825000Y-120750000D01*
G75*
G02*
X122200000Y-118125000I0J2625000D01*
G01*
G37*
%TD.AperFunction*%
%TD*%
%TO.P,k4,1*%
%TO.N,Net-(U2-Pad14)*%
%TA.AperFunction,SMDPad,CuDef*%
G36*
G01*
X122200000Y-107050000D02*
X122200000Y-101550000D01*
G75*
G02*
X124950000Y-98800000I2750000J0D01*
G01*
X141450000Y-98800000D01*
G75*
G02*
X144200000Y-101550000I0J-2750000D01*
G01*
X144200000Y-107050000D01*
G75*
G02*
X141450000Y-109800000I-2750000J0D01*
G01*
X124950000Y-109800000D01*
G75*
G02*
X122200000Y-107050000I0J2750000D01*
G01*
G37*
%TD.AperFunction*%
%TD*%
%TO.P,k7,1*%
%TO.N,Net-(U2-Pad12)*%
%TA.AperFunction,SMDPad,CuDef*%
G36*
G01*
X144000000Y-78750000D02*
X144000000Y-84250000D01*
G75*
G02*
X141250000Y-87000000I-2750000J0D01*
G01*
X124750000Y-87000000D01*
G75*
G02*
X122000000Y-84250000I0J2750000D01*
G01*
X122000000Y-78750000D01*
G75*
G02*
X124750000Y-76000000I2750000J0D01*
G01*
X141250000Y-76000000D01*
G75*
G02*
X144000000Y-78750000I0J-2750000D01*
G01*
G37*
%TD.AperFunction*%
%TD*%
%TO.P,k6,1*%
%TO.N,Net-(U2-Pad13)*%
%TA.AperFunction,SMDPad,CuDef*%
G36*
G01*
X144000000Y-90150000D02*
X144000000Y-95650000D01*
G75*
G02*
X141250000Y-98400000I-2750000J0D01*
G01*
X124750000Y-98400000D01*
G75*
G02*
X122000000Y-95650000I0J2750000D01*
G01*
X122000000Y-90150000D01*
G75*
G02*
X124750000Y-87400000I2750000J0D01*
G01*
X141250000Y-87400000D01*
G75*
G02*
X144000000Y-90150000I0J-2750000D01*
G01*
G37*
%TD.AperFunction*%
%TD*%
D16*
%TO.P,SPI,4*%
%TO.N,Net-(J22-Pad4)*%
X140740000Y-133900000D03*
%TO.P,SPI,3*%
%TO.N,Net-(J22-Pad3)*%
X138200000Y-133900000D03*
%TO.P,SPI,2*%
%TO.N,Net-(J22-Pad2)*%
X135660000Y-133900000D03*
D17*
%TO.P,SPI,1*%
%TO.N,MOSI*%
X133120000Y-133900000D03*
%TD*%
D19*
%TO.P,SW_RST,1*%
%TO.N,GND*%
X83800000Y-123935000D03*
%TO.P,SW_RST,2*%
%TO.N,Net-(J20-Pad1)*%
X83800000Y-130665000D03*
%TD*%
D20*
%TO.P,RST,1*%
%TO.N,Net-(J20-Pad1)*%
X84000000Y-133450000D03*
%TD*%
%TO.P,k3,1*%
%TO.N,Net-(U2-Pad8)*%
%TA.AperFunction,SMDPad,CuDef*%
G36*
G01*
X121000000Y-84825000D02*
X121000000Y-122575000D01*
G75*
G02*
X112375000Y-131200000I-8625000J0D01*
G01*
X95125000Y-131200000D01*
G75*
G02*
X86500000Y-122575000I0J8625000D01*
G01*
X86500000Y-84825000D01*
G75*
G02*
X95125000Y-76200000I8625000J0D01*
G01*
X112375000Y-76200000D01*
G75*
G02*
X121000000Y-84825000I0J-8625000D01*
G01*
G37*
%TD.AperFunction*%
%TD*%
D21*
%TO.P,SW_MODE,1*%
%TO.N,GND*%
X104365000Y-135300000D03*
%TO.P,SW_MODE,2*%
%TO.N,Net-(J23-Pad2)*%
X97635000Y-135300000D03*
%TD*%
%TO.P,R12,2*%
%TO.N,Net-(D6-Pad2)*%
%TA.AperFunction,SMDPad,CuDef*%
G36*
G01*
X137537500Y-72174999D02*
X137537500Y-73425001D01*
G75*
G02*
X137287501Y-73675000I-249999J0D01*
G01*
X136662499Y-73675000D01*
G75*
G02*
X136412500Y-73425001I0J249999D01*
G01*
X136412500Y-72174999D01*
G75*
G02*
X136662499Y-71925000I249999J0D01*
G01*
X137287501Y-71925000D01*
G75*
G02*
X137537500Y-72174999I0J-249999D01*
G01*
G37*
%TD.AperFunction*%
%TO.P,R12,1*%
%TO.N,RED*%
%TA.AperFunction,SMDPad,CuDef*%
G36*
G01*
X140462500Y-72174999D02*
X140462500Y-73425001D01*
G75*
G02*
X140212501Y-73675000I-249999J0D01*
G01*
X139587499Y-73675000D01*
G75*
G02*
X139337500Y-73425001I0J249999D01*
G01*
X139337500Y-72174999D01*
G75*
G02*
X139587499Y-71925000I249999J0D01*
G01*
X140212501Y-71925000D01*
G75*
G02*
X140462500Y-72174999I0J-249999D01*
G01*
G37*
%TD.AperFunction*%
%TD*%
%TO.P,R11,1*%
%TO.N,BLUE*%
%TA.AperFunction,SMDPad,CuDef*%
G36*
G01*
X107962500Y-72024999D02*
X107962500Y-73275001D01*
G75*
G02*
X107712501Y-73525000I-249999J0D01*
G01*
X107087499Y-73525000D01*
G75*
G02*
X106837500Y-73275001I0J249999D01*
G01*
X106837500Y-72024999D01*
G75*
G02*
X107087499Y-71775000I249999J0D01*
G01*
X107712501Y-71775000D01*
G75*
G02*
X107962500Y-72024999I0J-249999D01*
G01*
G37*
%TD.AperFunction*%
%TO.P,R11,2*%
%TO.N,Net-(D5-Pad2)*%
%TA.AperFunction,SMDPad,CuDef*%
G36*
G01*
X105037500Y-72024999D02*
X105037500Y-73275001D01*
G75*
G02*
X104787501Y-73525000I-249999J0D01*
G01*
X104162499Y-73525000D01*
G75*
G02*
X103912500Y-73275001I0J249999D01*
G01*
X103912500Y-72024999D01*
G75*
G02*
X104162499Y-71775000I249999J0D01*
G01*
X104787501Y-71775000D01*
G75*
G02*
X105037500Y-72024999I0J-249999D01*
G01*
G37*
%TD.AperFunction*%
%TD*%
D20*
%TO.P,Prog,2*%
%TO.N,GND*%
X94300000Y-133450000D03*
D22*
%TO.P,Prog,1*%
%TO.N,Net-(J2-Pad1)*%
X91800000Y-133450000D03*
%TD*%
%TO.P,Mode,1*%
%TO.N,Mode*%
X86600000Y-133460000D03*
D20*
%TO.P,Mode,2*%
%TO.N,Net-(J23-Pad2)*%
X89140000Y-133460000D03*
%TD*%
D17*
%TO.P,J16,1*%
%TO.N,+3V3*%
X120200000Y-135150000D03*
D16*
%TO.P,J16,2*%
%TO.N,cntrl*%
X117660000Y-135150000D03*
%TO.P,J16,3*%
%TO.N,termo_bp*%
X115120000Y-135150000D03*
%TO.P,J16,4*%
%TO.N,null*%
X112580000Y-135150000D03*
%TO.P,J16,5*%
%TO.N,GND*%
X110040000Y-135150000D03*
%TD*%
D20*
%TO.P,J5,1*%
%TO.N,Net-(J5-Pad1)*%
X145590000Y-121350000D03*
%TD*%
%TO.P,J6,1*%
%TO.N,Net-(J6-Pad1)*%
X148130000Y-116270000D03*
%TD*%
%TO.P,J8,1*%
%TO.N,Net-(J8-Pad1)*%
X89100000Y-72300000D03*
%TD*%
%TO.P,J12,1*%
%TO.N,Net-(J12-Pad1)*%
X145640000Y-118800000D03*
%TD*%
%TO.P,J13,1*%
%TO.N,Net-(J13-Pad1)*%
X91640000Y-72300000D03*
%TD*%
%TO.P,J14,1*%
%TO.N,Net-(J14-Pad1)*%
X148130000Y-121350000D03*
%TD*%
%TO.P,J15,1*%
%TO.N,Net-(J15-Pad1)*%
X148180000Y-118810000D03*
%TD*%
%TO.P,J10,1*%
%TO.N,Net-(J10-Pad1)*%
X145590000Y-116270000D03*
%TD*%
D23*
%TO.N,GND*%
X144883580Y-112843664D03*
X212700000Y-120150000D03*
X84000000Y-76300000D03*
%TO.N,+3V3*%
X88900000Y-74400000D03*
X145400000Y-126900000D03*
X107400000Y-133150000D03*
X216100000Y-119150000D03*
X96650000Y-74400000D03*
%TO.N,+12V*%
X225900000Y-116150000D03*
%TO.N,Net-(U2-Pad24)*%
X144200000Y-125500000D03*
%TO.N,Net-(C2-Pad2)*%
X217225000Y-108775000D03*
X228050000Y-115350000D03*
%TO.N,MOSI*%
X98691680Y-132300000D03*
%TO.N,Net-(U2-Pad8)*%
X108693199Y-74943199D03*
%TO.N,Net-(U2-Pad14)*%
X145400000Y-93900000D03*
%TO.N,Net-(U2-Pad16)*%
X145944558Y-113997499D03*
%TO.N,Net-(U2-Pad13)*%
X145400000Y-90900000D03*
%TO.N,Net-(U2-Pad12)*%
X145400000Y-89400000D03*
%TO.N,BLUE*%
X107400000Y-72650000D03*
%TO.N,RED*%
X147767999Y-127900000D03*
X146800000Y-110100000D03*
X139900000Y-72800000D03*
%TO.N,Net-(J20-Pad1)*%
X84400000Y-109900000D03*
%TO.N,null*%
X143400000Y-133500000D03*
%TO.N,termo_bp*%
X146000745Y-111473454D03*
%TO.N,photo*%
X107117158Y-75317158D03*
%TD*%
D24*
%TO.N,GND*%
X94270000Y-133480000D02*
X94300000Y-133450000D01*
X109890000Y-135300000D02*
X110040000Y-135150000D01*
X104365000Y-135300000D02*
X109890000Y-135300000D01*
X83800000Y-121180000D02*
X84700000Y-120280000D01*
X83800000Y-123935000D02*
X83800000Y-121180000D01*
X94700010Y-133850010D02*
X94300000Y-133450000D01*
X98635012Y-133850010D02*
X94700010Y-133850010D01*
X94610001Y-136310001D02*
X99075001Y-136310001D01*
X94300000Y-136000000D02*
X94610001Y-136310001D01*
X94270000Y-136000000D02*
X94300000Y-136000000D01*
X103354999Y-136310001D02*
X104365000Y-135300000D01*
X98635012Y-133850010D02*
X98635012Y-133955014D01*
X98635012Y-133955014D02*
X100989999Y-136310001D01*
X100989999Y-136310001D02*
X103354999Y-136310001D01*
X99075001Y-136310001D02*
X100989999Y-136310001D01*
X202560000Y-126425000D02*
X202560000Y-126090000D01*
X210800000Y-122350000D02*
X210800000Y-123550000D01*
X202560000Y-126090000D02*
X204680000Y-123970000D01*
X202560000Y-129950000D02*
X202560000Y-126425000D01*
X204680000Y-120340000D02*
X204680000Y-123970000D01*
X210800000Y-123550000D02*
X212400000Y-125150000D01*
X202560000Y-126425000D02*
X201900000Y-125765000D01*
X120250000Y-72850000D02*
X120200000Y-72900000D01*
X131750000Y-72850000D02*
X120250000Y-72850000D01*
%TO.N,+3V3*%
X95793762Y-133150000D02*
X107400000Y-133150000D01*
X94881761Y-132237999D02*
X95793762Y-133150000D01*
X88568239Y-132237999D02*
X94881761Y-132237999D01*
X87927999Y-132878239D02*
X88568239Y-132237999D01*
X87927999Y-134722001D02*
X87927999Y-132878239D01*
X86650000Y-136000000D02*
X87927999Y-134722001D01*
X145400000Y-129700000D02*
X145400000Y-126900000D01*
X145400000Y-132758002D02*
X145400000Y-129700000D01*
X142257991Y-135900011D02*
X145400000Y-132758002D01*
X120950011Y-135900011D02*
X142257991Y-135900011D01*
X120200000Y-135150000D02*
X120950011Y-135900011D01*
X216100000Y-126570000D02*
X216100000Y-119150000D01*
X215900000Y-119150000D02*
X212700000Y-122350000D01*
X212720000Y-129950000D02*
X216100000Y-126570000D01*
X216100000Y-119150000D02*
X210875000Y-119150000D01*
X210875000Y-119150000D02*
X206500000Y-123525000D01*
X216100000Y-119150000D02*
X215900000Y-119150000D01*
X88900000Y-74400000D02*
X96650000Y-74400000D01*
%TO.N,+12V*%
X224460000Y-117590000D02*
X225900000Y-116150000D01*
X201900000Y-120109998D02*
X204419998Y-117590000D01*
X201900000Y-123865000D02*
X201900000Y-120109998D01*
X204419998Y-117590000D02*
X204680000Y-117590000D01*
X204680000Y-117590000D02*
X224460000Y-117590000D01*
D25*
%TO.N,Net-(J1-Pad1)*%
X194770000Y-92050000D02*
X194770000Y-84020000D01*
X194770000Y-84020000D02*
X194400000Y-83650000D01*
D24*
%TO.N,Net-(U2-Pad24)*%
X132200000Y-125500000D02*
X131900000Y-125200000D01*
X144200000Y-125500000D02*
X132200000Y-125500000D01*
D25*
%TO.N,Net-(C1-Pad2)*%
X216370000Y-87280000D02*
X220000000Y-83650000D01*
X216370000Y-92050000D02*
X216370000Y-87280000D01*
D24*
%TO.N,Net-(C2-Pad2)*%
X221475000Y-108775000D02*
X228050000Y-115350000D01*
X217225000Y-108775000D02*
X221475000Y-108775000D01*
%TO.N,MOSI*%
X122800000Y-133900000D02*
X133120000Y-133900000D01*
X121200000Y-132300000D02*
X122800000Y-133900000D01*
X98691680Y-132300000D02*
X121200000Y-132300000D01*
%TO.N,Net-(U2-Pad8)*%
X103750000Y-79886398D02*
X103750000Y-103700000D01*
X108693199Y-74943199D02*
X103750000Y-79886398D01*
%TO.N,Net-(U2-Pad14)*%
X145400000Y-93900000D02*
X145400000Y-98400000D01*
X140000000Y-103800000D02*
X131500000Y-103800000D01*
X145400000Y-98400000D02*
X140000000Y-103800000D01*
%TO.N,Net-(U2-Pad16)*%
X131900000Y-114500000D02*
X138200000Y-114500000D01*
X134702501Y-113997499D02*
X133200000Y-115500000D01*
X145944558Y-113997499D02*
X134702501Y-113997499D01*
%TO.N,Net-(U2-Pad13)*%
X133800000Y-90900000D02*
X131500000Y-93200000D01*
X145400000Y-90900000D02*
X133800000Y-90900000D01*
%TO.N,Net-(U2-Pad12)*%
X145400000Y-89400000D02*
X145400000Y-83400000D01*
X142900000Y-80900000D02*
X133400000Y-80900000D01*
X145400000Y-83400000D02*
X142900000Y-80900000D01*
%TO.N,Net-(D5-Pad2)*%
X104475000Y-72650000D02*
X101150000Y-72650000D01*
%TO.N,Net-(D6-Pad2)*%
X133675000Y-72800000D02*
X133625000Y-72850000D01*
X136975000Y-72800000D02*
X133675000Y-72800000D01*
%TO.N,RED*%
X149392001Y-126275998D02*
X147767999Y-127900000D01*
X149392001Y-112692001D02*
X149392001Y-126275998D01*
X146800000Y-110100000D02*
X149392001Y-112692001D01*
D25*
%TO.N,Net-(J1-Pad2)*%
X208300000Y-83650000D02*
X207969990Y-83980010D01*
X207969990Y-83980010D02*
X207969990Y-102050010D01*
X207969990Y-102050010D02*
X204680000Y-105340000D01*
X215000000Y-83650000D02*
X208300000Y-83650000D01*
X208300000Y-83650000D02*
X205900000Y-83650000D01*
X205900000Y-83650000D02*
X199400000Y-83650000D01*
X204680000Y-105340000D02*
X207480001Y-102539999D01*
X207480001Y-102539999D02*
X207480001Y-85230001D01*
X207480001Y-85230001D02*
X205900000Y-83650000D01*
D24*
%TO.N,Net-(J20-Pad1)*%
X83800000Y-133250000D02*
X84000000Y-133450000D01*
X83800000Y-130665000D02*
X83800000Y-133250000D01*
X84000000Y-133450000D02*
X82200000Y-131650000D01*
X82200000Y-131650000D02*
X82200000Y-111300000D01*
X83600000Y-109900000D02*
X84400000Y-109900000D01*
X82200000Y-111300000D02*
X83600000Y-109900000D01*
%TO.N,Net-(J4-Pad3)*%
X207460000Y-129770000D02*
X207640000Y-129950000D01*
X209300000Y-125150000D02*
X208620000Y-125150000D01*
X207460000Y-126310000D02*
X207460000Y-129770000D01*
X208620000Y-125150000D02*
X207460000Y-126310000D01*
X207460000Y-126310000D02*
X206500000Y-125350000D01*
%TO.N,null*%
X114729990Y-133000010D02*
X112580000Y-135150000D01*
X120699990Y-133000010D02*
X114729990Y-133000010D01*
X122899981Y-135200001D02*
X120699990Y-133000010D01*
X141364001Y-135200001D02*
X122899981Y-135200001D01*
X141699999Y-135200001D02*
X143400000Y-133500000D01*
X141364001Y-135200001D02*
X141699999Y-135200001D01*
%TO.N,termo_bp*%
X146917999Y-132229966D02*
X146917999Y-112382001D01*
X142547943Y-136600021D02*
X146917999Y-132229966D01*
X116570021Y-136600021D02*
X142547943Y-136600021D01*
X146917999Y-112382001D02*
X146882001Y-112382001D01*
X115120000Y-135150000D02*
X116570021Y-136600021D01*
X146909292Y-112382001D02*
X146917999Y-112382001D01*
X146000745Y-111473454D02*
X146909292Y-112382001D01*
%TO.N,Net-(J23-Pad2)*%
X96997001Y-134662001D02*
X97635000Y-135300000D01*
X90342001Y-134662001D02*
X96997001Y-134662001D01*
X89140000Y-133460000D02*
X90342001Y-134662001D01*
%TO.N,photo*%
X109534316Y-72900000D02*
X111700000Y-72900000D01*
X107117158Y-75317158D02*
X109534316Y-72900000D01*
%TD*%
D26*
%TO.N,GND*%
X112798960Y-133679461D02*
X112726260Y-133665000D01*
X112433740Y-133665000D01*
X112146842Y-133722068D01*
X111876589Y-133834010D01*
X111633368Y-133996525D01*
X111426525Y-134203368D01*
X111304805Y-134385534D01*
X111235178Y-134268645D01*
X111040269Y-134052412D01*
X110806920Y-133878359D01*
X110544099Y-133753175D01*
X110396890Y-133708524D01*
X110167000Y-133829845D01*
X110167000Y-135023000D01*
X110187000Y-135023000D01*
X110187000Y-135277000D01*
X110167000Y-135277000D01*
X110167000Y-136470155D01*
X110396890Y-136591476D01*
X110544099Y-136546825D01*
X110806920Y-136421641D01*
X111040269Y-136247588D01*
X111235178Y-136031355D01*
X111304805Y-135914466D01*
X111426525Y-136096632D01*
X111633368Y-136303475D01*
X111876589Y-136465990D01*
X112146842Y-136577932D01*
X112433740Y-136635000D01*
X112726260Y-136635000D01*
X113013158Y-136577932D01*
X113283411Y-136465990D01*
X113526632Y-136303475D01*
X113733475Y-136096632D01*
X113850000Y-135922240D01*
X113966525Y-136096632D01*
X114173368Y-136303475D01*
X114416589Y-136465990D01*
X114686842Y-136577932D01*
X114973740Y-136635000D01*
X115266260Y-136635000D01*
X115338960Y-136620539D01*
X115913491Y-137195070D01*
X115929847Y-137215000D01*
X95112857Y-137215000D01*
X95270269Y-137097588D01*
X95465178Y-136881355D01*
X95614157Y-136631252D01*
X95711481Y-136356891D01*
X95590814Y-136127000D01*
X94397000Y-136127000D01*
X94397000Y-136147000D01*
X94143000Y-136147000D01*
X94143000Y-136127000D01*
X94123000Y-136127000D01*
X94123000Y-135873000D01*
X94143000Y-135873000D01*
X94143000Y-135853000D01*
X94397000Y-135853000D01*
X94397000Y-135873000D01*
X95590814Y-135873000D01*
X95711481Y-135643109D01*
X95677389Y-135547001D01*
X95916928Y-135547001D01*
X95916928Y-135860000D01*
X95929188Y-135984482D01*
X95965498Y-136104180D01*
X96024463Y-136214494D01*
X96103815Y-136311185D01*
X96200506Y-136390537D01*
X96310820Y-136449502D01*
X96430518Y-136485812D01*
X96555000Y-136498072D01*
X98715000Y-136498072D01*
X98839482Y-136485812D01*
X98959180Y-136449502D01*
X99069494Y-136390537D01*
X99166185Y-136311185D01*
X99245537Y-136214494D01*
X99304502Y-136104180D01*
X99340812Y-135984482D01*
X99353072Y-135860000D01*
X102646928Y-135860000D01*
X102659188Y-135984482D01*
X102695498Y-136104180D01*
X102754463Y-136214494D01*
X102833815Y-136311185D01*
X102930506Y-136390537D01*
X103040820Y-136449502D01*
X103160518Y-136485812D01*
X103285000Y-136498072D01*
X104079250Y-136495000D01*
X104238000Y-136336250D01*
X104238000Y-135427000D01*
X104492000Y-135427000D01*
X104492000Y-136336250D01*
X104650750Y-136495000D01*
X105445000Y-136498072D01*
X105569482Y-136485812D01*
X105689180Y-136449502D01*
X105799494Y-136390537D01*
X105896185Y-136311185D01*
X105975537Y-136214494D01*
X106034502Y-136104180D01*
X106070812Y-135984482D01*
X106083072Y-135860000D01*
X106080000Y-135585750D01*
X106001141Y-135506891D01*
X108598519Y-135506891D01*
X108695843Y-135781252D01*
X108844822Y-136031355D01*
X109039731Y-136247588D01*
X109273080Y-136421641D01*
X109535901Y-136546825D01*
X109683110Y-136591476D01*
X109913000Y-136470155D01*
X109913000Y-135277000D01*
X108719186Y-135277000D01*
X108598519Y-135506891D01*
X106001141Y-135506891D01*
X105921250Y-135427000D01*
X104492000Y-135427000D01*
X104238000Y-135427000D01*
X102808750Y-135427000D01*
X102650000Y-135585750D01*
X102646928Y-135860000D01*
X99353072Y-135860000D01*
X99353072Y-134740000D01*
X102646928Y-134740000D01*
X102650000Y-135014250D01*
X102808750Y-135173000D01*
X104238000Y-135173000D01*
X104238000Y-134263750D01*
X104492000Y-134263750D01*
X104492000Y-135173000D01*
X105921250Y-135173000D01*
X106080000Y-135014250D01*
X106082477Y-134793109D01*
X108598519Y-134793109D01*
X108719186Y-135023000D01*
X109913000Y-135023000D01*
X109913000Y-133829845D01*
X109683110Y-133708524D01*
X109535901Y-133753175D01*
X109273080Y-133878359D01*
X109039731Y-134052412D01*
X108844822Y-134268645D01*
X108695843Y-134518748D01*
X108598519Y-134793109D01*
X106082477Y-134793109D01*
X106083072Y-134740000D01*
X106070812Y-134615518D01*
X106034502Y-134495820D01*
X105975537Y-134385506D01*
X105896185Y-134288815D01*
X105799494Y-134209463D01*
X105689180Y-134150498D01*
X105569482Y-134114188D01*
X105445000Y-134101928D01*
X104650750Y-134105000D01*
X104492000Y-134263750D01*
X104238000Y-134263750D01*
X104079250Y-134105000D01*
X103285000Y-134101928D01*
X103160518Y-134114188D01*
X103040820Y-134150498D01*
X102930506Y-134209463D01*
X102833815Y-134288815D01*
X102754463Y-134385506D01*
X102695498Y-134495820D01*
X102659188Y-134615518D01*
X102646928Y-134740000D01*
X99353072Y-134740000D01*
X99340812Y-134615518D01*
X99304502Y-134495820D01*
X99245537Y-134385506D01*
X99166185Y-134288815D01*
X99069494Y-134209463D01*
X98959180Y-134150498D01*
X98839482Y-134114188D01*
X98715000Y-134101928D01*
X97688506Y-134101928D01*
X97653535Y-134066957D01*
X97627308Y-134035000D01*
X106861546Y-134035000D01*
X106909744Y-134067205D01*
X107098102Y-134145226D01*
X107298061Y-134185000D01*
X107501939Y-134185000D01*
X107701898Y-134145226D01*
X107890256Y-134067205D01*
X108059774Y-133953937D01*
X108203937Y-133809774D01*
X108317205Y-133640256D01*
X108395226Y-133451898D01*
X108435000Y-133251939D01*
X108435000Y-133185000D01*
X113293421Y-133185000D01*
X112798960Y-133679461D01*
%TA.AperFunction,Conductor*%
D27*
G36*
X112798960Y-133679461D02*
G01*
X112726260Y-133665000D01*
X112433740Y-133665000D01*
X112146842Y-133722068D01*
X111876589Y-133834010D01*
X111633368Y-133996525D01*
X111426525Y-134203368D01*
X111304805Y-134385534D01*
X111235178Y-134268645D01*
X111040269Y-134052412D01*
X110806920Y-133878359D01*
X110544099Y-133753175D01*
X110396890Y-133708524D01*
X110167000Y-133829845D01*
X110167000Y-135023000D01*
X110187000Y-135023000D01*
X110187000Y-135277000D01*
X110167000Y-135277000D01*
X110167000Y-136470155D01*
X110396890Y-136591476D01*
X110544099Y-136546825D01*
X110806920Y-136421641D01*
X111040269Y-136247588D01*
X111235178Y-136031355D01*
X111304805Y-135914466D01*
X111426525Y-136096632D01*
X111633368Y-136303475D01*
X111876589Y-136465990D01*
X112146842Y-136577932D01*
X112433740Y-136635000D01*
X112726260Y-136635000D01*
X113013158Y-136577932D01*
X113283411Y-136465990D01*
X113526632Y-136303475D01*
X113733475Y-136096632D01*
X113850000Y-135922240D01*
X113966525Y-136096632D01*
X114173368Y-136303475D01*
X114416589Y-136465990D01*
X114686842Y-136577932D01*
X114973740Y-136635000D01*
X115266260Y-136635000D01*
X115338960Y-136620539D01*
X115913491Y-137195070D01*
X115929847Y-137215000D01*
X95112857Y-137215000D01*
X95270269Y-137097588D01*
X95465178Y-136881355D01*
X95614157Y-136631252D01*
X95711481Y-136356891D01*
X95590814Y-136127000D01*
X94397000Y-136127000D01*
X94397000Y-136147000D01*
X94143000Y-136147000D01*
X94143000Y-136127000D01*
X94123000Y-136127000D01*
X94123000Y-135873000D01*
X94143000Y-135873000D01*
X94143000Y-135853000D01*
X94397000Y-135853000D01*
X94397000Y-135873000D01*
X95590814Y-135873000D01*
X95711481Y-135643109D01*
X95677389Y-135547001D01*
X95916928Y-135547001D01*
X95916928Y-135860000D01*
X95929188Y-135984482D01*
X95965498Y-136104180D01*
X96024463Y-136214494D01*
X96103815Y-136311185D01*
X96200506Y-136390537D01*
X96310820Y-136449502D01*
X96430518Y-136485812D01*
X96555000Y-136498072D01*
X98715000Y-136498072D01*
X98839482Y-136485812D01*
X98959180Y-136449502D01*
X99069494Y-136390537D01*
X99166185Y-136311185D01*
X99245537Y-136214494D01*
X99304502Y-136104180D01*
X99340812Y-135984482D01*
X99353072Y-135860000D01*
X102646928Y-135860000D01*
X102659188Y-135984482D01*
X102695498Y-136104180D01*
X102754463Y-136214494D01*
X102833815Y-136311185D01*
X102930506Y-136390537D01*
X103040820Y-136449502D01*
X103160518Y-136485812D01*
X103285000Y-136498072D01*
X104079250Y-136495000D01*
X104238000Y-136336250D01*
X104238000Y-135427000D01*
X104492000Y-135427000D01*
X104492000Y-136336250D01*
X104650750Y-136495000D01*
X105445000Y-136498072D01*
X105569482Y-136485812D01*
X105689180Y-136449502D01*
X105799494Y-136390537D01*
X105896185Y-136311185D01*
X105975537Y-136214494D01*
X106034502Y-136104180D01*
X106070812Y-135984482D01*
X106083072Y-135860000D01*
X106080000Y-135585750D01*
X106001141Y-135506891D01*
X108598519Y-135506891D01*
X108695843Y-135781252D01*
X108844822Y-136031355D01*
X109039731Y-136247588D01*
X109273080Y-136421641D01*
X109535901Y-136546825D01*
X109683110Y-136591476D01*
X109913000Y-136470155D01*
X109913000Y-135277000D01*
X108719186Y-135277000D01*
X108598519Y-135506891D01*
X106001141Y-135506891D01*
X105921250Y-135427000D01*
X104492000Y-135427000D01*
X104238000Y-135427000D01*
X102808750Y-135427000D01*
X102650000Y-135585750D01*
X102646928Y-135860000D01*
X99353072Y-135860000D01*
X99353072Y-134740000D01*
X102646928Y-134740000D01*
X102650000Y-135014250D01*
X102808750Y-135173000D01*
X104238000Y-135173000D01*
X104238000Y-134263750D01*
X104492000Y-134263750D01*
X104492000Y-135173000D01*
X105921250Y-135173000D01*
X106080000Y-135014250D01*
X106082477Y-134793109D01*
X108598519Y-134793109D01*
X108719186Y-135023000D01*
X109913000Y-135023000D01*
X109913000Y-133829845D01*
X109683110Y-133708524D01*
X109535901Y-133753175D01*
X109273080Y-133878359D01*
X109039731Y-134052412D01*
X108844822Y-134268645D01*
X108695843Y-134518748D01*
X108598519Y-134793109D01*
X106082477Y-134793109D01*
X106083072Y-134740000D01*
X106070812Y-134615518D01*
X106034502Y-134495820D01*
X105975537Y-134385506D01*
X105896185Y-134288815D01*
X105799494Y-134209463D01*
X105689180Y-134150498D01*
X105569482Y-134114188D01*
X105445000Y-134101928D01*
X104650750Y-134105000D01*
X104492000Y-134263750D01*
X104238000Y-134263750D01*
X104079250Y-134105000D01*
X103285000Y-134101928D01*
X103160518Y-134114188D01*
X103040820Y-134150498D01*
X102930506Y-134209463D01*
X102833815Y-134288815D01*
X102754463Y-134385506D01*
X102695498Y-134495820D01*
X102659188Y-134615518D01*
X102646928Y-134740000D01*
X99353072Y-134740000D01*
X99340812Y-134615518D01*
X99304502Y-134495820D01*
X99245537Y-134385506D01*
X99166185Y-134288815D01*
X99069494Y-134209463D01*
X98959180Y-134150498D01*
X98839482Y-134114188D01*
X98715000Y-134101928D01*
X97688506Y-134101928D01*
X97653535Y-134066957D01*
X97627308Y-134035000D01*
X106861546Y-134035000D01*
X106909744Y-134067205D01*
X107098102Y-134145226D01*
X107298061Y-134185000D01*
X107501939Y-134185000D01*
X107701898Y-134145226D01*
X107890256Y-134067205D01*
X108059774Y-133953937D01*
X108203937Y-133809774D01*
X108317205Y-133640256D01*
X108395226Y-133451898D01*
X108435000Y-133251939D01*
X108435000Y-133185000D01*
X113293421Y-133185000D01*
X112798960Y-133679461D01*
G37*
%TD.AperFunction*%
D26*
X113190598Y-70676452D02*
X112808866Y-71247754D01*
X112572867Y-71817506D01*
X112356043Y-71672629D01*
X112103989Y-71568225D01*
X111836411Y-71515000D01*
X111563589Y-71515000D01*
X111296011Y-71568225D01*
X111043957Y-71672629D01*
X110817114Y-71824201D01*
X110626315Y-72015000D01*
X109577785Y-72015000D01*
X109534316Y-72010719D01*
X109490847Y-72015000D01*
X109490839Y-72015000D01*
X109360826Y-72027805D01*
X109194002Y-72078411D01*
X109040257Y-72160589D01*
X108939269Y-72243468D01*
X108939267Y-72243470D01*
X108905499Y-72271183D01*
X108877786Y-72304951D01*
X108600572Y-72582165D01*
X108600572Y-72024999D01*
X108583508Y-71851745D01*
X108532972Y-71685149D01*
X108450905Y-71531613D01*
X108340462Y-71397038D01*
X108205887Y-71286595D01*
X108052351Y-71204528D01*
X107885755Y-71153992D01*
X107712501Y-71136928D01*
X107087499Y-71136928D01*
X106914245Y-71153992D01*
X106747649Y-71204528D01*
X106594113Y-71286595D01*
X106459538Y-71397038D01*
X106349095Y-71531613D01*
X106267028Y-71685149D01*
X106216492Y-71851745D01*
X106199428Y-72024999D01*
X106199428Y-73275001D01*
X106216492Y-73448255D01*
X106267028Y-73614851D01*
X106349095Y-73768387D01*
X106459538Y-73902962D01*
X106594113Y-74013405D01*
X106747649Y-74095472D01*
X106914245Y-74146008D01*
X107025748Y-74156990D01*
X106872115Y-74310623D01*
X106815260Y-74321932D01*
X106626902Y-74399953D01*
X106457384Y-74513221D01*
X106313221Y-74657384D01*
X106199953Y-74826902D01*
X106121932Y-75015260D01*
X106082158Y-75215219D01*
X106082158Y-75419097D01*
X106110569Y-75561928D01*
X95125000Y-75561928D01*
X93317864Y-75739915D01*
X91580176Y-76267037D01*
X89978713Y-77123037D01*
X88575019Y-78275019D01*
X87423037Y-79678713D01*
X86567037Y-81280176D01*
X86039915Y-83017864D01*
X85861928Y-84825000D01*
X85861928Y-102054901D01*
X85616034Y-101809007D01*
X85175128Y-101514403D01*
X84685220Y-101311476D01*
X84165136Y-101208025D01*
X83634864Y-101208025D01*
X83114780Y-101311476D01*
X82624872Y-101514403D01*
X82183966Y-101809007D01*
X81809007Y-102183966D01*
X81514403Y-102624872D01*
X81311476Y-103114780D01*
X81208025Y-103634864D01*
X81208025Y-104165136D01*
X81311476Y-104685220D01*
X81514403Y-105175128D01*
X81809007Y-105616034D01*
X82183966Y-105990993D01*
X82624872Y-106285597D01*
X83114780Y-106488524D01*
X83634864Y-106591975D01*
X84165136Y-106591975D01*
X84685220Y-106488524D01*
X85175128Y-106285597D01*
X85616034Y-105990993D01*
X85861928Y-105745099D01*
X85861928Y-113796711D01*
X85794180Y-113760498D01*
X85674482Y-113724188D01*
X85550000Y-113711928D01*
X83850000Y-113711928D01*
X83725518Y-113724188D01*
X83605820Y-113760498D01*
X83495506Y-113819463D01*
X83398815Y-113898815D01*
X83319463Y-113995506D01*
X83260498Y-114105820D01*
X83224188Y-114225518D01*
X83211928Y-114350000D01*
X83211928Y-116050000D01*
X83224188Y-116174482D01*
X83260498Y-116294180D01*
X83319463Y-116404494D01*
X83398815Y-116501185D01*
X83495506Y-116580537D01*
X83605820Y-116639502D01*
X83678380Y-116661513D01*
X83546525Y-116793368D01*
X83384010Y-117036589D01*
X83272068Y-117306842D01*
X83215000Y-117593740D01*
X83215000Y-117886260D01*
X83272068Y-118173158D01*
X83384010Y-118443411D01*
X83546525Y-118686632D01*
X83753368Y-118893475D01*
X83935534Y-119015195D01*
X83818645Y-119084822D01*
X83602412Y-119279731D01*
X83428359Y-119513080D01*
X83303175Y-119775901D01*
X83258524Y-119923110D01*
X83379845Y-120153000D01*
X84573000Y-120153000D01*
X84573000Y-120133000D01*
X84827000Y-120133000D01*
X84827000Y-120153000D01*
X84847000Y-120153000D01*
X84847000Y-120407000D01*
X84827000Y-120407000D01*
X84827000Y-121600814D01*
X85056891Y-121721481D01*
X85331252Y-121624157D01*
X85581355Y-121475178D01*
X85797588Y-121280269D01*
X85861928Y-121194010D01*
X85861928Y-122575000D01*
X86039915Y-124382136D01*
X86567037Y-126119824D01*
X87423037Y-127721287D01*
X88575019Y-129124981D01*
X89978713Y-130276963D01*
X91580176Y-131132963D01*
X92305537Y-131352999D01*
X88611704Y-131352999D01*
X88568238Y-131348718D01*
X88524772Y-131352999D01*
X88524762Y-131352999D01*
X88394749Y-131365804D01*
X88227926Y-131416410D01*
X88074180Y-131498588D01*
X88074178Y-131498589D01*
X88074179Y-131498589D01*
X87973192Y-131581467D01*
X87973190Y-131581469D01*
X87939422Y-131609182D01*
X87911709Y-131642950D01*
X87482831Y-132071828D01*
X87362000Y-132059928D01*
X85838000Y-132059928D01*
X85713518Y-132072188D01*
X85593820Y-132108498D01*
X85483506Y-132167463D01*
X85386815Y-132246815D01*
X85307463Y-132343506D01*
X85248498Y-132453820D01*
X85212188Y-132573518D01*
X85199928Y-132698000D01*
X85199928Y-132731287D01*
X85085120Y-132559465D01*
X84890535Y-132364880D01*
X84733491Y-132259946D01*
X84811185Y-132196185D01*
X84890537Y-132099494D01*
X84949502Y-131989180D01*
X84985812Y-131869482D01*
X84998072Y-131745000D01*
X84998072Y-129585000D01*
X84985812Y-129460518D01*
X84949502Y-129340820D01*
X84890537Y-129230506D01*
X84811185Y-129133815D01*
X84714494Y-129054463D01*
X84604180Y-128995498D01*
X84484482Y-128959188D01*
X84360000Y-128946928D01*
X83240000Y-128946928D01*
X83115518Y-128959188D01*
X83085000Y-128968446D01*
X83085000Y-125631554D01*
X83115518Y-125640812D01*
X83240000Y-125653072D01*
X83514250Y-125650000D01*
X83673000Y-125491250D01*
X83673000Y-124062000D01*
X83927000Y-124062000D01*
X83927000Y-125491250D01*
X84085750Y-125650000D01*
X84360000Y-125653072D01*
X84484482Y-125640812D01*
X84604180Y-125604502D01*
X84714494Y-125545537D01*
X84811185Y-125466185D01*
X84890537Y-125369494D01*
X84949502Y-125259180D01*
X84985812Y-125139482D01*
X84998072Y-125015000D01*
X84995000Y-124220750D01*
X84836250Y-124062000D01*
X83927000Y-124062000D01*
X83673000Y-124062000D01*
X83653000Y-124062000D01*
X83653000Y-123808000D01*
X83673000Y-123808000D01*
X83673000Y-122378750D01*
X83927000Y-122378750D01*
X83927000Y-123808000D01*
X84836250Y-123808000D01*
X84995000Y-123649250D01*
X84998072Y-122855000D01*
X84985812Y-122730518D01*
X84949502Y-122610820D01*
X84890537Y-122500506D01*
X84811185Y-122403815D01*
X84714494Y-122324463D01*
X84604180Y-122265498D01*
X84484482Y-122229188D01*
X84360000Y-122216928D01*
X84085750Y-122220000D01*
X83927000Y-122378750D01*
X83673000Y-122378750D01*
X83514250Y-122220000D01*
X83240000Y-122216928D01*
X83115518Y-122229188D01*
X83085000Y-122238446D01*
X83085000Y-120636890D01*
X83258524Y-120636890D01*
X83303175Y-120784099D01*
X83428359Y-121046920D01*
X83602412Y-121280269D01*
X83818645Y-121475178D01*
X84068748Y-121624157D01*
X84343109Y-121721481D01*
X84573000Y-121600814D01*
X84573000Y-120407000D01*
X83379845Y-120407000D01*
X83258524Y-120636890D01*
X83085000Y-120636890D01*
X83085000Y-111666578D01*
X83927160Y-110824419D01*
X84098102Y-110895226D01*
X84298061Y-110935000D01*
X84501939Y-110935000D01*
X84701898Y-110895226D01*
X84890256Y-110817205D01*
X85059774Y-110703937D01*
X85203937Y-110559774D01*
X85317205Y-110390256D01*
X85395226Y-110201898D01*
X85435000Y-110001939D01*
X85435000Y-109798061D01*
X85395226Y-109598102D01*
X85317205Y-109409744D01*
X85203937Y-109240226D01*
X85059774Y-109096063D01*
X84890256Y-108982795D01*
X84701898Y-108904774D01*
X84501939Y-108865000D01*
X84298061Y-108865000D01*
X84098102Y-108904774D01*
X83909744Y-108982795D01*
X83861546Y-109015000D01*
X83643469Y-109015000D01*
X83600000Y-109010719D01*
X83556531Y-109015000D01*
X83556523Y-109015000D01*
X83441306Y-109026348D01*
X83426509Y-109027805D01*
X83375903Y-109043157D01*
X83259687Y-109078411D01*
X83105941Y-109160589D01*
X83105939Y-109160590D01*
X83105940Y-109160590D01*
X83004953Y-109243468D01*
X83004951Y-109243470D01*
X82971183Y-109271183D01*
X82943470Y-109304951D01*
X81604951Y-110643471D01*
X81571184Y-110671183D01*
X81543471Y-110704951D01*
X81543468Y-110704954D01*
X81460590Y-110805941D01*
X81378412Y-110959687D01*
X81327805Y-111126510D01*
X81310719Y-111300000D01*
X81315001Y-111343479D01*
X81315000Y-131606531D01*
X81310719Y-131650000D01*
X81315000Y-131693469D01*
X81315000Y-131693476D01*
X81320075Y-131745000D01*
X81327805Y-131823490D01*
X81341526Y-131868721D01*
X81378411Y-131990312D01*
X81460589Y-132144058D01*
X81571183Y-132278817D01*
X81604956Y-132306534D01*
X82604299Y-133305878D01*
X82603000Y-133312408D01*
X82603000Y-133587592D01*
X82656686Y-133857490D01*
X82761995Y-134111727D01*
X82914880Y-134340535D01*
X83109465Y-134535120D01*
X83338273Y-134688005D01*
X83592510Y-134793314D01*
X83862408Y-134847000D01*
X84137592Y-134847000D01*
X84407490Y-134793314D01*
X84661727Y-134688005D01*
X84890535Y-134535120D01*
X85085120Y-134340535D01*
X85199928Y-134168713D01*
X85199928Y-134222000D01*
X85212188Y-134346482D01*
X85248498Y-134466180D01*
X85307463Y-134576494D01*
X85384091Y-134669865D01*
X85348815Y-134698815D01*
X85269463Y-134795506D01*
X85210498Y-134905820D01*
X85174188Y-135025518D01*
X85161928Y-135150000D01*
X85161928Y-136832314D01*
X81085000Y-133570772D01*
X81085000Y-74229228D01*
X83668525Y-72162408D01*
X87703000Y-72162408D01*
X87703000Y-72437592D01*
X87756686Y-72707490D01*
X87861995Y-72961727D01*
X88014880Y-73190535D01*
X88209465Y-73385120D01*
X88382695Y-73500869D01*
X88240226Y-73596063D01*
X88096063Y-73740226D01*
X87982795Y-73909744D01*
X87904774Y-74098102D01*
X87865000Y-74298061D01*
X87865000Y-74501939D01*
X87904774Y-74701898D01*
X87982795Y-74890256D01*
X88096063Y-75059774D01*
X88240226Y-75203937D01*
X88409744Y-75317205D01*
X88598102Y-75395226D01*
X88798061Y-75435000D01*
X89001939Y-75435000D01*
X89201898Y-75395226D01*
X89390256Y-75317205D01*
X89438454Y-75285000D01*
X96111546Y-75285000D01*
X96159744Y-75317205D01*
X96348102Y-75395226D01*
X96548061Y-75435000D01*
X96751939Y-75435000D01*
X96951898Y-75395226D01*
X97140256Y-75317205D01*
X97309774Y-75203937D01*
X97453937Y-75059774D01*
X97567205Y-74890256D01*
X97645226Y-74701898D01*
X97685000Y-74501939D01*
X97685000Y-74298061D01*
X97645226Y-74098102D01*
X97567205Y-73909744D01*
X97453937Y-73740226D01*
X97309774Y-73596063D01*
X97140256Y-73482795D01*
X96951898Y-73404774D01*
X96751939Y-73365000D01*
X96548061Y-73365000D01*
X96348102Y-73404774D01*
X96159744Y-73482795D01*
X96111546Y-73515000D01*
X92336156Y-73515000D01*
X92530535Y-73385120D01*
X92565655Y-73350000D01*
X98149428Y-73350000D01*
X98161688Y-73474482D01*
X98197998Y-73594180D01*
X98256963Y-73704494D01*
X98336315Y-73801185D01*
X98433006Y-73880537D01*
X98543320Y-73939502D01*
X98663018Y-73975812D01*
X98787500Y-73988072D01*
X98989250Y-73985000D01*
X99148000Y-73826250D01*
X99148000Y-72777000D01*
X98311250Y-72777000D01*
X98152500Y-72935750D01*
X98149428Y-73350000D01*
X92565655Y-73350000D01*
X92725120Y-73190535D01*
X92878005Y-72961727D01*
X92983314Y-72707490D01*
X93037000Y-72437592D01*
X93037000Y-72162408D01*
X92994750Y-71950000D01*
X98149428Y-71950000D01*
X98152500Y-72364250D01*
X98311250Y-72523000D01*
X99148000Y-72523000D01*
X99148000Y-71473750D01*
X99402000Y-71473750D01*
X99402000Y-72523000D01*
X99422000Y-72523000D01*
X99422000Y-72777000D01*
X99402000Y-72777000D01*
X99402000Y-73826250D01*
X99560750Y-73985000D01*
X99762500Y-73988072D01*
X99886982Y-73975812D01*
X100006680Y-73939502D01*
X100116994Y-73880537D01*
X100213685Y-73801185D01*
X100277492Y-73723436D01*
X100282708Y-73729792D01*
X100416336Y-73839458D01*
X100568791Y-73920947D01*
X100734215Y-73971128D01*
X100906250Y-73988072D01*
X101393750Y-73988072D01*
X101565785Y-73971128D01*
X101731209Y-73920947D01*
X101883664Y-73839458D01*
X102017292Y-73729792D01*
X102126958Y-73596164D01*
X102159651Y-73535000D01*
X103317806Y-73535000D01*
X103342028Y-73614851D01*
X103424095Y-73768387D01*
X103534538Y-73902962D01*
X103669113Y-74013405D01*
X103822649Y-74095472D01*
X103989245Y-74146008D01*
X104162499Y-74163072D01*
X104787501Y-74163072D01*
X104960755Y-74146008D01*
X105127351Y-74095472D01*
X105280887Y-74013405D01*
X105415462Y-73902962D01*
X105525905Y-73768387D01*
X105607972Y-73614851D01*
X105658508Y-73448255D01*
X105675572Y-73275001D01*
X105675572Y-72024999D01*
X105658508Y-71851745D01*
X105607972Y-71685149D01*
X105525905Y-71531613D01*
X105415462Y-71397038D01*
X105280887Y-71286595D01*
X105127351Y-71204528D01*
X104960755Y-71153992D01*
X104787501Y-71136928D01*
X104162499Y-71136928D01*
X103989245Y-71153992D01*
X103822649Y-71204528D01*
X103669113Y-71286595D01*
X103534538Y-71397038D01*
X103424095Y-71531613D01*
X103342028Y-71685149D01*
X103317806Y-71765000D01*
X102159651Y-71765000D01*
X102126958Y-71703836D01*
X102017292Y-71570208D01*
X101883664Y-71460542D01*
X101731209Y-71379053D01*
X101565785Y-71328872D01*
X101393750Y-71311928D01*
X100906250Y-71311928D01*
X100734215Y-71328872D01*
X100568791Y-71379053D01*
X100416336Y-71460542D01*
X100282708Y-71570208D01*
X100277492Y-71576564D01*
X100213685Y-71498815D01*
X100116994Y-71419463D01*
X100006680Y-71360498D01*
X99886982Y-71324188D01*
X99762500Y-71311928D01*
X99560750Y-71315000D01*
X99402000Y-71473750D01*
X99148000Y-71473750D01*
X98989250Y-71315000D01*
X98787500Y-71311928D01*
X98663018Y-71324188D01*
X98543320Y-71360498D01*
X98433006Y-71419463D01*
X98336315Y-71498815D01*
X98256963Y-71595506D01*
X98197998Y-71705820D01*
X98161688Y-71825518D01*
X98149428Y-71950000D01*
X92994750Y-71950000D01*
X92983314Y-71892510D01*
X92878005Y-71638273D01*
X92725120Y-71409465D01*
X92530535Y-71214880D01*
X92301727Y-71061995D01*
X92047490Y-70956686D01*
X91777592Y-70903000D01*
X91502408Y-70903000D01*
X91232510Y-70956686D01*
X90978273Y-71061995D01*
X90749465Y-71214880D01*
X90554880Y-71409465D01*
X90401995Y-71638273D01*
X90370000Y-71715515D01*
X90338005Y-71638273D01*
X90185120Y-71409465D01*
X89990535Y-71214880D01*
X89761727Y-71061995D01*
X89507490Y-70956686D01*
X89237592Y-70903000D01*
X88962408Y-70903000D01*
X88692510Y-70956686D01*
X88438273Y-71061995D01*
X88209465Y-71214880D01*
X88014880Y-71409465D01*
X87861995Y-71638273D01*
X87756686Y-71892510D01*
X87703000Y-72162408D01*
X83668525Y-72162408D01*
X85640285Y-70585000D01*
X113282050Y-70585000D01*
X113190598Y-70676452D01*
%TA.AperFunction,Conductor*%
D27*
G36*
X113190598Y-70676452D02*
G01*
X112808866Y-71247754D01*
X112572867Y-71817506D01*
X112356043Y-71672629D01*
X112103989Y-71568225D01*
X111836411Y-71515000D01*
X111563589Y-71515000D01*
X111296011Y-71568225D01*
X111043957Y-71672629D01*
X110817114Y-71824201D01*
X110626315Y-72015000D01*
X109577785Y-72015000D01*
X109534316Y-72010719D01*
X109490847Y-72015000D01*
X109490839Y-72015000D01*
X109360826Y-72027805D01*
X109194002Y-72078411D01*
X109040257Y-72160589D01*
X108939269Y-72243468D01*
X108939267Y-72243470D01*
X108905499Y-72271183D01*
X108877786Y-72304951D01*
X108600572Y-72582165D01*
X108600572Y-72024999D01*
X108583508Y-71851745D01*
X108532972Y-71685149D01*
X108450905Y-71531613D01*
X108340462Y-71397038D01*
X108205887Y-71286595D01*
X108052351Y-71204528D01*
X107885755Y-71153992D01*
X107712501Y-71136928D01*
X107087499Y-71136928D01*
X106914245Y-71153992D01*
X106747649Y-71204528D01*
X106594113Y-71286595D01*
X106459538Y-71397038D01*
X106349095Y-71531613D01*
X106267028Y-71685149D01*
X106216492Y-71851745D01*
X106199428Y-72024999D01*
X106199428Y-73275001D01*
X106216492Y-73448255D01*
X106267028Y-73614851D01*
X106349095Y-73768387D01*
X106459538Y-73902962D01*
X106594113Y-74013405D01*
X106747649Y-74095472D01*
X106914245Y-74146008D01*
X107025748Y-74156990D01*
X106872115Y-74310623D01*
X106815260Y-74321932D01*
X106626902Y-74399953D01*
X106457384Y-74513221D01*
X106313221Y-74657384D01*
X106199953Y-74826902D01*
X106121932Y-75015260D01*
X106082158Y-75215219D01*
X106082158Y-75419097D01*
X106110569Y-75561928D01*
X95125000Y-75561928D01*
X93317864Y-75739915D01*
X91580176Y-76267037D01*
X89978713Y-77123037D01*
X88575019Y-78275019D01*
X87423037Y-79678713D01*
X86567037Y-81280176D01*
X86039915Y-83017864D01*
X85861928Y-84825000D01*
X85861928Y-102054901D01*
X85616034Y-101809007D01*
X85175128Y-101514403D01*
X84685220Y-101311476D01*
X84165136Y-101208025D01*
X83634864Y-101208025D01*
X83114780Y-101311476D01*
X82624872Y-101514403D01*
X82183966Y-101809007D01*
X81809007Y-102183966D01*
X81514403Y-102624872D01*
X81311476Y-103114780D01*
X81208025Y-103634864D01*
X81208025Y-104165136D01*
X81311476Y-104685220D01*
X81514403Y-105175128D01*
X81809007Y-105616034D01*
X82183966Y-105990993D01*
X82624872Y-106285597D01*
X83114780Y-106488524D01*
X83634864Y-106591975D01*
X84165136Y-106591975D01*
X84685220Y-106488524D01*
X85175128Y-106285597D01*
X85616034Y-105990993D01*
X85861928Y-105745099D01*
X85861928Y-113796711D01*
X85794180Y-113760498D01*
X85674482Y-113724188D01*
X85550000Y-113711928D01*
X83850000Y-113711928D01*
X83725518Y-113724188D01*
X83605820Y-113760498D01*
X83495506Y-113819463D01*
X83398815Y-113898815D01*
X83319463Y-113995506D01*
X83260498Y-114105820D01*
X83224188Y-114225518D01*
X83211928Y-114350000D01*
X83211928Y-116050000D01*
X83224188Y-116174482D01*
X83260498Y-116294180D01*
X83319463Y-116404494D01*
X83398815Y-116501185D01*
X83495506Y-116580537D01*
X83605820Y-116639502D01*
X83678380Y-116661513D01*
X83546525Y-116793368D01*
X83384010Y-117036589D01*
X83272068Y-117306842D01*
X83215000Y-117593740D01*
X83215000Y-117886260D01*
X83272068Y-118173158D01*
X83384010Y-118443411D01*
X83546525Y-118686632D01*
X83753368Y-118893475D01*
X83935534Y-119015195D01*
X83818645Y-119084822D01*
X83602412Y-119279731D01*
X83428359Y-119513080D01*
X83303175Y-119775901D01*
X83258524Y-119923110D01*
X83379845Y-120153000D01*
X84573000Y-120153000D01*
X84573000Y-120133000D01*
X84827000Y-120133000D01*
X84827000Y-120153000D01*
X84847000Y-120153000D01*
X84847000Y-120407000D01*
X84827000Y-120407000D01*
X84827000Y-121600814D01*
X85056891Y-121721481D01*
X85331252Y-121624157D01*
X85581355Y-121475178D01*
X85797588Y-121280269D01*
X85861928Y-121194010D01*
X85861928Y-122575000D01*
X86039915Y-124382136D01*
X86567037Y-126119824D01*
X87423037Y-127721287D01*
X88575019Y-129124981D01*
X89978713Y-130276963D01*
X91580176Y-131132963D01*
X92305537Y-131352999D01*
X88611704Y-131352999D01*
X88568238Y-131348718D01*
X88524772Y-131352999D01*
X88524762Y-131352999D01*
X88394749Y-131365804D01*
X88227926Y-131416410D01*
X88074180Y-131498588D01*
X88074178Y-131498589D01*
X88074179Y-131498589D01*
X87973192Y-131581467D01*
X87973190Y-131581469D01*
X87939422Y-131609182D01*
X87911709Y-131642950D01*
X87482831Y-132071828D01*
X87362000Y-132059928D01*
X85838000Y-132059928D01*
X85713518Y-132072188D01*
X85593820Y-132108498D01*
X85483506Y-132167463D01*
X85386815Y-132246815D01*
X85307463Y-132343506D01*
X85248498Y-132453820D01*
X85212188Y-132573518D01*
X85199928Y-132698000D01*
X85199928Y-132731287D01*
X85085120Y-132559465D01*
X84890535Y-132364880D01*
X84733491Y-132259946D01*
X84811185Y-132196185D01*
X84890537Y-132099494D01*
X84949502Y-131989180D01*
X84985812Y-131869482D01*
X84998072Y-131745000D01*
X84998072Y-129585000D01*
X84985812Y-129460518D01*
X84949502Y-129340820D01*
X84890537Y-129230506D01*
X84811185Y-129133815D01*
X84714494Y-129054463D01*
X84604180Y-128995498D01*
X84484482Y-128959188D01*
X84360000Y-128946928D01*
X83240000Y-128946928D01*
X83115518Y-128959188D01*
X83085000Y-128968446D01*
X83085000Y-125631554D01*
X83115518Y-125640812D01*
X83240000Y-125653072D01*
X83514250Y-125650000D01*
X83673000Y-125491250D01*
X83673000Y-124062000D01*
X83927000Y-124062000D01*
X83927000Y-125491250D01*
X84085750Y-125650000D01*
X84360000Y-125653072D01*
X84484482Y-125640812D01*
X84604180Y-125604502D01*
X84714494Y-125545537D01*
X84811185Y-125466185D01*
X84890537Y-125369494D01*
X84949502Y-125259180D01*
X84985812Y-125139482D01*
X84998072Y-125015000D01*
X84995000Y-124220750D01*
X84836250Y-124062000D01*
X83927000Y-124062000D01*
X83673000Y-124062000D01*
X83653000Y-124062000D01*
X83653000Y-123808000D01*
X83673000Y-123808000D01*
X83673000Y-122378750D01*
X83927000Y-122378750D01*
X83927000Y-123808000D01*
X84836250Y-123808000D01*
X84995000Y-123649250D01*
X84998072Y-122855000D01*
X84985812Y-122730518D01*
X84949502Y-122610820D01*
X84890537Y-122500506D01*
X84811185Y-122403815D01*
X84714494Y-122324463D01*
X84604180Y-122265498D01*
X84484482Y-122229188D01*
X84360000Y-122216928D01*
X84085750Y-122220000D01*
X83927000Y-122378750D01*
X83673000Y-122378750D01*
X83514250Y-122220000D01*
X83240000Y-122216928D01*
X83115518Y-122229188D01*
X83085000Y-122238446D01*
X83085000Y-120636890D01*
X83258524Y-120636890D01*
X83303175Y-120784099D01*
X83428359Y-121046920D01*
X83602412Y-121280269D01*
X83818645Y-121475178D01*
X84068748Y-121624157D01*
X84343109Y-121721481D01*
X84573000Y-121600814D01*
X84573000Y-120407000D01*
X83379845Y-120407000D01*
X83258524Y-120636890D01*
X83085000Y-120636890D01*
X83085000Y-111666578D01*
X83927160Y-110824419D01*
X84098102Y-110895226D01*
X84298061Y-110935000D01*
X84501939Y-110935000D01*
X84701898Y-110895226D01*
X84890256Y-110817205D01*
X85059774Y-110703937D01*
X85203937Y-110559774D01*
X85317205Y-110390256D01*
X85395226Y-110201898D01*
X85435000Y-110001939D01*
X85435000Y-109798061D01*
X85395226Y-109598102D01*
X85317205Y-109409744D01*
X85203937Y-109240226D01*
X85059774Y-109096063D01*
X84890256Y-108982795D01*
X84701898Y-108904774D01*
X84501939Y-108865000D01*
X84298061Y-108865000D01*
X84098102Y-108904774D01*
X83909744Y-108982795D01*
X83861546Y-109015000D01*
X83643469Y-109015000D01*
X83600000Y-109010719D01*
X83556531Y-109015000D01*
X83556523Y-109015000D01*
X83441306Y-109026348D01*
X83426509Y-109027805D01*
X83375903Y-109043157D01*
X83259687Y-109078411D01*
X83105941Y-109160589D01*
X83105939Y-109160590D01*
X83105940Y-109160590D01*
X83004953Y-109243468D01*
X83004951Y-109243470D01*
X82971183Y-109271183D01*
X82943470Y-109304951D01*
X81604951Y-110643471D01*
X81571184Y-110671183D01*
X81543471Y-110704951D01*
X81543468Y-110704954D01*
X81460590Y-110805941D01*
X81378412Y-110959687D01*
X81327805Y-111126510D01*
X81310719Y-111300000D01*
X81315001Y-111343479D01*
X81315000Y-131606531D01*
X81310719Y-131650000D01*
X81315000Y-131693469D01*
X81315000Y-131693476D01*
X81320075Y-131745000D01*
X81327805Y-131823490D01*
X81341526Y-131868721D01*
X81378411Y-131990312D01*
X81460589Y-132144058D01*
X81571183Y-132278817D01*
X81604956Y-132306534D01*
X82604299Y-133305878D01*
X82603000Y-133312408D01*
X82603000Y-133587592D01*
X82656686Y-133857490D01*
X82761995Y-134111727D01*
X82914880Y-134340535D01*
X83109465Y-134535120D01*
X83338273Y-134688005D01*
X83592510Y-134793314D01*
X83862408Y-134847000D01*
X84137592Y-134847000D01*
X84407490Y-134793314D01*
X84661727Y-134688005D01*
X84890535Y-134535120D01*
X85085120Y-134340535D01*
X85199928Y-134168713D01*
X85199928Y-134222000D01*
X85212188Y-134346482D01*
X85248498Y-134466180D01*
X85307463Y-134576494D01*
X85384091Y-134669865D01*
X85348815Y-134698815D01*
X85269463Y-134795506D01*
X85210498Y-134905820D01*
X85174188Y-135025518D01*
X85161928Y-135150000D01*
X85161928Y-136832314D01*
X81085000Y-133570772D01*
X81085000Y-74229228D01*
X83668525Y-72162408D01*
X87703000Y-72162408D01*
X87703000Y-72437592D01*
X87756686Y-72707490D01*
X87861995Y-72961727D01*
X88014880Y-73190535D01*
X88209465Y-73385120D01*
X88382695Y-73500869D01*
X88240226Y-73596063D01*
X88096063Y-73740226D01*
X87982795Y-73909744D01*
X87904774Y-74098102D01*
X87865000Y-74298061D01*
X87865000Y-74501939D01*
X87904774Y-74701898D01*
X87982795Y-74890256D01*
X88096063Y-75059774D01*
X88240226Y-75203937D01*
X88409744Y-75317205D01*
X88598102Y-75395226D01*
X88798061Y-75435000D01*
X89001939Y-75435000D01*
X89201898Y-75395226D01*
X89390256Y-75317205D01*
X89438454Y-75285000D01*
X96111546Y-75285000D01*
X96159744Y-75317205D01*
X96348102Y-75395226D01*
X96548061Y-75435000D01*
X96751939Y-75435000D01*
X96951898Y-75395226D01*
X97140256Y-75317205D01*
X97309774Y-75203937D01*
X97453937Y-75059774D01*
X97567205Y-74890256D01*
X97645226Y-74701898D01*
X97685000Y-74501939D01*
X97685000Y-74298061D01*
X97645226Y-74098102D01*
X97567205Y-73909744D01*
X97453937Y-73740226D01*
X97309774Y-73596063D01*
X97140256Y-73482795D01*
X96951898Y-73404774D01*
X96751939Y-73365000D01*
X96548061Y-73365000D01*
X96348102Y-73404774D01*
X96159744Y-73482795D01*
X96111546Y-73515000D01*
X92336156Y-73515000D01*
X92530535Y-73385120D01*
X92565655Y-73350000D01*
X98149428Y-73350000D01*
X98161688Y-73474482D01*
X98197998Y-73594180D01*
X98256963Y-73704494D01*
X98336315Y-73801185D01*
X98433006Y-73880537D01*
X98543320Y-73939502D01*
X98663018Y-73975812D01*
X98787500Y-73988072D01*
X98989250Y-73985000D01*
X99148000Y-73826250D01*
X99148000Y-72777000D01*
X98311250Y-72777000D01*
X98152500Y-72935750D01*
X98149428Y-73350000D01*
X92565655Y-73350000D01*
X92725120Y-73190535D01*
X92878005Y-72961727D01*
X92983314Y-72707490D01*
X93037000Y-72437592D01*
X93037000Y-72162408D01*
X92994750Y-71950000D01*
X98149428Y-71950000D01*
X98152500Y-72364250D01*
X98311250Y-72523000D01*
X99148000Y-72523000D01*
X99148000Y-71473750D01*
X99402000Y-71473750D01*
X99402000Y-72523000D01*
X99422000Y-72523000D01*
X99422000Y-72777000D01*
X99402000Y-72777000D01*
X99402000Y-73826250D01*
X99560750Y-73985000D01*
X99762500Y-73988072D01*
X99886982Y-73975812D01*
X100006680Y-73939502D01*
X100116994Y-73880537D01*
X100213685Y-73801185D01*
X100277492Y-73723436D01*
X100282708Y-73729792D01*
X100416336Y-73839458D01*
X100568791Y-73920947D01*
X100734215Y-73971128D01*
X100906250Y-73988072D01*
X101393750Y-73988072D01*
X101565785Y-73971128D01*
X101731209Y-73920947D01*
X101883664Y-73839458D01*
X102017292Y-73729792D01*
X102126958Y-73596164D01*
X102159651Y-73535000D01*
X103317806Y-73535000D01*
X103342028Y-73614851D01*
X103424095Y-73768387D01*
X103534538Y-73902962D01*
X103669113Y-74013405D01*
X103822649Y-74095472D01*
X103989245Y-74146008D01*
X104162499Y-74163072D01*
X104787501Y-74163072D01*
X104960755Y-74146008D01*
X105127351Y-74095472D01*
X105280887Y-74013405D01*
X105415462Y-73902962D01*
X105525905Y-73768387D01*
X105607972Y-73614851D01*
X105658508Y-73448255D01*
X105675572Y-73275001D01*
X105675572Y-72024999D01*
X105658508Y-71851745D01*
X105607972Y-71685149D01*
X105525905Y-71531613D01*
X105415462Y-71397038D01*
X105280887Y-71286595D01*
X105127351Y-71204528D01*
X104960755Y-71153992D01*
X104787501Y-71136928D01*
X104162499Y-71136928D01*
X103989245Y-71153992D01*
X103822649Y-71204528D01*
X103669113Y-71286595D01*
X103534538Y-71397038D01*
X103424095Y-71531613D01*
X103342028Y-71685149D01*
X103317806Y-71765000D01*
X102159651Y-71765000D01*
X102126958Y-71703836D01*
X102017292Y-71570208D01*
X101883664Y-71460542D01*
X101731209Y-71379053D01*
X101565785Y-71328872D01*
X101393750Y-71311928D01*
X100906250Y-71311928D01*
X100734215Y-71328872D01*
X100568791Y-71379053D01*
X100416336Y-71460542D01*
X100282708Y-71570208D01*
X100277492Y-71576564D01*
X100213685Y-71498815D01*
X100116994Y-71419463D01*
X100006680Y-71360498D01*
X99886982Y-71324188D01*
X99762500Y-71311928D01*
X99560750Y-71315000D01*
X99402000Y-71473750D01*
X99148000Y-71473750D01*
X98989250Y-71315000D01*
X98787500Y-71311928D01*
X98663018Y-71324188D01*
X98543320Y-71360498D01*
X98433006Y-71419463D01*
X98336315Y-71498815D01*
X98256963Y-71595506D01*
X98197998Y-71705820D01*
X98161688Y-71825518D01*
X98149428Y-71950000D01*
X92994750Y-71950000D01*
X92983314Y-71892510D01*
X92878005Y-71638273D01*
X92725120Y-71409465D01*
X92530535Y-71214880D01*
X92301727Y-71061995D01*
X92047490Y-70956686D01*
X91777592Y-70903000D01*
X91502408Y-70903000D01*
X91232510Y-70956686D01*
X90978273Y-71061995D01*
X90749465Y-71214880D01*
X90554880Y-71409465D01*
X90401995Y-71638273D01*
X90370000Y-71715515D01*
X90338005Y-71638273D01*
X90185120Y-71409465D01*
X89990535Y-71214880D01*
X89761727Y-71061995D01*
X89507490Y-70956686D01*
X89237592Y-70903000D01*
X88962408Y-70903000D01*
X88692510Y-70956686D01*
X88438273Y-71061995D01*
X88209465Y-71214880D01*
X88014880Y-71409465D01*
X87861995Y-71638273D01*
X87756686Y-71892510D01*
X87703000Y-72162408D01*
X83668525Y-72162408D01*
X85640285Y-70585000D01*
X113282050Y-70585000D01*
X113190598Y-70676452D01*
G37*
%TD.AperFunction*%
D26*
X94493748Y-133435858D02*
X94479605Y-133450000D01*
X94493748Y-133464143D01*
X94314143Y-133643748D01*
X94300000Y-133629605D01*
X94285858Y-133643748D01*
X94106253Y-133464143D01*
X94120395Y-133450000D01*
X94106253Y-133435858D01*
X94285858Y-133256253D01*
X94300000Y-133270395D01*
X94314143Y-133256253D01*
X94493748Y-133435858D01*
%TA.AperFunction,Conductor*%
D27*
G36*
X94493748Y-133435858D02*
G01*
X94479605Y-133450000D01*
X94493748Y-133464143D01*
X94314143Y-133643748D01*
X94300000Y-133629605D01*
X94285858Y-133643748D01*
X94106253Y-133464143D01*
X94120395Y-133450000D01*
X94106253Y-133435858D01*
X94285858Y-133256253D01*
X94300000Y-133270395D01*
X94314143Y-133256253D01*
X94493748Y-133435858D01*
G37*
%TD.AperFunction*%
D26*
X149715001Y-74229229D02*
X149715000Y-111763421D01*
X147806535Y-109854957D01*
X147795226Y-109798102D01*
X147717205Y-109609744D01*
X147603937Y-109440226D01*
X147459774Y-109296063D01*
X147290256Y-109182795D01*
X147101898Y-109104774D01*
X146901939Y-109065000D01*
X146698061Y-109065000D01*
X146498102Y-109104774D01*
X146309744Y-109182795D01*
X146140226Y-109296063D01*
X145996063Y-109440226D01*
X145882795Y-109609744D01*
X145804774Y-109798102D01*
X145765000Y-109998061D01*
X145765000Y-110201939D01*
X145804774Y-110401898D01*
X145825921Y-110452952D01*
X145698847Y-110478228D01*
X145510489Y-110556249D01*
X145340971Y-110669517D01*
X145196808Y-110813680D01*
X145083540Y-110983198D01*
X145005519Y-111171556D01*
X144965745Y-111371515D01*
X144965745Y-111575393D01*
X145005519Y-111775352D01*
X145083540Y-111963710D01*
X145196808Y-112133228D01*
X145340971Y-112277391D01*
X145510489Y-112390659D01*
X145698847Y-112468680D01*
X145755702Y-112479989D01*
X146033000Y-112757288D01*
X146033000Y-112962499D01*
X145842619Y-112962499D01*
X145642660Y-113002273D01*
X145454302Y-113080294D01*
X145406104Y-113112499D01*
X144838072Y-113112499D01*
X144838072Y-112875000D01*
X144775373Y-112238406D01*
X144589685Y-111626276D01*
X144288145Y-111062134D01*
X143882340Y-110567660D01*
X143387866Y-110161855D01*
X143084345Y-109999620D01*
X143332312Y-109867079D01*
X143845729Y-109445729D01*
X144267079Y-108932312D01*
X144580170Y-108346559D01*
X144772971Y-107710980D01*
X144838072Y-107050000D01*
X144838072Y-105645099D01*
X145183966Y-105990993D01*
X145624872Y-106285597D01*
X146114780Y-106488524D01*
X146634864Y-106591975D01*
X147165136Y-106591975D01*
X147685220Y-106488524D01*
X148175128Y-106285597D01*
X148616034Y-105990993D01*
X148990993Y-105616034D01*
X149285597Y-105175128D01*
X149488524Y-104685220D01*
X149591975Y-104165136D01*
X149591975Y-103634864D01*
X149488524Y-103114780D01*
X149285597Y-102624872D01*
X148990993Y-102183966D01*
X148616034Y-101809007D01*
X148175128Y-101514403D01*
X147685220Y-101311476D01*
X147165136Y-101208025D01*
X146634864Y-101208025D01*
X146114780Y-101311476D01*
X145624872Y-101514403D01*
X145183966Y-101809007D01*
X144838072Y-102154901D01*
X144838072Y-101550000D01*
X144772971Y-100889020D01*
X144630901Y-100420678D01*
X145995049Y-99056530D01*
X146028817Y-99028817D01*
X146139411Y-98894059D01*
X146221589Y-98740313D01*
X146272195Y-98573490D01*
X146285000Y-98443477D01*
X146285000Y-98443467D01*
X146289281Y-98400001D01*
X146285000Y-98356535D01*
X146285000Y-94438454D01*
X146317205Y-94390256D01*
X146395226Y-94201898D01*
X146435000Y-94001939D01*
X146435000Y-93798061D01*
X146395226Y-93598102D01*
X146317205Y-93409744D01*
X146203937Y-93240226D01*
X146059774Y-93096063D01*
X145890256Y-92982795D01*
X145701898Y-92904774D01*
X145501939Y-92865000D01*
X145298061Y-92865000D01*
X145098102Y-92904774D01*
X144909744Y-92982795D01*
X144740226Y-93096063D01*
X144638072Y-93198217D01*
X144638072Y-91785000D01*
X144861546Y-91785000D01*
X144909744Y-91817205D01*
X145098102Y-91895226D01*
X145298061Y-91935000D01*
X145501939Y-91935000D01*
X145701898Y-91895226D01*
X145890256Y-91817205D01*
X146059774Y-91703937D01*
X146203937Y-91559774D01*
X146317205Y-91390256D01*
X146395226Y-91201898D01*
X146435000Y-91001939D01*
X146435000Y-90798061D01*
X146395226Y-90598102D01*
X146317205Y-90409744D01*
X146203937Y-90240226D01*
X146113711Y-90150000D01*
X146203937Y-90059774D01*
X146317205Y-89890256D01*
X146395226Y-89701898D01*
X146435000Y-89501939D01*
X146435000Y-89298061D01*
X146395226Y-89098102D01*
X146317205Y-88909744D01*
X146285000Y-88861546D01*
X146285000Y-83443469D01*
X146289281Y-83400000D01*
X146285000Y-83356531D01*
X146285000Y-83356523D01*
X146272195Y-83226510D01*
X146221589Y-83059687D01*
X146139411Y-82905941D01*
X146028817Y-82771183D01*
X145995049Y-82743470D01*
X144638072Y-81386494D01*
X144638072Y-78750000D01*
X144572971Y-78089020D01*
X144380170Y-77453441D01*
X144067079Y-76867688D01*
X143645729Y-76354271D01*
X143132312Y-75932921D01*
X142546559Y-75619830D01*
X141910980Y-75427029D01*
X141250000Y-75361928D01*
X124750000Y-75361928D01*
X124089020Y-75427029D01*
X123453441Y-75619830D01*
X122867688Y-75932921D01*
X122354271Y-76354271D01*
X121932921Y-76867688D01*
X121619830Y-77453441D01*
X121427029Y-78089020D01*
X121361928Y-78750000D01*
X121361928Y-82694284D01*
X120932963Y-81280176D01*
X120076963Y-79678713D01*
X118924981Y-78275019D01*
X117521287Y-77123037D01*
X116146358Y-76388122D01*
X116243550Y-76388122D01*
X116917448Y-76254076D01*
X117552246Y-75991134D01*
X118123548Y-75609402D01*
X118609402Y-75123548D01*
X118991134Y-74552246D01*
X119252927Y-73920221D01*
X119306157Y-73973451D01*
X119422613Y-73856995D01*
X119488137Y-74095860D01*
X119735116Y-74211760D01*
X119999960Y-74277250D01*
X120272492Y-74289812D01*
X120542238Y-74248965D01*
X120798832Y-74156277D01*
X120911863Y-74095860D01*
X120977388Y-73856993D01*
X120200000Y-73079605D01*
X120185858Y-73093748D01*
X120006253Y-72914143D01*
X120020395Y-72900000D01*
X120379605Y-72900000D01*
X121156993Y-73677388D01*
X121395860Y-73611863D01*
X121424890Y-73550000D01*
X130624428Y-73550000D01*
X130636688Y-73674482D01*
X130672998Y-73794180D01*
X130731963Y-73904494D01*
X130811315Y-74001185D01*
X130908006Y-74080537D01*
X131018320Y-74139502D01*
X131138018Y-74175812D01*
X131262500Y-74188072D01*
X131464250Y-74185000D01*
X131623000Y-74026250D01*
X131623000Y-72977000D01*
X130786250Y-72977000D01*
X130627500Y-73135750D01*
X130624428Y-73550000D01*
X121424890Y-73550000D01*
X121511760Y-73364884D01*
X121577250Y-73100040D01*
X121589812Y-72827508D01*
X121548965Y-72557762D01*
X121456277Y-72301168D01*
X121395860Y-72188137D01*
X121256835Y-72150000D01*
X130624428Y-72150000D01*
X130627500Y-72564250D01*
X130786250Y-72723000D01*
X131623000Y-72723000D01*
X131623000Y-71673750D01*
X131877000Y-71673750D01*
X131877000Y-72723000D01*
X131897000Y-72723000D01*
X131897000Y-72977000D01*
X131877000Y-72977000D01*
X131877000Y-74026250D01*
X132035750Y-74185000D01*
X132237500Y-74188072D01*
X132361982Y-74175812D01*
X132481680Y-74139502D01*
X132591994Y-74080537D01*
X132688685Y-74001185D01*
X132752492Y-73923436D01*
X132757708Y-73929792D01*
X132891336Y-74039458D01*
X133043791Y-74120947D01*
X133209215Y-74171128D01*
X133381250Y-74188072D01*
X133868750Y-74188072D01*
X134040785Y-74171128D01*
X134206209Y-74120947D01*
X134358664Y-74039458D01*
X134492292Y-73929792D01*
X134601958Y-73796164D01*
X134661376Y-73685000D01*
X135817806Y-73685000D01*
X135842028Y-73764851D01*
X135924095Y-73918387D01*
X136034538Y-74052962D01*
X136169113Y-74163405D01*
X136322649Y-74245472D01*
X136489245Y-74296008D01*
X136662499Y-74313072D01*
X137287501Y-74313072D01*
X137460755Y-74296008D01*
X137627351Y-74245472D01*
X137780887Y-74163405D01*
X137915462Y-74052962D01*
X138025905Y-73918387D01*
X138107972Y-73764851D01*
X138158508Y-73598255D01*
X138175572Y-73425001D01*
X138175572Y-72174999D01*
X138699428Y-72174999D01*
X138699428Y-73425001D01*
X138716492Y-73598255D01*
X138767028Y-73764851D01*
X138849095Y-73918387D01*
X138959538Y-74052962D01*
X139094113Y-74163405D01*
X139247649Y-74245472D01*
X139414245Y-74296008D01*
X139587499Y-74313072D01*
X140212501Y-74313072D01*
X140385755Y-74296008D01*
X140552351Y-74245472D01*
X140705887Y-74163405D01*
X140840462Y-74052962D01*
X140950905Y-73918387D01*
X141032972Y-73764851D01*
X141083508Y-73598255D01*
X141100572Y-73425001D01*
X141100572Y-72174999D01*
X141083508Y-72001745D01*
X141032972Y-71835149D01*
X140950905Y-71681613D01*
X140840462Y-71547038D01*
X140705887Y-71436595D01*
X140552351Y-71354528D01*
X140385755Y-71303992D01*
X140212501Y-71286928D01*
X139587499Y-71286928D01*
X139414245Y-71303992D01*
X139247649Y-71354528D01*
X139094113Y-71436595D01*
X138959538Y-71547038D01*
X138849095Y-71681613D01*
X138767028Y-71835149D01*
X138716492Y-72001745D01*
X138699428Y-72174999D01*
X138175572Y-72174999D01*
X138158508Y-72001745D01*
X138107972Y-71835149D01*
X138025905Y-71681613D01*
X137915462Y-71547038D01*
X137780887Y-71436595D01*
X137627351Y-71354528D01*
X137460755Y-71303992D01*
X137287501Y-71286928D01*
X136662499Y-71286928D01*
X136489245Y-71303992D01*
X136322649Y-71354528D01*
X136169113Y-71436595D01*
X136034538Y-71547038D01*
X135924095Y-71681613D01*
X135842028Y-71835149D01*
X135817806Y-71915000D01*
X134607925Y-71915000D01*
X134601958Y-71903836D01*
X134492292Y-71770208D01*
X134358664Y-71660542D01*
X134206209Y-71579053D01*
X134040785Y-71528872D01*
X133868750Y-71511928D01*
X133381250Y-71511928D01*
X133209215Y-71528872D01*
X133043791Y-71579053D01*
X132891336Y-71660542D01*
X132757708Y-71770208D01*
X132752492Y-71776564D01*
X132688685Y-71698815D01*
X132591994Y-71619463D01*
X132481680Y-71560498D01*
X132361982Y-71524188D01*
X132237500Y-71511928D01*
X132035750Y-71515000D01*
X131877000Y-71673750D01*
X131623000Y-71673750D01*
X131464250Y-71515000D01*
X131262500Y-71511928D01*
X131138018Y-71524188D01*
X131018320Y-71560498D01*
X130908006Y-71619463D01*
X130811315Y-71698815D01*
X130731963Y-71795506D01*
X130672998Y-71905820D01*
X130636688Y-72025518D01*
X130624428Y-72150000D01*
X121256835Y-72150000D01*
X121156993Y-72122612D01*
X120379605Y-72900000D01*
X120020395Y-72900000D01*
X120006253Y-72885858D01*
X120185858Y-72706253D01*
X120200000Y-72720395D01*
X120977388Y-71943007D01*
X120911863Y-71704140D01*
X120664884Y-71588240D01*
X120400040Y-71522750D01*
X120127508Y-71510188D01*
X119857762Y-71551035D01*
X119601168Y-71643723D01*
X119488137Y-71704140D01*
X119422613Y-71943005D01*
X119306157Y-71826549D01*
X119252927Y-71879779D01*
X118991134Y-71247754D01*
X118609402Y-70676452D01*
X118517950Y-70585000D01*
X145159715Y-70585000D01*
X149715001Y-74229229D01*
%TA.AperFunction,Conductor*%
D27*
G36*
X149715001Y-74229229D02*
G01*
X149715000Y-111763421D01*
X147806535Y-109854957D01*
X147795226Y-109798102D01*
X147717205Y-109609744D01*
X147603937Y-109440226D01*
X147459774Y-109296063D01*
X147290256Y-109182795D01*
X147101898Y-109104774D01*
X146901939Y-109065000D01*
X146698061Y-109065000D01*
X146498102Y-109104774D01*
X146309744Y-109182795D01*
X146140226Y-109296063D01*
X145996063Y-109440226D01*
X145882795Y-109609744D01*
X145804774Y-109798102D01*
X145765000Y-109998061D01*
X145765000Y-110201939D01*
X145804774Y-110401898D01*
X145825921Y-110452952D01*
X145698847Y-110478228D01*
X145510489Y-110556249D01*
X145340971Y-110669517D01*
X145196808Y-110813680D01*
X145083540Y-110983198D01*
X145005519Y-111171556D01*
X144965745Y-111371515D01*
X144965745Y-111575393D01*
X145005519Y-111775352D01*
X145083540Y-111963710D01*
X145196808Y-112133228D01*
X145340971Y-112277391D01*
X145510489Y-112390659D01*
X145698847Y-112468680D01*
X145755702Y-112479989D01*
X146033000Y-112757288D01*
X146033000Y-112962499D01*
X145842619Y-112962499D01*
X145642660Y-113002273D01*
X145454302Y-113080294D01*
X145406104Y-113112499D01*
X144838072Y-113112499D01*
X144838072Y-112875000D01*
X144775373Y-112238406D01*
X144589685Y-111626276D01*
X144288145Y-111062134D01*
X143882340Y-110567660D01*
X143387866Y-110161855D01*
X143084345Y-109999620D01*
X143332312Y-109867079D01*
X143845729Y-109445729D01*
X144267079Y-108932312D01*
X144580170Y-108346559D01*
X144772971Y-107710980D01*
X144838072Y-107050000D01*
X144838072Y-105645099D01*
X145183966Y-105990993D01*
X145624872Y-106285597D01*
X146114780Y-106488524D01*
X146634864Y-106591975D01*
X147165136Y-106591975D01*
X147685220Y-106488524D01*
X148175128Y-106285597D01*
X148616034Y-105990993D01*
X148990993Y-105616034D01*
X149285597Y-105175128D01*
X149488524Y-104685220D01*
X149591975Y-104165136D01*
X149591975Y-103634864D01*
X149488524Y-103114780D01*
X149285597Y-102624872D01*
X148990993Y-102183966D01*
X148616034Y-101809007D01*
X148175128Y-101514403D01*
X147685220Y-101311476D01*
X147165136Y-101208025D01*
X146634864Y-101208025D01*
X146114780Y-101311476D01*
X145624872Y-101514403D01*
X145183966Y-101809007D01*
X144838072Y-102154901D01*
X144838072Y-101550000D01*
X144772971Y-100889020D01*
X144630901Y-100420678D01*
X145995049Y-99056530D01*
X146028817Y-99028817D01*
X146139411Y-98894059D01*
X146221589Y-98740313D01*
X146272195Y-98573490D01*
X146285000Y-98443477D01*
X146285000Y-98443467D01*
X146289281Y-98400001D01*
X146285000Y-98356535D01*
X146285000Y-94438454D01*
X146317205Y-94390256D01*
X146395226Y-94201898D01*
X146435000Y-94001939D01*
X146435000Y-93798061D01*
X146395226Y-93598102D01*
X146317205Y-93409744D01*
X146203937Y-93240226D01*
X146059774Y-93096063D01*
X145890256Y-92982795D01*
X145701898Y-92904774D01*
X145501939Y-92865000D01*
X145298061Y-92865000D01*
X145098102Y-92904774D01*
X144909744Y-92982795D01*
X144740226Y-93096063D01*
X144638072Y-93198217D01*
X144638072Y-91785000D01*
X144861546Y-91785000D01*
X144909744Y-91817205D01*
X145098102Y-91895226D01*
X145298061Y-91935000D01*
X145501939Y-91935000D01*
X145701898Y-91895226D01*
X145890256Y-91817205D01*
X146059774Y-91703937D01*
X146203937Y-91559774D01*
X146317205Y-91390256D01*
X146395226Y-91201898D01*
X146435000Y-91001939D01*
X146435000Y-90798061D01*
X146395226Y-90598102D01*
X146317205Y-90409744D01*
X146203937Y-90240226D01*
X146113711Y-90150000D01*
X146203937Y-90059774D01*
X146317205Y-89890256D01*
X146395226Y-89701898D01*
X146435000Y-89501939D01*
X146435000Y-89298061D01*
X146395226Y-89098102D01*
X146317205Y-88909744D01*
X146285000Y-88861546D01*
X146285000Y-83443469D01*
X146289281Y-83400000D01*
X146285000Y-83356531D01*
X146285000Y-83356523D01*
X146272195Y-83226510D01*
X146221589Y-83059687D01*
X146139411Y-82905941D01*
X146028817Y-82771183D01*
X145995049Y-82743470D01*
X144638072Y-81386494D01*
X144638072Y-78750000D01*
X144572971Y-78089020D01*
X144380170Y-77453441D01*
X144067079Y-76867688D01*
X143645729Y-76354271D01*
X143132312Y-75932921D01*
X142546559Y-75619830D01*
X141910980Y-75427029D01*
X141250000Y-75361928D01*
X124750000Y-75361928D01*
X124089020Y-75427029D01*
X123453441Y-75619830D01*
X122867688Y-75932921D01*
X122354271Y-76354271D01*
X121932921Y-76867688D01*
X121619830Y-77453441D01*
X121427029Y-78089020D01*
X121361928Y-78750000D01*
X121361928Y-82694284D01*
X120932963Y-81280176D01*
X120076963Y-79678713D01*
X118924981Y-78275019D01*
X117521287Y-77123037D01*
X116146358Y-76388122D01*
X116243550Y-76388122D01*
X116917448Y-76254076D01*
X117552246Y-75991134D01*
X118123548Y-75609402D01*
X118609402Y-75123548D01*
X118991134Y-74552246D01*
X119252927Y-73920221D01*
X119306157Y-73973451D01*
X119422613Y-73856995D01*
X119488137Y-74095860D01*
X119735116Y-74211760D01*
X119999960Y-74277250D01*
X120272492Y-74289812D01*
X120542238Y-74248965D01*
X120798832Y-74156277D01*
X120911863Y-74095860D01*
X120977388Y-73856993D01*
X120200000Y-73079605D01*
X120185858Y-73093748D01*
X120006253Y-72914143D01*
X120020395Y-72900000D01*
X120379605Y-72900000D01*
X121156993Y-73677388D01*
X121395860Y-73611863D01*
X121424890Y-73550000D01*
X130624428Y-73550000D01*
X130636688Y-73674482D01*
X130672998Y-73794180D01*
X130731963Y-73904494D01*
X130811315Y-74001185D01*
X130908006Y-74080537D01*
X131018320Y-74139502D01*
X131138018Y-74175812D01*
X131262500Y-74188072D01*
X131464250Y-74185000D01*
X131623000Y-74026250D01*
X131623000Y-72977000D01*
X130786250Y-72977000D01*
X130627500Y-73135750D01*
X130624428Y-73550000D01*
X121424890Y-73550000D01*
X121511760Y-73364884D01*
X121577250Y-73100040D01*
X121589812Y-72827508D01*
X121548965Y-72557762D01*
X121456277Y-72301168D01*
X121395860Y-72188137D01*
X121256835Y-72150000D01*
X130624428Y-72150000D01*
X130627500Y-72564250D01*
X130786250Y-72723000D01*
X131623000Y-72723000D01*
X131623000Y-71673750D01*
X131877000Y-71673750D01*
X131877000Y-72723000D01*
X131897000Y-72723000D01*
X131897000Y-72977000D01*
X131877000Y-72977000D01*
X131877000Y-74026250D01*
X132035750Y-74185000D01*
X132237500Y-74188072D01*
X132361982Y-74175812D01*
X132481680Y-74139502D01*
X132591994Y-74080537D01*
X132688685Y-74001185D01*
X132752492Y-73923436D01*
X132757708Y-73929792D01*
X132891336Y-74039458D01*
X133043791Y-74120947D01*
X133209215Y-74171128D01*
X133381250Y-74188072D01*
X133868750Y-74188072D01*
X134040785Y-74171128D01*
X134206209Y-74120947D01*
X134358664Y-74039458D01*
X134492292Y-73929792D01*
X134601958Y-73796164D01*
X134661376Y-73685000D01*
X135817806Y-73685000D01*
X135842028Y-73764851D01*
X135924095Y-73918387D01*
X136034538Y-74052962D01*
X136169113Y-74163405D01*
X136322649Y-74245472D01*
X136489245Y-74296008D01*
X136662499Y-74313072D01*
X137287501Y-74313072D01*
X137460755Y-74296008D01*
X137627351Y-74245472D01*
X137780887Y-74163405D01*
X137915462Y-74052962D01*
X138025905Y-73918387D01*
X138107972Y-73764851D01*
X138158508Y-73598255D01*
X138175572Y-73425001D01*
X138175572Y-72174999D01*
X138699428Y-72174999D01*
X138699428Y-73425001D01*
X138716492Y-73598255D01*
X138767028Y-73764851D01*
X138849095Y-73918387D01*
X138959538Y-74052962D01*
X139094113Y-74163405D01*
X139247649Y-74245472D01*
X139414245Y-74296008D01*
X139587499Y-74313072D01*
X140212501Y-74313072D01*
X140385755Y-74296008D01*
X140552351Y-74245472D01*
X140705887Y-74163405D01*
X140840462Y-74052962D01*
X140950905Y-73918387D01*
X141032972Y-73764851D01*
X141083508Y-73598255D01*
X141100572Y-73425001D01*
X141100572Y-72174999D01*
X141083508Y-72001745D01*
X141032972Y-71835149D01*
X140950905Y-71681613D01*
X140840462Y-71547038D01*
X140705887Y-71436595D01*
X140552351Y-71354528D01*
X140385755Y-71303992D01*
X140212501Y-71286928D01*
X139587499Y-71286928D01*
X139414245Y-71303992D01*
X139247649Y-71354528D01*
X139094113Y-71436595D01*
X138959538Y-71547038D01*
X138849095Y-71681613D01*
X138767028Y-71835149D01*
X138716492Y-72001745D01*
X138699428Y-72174999D01*
X138175572Y-72174999D01*
X138158508Y-72001745D01*
X138107972Y-71835149D01*
X138025905Y-71681613D01*
X137915462Y-71547038D01*
X137780887Y-71436595D01*
X137627351Y-71354528D01*
X137460755Y-71303992D01*
X137287501Y-71286928D01*
X136662499Y-71286928D01*
X136489245Y-71303992D01*
X136322649Y-71354528D01*
X136169113Y-71436595D01*
X136034538Y-71547038D01*
X135924095Y-71681613D01*
X135842028Y-71835149D01*
X135817806Y-71915000D01*
X134607925Y-71915000D01*
X134601958Y-71903836D01*
X134492292Y-71770208D01*
X134358664Y-71660542D01*
X134206209Y-71579053D01*
X134040785Y-71528872D01*
X133868750Y-71511928D01*
X133381250Y-71511928D01*
X133209215Y-71528872D01*
X133043791Y-71579053D01*
X132891336Y-71660542D01*
X132757708Y-71770208D01*
X132752492Y-71776564D01*
X132688685Y-71698815D01*
X132591994Y-71619463D01*
X132481680Y-71560498D01*
X132361982Y-71524188D01*
X132237500Y-71511928D01*
X132035750Y-71515000D01*
X131877000Y-71673750D01*
X131623000Y-71673750D01*
X131464250Y-71515000D01*
X131262500Y-71511928D01*
X131138018Y-71524188D01*
X131018320Y-71560498D01*
X130908006Y-71619463D01*
X130811315Y-71698815D01*
X130731963Y-71795506D01*
X130672998Y-71905820D01*
X130636688Y-72025518D01*
X130624428Y-72150000D01*
X121256835Y-72150000D01*
X121156993Y-72122612D01*
X120379605Y-72900000D01*
X120020395Y-72900000D01*
X120006253Y-72885858D01*
X120185858Y-72706253D01*
X120200000Y-72720395D01*
X120977388Y-71943007D01*
X120911863Y-71704140D01*
X120664884Y-71588240D01*
X120400040Y-71522750D01*
X120127508Y-71510188D01*
X119857762Y-71551035D01*
X119601168Y-71643723D01*
X119488137Y-71704140D01*
X119422613Y-71943005D01*
X119306157Y-71826549D01*
X119252927Y-71879779D01*
X118991134Y-71247754D01*
X118609402Y-70676452D01*
X118517950Y-70585000D01*
X145159715Y-70585000D01*
X149715001Y-74229229D01*
G37*
%TD.AperFunction*%
%TD*%
D26*
%TO.N,GND*%
X209068976Y-75078503D02*
X211152613Y-75271580D01*
X213216300Y-75618012D01*
X215248768Y-76115907D01*
X217238914Y-76762545D01*
X219175869Y-77554394D01*
X221049055Y-78487129D01*
X222848241Y-79555658D01*
X224563600Y-80754142D01*
X226185763Y-82076038D01*
X227705872Y-83514124D01*
X229115622Y-85060547D01*
X230407316Y-86706861D01*
X231573898Y-88444073D01*
X232608997Y-90262697D01*
X233506959Y-92152799D01*
X234262880Y-94104056D01*
X234872632Y-96105812D01*
X235332883Y-98147132D01*
X235641121Y-100216869D01*
X235795663Y-102303718D01*
X235795663Y-104396282D01*
X235641121Y-106483131D01*
X235332883Y-108552868D01*
X234872632Y-110594188D01*
X234262880Y-112595944D01*
X233506959Y-114547201D01*
X232608997Y-116437303D01*
X231573898Y-118255927D01*
X230407316Y-119993139D01*
X229115622Y-121639453D01*
X227705872Y-123185876D01*
X226185763Y-124623962D01*
X224563600Y-125945858D01*
X222848241Y-127144342D01*
X221049055Y-128212871D01*
X219175869Y-129145606D01*
X217238914Y-129937455D01*
X215248768Y-130584093D01*
X213827915Y-130932160D01*
X213924494Y-130880537D01*
X214021185Y-130801185D01*
X214100537Y-130704494D01*
X214159502Y-130594180D01*
X214195812Y-130474482D01*
X214208072Y-130350000D01*
X214208072Y-129713506D01*
X216695050Y-127226529D01*
X216728817Y-127198817D01*
X216839411Y-127064059D01*
X216921589Y-126910313D01*
X216972195Y-126743490D01*
X216985000Y-126613477D01*
X216985000Y-126613469D01*
X216989281Y-126570000D01*
X216985000Y-126526531D01*
X216985000Y-119688454D01*
X217017205Y-119640256D01*
X217095226Y-119451898D01*
X217135000Y-119251939D01*
X217135000Y-119048061D01*
X217095226Y-118848102D01*
X217017205Y-118659744D01*
X216903937Y-118490226D01*
X216888711Y-118475000D01*
X224416531Y-118475000D01*
X224460000Y-118479281D01*
X224503469Y-118475000D01*
X224503477Y-118475000D01*
X224633490Y-118462195D01*
X224800313Y-118411589D01*
X224954059Y-118329411D01*
X225088817Y-118218817D01*
X225116534Y-118185044D01*
X226145044Y-117156535D01*
X226201898Y-117145226D01*
X226390256Y-117067205D01*
X226559774Y-116953937D01*
X226703937Y-116809774D01*
X226817205Y-116640256D01*
X226895226Y-116451898D01*
X226935000Y-116251939D01*
X226935000Y-116048061D01*
X226895226Y-115848102D01*
X226817205Y-115659744D01*
X226703937Y-115490226D01*
X226559774Y-115346063D01*
X226390256Y-115232795D01*
X226201898Y-115154774D01*
X226001939Y-115115000D01*
X225798061Y-115115000D01*
X225598102Y-115154774D01*
X225409744Y-115232795D01*
X225240226Y-115346063D01*
X225096063Y-115490226D01*
X224982795Y-115659744D01*
X224904774Y-115848102D01*
X224893465Y-115904956D01*
X224093422Y-116705000D01*
X206418072Y-116705000D01*
X206418072Y-116490000D01*
X206405812Y-116365518D01*
X206369502Y-116245820D01*
X206310537Y-116135506D01*
X206231185Y-116038815D01*
X206134494Y-115959463D01*
X206027000Y-115902005D01*
X206027000Y-111670173D01*
X213935000Y-111670173D01*
X213935000Y-112149827D01*
X214028576Y-112620263D01*
X214212131Y-113063405D01*
X214478612Y-113462222D01*
X214817778Y-113801388D01*
X215216595Y-114067869D01*
X215659737Y-114251424D01*
X216130173Y-114345000D01*
X216609827Y-114345000D01*
X217080263Y-114251424D01*
X217523405Y-114067869D01*
X217922222Y-113801388D01*
X218261388Y-113462222D01*
X218527869Y-113063405D01*
X218711424Y-112620263D01*
X218805000Y-112149827D01*
X218805000Y-111670173D01*
X218711424Y-111199737D01*
X218527869Y-110756595D01*
X218261388Y-110357778D01*
X217922222Y-110018612D01*
X217541459Y-109764194D01*
X217715256Y-109692205D01*
X217763454Y-109660000D01*
X221108422Y-109660000D01*
X227043465Y-115595044D01*
X227054774Y-115651898D01*
X227132795Y-115840256D01*
X227246063Y-116009774D01*
X227390226Y-116153937D01*
X227559744Y-116267205D01*
X227748102Y-116345226D01*
X227948061Y-116385000D01*
X228151939Y-116385000D01*
X228351898Y-116345226D01*
X228540256Y-116267205D01*
X228709774Y-116153937D01*
X228853937Y-116009774D01*
X228967205Y-115840256D01*
X229045226Y-115651898D01*
X229085000Y-115451939D01*
X229085000Y-115248061D01*
X229045226Y-115048102D01*
X228967205Y-114859744D01*
X228853937Y-114690226D01*
X228709774Y-114546063D01*
X228540256Y-114432795D01*
X228351898Y-114354774D01*
X228295044Y-114343465D01*
X222131534Y-108179956D01*
X222103817Y-108146183D01*
X221969059Y-108035589D01*
X221815313Y-107953411D01*
X221648490Y-107902805D01*
X221518477Y-107890000D01*
X221518469Y-107890000D01*
X221475000Y-107885719D01*
X221431531Y-107890000D01*
X217763454Y-107890000D01*
X217715256Y-107857795D01*
X217526898Y-107779774D01*
X217326939Y-107740000D01*
X217123061Y-107740000D01*
X216923102Y-107779774D01*
X216734744Y-107857795D01*
X216565226Y-107971063D01*
X216421063Y-108115226D01*
X216307795Y-108284744D01*
X216229774Y-108473102D01*
X216190000Y-108673061D01*
X216190000Y-108876939D01*
X216229774Y-109076898D01*
X216307795Y-109265256D01*
X216421063Y-109434774D01*
X216461289Y-109475000D01*
X216130173Y-109475000D01*
X215659737Y-109568576D01*
X215216595Y-109752131D01*
X214817778Y-110018612D01*
X214478612Y-110357778D01*
X214212131Y-110756595D01*
X214028576Y-111199737D01*
X213935000Y-111670173D01*
X206027000Y-111670173D01*
X206027000Y-108750000D01*
X206024560Y-108725224D01*
X206017333Y-108701399D01*
X206005597Y-108679443D01*
X205989803Y-108660197D01*
X205970557Y-108644403D01*
X205948601Y-108632667D01*
X205924776Y-108625440D01*
X205900000Y-108623000D01*
X203227000Y-108623000D01*
X203227000Y-107471336D01*
X203335820Y-107529502D01*
X203455518Y-107565812D01*
X203580000Y-107578072D01*
X205780000Y-107578072D01*
X205904482Y-107565812D01*
X206024180Y-107529502D01*
X206134494Y-107470537D01*
X206231185Y-107391185D01*
X206310537Y-107294494D01*
X206369502Y-107184180D01*
X206405812Y-107064482D01*
X206418072Y-106940000D01*
X206418072Y-106621273D01*
X207495556Y-105543789D01*
X208915514Y-104123832D01*
X208996978Y-104056976D01*
X209063836Y-103975510D01*
X209405503Y-103633843D01*
X209486967Y-103566987D01*
X209753767Y-103241891D01*
X209952016Y-102870992D01*
X210074098Y-102468543D01*
X210104990Y-102154892D01*
X210104990Y-102154883D01*
X210115319Y-102050011D01*
X210104990Y-101945139D01*
X210104990Y-94744981D01*
X210315975Y-94840114D01*
X210500355Y-94887695D01*
X210793000Y-94771572D01*
X210793000Y-92177000D01*
X211047000Y-92177000D01*
X211047000Y-94771572D01*
X211339645Y-94887695D01*
X211524025Y-94840114D01*
X211861653Y-94687878D01*
X212163094Y-94472699D01*
X212416763Y-94202847D01*
X212612912Y-93888691D01*
X212744004Y-93542305D01*
X212805000Y-93177000D01*
X212805000Y-92177000D01*
X211047000Y-92177000D01*
X210793000Y-92177000D01*
X210773000Y-92177000D01*
X210773000Y-91923000D01*
X210793000Y-91923000D01*
X210793000Y-89328428D01*
X211047000Y-89328428D01*
X211047000Y-91923000D01*
X212805000Y-91923000D01*
X212805000Y-90923000D01*
X212744004Y-90557695D01*
X212612912Y-90211309D01*
X212416763Y-89897153D01*
X212163094Y-89627301D01*
X211861653Y-89412122D01*
X211524025Y-89259886D01*
X211339645Y-89212305D01*
X211047000Y-89328428D01*
X210793000Y-89328428D01*
X210500355Y-89212305D01*
X210315975Y-89259886D01*
X210104990Y-89355019D01*
X210104990Y-85785000D01*
X214834988Y-85785000D01*
X214786168Y-85844487D01*
X214786165Y-85844490D01*
X214586224Y-86088119D01*
X214387975Y-86459018D01*
X214265893Y-86861467D01*
X214224671Y-87280000D01*
X214235001Y-87384882D01*
X214235000Y-92154881D01*
X214265892Y-92468532D01*
X214387974Y-92870981D01*
X214485000Y-93052505D01*
X214485000Y-93142596D01*
X214512275Y-93419523D01*
X214620061Y-93774847D01*
X214795097Y-94102317D01*
X215030655Y-94389345D01*
X215317683Y-94624903D01*
X215645152Y-94799939D01*
X216000476Y-94907725D01*
X216370000Y-94944120D01*
X216739523Y-94907725D01*
X217094847Y-94799939D01*
X217422317Y-94624903D01*
X217709345Y-94389345D01*
X217944903Y-94102317D01*
X218119939Y-93774848D01*
X218227725Y-93419524D01*
X218255000Y-93142597D01*
X218255000Y-93052505D01*
X218352026Y-92870982D01*
X218474108Y-92468533D01*
X218505000Y-92154882D01*
X218505000Y-89800000D01*
X219931928Y-89800000D01*
X219931928Y-94300000D01*
X219944188Y-94424482D01*
X219980498Y-94544180D01*
X220039463Y-94654494D01*
X220118815Y-94751185D01*
X220215506Y-94830537D01*
X220325820Y-94889502D01*
X220445518Y-94925812D01*
X220570000Y-94938072D01*
X223070000Y-94938072D01*
X223194482Y-94925812D01*
X223314180Y-94889502D01*
X223424494Y-94830537D01*
X223521185Y-94751185D01*
X223600537Y-94654494D01*
X223659502Y-94544180D01*
X223695812Y-94424482D01*
X223708072Y-94300000D01*
X223708072Y-89800000D01*
X223695812Y-89675518D01*
X223659502Y-89555820D01*
X223600537Y-89445506D01*
X223521185Y-89348815D01*
X223424494Y-89269463D01*
X223314180Y-89210498D01*
X223194482Y-89174188D01*
X223070000Y-89161928D01*
X220570000Y-89161928D01*
X220445518Y-89174188D01*
X220325820Y-89210498D01*
X220215506Y-89269463D01*
X220118815Y-89348815D01*
X220039463Y-89445506D01*
X219980498Y-89555820D01*
X219944188Y-89675518D01*
X219931928Y-89800000D01*
X218505000Y-89800000D01*
X218505000Y-88164345D01*
X221583835Y-85085511D01*
X221658363Y-85010983D01*
X221716919Y-84923347D01*
X221783776Y-84841882D01*
X221833455Y-84748939D01*
X221892012Y-84661302D01*
X221932348Y-84563923D01*
X221982025Y-84470983D01*
X222012616Y-84370138D01*
X222052953Y-84272756D01*
X222073516Y-84169378D01*
X222104107Y-84068534D01*
X222114436Y-83963660D01*
X222135000Y-83860279D01*
X222135000Y-83754873D01*
X222145329Y-83650001D01*
X222135000Y-83545129D01*
X222135000Y-83439721D01*
X222114436Y-83336339D01*
X222104107Y-83231467D01*
X222073517Y-83130626D01*
X222052953Y-83027244D01*
X222012614Y-82929858D01*
X221982025Y-82829019D01*
X221932351Y-82736085D01*
X221892012Y-82638698D01*
X221833452Y-82551056D01*
X221783776Y-82458119D01*
X221716923Y-82376658D01*
X221658363Y-82289017D01*
X221583831Y-82214485D01*
X221516977Y-82133023D01*
X221435515Y-82066169D01*
X221360983Y-81991637D01*
X221273342Y-81933077D01*
X221191881Y-81866224D01*
X221098944Y-81816548D01*
X221011302Y-81757988D01*
X220913915Y-81717649D01*
X220820981Y-81667975D01*
X220720142Y-81637386D01*
X220622756Y-81597047D01*
X220519374Y-81576483D01*
X220418533Y-81545893D01*
X220313661Y-81535564D01*
X220210279Y-81515000D01*
X220104871Y-81515000D01*
X219999999Y-81504671D01*
X219895127Y-81515000D01*
X219789721Y-81515000D01*
X219686340Y-81535564D01*
X219581466Y-81545893D01*
X219480622Y-81576484D01*
X219377244Y-81597047D01*
X219279862Y-81637384D01*
X219179017Y-81667975D01*
X219086077Y-81717652D01*
X218988698Y-81757988D01*
X218901061Y-81816545D01*
X218808118Y-81866224D01*
X218726653Y-81933081D01*
X218639017Y-81991637D01*
X217135000Y-83495654D01*
X217135000Y-83439721D01*
X217114438Y-83336349D01*
X217104108Y-83231467D01*
X217073515Y-83130616D01*
X217052953Y-83027244D01*
X217012619Y-82929869D01*
X216982026Y-82829018D01*
X216932346Y-82736073D01*
X216892012Y-82638698D01*
X216833457Y-82551064D01*
X216783777Y-82458119D01*
X216716919Y-82376653D01*
X216658363Y-82289017D01*
X216583833Y-82214487D01*
X216516977Y-82133023D01*
X216435513Y-82066167D01*
X216360983Y-81991637D01*
X216273347Y-81933081D01*
X216191881Y-81866223D01*
X216098936Y-81816543D01*
X216011302Y-81757988D01*
X215913927Y-81717654D01*
X215820982Y-81667974D01*
X215720131Y-81637381D01*
X215622756Y-81597047D01*
X215519384Y-81576485D01*
X215418533Y-81545892D01*
X215313651Y-81535562D01*
X215210279Y-81515000D01*
X208404874Y-81515000D01*
X208300000Y-81504671D01*
X208195126Y-81515000D01*
X206004872Y-81515000D01*
X205900000Y-81504671D01*
X205795128Y-81515000D01*
X199189721Y-81515000D01*
X199086349Y-81535562D01*
X198981467Y-81545892D01*
X198880616Y-81576485D01*
X198777244Y-81597047D01*
X198679869Y-81637381D01*
X198579018Y-81667974D01*
X198486073Y-81717654D01*
X198388698Y-81757988D01*
X198301064Y-81816543D01*
X198208119Y-81866223D01*
X198126653Y-81933081D01*
X198039017Y-81991637D01*
X197964487Y-82066167D01*
X197883023Y-82133023D01*
X197816167Y-82214487D01*
X197741637Y-82289017D01*
X197683081Y-82376653D01*
X197616223Y-82458119D01*
X197566543Y-82551064D01*
X197507988Y-82638698D01*
X197467654Y-82736073D01*
X197417974Y-82829018D01*
X197387381Y-82929869D01*
X197347047Y-83027244D01*
X197326485Y-83130616D01*
X197295892Y-83231467D01*
X197285562Y-83336349D01*
X197265000Y-83439721D01*
X197265000Y-83545118D01*
X197254670Y-83650000D01*
X197265000Y-83754882D01*
X197265000Y-83860279D01*
X197285562Y-83963651D01*
X197295892Y-84068533D01*
X197326485Y-84169384D01*
X197347047Y-84272756D01*
X197387381Y-84370131D01*
X197417974Y-84470982D01*
X197467654Y-84563927D01*
X197507988Y-84661302D01*
X197566543Y-84748936D01*
X197616223Y-84841881D01*
X197683081Y-84923347D01*
X197741637Y-85010983D01*
X197816165Y-85085511D01*
X197883023Y-85166977D01*
X197964487Y-85233833D01*
X198039017Y-85308363D01*
X198126653Y-85366919D01*
X198208119Y-85433777D01*
X198301064Y-85483457D01*
X198388698Y-85542012D01*
X198486073Y-85582346D01*
X198579018Y-85632026D01*
X198679869Y-85662619D01*
X198777244Y-85702953D01*
X198880616Y-85723515D01*
X198981467Y-85754108D01*
X199086349Y-85764438D01*
X199189721Y-85785000D01*
X205015655Y-85785000D01*
X205345002Y-86114348D01*
X205345001Y-96851928D01*
X203580000Y-96851928D01*
X203455518Y-96864188D01*
X203335820Y-96900498D01*
X203227000Y-96958664D01*
X203227000Y-95150000D01*
X203224658Y-95125725D01*
X203217527Y-95101871D01*
X203205880Y-95079868D01*
X203190163Y-95060559D01*
X203170981Y-95044688D01*
X203149072Y-95032864D01*
X203125277Y-95025541D01*
X203100511Y-95023001D01*
X188180511Y-94963001D01*
X188155589Y-94965368D01*
X188131744Y-94972525D01*
X188109753Y-94984197D01*
X188090461Y-94999934D01*
X188074611Y-95019133D01*
X188062810Y-95041055D01*
X188055514Y-95064858D01*
X188053001Y-95089627D01*
X187973605Y-122143857D01*
X187973000Y-122150000D01*
X187973000Y-122350000D01*
X187975368Y-122374411D01*
X187982525Y-122398256D01*
X187994197Y-122420247D01*
X188009934Y-122439539D01*
X188029133Y-122455389D01*
X188051055Y-122467190D01*
X188074858Y-122474486D01*
X188099627Y-122476999D01*
X188124411Y-122474632D01*
X188148256Y-122467475D01*
X188170247Y-122455803D01*
X188189539Y-122440066D01*
X188205389Y-122420867D01*
X188217190Y-122398945D01*
X188224486Y-122375142D01*
X188226999Y-122350373D01*
X188227214Y-122277000D01*
X201015000Y-122277000D01*
X201015000Y-122832024D01*
X200931614Y-122876595D01*
X200797038Y-122987038D01*
X200686595Y-123121614D01*
X200604528Y-123275150D01*
X200553992Y-123441746D01*
X200536928Y-123615000D01*
X200536928Y-124115000D01*
X200553992Y-124288254D01*
X200604528Y-124454850D01*
X200686595Y-124608386D01*
X200797038Y-124742962D01*
X200803594Y-124748342D01*
X200723815Y-124813815D01*
X200644463Y-124910506D01*
X200585498Y-125020820D01*
X200549188Y-125140518D01*
X200536928Y-125265000D01*
X200540000Y-125479250D01*
X200698750Y-125638000D01*
X201773000Y-125638000D01*
X201773000Y-125618000D01*
X202027000Y-125618000D01*
X202027000Y-125638000D01*
X203101250Y-125638000D01*
X203260000Y-125479250D01*
X203263072Y-125265000D01*
X203250812Y-125140518D01*
X203214502Y-125020820D01*
X203155537Y-124910506D01*
X203076185Y-124813815D01*
X202996406Y-124748342D01*
X203002962Y-124742962D01*
X203113405Y-124608386D01*
X203195472Y-124454850D01*
X203246008Y-124288254D01*
X203263072Y-124115000D01*
X203263072Y-123615000D01*
X203246008Y-123441746D01*
X203195472Y-123275150D01*
X203113405Y-123121614D01*
X203002962Y-122987038D01*
X202868386Y-122876595D01*
X202785000Y-122832024D01*
X202785000Y-122277000D01*
X203300000Y-122277000D01*
X203324776Y-122274560D01*
X203348601Y-122267333D01*
X203370557Y-122255597D01*
X203389803Y-122239803D01*
X203405597Y-122220557D01*
X203417333Y-122198601D01*
X203424560Y-122174776D01*
X203427000Y-122150000D01*
X203427000Y-122057161D01*
X203455518Y-122065812D01*
X203580000Y-122078072D01*
X204394250Y-122075000D01*
X204553000Y-121916250D01*
X204553000Y-120467000D01*
X204807000Y-120467000D01*
X204807000Y-121916250D01*
X204965750Y-122075000D01*
X205780000Y-122078072D01*
X205904482Y-122065812D01*
X206024180Y-122029502D01*
X206134494Y-121970537D01*
X206231185Y-121891185D01*
X206310537Y-121794494D01*
X206369502Y-121684180D01*
X206405812Y-121564482D01*
X206418072Y-121440000D01*
X206415000Y-120625750D01*
X206256250Y-120467000D01*
X204807000Y-120467000D01*
X204553000Y-120467000D01*
X204533000Y-120467000D01*
X204533000Y-120213000D01*
X204553000Y-120213000D01*
X204553000Y-120193000D01*
X204807000Y-120193000D01*
X204807000Y-120213000D01*
X206256250Y-120213000D01*
X206415000Y-120054250D01*
X206418072Y-119240000D01*
X206405812Y-119115518D01*
X206369502Y-118995820D01*
X206353028Y-118965000D01*
X206369502Y-118934180D01*
X206405812Y-118814482D01*
X206418072Y-118690000D01*
X206418072Y-118475000D01*
X210302456Y-118475000D01*
X210279953Y-118493468D01*
X210279951Y-118493470D01*
X210246183Y-118521183D01*
X210218470Y-118554951D01*
X206398994Y-122374428D01*
X206049999Y-122374428D01*
X205876745Y-122391492D01*
X205710149Y-122442028D01*
X205556613Y-122524095D01*
X205422038Y-122634538D01*
X205311595Y-122769113D01*
X205229528Y-122922649D01*
X205178992Y-123089245D01*
X205161928Y-123262499D01*
X205161928Y-123787501D01*
X205178992Y-123960755D01*
X205229528Y-124127351D01*
X205311595Y-124280887D01*
X205422038Y-124415462D01*
X205448891Y-124437500D01*
X205422038Y-124459538D01*
X205311595Y-124594113D01*
X205229528Y-124747649D01*
X205178992Y-124914245D01*
X205161928Y-125087499D01*
X205161928Y-125612501D01*
X205178992Y-125785755D01*
X205229528Y-125952351D01*
X205311595Y-126105887D01*
X205422038Y-126240462D01*
X205556613Y-126350905D01*
X205710149Y-126432972D01*
X205876745Y-126483508D01*
X206049999Y-126500572D01*
X206398993Y-126500572D01*
X206575000Y-126676579D01*
X206575001Y-128464892D01*
X206486525Y-128553368D01*
X206370000Y-128727760D01*
X206253475Y-128553368D01*
X206046632Y-128346525D01*
X205803411Y-128184010D01*
X205533158Y-128072068D01*
X205246260Y-128015000D01*
X204953740Y-128015000D01*
X204666842Y-128072068D01*
X204396589Y-128184010D01*
X204153368Y-128346525D01*
X203946525Y-128553368D01*
X203824805Y-128735534D01*
X203755178Y-128618645D01*
X203560269Y-128402412D01*
X203326920Y-128228359D01*
X203064099Y-128103175D01*
X202916890Y-128058524D01*
X202687000Y-128179845D01*
X202687000Y-129373000D01*
X202707000Y-129373000D01*
X202707000Y-129627000D01*
X202687000Y-129627000D01*
X202687000Y-130820155D01*
X202916890Y-130941476D01*
X203064099Y-130896825D01*
X203326920Y-130771641D01*
X203560269Y-130597588D01*
X203755178Y-130381355D01*
X203824805Y-130264466D01*
X203946525Y-130446632D01*
X204153368Y-130653475D01*
X204396589Y-130815990D01*
X204666842Y-130927932D01*
X204953740Y-130985000D01*
X205246260Y-130985000D01*
X205533158Y-130927932D01*
X205803411Y-130815990D01*
X206046632Y-130653475D01*
X206253475Y-130446632D01*
X206370000Y-130272240D01*
X206486525Y-130446632D01*
X206693368Y-130653475D01*
X206936589Y-130815990D01*
X207206842Y-130927932D01*
X207493740Y-130985000D01*
X207786260Y-130985000D01*
X208073158Y-130927932D01*
X208343411Y-130815990D01*
X208586632Y-130653475D01*
X208793475Y-130446632D01*
X208910000Y-130272240D01*
X209026525Y-130446632D01*
X209233368Y-130653475D01*
X209476589Y-130815990D01*
X209746842Y-130927932D01*
X210033740Y-130985000D01*
X210326260Y-130985000D01*
X210613158Y-130927932D01*
X210883411Y-130815990D01*
X211126632Y-130653475D01*
X211258487Y-130521620D01*
X211280498Y-130594180D01*
X211339463Y-130704494D01*
X211418815Y-130801185D01*
X211515506Y-130880537D01*
X211625820Y-130939502D01*
X211745518Y-130975812D01*
X211870000Y-130988072D01*
X213570000Y-130988072D01*
X213619630Y-130983184D01*
X213216300Y-131081988D01*
X211152613Y-131428420D01*
X209068976Y-131621497D01*
X206976770Y-131660165D01*
X204887421Y-131544213D01*
X202812342Y-131274274D01*
X200762865Y-130851822D01*
X198750184Y-130279165D01*
X197597367Y-129856891D01*
X201118519Y-129856891D01*
X201215843Y-130131252D01*
X201364822Y-130381355D01*
X201559731Y-130597588D01*
X201793080Y-130771641D01*
X202055901Y-130896825D01*
X202203110Y-130941476D01*
X202433000Y-130820155D01*
X202433000Y-129627000D01*
X201239186Y-129627000D01*
X201118519Y-129856891D01*
X197597367Y-129856891D01*
X196785291Y-129559430D01*
X195865509Y-129143109D01*
X201118519Y-129143109D01*
X201239186Y-129373000D01*
X202433000Y-129373000D01*
X202433000Y-128179845D01*
X202203110Y-128058524D01*
X202055901Y-128103175D01*
X201793080Y-128228359D01*
X201559731Y-128402412D01*
X201364822Y-128618645D01*
X201215843Y-128868748D01*
X201118519Y-129143109D01*
X195865509Y-129143109D01*
X194878918Y-128696549D01*
X193041478Y-127695233D01*
X191283005Y-126560952D01*
X190891102Y-126265000D01*
X200536928Y-126265000D01*
X200549188Y-126389482D01*
X200585498Y-126509180D01*
X200644463Y-126619494D01*
X200723815Y-126716185D01*
X200820506Y-126795537D01*
X200930820Y-126854502D01*
X201050518Y-126890812D01*
X201175000Y-126903072D01*
X201614250Y-126900000D01*
X201773000Y-126741250D01*
X201773000Y-125892000D01*
X202027000Y-125892000D01*
X202027000Y-126741250D01*
X202185750Y-126900000D01*
X202625000Y-126903072D01*
X202749482Y-126890812D01*
X202869180Y-126854502D01*
X202979494Y-126795537D01*
X203076185Y-126716185D01*
X203155537Y-126619494D01*
X203214502Y-126509180D01*
X203250812Y-126389482D01*
X203263072Y-126265000D01*
X203260000Y-126050750D01*
X203101250Y-125892000D01*
X202027000Y-125892000D01*
X201773000Y-125892000D01*
X200698750Y-125892000D01*
X200540000Y-126050750D01*
X200536928Y-126265000D01*
X190891102Y-126265000D01*
X189613103Y-125299901D01*
X188040893Y-123918967D01*
X186574963Y-122425692D01*
X185223317Y-120828233D01*
X183993339Y-119135313D01*
X182891746Y-117356180D01*
X181924556Y-115500550D01*
X181097049Y-113578558D01*
X180413746Y-111600701D01*
X179878379Y-109577781D01*
X179493871Y-107520848D01*
X179262323Y-105441134D01*
X179185000Y-103350000D01*
X179262323Y-101258866D01*
X179493871Y-99179152D01*
X179878379Y-97122219D01*
X180413746Y-95099299D01*
X181097049Y-93121442D01*
X181924556Y-91199450D01*
X182653976Y-89800000D01*
X187431928Y-89800000D01*
X187431928Y-94300000D01*
X187444188Y-94424482D01*
X187480498Y-94544180D01*
X187539463Y-94654494D01*
X187618815Y-94751185D01*
X187715506Y-94830537D01*
X187825820Y-94889502D01*
X187945518Y-94925812D01*
X188070000Y-94938072D01*
X190570000Y-94938072D01*
X190694482Y-94925812D01*
X190814180Y-94889502D01*
X190924494Y-94830537D01*
X191021185Y-94751185D01*
X191100537Y-94654494D01*
X191159502Y-94544180D01*
X191195812Y-94424482D01*
X191208072Y-94300000D01*
X191208072Y-89800000D01*
X191195812Y-89675518D01*
X191159502Y-89555820D01*
X191100537Y-89445506D01*
X191021185Y-89348815D01*
X190924494Y-89269463D01*
X190814180Y-89210498D01*
X190694482Y-89174188D01*
X190570000Y-89161928D01*
X188070000Y-89161928D01*
X187945518Y-89174188D01*
X187825820Y-89210498D01*
X187715506Y-89269463D01*
X187618815Y-89348815D01*
X187539463Y-89445506D01*
X187480498Y-89555820D01*
X187444188Y-89675518D01*
X187431928Y-89800000D01*
X182653976Y-89800000D01*
X182891746Y-89343820D01*
X183993339Y-87564687D01*
X185223317Y-85871767D01*
X186574963Y-84274308D01*
X187187838Y-83650000D01*
X192254671Y-83650000D01*
X192265000Y-83754872D01*
X192265000Y-83860279D01*
X192285564Y-83963661D01*
X192295893Y-84068533D01*
X192326483Y-84169375D01*
X192347047Y-84272756D01*
X192387385Y-84370140D01*
X192417975Y-84470982D01*
X192467650Y-84563919D01*
X192507988Y-84661302D01*
X192566548Y-84748943D01*
X192616224Y-84841881D01*
X192635001Y-84864761D01*
X192635000Y-92154881D01*
X192665892Y-92468532D01*
X192787974Y-92870981D01*
X192885001Y-93052507D01*
X192885001Y-93142597D01*
X192912276Y-93419524D01*
X193020062Y-93774848D01*
X193195098Y-94102317D01*
X193430656Y-94389345D01*
X193717684Y-94624903D01*
X194045153Y-94799939D01*
X194400477Y-94907725D01*
X194770000Y-94944120D01*
X195139524Y-94907725D01*
X195494848Y-94799939D01*
X195822317Y-94624903D01*
X196109345Y-94389345D01*
X196344903Y-94102317D01*
X196519939Y-93774848D01*
X196627725Y-93419524D01*
X196655000Y-93142597D01*
X196655000Y-93052505D01*
X196752026Y-92870982D01*
X196874108Y-92468533D01*
X196902821Y-92177000D01*
X198335000Y-92177000D01*
X198335000Y-93177000D01*
X198395996Y-93542305D01*
X198527088Y-93888691D01*
X198723237Y-94202847D01*
X198976906Y-94472699D01*
X199278347Y-94687878D01*
X199615975Y-94840114D01*
X199800355Y-94887695D01*
X200093000Y-94771572D01*
X200093000Y-92177000D01*
X200347000Y-92177000D01*
X200347000Y-94771572D01*
X200639645Y-94887695D01*
X200824025Y-94840114D01*
X201161653Y-94687878D01*
X201463094Y-94472699D01*
X201716763Y-94202847D01*
X201912912Y-93888691D01*
X202044004Y-93542305D01*
X202105000Y-93177000D01*
X202105000Y-92177000D01*
X200347000Y-92177000D01*
X200093000Y-92177000D01*
X198335000Y-92177000D01*
X196902821Y-92177000D01*
X196905000Y-92154882D01*
X196905000Y-90923000D01*
X198335000Y-90923000D01*
X198335000Y-91923000D01*
X200093000Y-91923000D01*
X200093000Y-89328428D01*
X200347000Y-89328428D01*
X200347000Y-91923000D01*
X202105000Y-91923000D01*
X202105000Y-90923000D01*
X202044004Y-90557695D01*
X201912912Y-90211309D01*
X201716763Y-89897153D01*
X201463094Y-89627301D01*
X201161653Y-89412122D01*
X200824025Y-89259886D01*
X200639645Y-89212305D01*
X200347000Y-89328428D01*
X200093000Y-89328428D01*
X199800355Y-89212305D01*
X199615975Y-89259886D01*
X199278347Y-89412122D01*
X198976906Y-89627301D01*
X198723237Y-89897153D01*
X198527088Y-90211309D01*
X198395996Y-90557695D01*
X198335000Y-90923000D01*
X196905000Y-90923000D01*
X196905000Y-84124871D01*
X196915329Y-84019999D01*
X196905000Y-83915127D01*
X196905000Y-83915118D01*
X196874108Y-83601467D01*
X196752026Y-83199018D01*
X196553777Y-82828119D01*
X196286977Y-82503023D01*
X196205508Y-82436163D01*
X196058365Y-82289020D01*
X196058363Y-82289017D01*
X195760983Y-81991637D01*
X195673342Y-81933077D01*
X195591881Y-81866224D01*
X195498943Y-81816548D01*
X195411302Y-81757988D01*
X195313919Y-81717650D01*
X195220982Y-81667975D01*
X195120140Y-81637385D01*
X195022756Y-81597047D01*
X194919375Y-81576483D01*
X194818533Y-81545893D01*
X194713661Y-81535564D01*
X194610279Y-81515000D01*
X194504872Y-81515000D01*
X194400000Y-81504671D01*
X194295128Y-81515000D01*
X194189721Y-81515000D01*
X194086339Y-81535564D01*
X193981467Y-81545893D01*
X193880625Y-81576483D01*
X193777244Y-81597047D01*
X193679860Y-81637385D01*
X193579018Y-81667975D01*
X193486081Y-81717650D01*
X193388698Y-81757988D01*
X193301057Y-81816548D01*
X193208119Y-81866224D01*
X193126658Y-81933077D01*
X193039017Y-81991637D01*
X192964485Y-82066169D01*
X192883023Y-82133023D01*
X192816169Y-82214485D01*
X192741637Y-82289017D01*
X192683077Y-82376658D01*
X192616224Y-82458119D01*
X192566548Y-82551057D01*
X192507988Y-82638698D01*
X192467650Y-82736081D01*
X192417975Y-82829018D01*
X192387385Y-82929860D01*
X192347047Y-83027244D01*
X192326483Y-83130625D01*
X192295893Y-83231467D01*
X192285564Y-83336339D01*
X192265000Y-83439721D01*
X192265000Y-83545128D01*
X192254671Y-83650000D01*
X187187838Y-83650000D01*
X188040893Y-82781033D01*
X189613103Y-81400099D01*
X191283005Y-80139048D01*
X193041478Y-79004767D01*
X194878918Y-78003451D01*
X196785291Y-77140570D01*
X198750184Y-76420835D01*
X200762865Y-75848178D01*
X202812342Y-75425726D01*
X204887421Y-75155787D01*
X206976770Y-75039835D01*
X209068976Y-75078503D01*
%TA.AperFunction,Conductor*%
D27*
G36*
X209068976Y-75078503D02*
G01*
X211152613Y-75271580D01*
X213216300Y-75618012D01*
X215248768Y-76115907D01*
X217238914Y-76762545D01*
X219175869Y-77554394D01*
X221049055Y-78487129D01*
X222848241Y-79555658D01*
X224563600Y-80754142D01*
X226185763Y-82076038D01*
X227705872Y-83514124D01*
X229115622Y-85060547D01*
X230407316Y-86706861D01*
X231573898Y-88444073D01*
X232608997Y-90262697D01*
X233506959Y-92152799D01*
X234262880Y-94104056D01*
X234872632Y-96105812D01*
X235332883Y-98147132D01*
X235641121Y-100216869D01*
X235795663Y-102303718D01*
X235795663Y-104396282D01*
X235641121Y-106483131D01*
X235332883Y-108552868D01*
X234872632Y-110594188D01*
X234262880Y-112595944D01*
X233506959Y-114547201D01*
X232608997Y-116437303D01*
X231573898Y-118255927D01*
X230407316Y-119993139D01*
X229115622Y-121639453D01*
X227705872Y-123185876D01*
X226185763Y-124623962D01*
X224563600Y-125945858D01*
X222848241Y-127144342D01*
X221049055Y-128212871D01*
X219175869Y-129145606D01*
X217238914Y-129937455D01*
X215248768Y-130584093D01*
X213827915Y-130932160D01*
X213924494Y-130880537D01*
X214021185Y-130801185D01*
X214100537Y-130704494D01*
X214159502Y-130594180D01*
X214195812Y-130474482D01*
X214208072Y-130350000D01*
X214208072Y-129713506D01*
X216695050Y-127226529D01*
X216728817Y-127198817D01*
X216839411Y-127064059D01*
X216921589Y-126910313D01*
X216972195Y-126743490D01*
X216985000Y-126613477D01*
X216985000Y-126613469D01*
X216989281Y-126570000D01*
X216985000Y-126526531D01*
X216985000Y-119688454D01*
X217017205Y-119640256D01*
X217095226Y-119451898D01*
X217135000Y-119251939D01*
X217135000Y-119048061D01*
X217095226Y-118848102D01*
X217017205Y-118659744D01*
X216903937Y-118490226D01*
X216888711Y-118475000D01*
X224416531Y-118475000D01*
X224460000Y-118479281D01*
X224503469Y-118475000D01*
X224503477Y-118475000D01*
X224633490Y-118462195D01*
X224800313Y-118411589D01*
X224954059Y-118329411D01*
X225088817Y-118218817D01*
X225116534Y-118185044D01*
X226145044Y-117156535D01*
X226201898Y-117145226D01*
X226390256Y-117067205D01*
X226559774Y-116953937D01*
X226703937Y-116809774D01*
X226817205Y-116640256D01*
X226895226Y-116451898D01*
X226935000Y-116251939D01*
X226935000Y-116048061D01*
X226895226Y-115848102D01*
X226817205Y-115659744D01*
X226703937Y-115490226D01*
X226559774Y-115346063D01*
X226390256Y-115232795D01*
X226201898Y-115154774D01*
X226001939Y-115115000D01*
X225798061Y-115115000D01*
X225598102Y-115154774D01*
X225409744Y-115232795D01*
X225240226Y-115346063D01*
X225096063Y-115490226D01*
X224982795Y-115659744D01*
X224904774Y-115848102D01*
X224893465Y-115904956D01*
X224093422Y-116705000D01*
X206418072Y-116705000D01*
X206418072Y-116490000D01*
X206405812Y-116365518D01*
X206369502Y-116245820D01*
X206310537Y-116135506D01*
X206231185Y-116038815D01*
X206134494Y-115959463D01*
X206027000Y-115902005D01*
X206027000Y-111670173D01*
X213935000Y-111670173D01*
X213935000Y-112149827D01*
X214028576Y-112620263D01*
X214212131Y-113063405D01*
X214478612Y-113462222D01*
X214817778Y-113801388D01*
X215216595Y-114067869D01*
X215659737Y-114251424D01*
X216130173Y-114345000D01*
X216609827Y-114345000D01*
X217080263Y-114251424D01*
X217523405Y-114067869D01*
X217922222Y-113801388D01*
X218261388Y-113462222D01*
X218527869Y-113063405D01*
X218711424Y-112620263D01*
X218805000Y-112149827D01*
X218805000Y-111670173D01*
X218711424Y-111199737D01*
X218527869Y-110756595D01*
X218261388Y-110357778D01*
X217922222Y-110018612D01*
X217541459Y-109764194D01*
X217715256Y-109692205D01*
X217763454Y-109660000D01*
X221108422Y-109660000D01*
X227043465Y-115595044D01*
X227054774Y-115651898D01*
X227132795Y-115840256D01*
X227246063Y-116009774D01*
X227390226Y-116153937D01*
X227559744Y-116267205D01*
X227748102Y-116345226D01*
X227948061Y-116385000D01*
X228151939Y-116385000D01*
X228351898Y-116345226D01*
X228540256Y-116267205D01*
X228709774Y-116153937D01*
X228853937Y-116009774D01*
X228967205Y-115840256D01*
X229045226Y-115651898D01*
X229085000Y-115451939D01*
X229085000Y-115248061D01*
X229045226Y-115048102D01*
X228967205Y-114859744D01*
X228853937Y-114690226D01*
X228709774Y-114546063D01*
X228540256Y-114432795D01*
X228351898Y-114354774D01*
X228295044Y-114343465D01*
X222131534Y-108179956D01*
X222103817Y-108146183D01*
X221969059Y-108035589D01*
X221815313Y-107953411D01*
X221648490Y-107902805D01*
X221518477Y-107890000D01*
X221518469Y-107890000D01*
X221475000Y-107885719D01*
X221431531Y-107890000D01*
X217763454Y-107890000D01*
X217715256Y-107857795D01*
X217526898Y-107779774D01*
X217326939Y-107740000D01*
X217123061Y-107740000D01*
X216923102Y-107779774D01*
X216734744Y-107857795D01*
X216565226Y-107971063D01*
X216421063Y-108115226D01*
X216307795Y-108284744D01*
X216229774Y-108473102D01*
X216190000Y-108673061D01*
X216190000Y-108876939D01*
X216229774Y-109076898D01*
X216307795Y-109265256D01*
X216421063Y-109434774D01*
X216461289Y-109475000D01*
X216130173Y-109475000D01*
X215659737Y-109568576D01*
X215216595Y-109752131D01*
X214817778Y-110018612D01*
X214478612Y-110357778D01*
X214212131Y-110756595D01*
X214028576Y-111199737D01*
X213935000Y-111670173D01*
X206027000Y-111670173D01*
X206027000Y-108750000D01*
X206024560Y-108725224D01*
X206017333Y-108701399D01*
X206005597Y-108679443D01*
X205989803Y-108660197D01*
X205970557Y-108644403D01*
X205948601Y-108632667D01*
X205924776Y-108625440D01*
X205900000Y-108623000D01*
X203227000Y-108623000D01*
X203227000Y-107471336D01*
X203335820Y-107529502D01*
X203455518Y-107565812D01*
X203580000Y-107578072D01*
X205780000Y-107578072D01*
X205904482Y-107565812D01*
X206024180Y-107529502D01*
X206134494Y-107470537D01*
X206231185Y-107391185D01*
X206310537Y-107294494D01*
X206369502Y-107184180D01*
X206405812Y-107064482D01*
X206418072Y-106940000D01*
X206418072Y-106621273D01*
X207495556Y-105543789D01*
X208915514Y-104123832D01*
X208996978Y-104056976D01*
X209063836Y-103975510D01*
X209405503Y-103633843D01*
X209486967Y-103566987D01*
X209753767Y-103241891D01*
X209952016Y-102870992D01*
X210074098Y-102468543D01*
X210104990Y-102154892D01*
X210104990Y-102154883D01*
X210115319Y-102050011D01*
X210104990Y-101945139D01*
X210104990Y-94744981D01*
X210315975Y-94840114D01*
X210500355Y-94887695D01*
X210793000Y-94771572D01*
X210793000Y-92177000D01*
X211047000Y-92177000D01*
X211047000Y-94771572D01*
X211339645Y-94887695D01*
X211524025Y-94840114D01*
X211861653Y-94687878D01*
X212163094Y-94472699D01*
X212416763Y-94202847D01*
X212612912Y-93888691D01*
X212744004Y-93542305D01*
X212805000Y-93177000D01*
X212805000Y-92177000D01*
X211047000Y-92177000D01*
X210793000Y-92177000D01*
X210773000Y-92177000D01*
X210773000Y-91923000D01*
X210793000Y-91923000D01*
X210793000Y-89328428D01*
X211047000Y-89328428D01*
X211047000Y-91923000D01*
X212805000Y-91923000D01*
X212805000Y-90923000D01*
X212744004Y-90557695D01*
X212612912Y-90211309D01*
X212416763Y-89897153D01*
X212163094Y-89627301D01*
X211861653Y-89412122D01*
X211524025Y-89259886D01*
X211339645Y-89212305D01*
X211047000Y-89328428D01*
X210793000Y-89328428D01*
X210500355Y-89212305D01*
X210315975Y-89259886D01*
X210104990Y-89355019D01*
X210104990Y-85785000D01*
X214834988Y-85785000D01*
X214786168Y-85844487D01*
X214786165Y-85844490D01*
X214586224Y-86088119D01*
X214387975Y-86459018D01*
X214265893Y-86861467D01*
X214224671Y-87280000D01*
X214235001Y-87384882D01*
X214235000Y-92154881D01*
X214265892Y-92468532D01*
X214387974Y-92870981D01*
X214485000Y-93052505D01*
X214485000Y-93142596D01*
X214512275Y-93419523D01*
X214620061Y-93774847D01*
X214795097Y-94102317D01*
X215030655Y-94389345D01*
X215317683Y-94624903D01*
X215645152Y-94799939D01*
X216000476Y-94907725D01*
X216370000Y-94944120D01*
X216739523Y-94907725D01*
X217094847Y-94799939D01*
X217422317Y-94624903D01*
X217709345Y-94389345D01*
X217944903Y-94102317D01*
X218119939Y-93774848D01*
X218227725Y-93419524D01*
X218255000Y-93142597D01*
X218255000Y-93052505D01*
X218352026Y-92870982D01*
X218474108Y-92468533D01*
X218505000Y-92154882D01*
X218505000Y-89800000D01*
X219931928Y-89800000D01*
X219931928Y-94300000D01*
X219944188Y-94424482D01*
X219980498Y-94544180D01*
X220039463Y-94654494D01*
X220118815Y-94751185D01*
X220215506Y-94830537D01*
X220325820Y-94889502D01*
X220445518Y-94925812D01*
X220570000Y-94938072D01*
X223070000Y-94938072D01*
X223194482Y-94925812D01*
X223314180Y-94889502D01*
X223424494Y-94830537D01*
X223521185Y-94751185D01*
X223600537Y-94654494D01*
X223659502Y-94544180D01*
X223695812Y-94424482D01*
X223708072Y-94300000D01*
X223708072Y-89800000D01*
X223695812Y-89675518D01*
X223659502Y-89555820D01*
X223600537Y-89445506D01*
X223521185Y-89348815D01*
X223424494Y-89269463D01*
X223314180Y-89210498D01*
X223194482Y-89174188D01*
X223070000Y-89161928D01*
X220570000Y-89161928D01*
X220445518Y-89174188D01*
X220325820Y-89210498D01*
X220215506Y-89269463D01*
X220118815Y-89348815D01*
X220039463Y-89445506D01*
X219980498Y-89555820D01*
X219944188Y-89675518D01*
X219931928Y-89800000D01*
X218505000Y-89800000D01*
X218505000Y-88164345D01*
X221583835Y-85085511D01*
X221658363Y-85010983D01*
X221716919Y-84923347D01*
X221783776Y-84841882D01*
X221833455Y-84748939D01*
X221892012Y-84661302D01*
X221932348Y-84563923D01*
X221982025Y-84470983D01*
X222012616Y-84370138D01*
X222052953Y-84272756D01*
X222073516Y-84169378D01*
X222104107Y-84068534D01*
X222114436Y-83963660D01*
X222135000Y-83860279D01*
X222135000Y-83754873D01*
X222145329Y-83650001D01*
X222135000Y-83545129D01*
X222135000Y-83439721D01*
X222114436Y-83336339D01*
X222104107Y-83231467D01*
X222073517Y-83130626D01*
X222052953Y-83027244D01*
X222012614Y-82929858D01*
X221982025Y-82829019D01*
X221932351Y-82736085D01*
X221892012Y-82638698D01*
X221833452Y-82551056D01*
X221783776Y-82458119D01*
X221716923Y-82376658D01*
X221658363Y-82289017D01*
X221583831Y-82214485D01*
X221516977Y-82133023D01*
X221435515Y-82066169D01*
X221360983Y-81991637D01*
X221273342Y-81933077D01*
X221191881Y-81866224D01*
X221098944Y-81816548D01*
X221011302Y-81757988D01*
X220913915Y-81717649D01*
X220820981Y-81667975D01*
X220720142Y-81637386D01*
X220622756Y-81597047D01*
X220519374Y-81576483D01*
X220418533Y-81545893D01*
X220313661Y-81535564D01*
X220210279Y-81515000D01*
X220104871Y-81515000D01*
X219999999Y-81504671D01*
X219895127Y-81515000D01*
X219789721Y-81515000D01*
X219686340Y-81535564D01*
X219581466Y-81545893D01*
X219480622Y-81576484D01*
X219377244Y-81597047D01*
X219279862Y-81637384D01*
X219179017Y-81667975D01*
X219086077Y-81717652D01*
X218988698Y-81757988D01*
X218901061Y-81816545D01*
X218808118Y-81866224D01*
X218726653Y-81933081D01*
X218639017Y-81991637D01*
X217135000Y-83495654D01*
X217135000Y-83439721D01*
X217114438Y-83336349D01*
X217104108Y-83231467D01*
X217073515Y-83130616D01*
X217052953Y-83027244D01*
X217012619Y-82929869D01*
X216982026Y-82829018D01*
X216932346Y-82736073D01*
X216892012Y-82638698D01*
X216833457Y-82551064D01*
X216783777Y-82458119D01*
X216716919Y-82376653D01*
X216658363Y-82289017D01*
X216583833Y-82214487D01*
X216516977Y-82133023D01*
X216435513Y-82066167D01*
X216360983Y-81991637D01*
X216273347Y-81933081D01*
X216191881Y-81866223D01*
X216098936Y-81816543D01*
X216011302Y-81757988D01*
X215913927Y-81717654D01*
X215820982Y-81667974D01*
X215720131Y-81637381D01*
X215622756Y-81597047D01*
X215519384Y-81576485D01*
X215418533Y-81545892D01*
X215313651Y-81535562D01*
X215210279Y-81515000D01*
X208404874Y-81515000D01*
X208300000Y-81504671D01*
X208195126Y-81515000D01*
X206004872Y-81515000D01*
X205900000Y-81504671D01*
X205795128Y-81515000D01*
X199189721Y-81515000D01*
X199086349Y-81535562D01*
X198981467Y-81545892D01*
X198880616Y-81576485D01*
X198777244Y-81597047D01*
X198679869Y-81637381D01*
X198579018Y-81667974D01*
X198486073Y-81717654D01*
X198388698Y-81757988D01*
X198301064Y-81816543D01*
X198208119Y-81866223D01*
X198126653Y-81933081D01*
X198039017Y-81991637D01*
X197964487Y-82066167D01*
X197883023Y-82133023D01*
X197816167Y-82214487D01*
X197741637Y-82289017D01*
X197683081Y-82376653D01*
X197616223Y-82458119D01*
X197566543Y-82551064D01*
X197507988Y-82638698D01*
X197467654Y-82736073D01*
X197417974Y-82829018D01*
X197387381Y-82929869D01*
X197347047Y-83027244D01*
X197326485Y-83130616D01*
X197295892Y-83231467D01*
X197285562Y-83336349D01*
X197265000Y-83439721D01*
X197265000Y-83545118D01*
X197254670Y-83650000D01*
X197265000Y-83754882D01*
X197265000Y-83860279D01*
X197285562Y-83963651D01*
X197295892Y-84068533D01*
X197326485Y-84169384D01*
X197347047Y-84272756D01*
X197387381Y-84370131D01*
X197417974Y-84470982D01*
X197467654Y-84563927D01*
X197507988Y-84661302D01*
X197566543Y-84748936D01*
X197616223Y-84841881D01*
X197683081Y-84923347D01*
X197741637Y-85010983D01*
X197816165Y-85085511D01*
X197883023Y-85166977D01*
X197964487Y-85233833D01*
X198039017Y-85308363D01*
X198126653Y-85366919D01*
X198208119Y-85433777D01*
X198301064Y-85483457D01*
X198388698Y-85542012D01*
X198486073Y-85582346D01*
X198579018Y-85632026D01*
X198679869Y-85662619D01*
X198777244Y-85702953D01*
X198880616Y-85723515D01*
X198981467Y-85754108D01*
X199086349Y-85764438D01*
X199189721Y-85785000D01*
X205015655Y-85785000D01*
X205345002Y-86114348D01*
X205345001Y-96851928D01*
X203580000Y-96851928D01*
X203455518Y-96864188D01*
X203335820Y-96900498D01*
X203227000Y-96958664D01*
X203227000Y-95150000D01*
X203224658Y-95125725D01*
X203217527Y-95101871D01*
X203205880Y-95079868D01*
X203190163Y-95060559D01*
X203170981Y-95044688D01*
X203149072Y-95032864D01*
X203125277Y-95025541D01*
X203100511Y-95023001D01*
X188180511Y-94963001D01*
X188155589Y-94965368D01*
X188131744Y-94972525D01*
X188109753Y-94984197D01*
X188090461Y-94999934D01*
X188074611Y-95019133D01*
X188062810Y-95041055D01*
X188055514Y-95064858D01*
X188053001Y-95089627D01*
X187973605Y-122143857D01*
X187973000Y-122150000D01*
X187973000Y-122350000D01*
X187975368Y-122374411D01*
X187982525Y-122398256D01*
X187994197Y-122420247D01*
X188009934Y-122439539D01*
X188029133Y-122455389D01*
X188051055Y-122467190D01*
X188074858Y-122474486D01*
X188099627Y-122476999D01*
X188124411Y-122474632D01*
X188148256Y-122467475D01*
X188170247Y-122455803D01*
X188189539Y-122440066D01*
X188205389Y-122420867D01*
X188217190Y-122398945D01*
X188224486Y-122375142D01*
X188226999Y-122350373D01*
X188227214Y-122277000D01*
X201015000Y-122277000D01*
X201015000Y-122832024D01*
X200931614Y-122876595D01*
X200797038Y-122987038D01*
X200686595Y-123121614D01*
X200604528Y-123275150D01*
X200553992Y-123441746D01*
X200536928Y-123615000D01*
X200536928Y-124115000D01*
X200553992Y-124288254D01*
X200604528Y-124454850D01*
X200686595Y-124608386D01*
X200797038Y-124742962D01*
X200803594Y-124748342D01*
X200723815Y-124813815D01*
X200644463Y-124910506D01*
X200585498Y-125020820D01*
X200549188Y-125140518D01*
X200536928Y-125265000D01*
X200540000Y-125479250D01*
X200698750Y-125638000D01*
X201773000Y-125638000D01*
X201773000Y-125618000D01*
X202027000Y-125618000D01*
X202027000Y-125638000D01*
X203101250Y-125638000D01*
X203260000Y-125479250D01*
X203263072Y-125265000D01*
X203250812Y-125140518D01*
X203214502Y-125020820D01*
X203155537Y-124910506D01*
X203076185Y-124813815D01*
X202996406Y-124748342D01*
X203002962Y-124742962D01*
X203113405Y-124608386D01*
X203195472Y-124454850D01*
X203246008Y-124288254D01*
X203263072Y-124115000D01*
X203263072Y-123615000D01*
X203246008Y-123441746D01*
X203195472Y-123275150D01*
X203113405Y-123121614D01*
X203002962Y-122987038D01*
X202868386Y-122876595D01*
X202785000Y-122832024D01*
X202785000Y-122277000D01*
X203300000Y-122277000D01*
X203324776Y-122274560D01*
X203348601Y-122267333D01*
X203370557Y-122255597D01*
X203389803Y-122239803D01*
X203405597Y-122220557D01*
X203417333Y-122198601D01*
X203424560Y-122174776D01*
X203427000Y-122150000D01*
X203427000Y-122057161D01*
X203455518Y-122065812D01*
X203580000Y-122078072D01*
X204394250Y-122075000D01*
X204553000Y-121916250D01*
X204553000Y-120467000D01*
X204807000Y-120467000D01*
X204807000Y-121916250D01*
X204965750Y-122075000D01*
X205780000Y-122078072D01*
X205904482Y-122065812D01*
X206024180Y-122029502D01*
X206134494Y-121970537D01*
X206231185Y-121891185D01*
X206310537Y-121794494D01*
X206369502Y-121684180D01*
X206405812Y-121564482D01*
X206418072Y-121440000D01*
X206415000Y-120625750D01*
X206256250Y-120467000D01*
X204807000Y-120467000D01*
X204553000Y-120467000D01*
X204533000Y-120467000D01*
X204533000Y-120213000D01*
X204553000Y-120213000D01*
X204553000Y-120193000D01*
X204807000Y-120193000D01*
X204807000Y-120213000D01*
X206256250Y-120213000D01*
X206415000Y-120054250D01*
X206418072Y-119240000D01*
X206405812Y-119115518D01*
X206369502Y-118995820D01*
X206353028Y-118965000D01*
X206369502Y-118934180D01*
X206405812Y-118814482D01*
X206418072Y-118690000D01*
X206418072Y-118475000D01*
X210302456Y-118475000D01*
X210279953Y-118493468D01*
X210279951Y-118493470D01*
X210246183Y-118521183D01*
X210218470Y-118554951D01*
X206398994Y-122374428D01*
X206049999Y-122374428D01*
X205876745Y-122391492D01*
X205710149Y-122442028D01*
X205556613Y-122524095D01*
X205422038Y-122634538D01*
X205311595Y-122769113D01*
X205229528Y-122922649D01*
X205178992Y-123089245D01*
X205161928Y-123262499D01*
X205161928Y-123787501D01*
X205178992Y-123960755D01*
X205229528Y-124127351D01*
X205311595Y-124280887D01*
X205422038Y-124415462D01*
X205448891Y-124437500D01*
X205422038Y-124459538D01*
X205311595Y-124594113D01*
X205229528Y-124747649D01*
X205178992Y-124914245D01*
X205161928Y-125087499D01*
X205161928Y-125612501D01*
X205178992Y-125785755D01*
X205229528Y-125952351D01*
X205311595Y-126105887D01*
X205422038Y-126240462D01*
X205556613Y-126350905D01*
X205710149Y-126432972D01*
X205876745Y-126483508D01*
X206049999Y-126500572D01*
X206398993Y-126500572D01*
X206575000Y-126676579D01*
X206575001Y-128464892D01*
X206486525Y-128553368D01*
X206370000Y-128727760D01*
X206253475Y-128553368D01*
X206046632Y-128346525D01*
X205803411Y-128184010D01*
X205533158Y-128072068D01*
X205246260Y-128015000D01*
X204953740Y-128015000D01*
X204666842Y-128072068D01*
X204396589Y-128184010D01*
X204153368Y-128346525D01*
X203946525Y-128553368D01*
X203824805Y-128735534D01*
X203755178Y-128618645D01*
X203560269Y-128402412D01*
X203326920Y-128228359D01*
X203064099Y-128103175D01*
X202916890Y-128058524D01*
X202687000Y-128179845D01*
X202687000Y-129373000D01*
X202707000Y-129373000D01*
X202707000Y-129627000D01*
X202687000Y-129627000D01*
X202687000Y-130820155D01*
X202916890Y-130941476D01*
X203064099Y-130896825D01*
X203326920Y-130771641D01*
X203560269Y-130597588D01*
X203755178Y-130381355D01*
X203824805Y-130264466D01*
X203946525Y-130446632D01*
X204153368Y-130653475D01*
X204396589Y-130815990D01*
X204666842Y-130927932D01*
X204953740Y-130985000D01*
X205246260Y-130985000D01*
X205533158Y-130927932D01*
X205803411Y-130815990D01*
X206046632Y-130653475D01*
X206253475Y-130446632D01*
X206370000Y-130272240D01*
X206486525Y-130446632D01*
X206693368Y-130653475D01*
X206936589Y-130815990D01*
X207206842Y-130927932D01*
X207493740Y-130985000D01*
X207786260Y-130985000D01*
X208073158Y-130927932D01*
X208343411Y-130815990D01*
X208586632Y-130653475D01*
X208793475Y-130446632D01*
X208910000Y-130272240D01*
X209026525Y-130446632D01*
X209233368Y-130653475D01*
X209476589Y-130815990D01*
X209746842Y-130927932D01*
X210033740Y-130985000D01*
X210326260Y-130985000D01*
X210613158Y-130927932D01*
X210883411Y-130815990D01*
X211126632Y-130653475D01*
X211258487Y-130521620D01*
X211280498Y-130594180D01*
X211339463Y-130704494D01*
X211418815Y-130801185D01*
X211515506Y-130880537D01*
X211625820Y-130939502D01*
X211745518Y-130975812D01*
X211870000Y-130988072D01*
X213570000Y-130988072D01*
X213619630Y-130983184D01*
X213216300Y-131081988D01*
X211152613Y-131428420D01*
X209068976Y-131621497D01*
X206976770Y-131660165D01*
X204887421Y-131544213D01*
X202812342Y-131274274D01*
X200762865Y-130851822D01*
X198750184Y-130279165D01*
X197597367Y-129856891D01*
X201118519Y-129856891D01*
X201215843Y-130131252D01*
X201364822Y-130381355D01*
X201559731Y-130597588D01*
X201793080Y-130771641D01*
X202055901Y-130896825D01*
X202203110Y-130941476D01*
X202433000Y-130820155D01*
X202433000Y-129627000D01*
X201239186Y-129627000D01*
X201118519Y-129856891D01*
X197597367Y-129856891D01*
X196785291Y-129559430D01*
X195865509Y-129143109D01*
X201118519Y-129143109D01*
X201239186Y-129373000D01*
X202433000Y-129373000D01*
X202433000Y-128179845D01*
X202203110Y-128058524D01*
X202055901Y-128103175D01*
X201793080Y-128228359D01*
X201559731Y-128402412D01*
X201364822Y-128618645D01*
X201215843Y-128868748D01*
X201118519Y-129143109D01*
X195865509Y-129143109D01*
X194878918Y-128696549D01*
X193041478Y-127695233D01*
X191283005Y-126560952D01*
X190891102Y-126265000D01*
X200536928Y-126265000D01*
X200549188Y-126389482D01*
X200585498Y-126509180D01*
X200644463Y-126619494D01*
X200723815Y-126716185D01*
X200820506Y-126795537D01*
X200930820Y-126854502D01*
X201050518Y-126890812D01*
X201175000Y-126903072D01*
X201614250Y-126900000D01*
X201773000Y-126741250D01*
X201773000Y-125892000D01*
X202027000Y-125892000D01*
X202027000Y-126741250D01*
X202185750Y-126900000D01*
X202625000Y-126903072D01*
X202749482Y-126890812D01*
X202869180Y-126854502D01*
X202979494Y-126795537D01*
X203076185Y-126716185D01*
X203155537Y-126619494D01*
X203214502Y-126509180D01*
X203250812Y-126389482D01*
X203263072Y-126265000D01*
X203260000Y-126050750D01*
X203101250Y-125892000D01*
X202027000Y-125892000D01*
X201773000Y-125892000D01*
X200698750Y-125892000D01*
X200540000Y-126050750D01*
X200536928Y-126265000D01*
X190891102Y-126265000D01*
X189613103Y-125299901D01*
X188040893Y-123918967D01*
X186574963Y-122425692D01*
X185223317Y-120828233D01*
X183993339Y-119135313D01*
X182891746Y-117356180D01*
X181924556Y-115500550D01*
X181097049Y-113578558D01*
X180413746Y-111600701D01*
X179878379Y-109577781D01*
X179493871Y-107520848D01*
X179262323Y-105441134D01*
X179185000Y-103350000D01*
X179262323Y-101258866D01*
X179493871Y-99179152D01*
X179878379Y-97122219D01*
X180413746Y-95099299D01*
X181097049Y-93121442D01*
X181924556Y-91199450D01*
X182653976Y-89800000D01*
X187431928Y-89800000D01*
X187431928Y-94300000D01*
X187444188Y-94424482D01*
X187480498Y-94544180D01*
X187539463Y-94654494D01*
X187618815Y-94751185D01*
X187715506Y-94830537D01*
X187825820Y-94889502D01*
X187945518Y-94925812D01*
X188070000Y-94938072D01*
X190570000Y-94938072D01*
X190694482Y-94925812D01*
X190814180Y-94889502D01*
X190924494Y-94830537D01*
X191021185Y-94751185D01*
X191100537Y-94654494D01*
X191159502Y-94544180D01*
X191195812Y-94424482D01*
X191208072Y-94300000D01*
X191208072Y-89800000D01*
X191195812Y-89675518D01*
X191159502Y-89555820D01*
X191100537Y-89445506D01*
X191021185Y-89348815D01*
X190924494Y-89269463D01*
X190814180Y-89210498D01*
X190694482Y-89174188D01*
X190570000Y-89161928D01*
X188070000Y-89161928D01*
X187945518Y-89174188D01*
X187825820Y-89210498D01*
X187715506Y-89269463D01*
X187618815Y-89348815D01*
X187539463Y-89445506D01*
X187480498Y-89555820D01*
X187444188Y-89675518D01*
X187431928Y-89800000D01*
X182653976Y-89800000D01*
X182891746Y-89343820D01*
X183993339Y-87564687D01*
X185223317Y-85871767D01*
X186574963Y-84274308D01*
X187187838Y-83650000D01*
X192254671Y-83650000D01*
X192265000Y-83754872D01*
X192265000Y-83860279D01*
X192285564Y-83963661D01*
X192295893Y-84068533D01*
X192326483Y-84169375D01*
X192347047Y-84272756D01*
X192387385Y-84370140D01*
X192417975Y-84470982D01*
X192467650Y-84563919D01*
X192507988Y-84661302D01*
X192566548Y-84748943D01*
X192616224Y-84841881D01*
X192635001Y-84864761D01*
X192635000Y-92154881D01*
X192665892Y-92468532D01*
X192787974Y-92870981D01*
X192885001Y-93052507D01*
X192885001Y-93142597D01*
X192912276Y-93419524D01*
X193020062Y-93774848D01*
X193195098Y-94102317D01*
X193430656Y-94389345D01*
X193717684Y-94624903D01*
X194045153Y-94799939D01*
X194400477Y-94907725D01*
X194770000Y-94944120D01*
X195139524Y-94907725D01*
X195494848Y-94799939D01*
X195822317Y-94624903D01*
X196109345Y-94389345D01*
X196344903Y-94102317D01*
X196519939Y-93774848D01*
X196627725Y-93419524D01*
X196655000Y-93142597D01*
X196655000Y-93052505D01*
X196752026Y-92870982D01*
X196874108Y-92468533D01*
X196902821Y-92177000D01*
X198335000Y-92177000D01*
X198335000Y-93177000D01*
X198395996Y-93542305D01*
X198527088Y-93888691D01*
X198723237Y-94202847D01*
X198976906Y-94472699D01*
X199278347Y-94687878D01*
X199615975Y-94840114D01*
X199800355Y-94887695D01*
X200093000Y-94771572D01*
X200093000Y-92177000D01*
X200347000Y-92177000D01*
X200347000Y-94771572D01*
X200639645Y-94887695D01*
X200824025Y-94840114D01*
X201161653Y-94687878D01*
X201463094Y-94472699D01*
X201716763Y-94202847D01*
X201912912Y-93888691D01*
X202044004Y-93542305D01*
X202105000Y-93177000D01*
X202105000Y-92177000D01*
X200347000Y-92177000D01*
X200093000Y-92177000D01*
X198335000Y-92177000D01*
X196902821Y-92177000D01*
X196905000Y-92154882D01*
X196905000Y-90923000D01*
X198335000Y-90923000D01*
X198335000Y-91923000D01*
X200093000Y-91923000D01*
X200093000Y-89328428D01*
X200347000Y-89328428D01*
X200347000Y-91923000D01*
X202105000Y-91923000D01*
X202105000Y-90923000D01*
X202044004Y-90557695D01*
X201912912Y-90211309D01*
X201716763Y-89897153D01*
X201463094Y-89627301D01*
X201161653Y-89412122D01*
X200824025Y-89259886D01*
X200639645Y-89212305D01*
X200347000Y-89328428D01*
X200093000Y-89328428D01*
X199800355Y-89212305D01*
X199615975Y-89259886D01*
X199278347Y-89412122D01*
X198976906Y-89627301D01*
X198723237Y-89897153D01*
X198527088Y-90211309D01*
X198395996Y-90557695D01*
X198335000Y-90923000D01*
X196905000Y-90923000D01*
X196905000Y-84124871D01*
X196915329Y-84019999D01*
X196905000Y-83915127D01*
X196905000Y-83915118D01*
X196874108Y-83601467D01*
X196752026Y-83199018D01*
X196553777Y-82828119D01*
X196286977Y-82503023D01*
X196205508Y-82436163D01*
X196058365Y-82289020D01*
X196058363Y-82289017D01*
X195760983Y-81991637D01*
X195673342Y-81933077D01*
X195591881Y-81866224D01*
X195498943Y-81816548D01*
X195411302Y-81757988D01*
X195313919Y-81717650D01*
X195220982Y-81667975D01*
X195120140Y-81637385D01*
X195022756Y-81597047D01*
X194919375Y-81576483D01*
X194818533Y-81545893D01*
X194713661Y-81535564D01*
X194610279Y-81515000D01*
X194504872Y-81515000D01*
X194400000Y-81504671D01*
X194295128Y-81515000D01*
X194189721Y-81515000D01*
X194086339Y-81535564D01*
X193981467Y-81545893D01*
X193880625Y-81576483D01*
X193777244Y-81597047D01*
X193679860Y-81637385D01*
X193579018Y-81667975D01*
X193486081Y-81717650D01*
X193388698Y-81757988D01*
X193301057Y-81816548D01*
X193208119Y-81866224D01*
X193126658Y-81933077D01*
X193039017Y-81991637D01*
X192964485Y-82066169D01*
X192883023Y-82133023D01*
X192816169Y-82214485D01*
X192741637Y-82289017D01*
X192683077Y-82376658D01*
X192616224Y-82458119D01*
X192566548Y-82551057D01*
X192507988Y-82638698D01*
X192467650Y-82736081D01*
X192417975Y-82829018D01*
X192387385Y-82929860D01*
X192347047Y-83027244D01*
X192326483Y-83130625D01*
X192295893Y-83231467D01*
X192285564Y-83336339D01*
X192265000Y-83439721D01*
X192265000Y-83545128D01*
X192254671Y-83650000D01*
X187187838Y-83650000D01*
X188040893Y-82781033D01*
X189613103Y-81400099D01*
X191283005Y-80139048D01*
X193041478Y-79004767D01*
X194878918Y-78003451D01*
X196785291Y-77140570D01*
X198750184Y-76420835D01*
X200762865Y-75848178D01*
X202812342Y-75425726D01*
X204887421Y-75155787D01*
X206976770Y-75039835D01*
X209068976Y-75078503D01*
G37*
%TD.AperFunction*%
D26*
X212811494Y-120986928D02*
X212450000Y-120986928D01*
X212276746Y-121003992D01*
X212110150Y-121054528D01*
X211956614Y-121136595D01*
X211822038Y-121247038D01*
X211816658Y-121253594D01*
X211751185Y-121173815D01*
X211654494Y-121094463D01*
X211544180Y-121035498D01*
X211424482Y-120999188D01*
X211300000Y-120986928D01*
X211085750Y-120990000D01*
X210927000Y-121148750D01*
X210927000Y-122223000D01*
X210947000Y-122223000D01*
X210947000Y-122477000D01*
X210927000Y-122477000D01*
X210927000Y-123551250D01*
X211085750Y-123710000D01*
X211300000Y-123713072D01*
X211424482Y-123700812D01*
X211544180Y-123664502D01*
X211654494Y-123605537D01*
X211751185Y-123526185D01*
X211816658Y-123446406D01*
X211822038Y-123452962D01*
X211956614Y-123563405D01*
X212099683Y-123639877D01*
X211750000Y-123636928D01*
X211625518Y-123649188D01*
X211505820Y-123685498D01*
X211395506Y-123744463D01*
X211298815Y-123823815D01*
X211219463Y-123920506D01*
X211160498Y-124030820D01*
X211124188Y-124150518D01*
X211111928Y-124275000D01*
X211115000Y-124864250D01*
X211273750Y-125023000D01*
X212273000Y-125023000D01*
X212273000Y-125003000D01*
X212527000Y-125003000D01*
X212527000Y-125023000D01*
X213526250Y-125023000D01*
X213685000Y-124864250D01*
X213688072Y-124275000D01*
X213675812Y-124150518D01*
X213639502Y-124030820D01*
X213580537Y-123920506D01*
X213501185Y-123823815D01*
X213404494Y-123744463D01*
X213294180Y-123685498D01*
X213226041Y-123664828D01*
X213289850Y-123645472D01*
X213443386Y-123563405D01*
X213577962Y-123452962D01*
X213688405Y-123318386D01*
X213770472Y-123164850D01*
X213821008Y-122998254D01*
X213838072Y-122825000D01*
X213838072Y-122463506D01*
X215215001Y-121086578D01*
X215215000Y-126203421D01*
X213406494Y-128011928D01*
X211870000Y-128011928D01*
X211745518Y-128024188D01*
X211625820Y-128060498D01*
X211515506Y-128119463D01*
X211418815Y-128198815D01*
X211339463Y-128295506D01*
X211280498Y-128405820D01*
X211258487Y-128478380D01*
X211126632Y-128346525D01*
X210883411Y-128184010D01*
X210613158Y-128072068D01*
X210326260Y-128015000D01*
X210033740Y-128015000D01*
X209746842Y-128072068D01*
X209476589Y-128184010D01*
X209233368Y-128346525D01*
X209026525Y-128553368D01*
X208910000Y-128727760D01*
X208793475Y-128553368D01*
X208586632Y-128346525D01*
X208345000Y-128185072D01*
X208345000Y-126676578D01*
X208472797Y-126548781D01*
X208560150Y-126595472D01*
X208726746Y-126646008D01*
X208900000Y-126663072D01*
X209700000Y-126663072D01*
X209873254Y-126646008D01*
X210039850Y-126595472D01*
X210193386Y-126513405D01*
X210327962Y-126402962D01*
X210438405Y-126268386D01*
X210520472Y-126114850D01*
X210547727Y-126025000D01*
X211111928Y-126025000D01*
X211124188Y-126149482D01*
X211160498Y-126269180D01*
X211219463Y-126379494D01*
X211298815Y-126476185D01*
X211395506Y-126555537D01*
X211505820Y-126614502D01*
X211625518Y-126650812D01*
X211750000Y-126663072D01*
X212114250Y-126660000D01*
X212273000Y-126501250D01*
X212273000Y-125277000D01*
X212527000Y-125277000D01*
X212527000Y-126501250D01*
X212685750Y-126660000D01*
X213050000Y-126663072D01*
X213174482Y-126650812D01*
X213294180Y-126614502D01*
X213404494Y-126555537D01*
X213501185Y-126476185D01*
X213580537Y-126379494D01*
X213639502Y-126269180D01*
X213675812Y-126149482D01*
X213688072Y-126025000D01*
X213685000Y-125435750D01*
X213526250Y-125277000D01*
X212527000Y-125277000D01*
X212273000Y-125277000D01*
X211273750Y-125277000D01*
X211115000Y-125435750D01*
X211111928Y-126025000D01*
X210547727Y-126025000D01*
X210571008Y-125948254D01*
X210588072Y-125775000D01*
X210588072Y-124525000D01*
X210571008Y-124351746D01*
X210520472Y-124185150D01*
X210438405Y-124031614D01*
X210327962Y-123897038D01*
X210193386Y-123786595D01*
X210039850Y-123704528D01*
X209873254Y-123653992D01*
X209700000Y-123636928D01*
X208900000Y-123636928D01*
X208726746Y-123653992D01*
X208560150Y-123704528D01*
X208406614Y-123786595D01*
X208272038Y-123897038D01*
X208161595Y-124031614D01*
X208079528Y-124185150D01*
X208028992Y-124351746D01*
X208014161Y-124502325D01*
X207991183Y-124521183D01*
X207963470Y-124554951D01*
X207770542Y-124747879D01*
X207770472Y-124747649D01*
X207688405Y-124594113D01*
X207577962Y-124459538D01*
X207551109Y-124437500D01*
X207577962Y-124415462D01*
X207688405Y-124280887D01*
X207770472Y-124127351D01*
X207821008Y-123960755D01*
X207838072Y-123787501D01*
X207838072Y-123438506D01*
X208201578Y-123075000D01*
X209661928Y-123075000D01*
X209674188Y-123199482D01*
X209710498Y-123319180D01*
X209769463Y-123429494D01*
X209848815Y-123526185D01*
X209945506Y-123605537D01*
X210055820Y-123664502D01*
X210175518Y-123700812D01*
X210300000Y-123713072D01*
X210514250Y-123710000D01*
X210673000Y-123551250D01*
X210673000Y-122477000D01*
X209823750Y-122477000D01*
X209665000Y-122635750D01*
X209661928Y-123075000D01*
X208201578Y-123075000D01*
X209663059Y-121613520D01*
X209661928Y-121625000D01*
X209665000Y-122064250D01*
X209823750Y-122223000D01*
X210673000Y-122223000D01*
X210673000Y-121148750D01*
X210514250Y-120990000D01*
X210300000Y-120986928D01*
X210288520Y-120988059D01*
X211241579Y-120035000D01*
X213763421Y-120035000D01*
X212811494Y-120986928D01*
%TA.AperFunction,Conductor*%
D27*
G36*
X212811494Y-120986928D02*
G01*
X212450000Y-120986928D01*
X212276746Y-121003992D01*
X212110150Y-121054528D01*
X211956614Y-121136595D01*
X211822038Y-121247038D01*
X211816658Y-121253594D01*
X211751185Y-121173815D01*
X211654494Y-121094463D01*
X211544180Y-121035498D01*
X211424482Y-120999188D01*
X211300000Y-120986928D01*
X211085750Y-120990000D01*
X210927000Y-121148750D01*
X210927000Y-122223000D01*
X210947000Y-122223000D01*
X210947000Y-122477000D01*
X210927000Y-122477000D01*
X210927000Y-123551250D01*
X211085750Y-123710000D01*
X211300000Y-123713072D01*
X211424482Y-123700812D01*
X211544180Y-123664502D01*
X211654494Y-123605537D01*
X211751185Y-123526185D01*
X211816658Y-123446406D01*
X211822038Y-123452962D01*
X211956614Y-123563405D01*
X212099683Y-123639877D01*
X211750000Y-123636928D01*
X211625518Y-123649188D01*
X211505820Y-123685498D01*
X211395506Y-123744463D01*
X211298815Y-123823815D01*
X211219463Y-123920506D01*
X211160498Y-124030820D01*
X211124188Y-124150518D01*
X211111928Y-124275000D01*
X211115000Y-124864250D01*
X211273750Y-125023000D01*
X212273000Y-125023000D01*
X212273000Y-125003000D01*
X212527000Y-125003000D01*
X212527000Y-125023000D01*
X213526250Y-125023000D01*
X213685000Y-124864250D01*
X213688072Y-124275000D01*
X213675812Y-124150518D01*
X213639502Y-124030820D01*
X213580537Y-123920506D01*
X213501185Y-123823815D01*
X213404494Y-123744463D01*
X213294180Y-123685498D01*
X213226041Y-123664828D01*
X213289850Y-123645472D01*
X213443386Y-123563405D01*
X213577962Y-123452962D01*
X213688405Y-123318386D01*
X213770472Y-123164850D01*
X213821008Y-122998254D01*
X213838072Y-122825000D01*
X213838072Y-122463506D01*
X215215001Y-121086578D01*
X215215000Y-126203421D01*
X213406494Y-128011928D01*
X211870000Y-128011928D01*
X211745518Y-128024188D01*
X211625820Y-128060498D01*
X211515506Y-128119463D01*
X211418815Y-128198815D01*
X211339463Y-128295506D01*
X211280498Y-128405820D01*
X211258487Y-128478380D01*
X211126632Y-128346525D01*
X210883411Y-128184010D01*
X210613158Y-128072068D01*
X210326260Y-128015000D01*
X210033740Y-128015000D01*
X209746842Y-128072068D01*
X209476589Y-128184010D01*
X209233368Y-128346525D01*
X209026525Y-128553368D01*
X208910000Y-128727760D01*
X208793475Y-128553368D01*
X208586632Y-128346525D01*
X208345000Y-128185072D01*
X208345000Y-126676578D01*
X208472797Y-126548781D01*
X208560150Y-126595472D01*
X208726746Y-126646008D01*
X208900000Y-126663072D01*
X209700000Y-126663072D01*
X209873254Y-126646008D01*
X210039850Y-126595472D01*
X210193386Y-126513405D01*
X210327962Y-126402962D01*
X210438405Y-126268386D01*
X210520472Y-126114850D01*
X210547727Y-126025000D01*
X211111928Y-126025000D01*
X211124188Y-126149482D01*
X211160498Y-126269180D01*
X211219463Y-126379494D01*
X211298815Y-126476185D01*
X211395506Y-126555537D01*
X211505820Y-126614502D01*
X211625518Y-126650812D01*
X211750000Y-126663072D01*
X212114250Y-126660000D01*
X212273000Y-126501250D01*
X212273000Y-125277000D01*
X212527000Y-125277000D01*
X212527000Y-126501250D01*
X212685750Y-126660000D01*
X213050000Y-126663072D01*
X213174482Y-126650812D01*
X213294180Y-126614502D01*
X213404494Y-126555537D01*
X213501185Y-126476185D01*
X213580537Y-126379494D01*
X213639502Y-126269180D01*
X213675812Y-126149482D01*
X213688072Y-126025000D01*
X213685000Y-125435750D01*
X213526250Y-125277000D01*
X212527000Y-125277000D01*
X212273000Y-125277000D01*
X211273750Y-125277000D01*
X211115000Y-125435750D01*
X211111928Y-126025000D01*
X210547727Y-126025000D01*
X210571008Y-125948254D01*
X210588072Y-125775000D01*
X210588072Y-124525000D01*
X210571008Y-124351746D01*
X210520472Y-124185150D01*
X210438405Y-124031614D01*
X210327962Y-123897038D01*
X210193386Y-123786595D01*
X210039850Y-123704528D01*
X209873254Y-123653992D01*
X209700000Y-123636928D01*
X208900000Y-123636928D01*
X208726746Y-123653992D01*
X208560150Y-123704528D01*
X208406614Y-123786595D01*
X208272038Y-123897038D01*
X208161595Y-124031614D01*
X208079528Y-124185150D01*
X208028992Y-124351746D01*
X208014161Y-124502325D01*
X207991183Y-124521183D01*
X207963470Y-124554951D01*
X207770542Y-124747879D01*
X207770472Y-124747649D01*
X207688405Y-124594113D01*
X207577962Y-124459538D01*
X207551109Y-124437500D01*
X207577962Y-124415462D01*
X207688405Y-124280887D01*
X207770472Y-124127351D01*
X207821008Y-123960755D01*
X207838072Y-123787501D01*
X207838072Y-123438506D01*
X208201578Y-123075000D01*
X209661928Y-123075000D01*
X209674188Y-123199482D01*
X209710498Y-123319180D01*
X209769463Y-123429494D01*
X209848815Y-123526185D01*
X209945506Y-123605537D01*
X210055820Y-123664502D01*
X210175518Y-123700812D01*
X210300000Y-123713072D01*
X210514250Y-123710000D01*
X210673000Y-123551250D01*
X210673000Y-122477000D01*
X209823750Y-122477000D01*
X209665000Y-122635750D01*
X209661928Y-123075000D01*
X208201578Y-123075000D01*
X209663059Y-121613520D01*
X209661928Y-121625000D01*
X209665000Y-122064250D01*
X209823750Y-122223000D01*
X210673000Y-122223000D01*
X210673000Y-121148750D01*
X210514250Y-120990000D01*
X210300000Y-120986928D01*
X210288520Y-120988059D01*
X211241579Y-120035000D01*
X213763421Y-120035000D01*
X212811494Y-120986928D01*
G37*
%TD.AperFunction*%
%TD*%
M02*
