%TF.GenerationSoftware,KiCad,Pcbnew,(5.1.10)-1*%
%TF.CreationDate,2021-07-22T01:03:41+03:00*%
%TF.ProjectId,Dimmer,44696d6d-6572-42e6-9b69-6361645f7063,rev?*%
%TF.SameCoordinates,Original*%
%TF.FileFunction,Soldermask,Top*%
%TF.FilePolarity,Negative*%
%FSLAX46Y46*%
G04 Gerber Fmt 4.6, Leading zero omitted, Abs format (unit mm)*
G04 Created by KiCad (PCBNEW (5.1.10)-1) date 2021-07-22 01:03:41*
%MOMM*%
%LPD*%
G01*
G04 APERTURE LIST*
%ADD10O,3.600000X3.600000*%
%ADD11R,2.500000X4.500000*%
%ADD12O,2.500000X4.500000*%
%ADD13C,3.000000*%
%ADD14R,2.200000X2.200000*%
%ADD15R,2.200000X3.200000*%
%ADD16O,1.700000X1.700000*%
%ADD17R,1.700000X1.700000*%
%ADD18C,1.500000*%
%ADD19R,1.120000X2.160000*%
%ADD20C,1.524000*%
%ADD21R,2.160000X1.120000*%
%ADD22R,1.524000X1.524000*%
G04 APERTURE END LIST*
%TO.C,TH1*%
G36*
G01*
X211750000Y-125775000D02*
X211750000Y-124525000D01*
G75*
G02*
X212000000Y-124275000I250000J0D01*
G01*
X212800000Y-124275000D01*
G75*
G02*
X213050000Y-124525000I0J-250000D01*
G01*
X213050000Y-125775000D01*
G75*
G02*
X212800000Y-126025000I-250000J0D01*
G01*
X212000000Y-126025000D01*
G75*
G02*
X211750000Y-125775000I0J250000D01*
G01*
G37*
G36*
G01*
X208650000Y-125775000D02*
X208650000Y-124525000D01*
G75*
G02*
X208900000Y-124275000I250000J0D01*
G01*
X209700000Y-124275000D01*
G75*
G02*
X209950000Y-124525000I0J-250000D01*
G01*
X209950000Y-125775000D01*
G75*
G02*
X209700000Y-126025000I-250000J0D01*
G01*
X208900000Y-126025000D01*
G75*
G02*
X208650000Y-125775000I0J250000D01*
G01*
G37*
%TD*%
D10*
%TO.C,Q2*%
X216370000Y-111910000D03*
D11*
X221820000Y-92050000D03*
D12*
X216370000Y-92050000D03*
X210920000Y-92050000D03*
%TD*%
%TO.C,Q1*%
X200220000Y-92050000D03*
X194770000Y-92050000D03*
D11*
X189320000Y-92050000D03*
%TD*%
D13*
%TO.C,OUT*%
X220000000Y-83650000D03*
X215000000Y-83650000D03*
%TD*%
D14*
%TO.C,PS*%
X204680000Y-120340000D03*
X204680000Y-117590000D03*
D15*
X204680000Y-105340000D03*
X204680000Y-99090000D03*
%TD*%
D13*
%TO.C,IN*%
X199400000Y-83650000D03*
X194400000Y-83650000D03*
%TD*%
%TO.C,C8*%
G36*
G01*
X211300000Y-121875000D02*
X211300000Y-122825000D01*
G75*
G02*
X211050000Y-123075000I-250000J0D01*
G01*
X210550000Y-123075000D01*
G75*
G02*
X210300000Y-122825000I0J250000D01*
G01*
X210300000Y-121875000D01*
G75*
G02*
X210550000Y-121625000I250000J0D01*
G01*
X211050000Y-121625000D01*
G75*
G02*
X211300000Y-121875000I0J-250000D01*
G01*
G37*
G36*
G01*
X213200000Y-121875000D02*
X213200000Y-122825000D01*
G75*
G02*
X212950000Y-123075000I-250000J0D01*
G01*
X212450000Y-123075000D01*
G75*
G02*
X212200000Y-122825000I0J250000D01*
G01*
X212200000Y-121875000D01*
G75*
G02*
X212450000Y-121625000I250000J0D01*
G01*
X212950000Y-121625000D01*
G75*
G02*
X213200000Y-121875000I0J-250000D01*
G01*
G37*
%TD*%
D16*
%TO.C,J4*%
X202560000Y-129500000D03*
X205100000Y-129500000D03*
X207640000Y-129500000D03*
X210180000Y-129500000D03*
D17*
X212720000Y-129500000D03*
%TD*%
%TO.C,C11*%
G36*
G01*
X201425000Y-125265000D02*
X202375000Y-125265000D01*
G75*
G02*
X202625000Y-125515000I0J-250000D01*
G01*
X202625000Y-126015000D01*
G75*
G02*
X202375000Y-126265000I-250000J0D01*
G01*
X201425000Y-126265000D01*
G75*
G02*
X201175000Y-126015000I0J250000D01*
G01*
X201175000Y-125515000D01*
G75*
G02*
X201425000Y-125265000I250000J0D01*
G01*
G37*
G36*
G01*
X201425000Y-123365000D02*
X202375000Y-123365000D01*
G75*
G02*
X202625000Y-123615000I0J-250000D01*
G01*
X202625000Y-124115000D01*
G75*
G02*
X202375000Y-124365000I-250000J0D01*
G01*
X201425000Y-124365000D01*
G75*
G02*
X201175000Y-124115000I0J250000D01*
G01*
X201175000Y-123615000D01*
G75*
G02*
X201425000Y-123365000I250000J0D01*
G01*
G37*
%TD*%
%TO.C,R9*%
G36*
G01*
X206049999Y-124837500D02*
X206950001Y-124837500D01*
G75*
G02*
X207200000Y-125087499I0J-249999D01*
G01*
X207200000Y-125612501D01*
G75*
G02*
X206950001Y-125862500I-249999J0D01*
G01*
X206049999Y-125862500D01*
G75*
G02*
X205800000Y-125612501I0J249999D01*
G01*
X205800000Y-125087499D01*
G75*
G02*
X206049999Y-124837500I249999J0D01*
G01*
G37*
G36*
G01*
X206049999Y-123012500D02*
X206950001Y-123012500D01*
G75*
G02*
X207200000Y-123262499I0J-249999D01*
G01*
X207200000Y-123787501D01*
G75*
G02*
X206950001Y-124037500I-249999J0D01*
G01*
X206049999Y-124037500D01*
G75*
G02*
X205800000Y-123787501I0J249999D01*
G01*
X205800000Y-123262499D01*
G75*
G02*
X206049999Y-123012500I249999J0D01*
G01*
G37*
%TD*%
D18*
%TO.C,R3*%
X120200000Y-72900000D03*
X111700000Y-72900000D03*
%TD*%
%TO.C,D5*%
G36*
G01*
X100662500Y-73106250D02*
X100662500Y-72193750D01*
G75*
G02*
X100906250Y-71950000I243750J0D01*
G01*
X101393750Y-71950000D01*
G75*
G02*
X101637500Y-72193750I0J-243750D01*
G01*
X101637500Y-73106250D01*
G75*
G02*
X101393750Y-73350000I-243750J0D01*
G01*
X100906250Y-73350000D01*
G75*
G02*
X100662500Y-73106250I0J243750D01*
G01*
G37*
G36*
G01*
X98787500Y-73106250D02*
X98787500Y-72193750D01*
G75*
G02*
X99031250Y-71950000I243750J0D01*
G01*
X99518750Y-71950000D01*
G75*
G02*
X99762500Y-72193750I0J-243750D01*
G01*
X99762500Y-73106250D01*
G75*
G02*
X99518750Y-73350000I-243750J0D01*
G01*
X99031250Y-73350000D01*
G75*
G02*
X98787500Y-73106250I0J243750D01*
G01*
G37*
%TD*%
%TO.C,D6*%
G36*
G01*
X133137500Y-73306250D02*
X133137500Y-72393750D01*
G75*
G02*
X133381250Y-72150000I243750J0D01*
G01*
X133868750Y-72150000D01*
G75*
G02*
X134112500Y-72393750I0J-243750D01*
G01*
X134112500Y-73306250D01*
G75*
G02*
X133868750Y-73550000I-243750J0D01*
G01*
X133381250Y-73550000D01*
G75*
G02*
X133137500Y-73306250I0J243750D01*
G01*
G37*
G36*
G01*
X131262500Y-73306250D02*
X131262500Y-72393750D01*
G75*
G02*
X131506250Y-72150000I243750J0D01*
G01*
X131993750Y-72150000D01*
G75*
G02*
X132237500Y-72393750I0J-243750D01*
G01*
X132237500Y-73306250D01*
G75*
G02*
X131993750Y-73550000I-243750J0D01*
G01*
X131506250Y-73550000D01*
G75*
G02*
X131262500Y-73306250I0J243750D01*
G01*
G37*
%TD*%
D16*
%TO.C,RX0*%
X94270000Y-136000000D03*
X91730000Y-136000000D03*
X89190000Y-136000000D03*
D17*
X86650000Y-136000000D03*
%TD*%
D16*
%TO.C,I2C*%
X84700000Y-120280000D03*
X84700000Y-117740000D03*
D17*
X84700000Y-115200000D03*
%TD*%
%TO.C,k2*%
G36*
G01*
X122200000Y-129450000D02*
X122200000Y-123950000D01*
G75*
G02*
X124950000Y-121200000I2750000J0D01*
G01*
X141450000Y-121200000D01*
G75*
G02*
X144200000Y-123950000I0J-2750000D01*
G01*
X144200000Y-129450000D01*
G75*
G02*
X141450000Y-132200000I-2750000J0D01*
G01*
X124950000Y-132200000D01*
G75*
G02*
X122200000Y-129450000I0J2750000D01*
G01*
G37*
%TD*%
%TO.C,k5*%
G36*
G01*
X122200000Y-118125000D02*
X122200000Y-112875000D01*
G75*
G02*
X124825000Y-110250000I2625000J0D01*
G01*
X141575000Y-110250000D01*
G75*
G02*
X144200000Y-112875000I0J-2625000D01*
G01*
X144200000Y-118125000D01*
G75*
G02*
X141575000Y-120750000I-2625000J0D01*
G01*
X124825000Y-120750000D01*
G75*
G02*
X122200000Y-118125000I0J2625000D01*
G01*
G37*
%TD*%
%TO.C,k4*%
G36*
G01*
X122200000Y-107050000D02*
X122200000Y-101550000D01*
G75*
G02*
X124950000Y-98800000I2750000J0D01*
G01*
X141450000Y-98800000D01*
G75*
G02*
X144200000Y-101550000I0J-2750000D01*
G01*
X144200000Y-107050000D01*
G75*
G02*
X141450000Y-109800000I-2750000J0D01*
G01*
X124950000Y-109800000D01*
G75*
G02*
X122200000Y-107050000I0J2750000D01*
G01*
G37*
%TD*%
%TO.C,k7*%
G36*
G01*
X144000000Y-78750000D02*
X144000000Y-84250000D01*
G75*
G02*
X141250000Y-87000000I-2750000J0D01*
G01*
X124750000Y-87000000D01*
G75*
G02*
X122000000Y-84250000I0J2750000D01*
G01*
X122000000Y-78750000D01*
G75*
G02*
X124750000Y-76000000I2750000J0D01*
G01*
X141250000Y-76000000D01*
G75*
G02*
X144000000Y-78750000I0J-2750000D01*
G01*
G37*
%TD*%
%TO.C,k6*%
G36*
G01*
X144000000Y-90150000D02*
X144000000Y-95650000D01*
G75*
G02*
X141250000Y-98400000I-2750000J0D01*
G01*
X124750000Y-98400000D01*
G75*
G02*
X122000000Y-95650000I0J2750000D01*
G01*
X122000000Y-90150000D01*
G75*
G02*
X124750000Y-87400000I2750000J0D01*
G01*
X141250000Y-87400000D01*
G75*
G02*
X144000000Y-90150000I0J-2750000D01*
G01*
G37*
%TD*%
D16*
%TO.C,SPI*%
X140740000Y-133900000D03*
X138200000Y-133900000D03*
X135660000Y-133900000D03*
D17*
X133120000Y-133900000D03*
%TD*%
D19*
%TO.C,SW_RST*%
X83800000Y-123935000D03*
X83800000Y-130665000D03*
%TD*%
D20*
%TO.C,RST*%
X84000000Y-133450000D03*
%TD*%
%TO.C,k3*%
G36*
G01*
X121000000Y-84825000D02*
X121000000Y-122575000D01*
G75*
G02*
X112375000Y-131200000I-8625000J0D01*
G01*
X95125000Y-131200000D01*
G75*
G02*
X86500000Y-122575000I0J8625000D01*
G01*
X86500000Y-84825000D01*
G75*
G02*
X95125000Y-76200000I8625000J0D01*
G01*
X112375000Y-76200000D01*
G75*
G02*
X121000000Y-84825000I0J-8625000D01*
G01*
G37*
%TD*%
D21*
%TO.C,SW_MODE*%
X104365000Y-135300000D03*
X97635000Y-135300000D03*
%TD*%
%TO.C,R12*%
G36*
G01*
X137537500Y-72174999D02*
X137537500Y-73425001D01*
G75*
G02*
X137287501Y-73675000I-249999J0D01*
G01*
X136662499Y-73675000D01*
G75*
G02*
X136412500Y-73425001I0J249999D01*
G01*
X136412500Y-72174999D01*
G75*
G02*
X136662499Y-71925000I249999J0D01*
G01*
X137287501Y-71925000D01*
G75*
G02*
X137537500Y-72174999I0J-249999D01*
G01*
G37*
G36*
G01*
X140462500Y-72174999D02*
X140462500Y-73425001D01*
G75*
G02*
X140212501Y-73675000I-249999J0D01*
G01*
X139587499Y-73675000D01*
G75*
G02*
X139337500Y-73425001I0J249999D01*
G01*
X139337500Y-72174999D01*
G75*
G02*
X139587499Y-71925000I249999J0D01*
G01*
X140212501Y-71925000D01*
G75*
G02*
X140462500Y-72174999I0J-249999D01*
G01*
G37*
%TD*%
%TO.C,R11*%
G36*
G01*
X107962500Y-72024999D02*
X107962500Y-73275001D01*
G75*
G02*
X107712501Y-73525000I-249999J0D01*
G01*
X107087499Y-73525000D01*
G75*
G02*
X106837500Y-73275001I0J249999D01*
G01*
X106837500Y-72024999D01*
G75*
G02*
X107087499Y-71775000I249999J0D01*
G01*
X107712501Y-71775000D01*
G75*
G02*
X107962500Y-72024999I0J-249999D01*
G01*
G37*
G36*
G01*
X105037500Y-72024999D02*
X105037500Y-73275001D01*
G75*
G02*
X104787501Y-73525000I-249999J0D01*
G01*
X104162499Y-73525000D01*
G75*
G02*
X103912500Y-73275001I0J249999D01*
G01*
X103912500Y-72024999D01*
G75*
G02*
X104162499Y-71775000I249999J0D01*
G01*
X104787501Y-71775000D01*
G75*
G02*
X105037500Y-72024999I0J-249999D01*
G01*
G37*
%TD*%
D20*
%TO.C,Prog*%
X94300000Y-133450000D03*
D22*
X91800000Y-133450000D03*
%TD*%
%TO.C,Mode*%
X86600000Y-133460000D03*
D20*
X89140000Y-133460000D03*
%TD*%
D17*
%TO.C,J16*%
X120200000Y-135150000D03*
D16*
X117660000Y-135150000D03*
X115120000Y-135150000D03*
X112580000Y-135150000D03*
X110040000Y-135150000D03*
%TD*%
D20*
%TO.C,J5*%
X145590000Y-121350000D03*
%TD*%
%TO.C,J6*%
X148130000Y-116270000D03*
%TD*%
%TO.C,J8*%
X89100000Y-72300000D03*
%TD*%
%TO.C,J12*%
X145640000Y-118800000D03*
%TD*%
%TO.C,J13*%
X91640000Y-72300000D03*
%TD*%
%TO.C,J14*%
X148130000Y-121350000D03*
%TD*%
%TO.C,J15*%
X148180000Y-118810000D03*
%TD*%
%TO.C,J10*%
X145590000Y-116270000D03*
%TD*%
M02*
