%TF.GenerationSoftware,KiCad,Pcbnew,(5.1.10)-1*%
%TF.CreationDate,2021-08-15T00:34:02+03:00*%
%TF.ProjectId,Dimmer,44696d6d-6572-42e6-9b69-6361645f7063,rev?*%
%TF.SameCoordinates,Original*%
%TF.FileFunction,Copper,L1,Top*%
%TF.FilePolarity,Positive*%
%FSLAX46Y46*%
G04 Gerber Fmt 4.6, Leading zero omitted, Abs format (unit mm)*
G04 Created by KiCad (PCBNEW (5.1.10)-1) date 2021-08-15 00:34:02*
%MOMM*%
%LPD*%
G01*
G04 APERTURE LIST*
%TA.AperFunction,SMDPad,CuDef*%
%ADD10R,1.500000X1.500000*%
%TD*%
%TA.AperFunction,SMDPad,CuDef*%
%ADD11R,1.300000X1.300000*%
%TD*%
%TA.AperFunction,WasherPad*%
%ADD12C,1.100000*%
%TD*%
%TA.AperFunction,ComponentPad*%
%ADD13O,1.700000X1.700000*%
%TD*%
%TA.AperFunction,ComponentPad*%
%ADD14R,1.700000X1.700000*%
%TD*%
%TA.AperFunction,SMDPad,CuDef*%
%ADD15R,1.505000X0.802000*%
%TD*%
%TA.AperFunction,ConnectorPad*%
%ADD16O,3.600000X3.600000*%
%TD*%
%TA.AperFunction,ComponentPad*%
%ADD17R,2.500000X4.500000*%
%TD*%
%TA.AperFunction,ComponentPad*%
%ADD18O,2.500000X4.500000*%
%TD*%
%TA.AperFunction,ComponentPad*%
%ADD19C,3.000000*%
%TD*%
%TA.AperFunction,ComponentPad*%
%ADD20R,2.200000X2.200000*%
%TD*%
%TA.AperFunction,ComponentPad*%
%ADD21R,2.200000X3.200000*%
%TD*%
%TA.AperFunction,ComponentPad*%
%ADD22C,1.500000*%
%TD*%
%TA.AperFunction,ComponentPad*%
%ADD23C,1.524000*%
%TD*%
%TA.AperFunction,ComponentPad*%
%ADD24R,1.524000X1.524000*%
%TD*%
%TA.AperFunction,ViaPad*%
%ADD25C,0.800000*%
%TD*%
%TA.AperFunction,Conductor*%
%ADD26C,0.500000*%
%TD*%
%TA.AperFunction,Conductor*%
%ADD27C,0.300000*%
%TD*%
%TA.AperFunction,Conductor*%
%ADD28C,1.000000*%
%TD*%
%TA.AperFunction,Conductor*%
%ADD29C,4.000000*%
%TD*%
%TA.AperFunction,Conductor*%
%ADD30C,0.250000*%
%TD*%
%TA.AperFunction,Conductor*%
%ADD31C,0.254000*%
%TD*%
%TA.AperFunction,Conductor*%
%ADD32C,0.100000*%
%TD*%
G04 APERTURE END LIST*
%TO.P,k3,1*%
%TO.N,Net-(U2-Pad8)*%
%TA.AperFunction,SMDPad,CuDef*%
G36*
G01*
X86005000Y-122500000D02*
X86005000Y-85000000D01*
G75*
G02*
X94755000Y-76250000I8750000J0D01*
G01*
X112255000Y-76250000D01*
G75*
G02*
X121005000Y-85000000I0J-8750000D01*
G01*
X121005000Y-122500000D01*
G75*
G02*
X112255000Y-131250000I-8750000J0D01*
G01*
X94755000Y-131250000D01*
G75*
G02*
X86005000Y-122500000I0J8750000D01*
G01*
G37*
%TD.AperFunction*%
%TD*%
D10*
%TO.P,RST2,1*%
%TO.N,Net-(R2-Pad2)*%
X82550000Y-133175000D03*
D11*
X84620000Y-131775000D03*
%TO.P,RST2,2*%
%TO.N,GND*%
X84620000Y-127475000D03*
D12*
%TO.P,RST2,*%
%TO.N,*%
X83159600Y-130759200D03*
X83210400Y-128425000D03*
D10*
%TO.P,RST2,2*%
%TO.N,GND*%
X82550000Y-126085600D03*
%TD*%
%TO.P,Mode1,1*%
%TO.N,GND*%
X103965000Y-135255000D03*
D11*
X102565000Y-133185000D03*
%TO.P,Mode1,2*%
%TO.N,Mode*%
X98265000Y-133185000D03*
D12*
%TO.P,Mode1,*%
%TO.N,*%
X101549200Y-134645400D03*
X99215000Y-134594600D03*
D10*
%TO.P,Mode1,2*%
%TO.N,Mode*%
X96875600Y-135255000D03*
%TD*%
D13*
%TO.P,J16,6*%
%TO.N,GND*%
X107500000Y-135150000D03*
%TO.P,J16,5*%
%TO.N,SDA*%
X110040000Y-135150000D03*
%TO.P,J16,4*%
%TO.N,SCL*%
X112580000Y-135150000D03*
%TO.P,J16,3*%
%TO.N,null*%
X115120000Y-135150000D03*
%TO.P,J16,2*%
%TO.N,cntrl*%
X117660000Y-135150000D03*
D14*
%TO.P,J16,1*%
%TO.N,+3V3*%
X120200000Y-135150000D03*
%TD*%
D13*
%TO.P,J4,6*%
%TO.N,GND*%
X173057900Y-129616840D03*
%TO.P,J4,5*%
%TO.N,SDA*%
X175597900Y-129616840D03*
%TO.P,J4,4*%
%TO.N,SCL*%
X178137900Y-129616840D03*
%TO.P,J4,3*%
%TO.N,Detect_null*%
X180677900Y-129616840D03*
%TO.P,J4,2*%
%TO.N,Load_cntrl*%
X183217900Y-129616840D03*
D14*
%TO.P,J4,1*%
%TO.N,+3V3*%
X185757900Y-129616840D03*
%TD*%
D15*
%TO.P,U1,8*%
%TO.N,+3V3*%
X186037900Y-122346840D03*
%TO.P,U1,7*%
%TO.N,GND*%
X186037900Y-123616840D03*
%TO.P,U1,6*%
X186037900Y-124886840D03*
%TO.P,U1,5*%
X186037900Y-126156840D03*
%TO.P,U1,4*%
X181042900Y-126156840D03*
%TO.P,U1,3*%
%TO.N,N/C*%
X181042900Y-124886840D03*
%TO.P,U1,2*%
%TO.N,SCL*%
X181042900Y-123616840D03*
%TO.P,U1,1*%
%TO.N,SDA*%
X181042900Y-122346840D03*
%TD*%
D16*
%TO.P,Q2,*%
%TO.N,*%
X189407900Y-112026840D03*
D17*
%TO.P,Q2,1*%
%TO.N,Net-(D7-Pad5)*%
X194857900Y-92166840D03*
D18*
%TO.P,Q2,2*%
%TO.N,Net-(C1-Pad2)*%
X189407900Y-92166840D03*
%TO.P,Q2,3*%
%TO.N,GND*%
X183957900Y-92166840D03*
%TD*%
%TO.P,Q1,3*%
%TO.N,GND*%
X173257900Y-92166840D03*
%TO.P,Q1,2*%
%TO.N,Net-(J1-Pad1)*%
X167807900Y-92166840D03*
D17*
%TO.P,Q1,1*%
%TO.N,Net-(D7-Pad5)*%
X162357900Y-92166840D03*
%TD*%
D19*
%TO.P,J11,1*%
%TO.N,Net-(C1-Pad2)*%
X188757900Y-84856840D03*
%TO.P,J11,2*%
%TO.N,Net-(J1-Pad2)*%
X183757900Y-84856840D03*
%TD*%
D20*
%TO.P,J1,4*%
%TO.N,GND*%
X177717900Y-120456840D03*
%TO.P,J1,3*%
%TO.N,+12V*%
X177717900Y-117706840D03*
D21*
%TO.P,J1,2*%
%TO.N,Net-(J1-Pad2)*%
X177717900Y-105456840D03*
%TO.P,J1,1*%
%TO.N,Net-(J1-Pad1)*%
X177717900Y-99206840D03*
%TD*%
D19*
%TO.P,J9,1*%
%TO.N,Net-(J1-Pad2)*%
X173557900Y-84856840D03*
%TO.P,J9,2*%
%TO.N,Net-(J1-Pad1)*%
X168557900Y-84856840D03*
%TD*%
%TO.P,C8,2*%
%TO.N,GND*%
%TA.AperFunction,SMDPad,CuDef*%
G36*
G01*
X188422900Y-122686840D02*
X189372900Y-122686840D01*
G75*
G02*
X189622900Y-122936840I0J-250000D01*
G01*
X189622900Y-123436840D01*
G75*
G02*
X189372900Y-123686840I-250000J0D01*
G01*
X188422900Y-123686840D01*
G75*
G02*
X188172900Y-123436840I0J250000D01*
G01*
X188172900Y-122936840D01*
G75*
G02*
X188422900Y-122686840I250000J0D01*
G01*
G37*
%TD.AperFunction*%
%TO.P,C8,1*%
%TO.N,+3V3*%
%TA.AperFunction,SMDPad,CuDef*%
G36*
G01*
X188422900Y-120786840D02*
X189372900Y-120786840D01*
G75*
G02*
X189622900Y-121036840I0J-250000D01*
G01*
X189622900Y-121536840D01*
G75*
G02*
X189372900Y-121786840I-250000J0D01*
G01*
X188422900Y-121786840D01*
G75*
G02*
X188172900Y-121536840I0J250000D01*
G01*
X188172900Y-121036840D01*
G75*
G02*
X188422900Y-120786840I250000J0D01*
G01*
G37*
%TD.AperFunction*%
%TD*%
D22*
%TO.P,R3,2*%
%TO.N,GND*%
X120200000Y-72900000D03*
%TO.P,R3,1*%
%TO.N,photo*%
X111700000Y-72900000D03*
%TD*%
%TO.P,D5,2*%
%TO.N,Net-(D5-Pad2)*%
%TA.AperFunction,SMDPad,CuDef*%
G36*
G01*
X100662500Y-73106250D02*
X100662500Y-72193750D01*
G75*
G02*
X100906250Y-71950000I243750J0D01*
G01*
X101393750Y-71950000D01*
G75*
G02*
X101637500Y-72193750I0J-243750D01*
G01*
X101637500Y-73106250D01*
G75*
G02*
X101393750Y-73350000I-243750J0D01*
G01*
X100906250Y-73350000D01*
G75*
G02*
X100662500Y-73106250I0J243750D01*
G01*
G37*
%TD.AperFunction*%
%TO.P,D5,1*%
%TO.N,GND*%
%TA.AperFunction,SMDPad,CuDef*%
G36*
G01*
X98787500Y-73106250D02*
X98787500Y-72193750D01*
G75*
G02*
X99031250Y-71950000I243750J0D01*
G01*
X99518750Y-71950000D01*
G75*
G02*
X99762500Y-72193750I0J-243750D01*
G01*
X99762500Y-73106250D01*
G75*
G02*
X99518750Y-73350000I-243750J0D01*
G01*
X99031250Y-73350000D01*
G75*
G02*
X98787500Y-73106250I0J243750D01*
G01*
G37*
%TD.AperFunction*%
%TD*%
%TO.P,D6,2*%
%TO.N,Net-(D6-Pad2)*%
%TA.AperFunction,SMDPad,CuDef*%
G36*
G01*
X133137500Y-73306250D02*
X133137500Y-72393750D01*
G75*
G02*
X133381250Y-72150000I243750J0D01*
G01*
X133868750Y-72150000D01*
G75*
G02*
X134112500Y-72393750I0J-243750D01*
G01*
X134112500Y-73306250D01*
G75*
G02*
X133868750Y-73550000I-243750J0D01*
G01*
X133381250Y-73550000D01*
G75*
G02*
X133137500Y-73306250I0J243750D01*
G01*
G37*
%TD.AperFunction*%
%TO.P,D6,1*%
%TO.N,GND*%
%TA.AperFunction,SMDPad,CuDef*%
G36*
G01*
X131262500Y-73306250D02*
X131262500Y-72393750D01*
G75*
G02*
X131506250Y-72150000I243750J0D01*
G01*
X131993750Y-72150000D01*
G75*
G02*
X132237500Y-72393750I0J-243750D01*
G01*
X132237500Y-73306250D01*
G75*
G02*
X131993750Y-73550000I-243750J0D01*
G01*
X131506250Y-73550000D01*
G75*
G02*
X131262500Y-73306250I0J243750D01*
G01*
G37*
%TD.AperFunction*%
%TD*%
%TO.P,k2,1*%
%TO.N,Net-(U2-Pad24)*%
%TA.AperFunction,SMDPad,CuDef*%
G36*
G01*
X122200000Y-129450000D02*
X122200000Y-123950000D01*
G75*
G02*
X124950000Y-121200000I2750000J0D01*
G01*
X141450000Y-121200000D01*
G75*
G02*
X144200000Y-123950000I0J-2750000D01*
G01*
X144200000Y-129450000D01*
G75*
G02*
X141450000Y-132200000I-2750000J0D01*
G01*
X124950000Y-132200000D01*
G75*
G02*
X122200000Y-129450000I0J2750000D01*
G01*
G37*
%TD.AperFunction*%
%TD*%
%TO.P,k5,1*%
%TO.N,Net-(U2-Pad16)*%
%TA.AperFunction,SMDPad,CuDef*%
G36*
G01*
X122200000Y-118125000D02*
X122200000Y-112875000D01*
G75*
G02*
X124825000Y-110250000I2625000J0D01*
G01*
X141575000Y-110250000D01*
G75*
G02*
X144200000Y-112875000I0J-2625000D01*
G01*
X144200000Y-118125000D01*
G75*
G02*
X141575000Y-120750000I-2625000J0D01*
G01*
X124825000Y-120750000D01*
G75*
G02*
X122200000Y-118125000I0J2625000D01*
G01*
G37*
%TD.AperFunction*%
%TD*%
%TO.P,k4,1*%
%TO.N,Net-(U2-Pad14)*%
%TA.AperFunction,SMDPad,CuDef*%
G36*
G01*
X122200000Y-107050000D02*
X122200000Y-101550000D01*
G75*
G02*
X124950000Y-98800000I2750000J0D01*
G01*
X141450000Y-98800000D01*
G75*
G02*
X144200000Y-101550000I0J-2750000D01*
G01*
X144200000Y-107050000D01*
G75*
G02*
X141450000Y-109800000I-2750000J0D01*
G01*
X124950000Y-109800000D01*
G75*
G02*
X122200000Y-107050000I0J2750000D01*
G01*
G37*
%TD.AperFunction*%
%TD*%
%TO.P,k7,1*%
%TO.N,Net-(U2-Pad12)*%
%TA.AperFunction,SMDPad,CuDef*%
G36*
G01*
X144000000Y-78750000D02*
X144000000Y-84250000D01*
G75*
G02*
X141250000Y-87000000I-2750000J0D01*
G01*
X124750000Y-87000000D01*
G75*
G02*
X122000000Y-84250000I0J2750000D01*
G01*
X122000000Y-78750000D01*
G75*
G02*
X124750000Y-76000000I2750000J0D01*
G01*
X141250000Y-76000000D01*
G75*
G02*
X144000000Y-78750000I0J-2750000D01*
G01*
G37*
%TD.AperFunction*%
%TD*%
%TO.P,k6,1*%
%TO.N,Net-(U2-Pad13)*%
%TA.AperFunction,SMDPad,CuDef*%
G36*
G01*
X144000000Y-90150000D02*
X144000000Y-95650000D01*
G75*
G02*
X141250000Y-98400000I-2750000J0D01*
G01*
X124750000Y-98400000D01*
G75*
G02*
X122000000Y-95650000I0J2750000D01*
G01*
X122000000Y-90150000D01*
G75*
G02*
X124750000Y-87400000I2750000J0D01*
G01*
X141250000Y-87400000D01*
G75*
G02*
X144000000Y-90150000I0J-2750000D01*
G01*
G37*
%TD.AperFunction*%
%TD*%
D13*
%TO.P,J22,4*%
%TO.N,Net-(J22-Pad4)*%
X140740000Y-133900000D03*
%TO.P,J22,3*%
%TO.N,Net-(J22-Pad3)*%
X138200000Y-133900000D03*
%TO.P,J22,2*%
%TO.N,Net-(J22-Pad2)*%
X135660000Y-133900000D03*
D14*
%TO.P,J22,1*%
%TO.N,MOSI*%
X133120000Y-133900000D03*
%TD*%
D23*
%TO.P,RST1,1*%
%TO.N,Net-(R2-Pad2)*%
X84000000Y-133450000D03*
%TD*%
%TO.P,R12,2*%
%TO.N,Net-(D6-Pad2)*%
%TA.AperFunction,SMDPad,CuDef*%
G36*
G01*
X137537500Y-72174997D02*
X137537500Y-73425003D01*
G75*
G02*
X137287503Y-73675000I-249997J0D01*
G01*
X136662497Y-73675000D01*
G75*
G02*
X136412500Y-73425003I0J249997D01*
G01*
X136412500Y-72174997D01*
G75*
G02*
X136662497Y-71925000I249997J0D01*
G01*
X137287503Y-71925000D01*
G75*
G02*
X137537500Y-72174997I0J-249997D01*
G01*
G37*
%TD.AperFunction*%
%TO.P,R12,1*%
%TO.N,RED*%
%TA.AperFunction,SMDPad,CuDef*%
G36*
G01*
X140462500Y-72174997D02*
X140462500Y-73425003D01*
G75*
G02*
X140212503Y-73675000I-249997J0D01*
G01*
X139587497Y-73675000D01*
G75*
G02*
X139337500Y-73425003I0J249997D01*
G01*
X139337500Y-72174997D01*
G75*
G02*
X139587497Y-71925000I249997J0D01*
G01*
X140212503Y-71925000D01*
G75*
G02*
X140462500Y-72174997I0J-249997D01*
G01*
G37*
%TD.AperFunction*%
%TD*%
%TO.P,R11,1*%
%TO.N,BLUE*%
%TA.AperFunction,SMDPad,CuDef*%
G36*
G01*
X107962500Y-72024997D02*
X107962500Y-73275003D01*
G75*
G02*
X107712503Y-73525000I-249997J0D01*
G01*
X107087497Y-73525000D01*
G75*
G02*
X106837500Y-73275003I0J249997D01*
G01*
X106837500Y-72024997D01*
G75*
G02*
X107087497Y-71775000I249997J0D01*
G01*
X107712503Y-71775000D01*
G75*
G02*
X107962500Y-72024997I0J-249997D01*
G01*
G37*
%TD.AperFunction*%
%TO.P,R11,2*%
%TO.N,Net-(D5-Pad2)*%
%TA.AperFunction,SMDPad,CuDef*%
G36*
G01*
X105037500Y-72024997D02*
X105037500Y-73275003D01*
G75*
G02*
X104787503Y-73525000I-249997J0D01*
G01*
X104162497Y-73525000D01*
G75*
G02*
X103912500Y-73275003I0J249997D01*
G01*
X103912500Y-72024997D01*
G75*
G02*
X104162497Y-71775000I249997J0D01*
G01*
X104787503Y-71775000D01*
G75*
G02*
X105037500Y-72024997I0J-249997D01*
G01*
G37*
%TD.AperFunction*%
%TD*%
%TO.P,SD1,1*%
%TO.N,Net-(SD1-Pad1)*%
X145590000Y-121350000D03*
%TD*%
%TO.P,SD2,1*%
%TO.N,Net-(SD2-Pad1)*%
X148130000Y-116270000D03*
%TD*%
%TO.P,S_VP1,1*%
%TO.N,Net-(S_VP1-Pad1)*%
X89100000Y-72300000D03*
%TD*%
%TO.P,CLK1,1*%
%TO.N,Net-(CLK1-Pad1)*%
X145640000Y-118800000D03*
%TD*%
%TO.P,S_VN1,1*%
%TO.N,Net-(S_VN1-Pad1)*%
X91640000Y-72300000D03*
%TD*%
%TO.P,SD0,1*%
%TO.N,Net-(SD0-Pad1)*%
X148130000Y-121350000D03*
%TD*%
%TO.P,CMD1,1*%
%TO.N,Net-(CMD1-Pad1)*%
X148180000Y-118810000D03*
%TD*%
%TO.P,SD3,1*%
%TO.N,Net-(SD3-Pad1)*%
X145590000Y-116270000D03*
%TD*%
%TO.P,R9,1*%
%TO.N,+3V3*%
%TA.AperFunction,SMDPad,CuDef*%
G36*
G01*
X184087900Y-119341840D02*
X184087900Y-119891840D01*
G75*
G02*
X183887900Y-120091840I-200000J0D01*
G01*
X183487900Y-120091840D01*
G75*
G02*
X183287900Y-119891840I0J200000D01*
G01*
X183287900Y-119341840D01*
G75*
G02*
X183487900Y-119141840I200000J0D01*
G01*
X183887900Y-119141840D01*
G75*
G02*
X184087900Y-119341840I0J-200000D01*
G01*
G37*
%TD.AperFunction*%
%TO.P,R9,2*%
%TO.N,SDA*%
%TA.AperFunction,SMDPad,CuDef*%
G36*
G01*
X182437900Y-119341840D02*
X182437900Y-119891840D01*
G75*
G02*
X182237900Y-120091840I-200000J0D01*
G01*
X181837900Y-120091840D01*
G75*
G02*
X181637900Y-119891840I0J200000D01*
G01*
X181637900Y-119341840D01*
G75*
G02*
X181837900Y-119141840I200000J0D01*
G01*
X182237900Y-119141840D01*
G75*
G02*
X182437900Y-119341840I0J-200000D01*
G01*
G37*
%TD.AperFunction*%
%TD*%
%TO.P,R13,2*%
%TO.N,SCL*%
%TA.AperFunction,SMDPad,CuDef*%
G36*
G01*
X177082900Y-126664040D02*
X177082900Y-127214040D01*
G75*
G02*
X176882900Y-127414040I-200000J0D01*
G01*
X176482900Y-127414040D01*
G75*
G02*
X176282900Y-127214040I0J200000D01*
G01*
X176282900Y-126664040D01*
G75*
G02*
X176482900Y-126464040I200000J0D01*
G01*
X176882900Y-126464040D01*
G75*
G02*
X177082900Y-126664040I0J-200000D01*
G01*
G37*
%TD.AperFunction*%
%TO.P,R13,1*%
%TO.N,+3V3*%
%TA.AperFunction,SMDPad,CuDef*%
G36*
G01*
X178732900Y-126664040D02*
X178732900Y-127214040D01*
G75*
G02*
X178532900Y-127414040I-200000J0D01*
G01*
X178132900Y-127414040D01*
G75*
G02*
X177932900Y-127214040I0J200000D01*
G01*
X177932900Y-126664040D01*
G75*
G02*
X178132900Y-126464040I200000J0D01*
G01*
X178532900Y-126464040D01*
G75*
G02*
X178732900Y-126664040I0J-200000D01*
G01*
G37*
%TD.AperFunction*%
%TD*%
%TO.P,J3,1*%
%TO.N,+3V3*%
X86600000Y-136000000D03*
%TO.P,J3,2*%
%TO.N,Net-(J3-Pad2)*%
X89100000Y-136000000D03*
%TO.P,J3,3*%
%TO.N,Net-(J3-Pad3)*%
X91600000Y-136000000D03*
D24*
%TO.P,J3,4*%
%TO.N,GND*%
X94100000Y-136000000D03*
%TD*%
%TO.P,J2,1*%
%TO.N,Net-(J2-Pad1)*%
X91600000Y-133450000D03*
D23*
%TO.P,J2,2*%
%TO.N,GND*%
X94100000Y-133450000D03*
%TD*%
D25*
%TO.N,GND*%
X144883580Y-112843664D03*
X84000000Y-76300000D03*
X179037900Y-124616840D03*
X84700000Y-120280000D03*
%TO.N,+3V3*%
X88900000Y-74400000D03*
X189137900Y-119266840D03*
X96650000Y-74400000D03*
X146050000Y-124460000D03*
X183947900Y-119956840D03*
X186037900Y-122346840D03*
X188897900Y-121286840D03*
X114553000Y-132843000D03*
%TO.N,+12V*%
X198937900Y-116266840D03*
%TO.N,Net-(J3-Pad3)*%
X113842800Y-136587800D03*
%TO.N,Mode*%
X89140000Y-133460000D03*
%TO.N,Net-(U2-Pad24)*%
X144780000Y-123190000D03*
%TO.N,Net-(C2-Pad2)*%
X190262900Y-108891840D03*
X201087900Y-115466840D03*
%TO.N,MOSI*%
X105565907Y-132199984D03*
%TO.N,Net-(U2-Pad8)*%
X108693199Y-74943199D03*
%TO.N,Net-(U2-Pad14)*%
X145400000Y-93900000D03*
%TO.N,Net-(U2-Pad16)*%
X145944558Y-113997499D03*
%TO.N,Net-(U2-Pad13)*%
X145400000Y-90900000D03*
%TO.N,Net-(U2-Pad12)*%
X145400000Y-89400000D03*
%TO.N,BLUE*%
X107400000Y-72650000D03*
%TO.N,RED*%
X139900000Y-72800000D03*
X146800000Y-110100000D03*
X148550000Y-128270000D03*
%TO.N,null*%
X143400000Y-133500000D03*
%TO.N,photo*%
X107117158Y-75317158D03*
%TO.N,SCL*%
X110007400Y-132491999D03*
X106781600Y-132435600D03*
%TO.N,Net-(R2-Pad2)*%
X84400000Y-109900000D03*
%TD*%
D26*
%TO.N,GND*%
X94270000Y-133480000D02*
X94300000Y-133450000D01*
X83800000Y-121180000D02*
X84700000Y-120280000D01*
X94700010Y-133850010D02*
X94300000Y-133450000D01*
X94300000Y-136000000D02*
X94610001Y-136310001D01*
X94270000Y-136000000D02*
X94300000Y-136000000D01*
X120250000Y-72850000D02*
X120200000Y-72900000D01*
X131750000Y-72850000D02*
X120250000Y-72850000D01*
X94410001Y-136310001D02*
X94100000Y-136000000D01*
D27*
X104515000Y-135150000D02*
X104365000Y-135300000D01*
D28*
X188467900Y-123616840D02*
X186037900Y-123616840D01*
X188897900Y-123186840D02*
X188467900Y-123616840D01*
X186037900Y-123616840D02*
X186037900Y-126156840D01*
D29*
X183957900Y-92166840D02*
X173257900Y-92166840D01*
D26*
X83800000Y-124795600D02*
X83820000Y-124815600D01*
X83800000Y-121180000D02*
X83800000Y-124795600D01*
X82900010Y-125735590D02*
X82900010Y-126085600D01*
X83800000Y-124835600D02*
X82900010Y-125735590D01*
X83800000Y-124795600D02*
X83800000Y-124835600D01*
X83800000Y-126655000D02*
X84620000Y-127475000D01*
X83800000Y-124795600D02*
X83800000Y-126655000D01*
X106194999Y-136455001D02*
X107500000Y-135150000D01*
X95180001Y-136455001D02*
X106194999Y-136455001D01*
X94725000Y-136000000D02*
X95180001Y-136455001D01*
X94100000Y-136000000D02*
X94725000Y-136000000D01*
X104530000Y-135150000D02*
X107500000Y-135150000D01*
X102565000Y-133185000D02*
X104530000Y-135150000D01*
%TO.N,+3V3*%
X189137900Y-119266840D02*
X188937900Y-119266840D01*
X88900000Y-74400000D02*
X96650000Y-74400000D01*
X86650000Y-136000000D02*
X87927999Y-134722001D01*
X141950048Y-136459990D02*
X146050000Y-132360038D01*
X146050000Y-132360038D02*
X146050000Y-125730000D01*
X121509990Y-136459990D02*
X141950048Y-136459990D01*
X120200000Y-135150000D02*
X121509990Y-136459990D01*
X146050000Y-124460000D02*
X146050000Y-125730000D01*
X189137900Y-119266840D02*
X189187900Y-119266840D01*
D28*
X185757900Y-129616840D02*
X184037900Y-127896840D01*
D26*
X87877999Y-134722001D02*
X86600000Y-136000000D01*
X87927999Y-134722001D02*
X87877999Y-134722001D01*
D27*
X120200000Y-135150000D02*
X119986200Y-135150000D01*
D26*
X114554000Y-132842000D02*
X114553000Y-132843000D01*
X179557900Y-127896840D02*
X184037900Y-127896840D01*
X179467900Y-127896840D02*
X179557900Y-127896840D01*
X179290700Y-127896840D02*
X178332900Y-126939040D01*
D27*
X179467900Y-127896840D02*
X179290700Y-127896840D01*
D28*
X189137900Y-119266840D02*
X189117900Y-119266840D01*
X183687900Y-119616840D02*
X183687900Y-119696840D01*
X183687900Y-119696840D02*
X183947900Y-119956840D01*
X184894398Y-122346840D02*
X186037900Y-122346840D01*
X184037900Y-123203338D02*
X184894398Y-122346840D01*
X184037900Y-127896840D02*
X184037900Y-123203338D01*
D26*
X114154001Y-133241999D02*
X114553000Y-132843000D01*
X114054000Y-133342000D02*
X114154001Y-133241999D01*
X106176000Y-133150000D02*
X106368000Y-133342000D01*
X106368000Y-133342000D02*
X114054000Y-133342000D01*
X88568239Y-132237999D02*
X96327999Y-132237999D01*
X87927999Y-132878239D02*
X88568239Y-132237999D01*
X87927999Y-134722001D02*
X87927999Y-132878239D01*
X105449921Y-133342000D02*
X106368000Y-133342000D01*
X96480999Y-132084999D02*
X104192920Y-132084999D01*
X104192920Y-132084999D02*
X105449921Y-133342000D01*
X96327999Y-132237999D02*
X96480999Y-132084999D01*
%TO.N,+12V*%
X197497900Y-117706840D02*
X198937900Y-116266840D01*
X177717900Y-117706840D02*
X197497900Y-117706840D01*
D28*
%TO.N,Net-(J1-Pad1)*%
X167807900Y-84724528D02*
X167665201Y-84581829D01*
D29*
X167807900Y-85606840D02*
X168557900Y-84856840D01*
X167807900Y-92166840D02*
X167807900Y-85606840D01*
D27*
%TO.N,Net-(J3-Pad3)*%
X92712001Y-137112001D02*
X91600000Y-136000000D01*
X113318599Y-137112001D02*
X92712001Y-137112001D01*
X113842800Y-136587800D02*
X113318599Y-137112001D01*
D26*
%TO.N,Mode*%
X90342001Y-134662001D02*
X96997001Y-134662001D01*
X89140000Y-133460000D02*
X90342001Y-134662001D01*
X96875600Y-134574400D02*
X98265000Y-133185000D01*
D30*
X96875600Y-135255000D02*
X96875600Y-134574400D01*
D26*
%TO.N,Net-(U2-Pad24)*%
X132200000Y-125500000D02*
X131900000Y-125200000D01*
X136710000Y-123190000D02*
X133200000Y-126700000D01*
X144780000Y-123190000D02*
X136710000Y-123190000D01*
D29*
%TO.N,Net-(C1-Pad2)*%
X189407900Y-85506840D02*
X188757900Y-84856840D01*
X189407900Y-92166840D02*
X189407900Y-85506840D01*
D26*
%TO.N,Net-(C2-Pad2)*%
X194512900Y-108891840D02*
X201087900Y-115466840D01*
X190262900Y-108891840D02*
X194512900Y-108891840D01*
%TO.N,MOSI*%
X122800000Y-133900000D02*
X133120000Y-133900000D01*
D27*
X121200000Y-132300000D02*
X121234100Y-132334100D01*
X120585599Y-131685599D02*
X121424600Y-132524600D01*
X106080292Y-131685599D02*
X120585599Y-131685599D01*
X105565907Y-132199984D02*
X106080292Y-131685599D01*
D26*
X121424600Y-132524600D02*
X122800000Y-133900000D01*
X121234100Y-132334100D02*
X121424600Y-132524600D01*
%TO.N,Net-(U2-Pad8)*%
X103750000Y-79886398D02*
X103750000Y-103700000D01*
X108693199Y-74943199D02*
X103750000Y-79886398D01*
%TO.N,Net-(U2-Pad14)*%
X145400000Y-93900000D02*
X145400000Y-98400000D01*
X140000000Y-103800000D02*
X131500000Y-103800000D01*
X145400000Y-98400000D02*
X140000000Y-103800000D01*
%TO.N,Net-(U2-Pad16)*%
X131900000Y-114500000D02*
X138200000Y-114500000D01*
X134702501Y-113997499D02*
X133200000Y-115500000D01*
X145944558Y-113997499D02*
X134702501Y-113997499D01*
%TO.N,Net-(U2-Pad13)*%
X133800000Y-90900000D02*
X131500000Y-93200000D01*
X145400000Y-90900000D02*
X133800000Y-90900000D01*
%TO.N,Net-(U2-Pad12)*%
X145400000Y-89400000D02*
X145400000Y-83400000D01*
X142900000Y-80900000D02*
X133400000Y-80900000D01*
X145400000Y-83400000D02*
X142900000Y-80900000D01*
%TO.N,Net-(D5-Pad2)*%
X104475000Y-72650000D02*
X101150000Y-72650000D01*
%TO.N,Net-(D6-Pad2)*%
X133675000Y-72800000D02*
X133625000Y-72850000D01*
X136975000Y-72800000D02*
X133675000Y-72800000D01*
%TO.N,RED*%
X149392001Y-112692001D02*
X149392001Y-126275998D01*
X146800000Y-110100000D02*
X149392001Y-112692001D01*
X149392001Y-127427999D02*
X148550000Y-128270000D01*
X149392001Y-126275998D02*
X149392001Y-127427999D01*
D28*
%TO.N,Net-(D7-Pad5)*%
X162357900Y-92166840D02*
X162343700Y-92166840D01*
X162357900Y-92166840D02*
X162357900Y-85676840D01*
X162357900Y-85676840D02*
X166877900Y-81156840D01*
X194857900Y-92166840D02*
X194857900Y-85086840D01*
X190927900Y-81156840D02*
X186517900Y-81156840D01*
X194857900Y-85086840D02*
X190927900Y-81156840D01*
X186517900Y-81156840D02*
X188169182Y-81156840D01*
X166877900Y-81156840D02*
X186517900Y-81156840D01*
D29*
%TO.N,Net-(J1-Pad2)*%
X173557900Y-84856840D02*
X183757900Y-84856840D01*
D26*
%TO.N,Detect_null*%
X180497900Y-129886840D02*
X180677900Y-130066840D01*
%TO.N,null*%
X122899981Y-135200001D02*
X120699990Y-133000010D01*
X141699999Y-135200001D02*
X122899981Y-135200001D01*
X143400000Y-133500000D02*
X141699999Y-135200001D01*
D27*
X115120000Y-135150000D02*
X115120000Y-133622200D01*
X115120000Y-133622200D02*
X116281200Y-132461000D01*
X120160980Y-132461000D02*
X120699990Y-133000010D01*
X116281200Y-132461000D02*
X120160980Y-132461000D01*
D26*
%TO.N,photo*%
X109534316Y-72900000D02*
X111700000Y-72900000D01*
X107117158Y-75317158D02*
X109534316Y-72900000D01*
%TO.N,SCL*%
X176682900Y-125713838D02*
X176682900Y-127116840D01*
X178779898Y-123616840D02*
X176682900Y-125713838D01*
X181042900Y-123616840D02*
X178779898Y-123616840D01*
X176682900Y-128161840D02*
X178137900Y-129616840D01*
X176682900Y-127116840D02*
X176682900Y-128161840D01*
D27*
X106837999Y-132491999D02*
X106781600Y-132435600D01*
D26*
X110007400Y-132491999D02*
X106837999Y-132491999D01*
%TO.N,SDA*%
X109890000Y-135300000D02*
X110040000Y-135150000D01*
X182037900Y-121351840D02*
X181042900Y-122346840D01*
X182037900Y-119616840D02*
X182037900Y-121351840D01*
X179059936Y-122346840D02*
X181042900Y-122346840D01*
X175597900Y-125808876D02*
X179059936Y-122346840D01*
X175597900Y-129616840D02*
X175597900Y-125808876D01*
%TO.N,Net-(R2-Pad2)*%
X83800000Y-133250000D02*
X84000000Y-133450000D01*
X84000000Y-133450000D02*
X84000000Y-132085000D01*
X82825000Y-133450000D02*
X82550000Y-133175000D01*
X84000000Y-133450000D02*
X82825000Y-133450000D01*
X82200000Y-132825000D02*
X82550000Y-133175000D01*
X83950000Y-131775000D02*
X82550000Y-133175000D01*
X84620000Y-131775000D02*
X83950000Y-131775000D01*
X81349999Y-131974999D02*
X82550000Y-133175000D01*
X81349999Y-112150001D02*
X81349999Y-131974999D01*
X83600000Y-109900000D02*
X81349999Y-112150001D01*
X84400000Y-109900000D02*
X83600000Y-109900000D01*
%TD*%
D31*
%TO.N,GND*%
X85366928Y-122500000D02*
X85547317Y-124331522D01*
X86081552Y-126092660D01*
X86949103Y-127715733D01*
X88116631Y-129138369D01*
X89539267Y-130305897D01*
X91162340Y-131173448D01*
X91754241Y-131352999D01*
X88611704Y-131352999D01*
X88568238Y-131348718D01*
X88524772Y-131352999D01*
X88524762Y-131352999D01*
X88394749Y-131365804D01*
X88227926Y-131416410D01*
X88074180Y-131498588D01*
X88074178Y-131498589D01*
X88074179Y-131498589D01*
X87973192Y-131581467D01*
X87973190Y-131581469D01*
X87939422Y-131609182D01*
X87911709Y-131642950D01*
X87332950Y-132221710D01*
X87299183Y-132249422D01*
X87271470Y-132283190D01*
X87271467Y-132283193D01*
X87188589Y-132384180D01*
X87106411Y-132537926D01*
X87055804Y-132704749D01*
X87038718Y-132878239D01*
X87043000Y-132921718D01*
X87042999Y-134305422D01*
X86744122Y-134604299D01*
X86737592Y-134603000D01*
X86462408Y-134603000D01*
X86192510Y-134656686D01*
X85938273Y-134761995D01*
X85709465Y-134914880D01*
X85514880Y-135109465D01*
X85361995Y-135338273D01*
X85256686Y-135592510D01*
X85203000Y-135862408D01*
X85203000Y-136137592D01*
X85256686Y-136407490D01*
X85361995Y-136661727D01*
X85514880Y-136890535D01*
X85709465Y-137085120D01*
X85903844Y-137215000D01*
X85640285Y-137215000D01*
X82325375Y-134563072D01*
X83151298Y-134563072D01*
X83338273Y-134688005D01*
X83592510Y-134793314D01*
X83862408Y-134847000D01*
X84137592Y-134847000D01*
X84407490Y-134793314D01*
X84661727Y-134688005D01*
X84890535Y-134535120D01*
X85085120Y-134340535D01*
X85238005Y-134111727D01*
X85343314Y-133857490D01*
X85397000Y-133587592D01*
X85397000Y-133312408D01*
X85345917Y-133055595D01*
X85394482Y-133050812D01*
X85514180Y-133014502D01*
X85624494Y-132955537D01*
X85721185Y-132876185D01*
X85800537Y-132779494D01*
X85859502Y-132669180D01*
X85895812Y-132549482D01*
X85908072Y-132425000D01*
X85908072Y-131125000D01*
X85895812Y-131000518D01*
X85859502Y-130880820D01*
X85800537Y-130770506D01*
X85721185Y-130673815D01*
X85624494Y-130594463D01*
X85514180Y-130535498D01*
X85394482Y-130499188D01*
X85270000Y-130486928D01*
X84313657Y-130486928D01*
X84299061Y-130413548D01*
X84209734Y-130197892D01*
X84080050Y-130003806D01*
X83914994Y-129838750D01*
X83720908Y-129709066D01*
X83505252Y-129619739D01*
X83391701Y-129597152D01*
X83556052Y-129564461D01*
X83771708Y-129475134D01*
X83965794Y-129345450D01*
X84130850Y-129180394D01*
X84260534Y-128986308D01*
X84349861Y-128770652D01*
X84356382Y-128737868D01*
X84493000Y-128601250D01*
X84493000Y-127602000D01*
X84747000Y-127602000D01*
X84747000Y-128601250D01*
X84905750Y-128760000D01*
X85270000Y-128763072D01*
X85394482Y-128750812D01*
X85514180Y-128714502D01*
X85624494Y-128655537D01*
X85721185Y-128576185D01*
X85800537Y-128479494D01*
X85859502Y-128369180D01*
X85895812Y-128249482D01*
X85908072Y-128125000D01*
X85905000Y-127760750D01*
X85746250Y-127602000D01*
X84747000Y-127602000D01*
X84493000Y-127602000D01*
X84473000Y-127602000D01*
X84473000Y-127348000D01*
X84493000Y-127348000D01*
X84493000Y-126348750D01*
X84747000Y-126348750D01*
X84747000Y-127348000D01*
X85746250Y-127348000D01*
X85905000Y-127189250D01*
X85908072Y-126825000D01*
X85895812Y-126700518D01*
X85859502Y-126580820D01*
X85800537Y-126470506D01*
X85721185Y-126373815D01*
X85624494Y-126294463D01*
X85514180Y-126235498D01*
X85394482Y-126199188D01*
X85270000Y-126186928D01*
X84905750Y-126190000D01*
X84747000Y-126348750D01*
X84493000Y-126348750D01*
X84334250Y-126190000D01*
X83970000Y-126186928D01*
X83845518Y-126199188D01*
X83782081Y-126218431D01*
X83776250Y-126212600D01*
X82677000Y-126212600D01*
X82677000Y-126232600D01*
X82423000Y-126232600D01*
X82423000Y-126212600D01*
X82403000Y-126212600D01*
X82403000Y-125958600D01*
X82423000Y-125958600D01*
X82423000Y-124859350D01*
X82677000Y-124859350D01*
X82677000Y-125958600D01*
X83776250Y-125958600D01*
X83935000Y-125799850D01*
X83938072Y-125335600D01*
X83925812Y-125211118D01*
X83889502Y-125091420D01*
X83830537Y-124981106D01*
X83751185Y-124884415D01*
X83654494Y-124805063D01*
X83544180Y-124746098D01*
X83424482Y-124709788D01*
X83300000Y-124697528D01*
X82835750Y-124700600D01*
X82677000Y-124859350D01*
X82423000Y-124859350D01*
X82264250Y-124700600D01*
X82234999Y-124700406D01*
X82234999Y-112516579D01*
X83927160Y-110824419D01*
X84098102Y-110895226D01*
X84298061Y-110935000D01*
X84501939Y-110935000D01*
X84701898Y-110895226D01*
X84890256Y-110817205D01*
X85059774Y-110703937D01*
X85203937Y-110559774D01*
X85317205Y-110390256D01*
X85366928Y-110270215D01*
X85366928Y-122500000D01*
%TA.AperFunction,Conductor*%
D32*
G36*
X85366928Y-122500000D02*
G01*
X85547317Y-124331522D01*
X86081552Y-126092660D01*
X86949103Y-127715733D01*
X88116631Y-129138369D01*
X89539267Y-130305897D01*
X91162340Y-131173448D01*
X91754241Y-131352999D01*
X88611704Y-131352999D01*
X88568238Y-131348718D01*
X88524772Y-131352999D01*
X88524762Y-131352999D01*
X88394749Y-131365804D01*
X88227926Y-131416410D01*
X88074180Y-131498588D01*
X88074178Y-131498589D01*
X88074179Y-131498589D01*
X87973192Y-131581467D01*
X87973190Y-131581469D01*
X87939422Y-131609182D01*
X87911709Y-131642950D01*
X87332950Y-132221710D01*
X87299183Y-132249422D01*
X87271470Y-132283190D01*
X87271467Y-132283193D01*
X87188589Y-132384180D01*
X87106411Y-132537926D01*
X87055804Y-132704749D01*
X87038718Y-132878239D01*
X87043000Y-132921718D01*
X87042999Y-134305422D01*
X86744122Y-134604299D01*
X86737592Y-134603000D01*
X86462408Y-134603000D01*
X86192510Y-134656686D01*
X85938273Y-134761995D01*
X85709465Y-134914880D01*
X85514880Y-135109465D01*
X85361995Y-135338273D01*
X85256686Y-135592510D01*
X85203000Y-135862408D01*
X85203000Y-136137592D01*
X85256686Y-136407490D01*
X85361995Y-136661727D01*
X85514880Y-136890535D01*
X85709465Y-137085120D01*
X85903844Y-137215000D01*
X85640285Y-137215000D01*
X82325375Y-134563072D01*
X83151298Y-134563072D01*
X83338273Y-134688005D01*
X83592510Y-134793314D01*
X83862408Y-134847000D01*
X84137592Y-134847000D01*
X84407490Y-134793314D01*
X84661727Y-134688005D01*
X84890535Y-134535120D01*
X85085120Y-134340535D01*
X85238005Y-134111727D01*
X85343314Y-133857490D01*
X85397000Y-133587592D01*
X85397000Y-133312408D01*
X85345917Y-133055595D01*
X85394482Y-133050812D01*
X85514180Y-133014502D01*
X85624494Y-132955537D01*
X85721185Y-132876185D01*
X85800537Y-132779494D01*
X85859502Y-132669180D01*
X85895812Y-132549482D01*
X85908072Y-132425000D01*
X85908072Y-131125000D01*
X85895812Y-131000518D01*
X85859502Y-130880820D01*
X85800537Y-130770506D01*
X85721185Y-130673815D01*
X85624494Y-130594463D01*
X85514180Y-130535498D01*
X85394482Y-130499188D01*
X85270000Y-130486928D01*
X84313657Y-130486928D01*
X84299061Y-130413548D01*
X84209734Y-130197892D01*
X84080050Y-130003806D01*
X83914994Y-129838750D01*
X83720908Y-129709066D01*
X83505252Y-129619739D01*
X83391701Y-129597152D01*
X83556052Y-129564461D01*
X83771708Y-129475134D01*
X83965794Y-129345450D01*
X84130850Y-129180394D01*
X84260534Y-128986308D01*
X84349861Y-128770652D01*
X84356382Y-128737868D01*
X84493000Y-128601250D01*
X84493000Y-127602000D01*
X84747000Y-127602000D01*
X84747000Y-128601250D01*
X84905750Y-128760000D01*
X85270000Y-128763072D01*
X85394482Y-128750812D01*
X85514180Y-128714502D01*
X85624494Y-128655537D01*
X85721185Y-128576185D01*
X85800537Y-128479494D01*
X85859502Y-128369180D01*
X85895812Y-128249482D01*
X85908072Y-128125000D01*
X85905000Y-127760750D01*
X85746250Y-127602000D01*
X84747000Y-127602000D01*
X84493000Y-127602000D01*
X84473000Y-127602000D01*
X84473000Y-127348000D01*
X84493000Y-127348000D01*
X84493000Y-126348750D01*
X84747000Y-126348750D01*
X84747000Y-127348000D01*
X85746250Y-127348000D01*
X85905000Y-127189250D01*
X85908072Y-126825000D01*
X85895812Y-126700518D01*
X85859502Y-126580820D01*
X85800537Y-126470506D01*
X85721185Y-126373815D01*
X85624494Y-126294463D01*
X85514180Y-126235498D01*
X85394482Y-126199188D01*
X85270000Y-126186928D01*
X84905750Y-126190000D01*
X84747000Y-126348750D01*
X84493000Y-126348750D01*
X84334250Y-126190000D01*
X83970000Y-126186928D01*
X83845518Y-126199188D01*
X83782081Y-126218431D01*
X83776250Y-126212600D01*
X82677000Y-126212600D01*
X82677000Y-126232600D01*
X82423000Y-126232600D01*
X82423000Y-126212600D01*
X82403000Y-126212600D01*
X82403000Y-125958600D01*
X82423000Y-125958600D01*
X82423000Y-124859350D01*
X82677000Y-124859350D01*
X82677000Y-125958600D01*
X83776250Y-125958600D01*
X83935000Y-125799850D01*
X83938072Y-125335600D01*
X83925812Y-125211118D01*
X83889502Y-125091420D01*
X83830537Y-124981106D01*
X83751185Y-124884415D01*
X83654494Y-124805063D01*
X83544180Y-124746098D01*
X83424482Y-124709788D01*
X83300000Y-124697528D01*
X82835750Y-124700600D01*
X82677000Y-124859350D01*
X82423000Y-124859350D01*
X82264250Y-124700600D01*
X82234999Y-124700406D01*
X82234999Y-112516579D01*
X83927160Y-110824419D01*
X84098102Y-110895226D01*
X84298061Y-110935000D01*
X84501939Y-110935000D01*
X84701898Y-110895226D01*
X84890256Y-110817205D01*
X85059774Y-110703937D01*
X85203937Y-110559774D01*
X85317205Y-110390256D01*
X85366928Y-110270215D01*
X85366928Y-122500000D01*
G37*
%TD.AperFunction*%
D31*
X101438750Y-133058000D02*
X102438000Y-133058000D01*
X102438000Y-133038000D01*
X102692000Y-133038000D01*
X102692000Y-133058000D01*
X103691250Y-133058000D01*
X103779251Y-132969999D01*
X103826342Y-132969999D01*
X104724174Y-133867831D01*
X104715000Y-133866928D01*
X104250750Y-133870000D01*
X104092000Y-134028750D01*
X104092000Y-135128000D01*
X105191250Y-135128000D01*
X105350000Y-134969250D01*
X105353072Y-134505000D01*
X105340812Y-134380518D01*
X105304502Y-134260820D01*
X105279755Y-134214522D01*
X105406444Y-134227000D01*
X105406452Y-134227000D01*
X105449921Y-134231281D01*
X105493390Y-134227000D01*
X106324533Y-134227000D01*
X106340907Y-134228613D01*
X106304822Y-134268645D01*
X106155843Y-134518748D01*
X106058519Y-134793109D01*
X106179186Y-135023000D01*
X107373000Y-135023000D01*
X107373000Y-135003000D01*
X107627000Y-135003000D01*
X107627000Y-135023000D01*
X107647000Y-135023000D01*
X107647000Y-135277000D01*
X107627000Y-135277000D01*
X107627000Y-135297000D01*
X107373000Y-135297000D01*
X107373000Y-135277000D01*
X106179186Y-135277000D01*
X106058519Y-135506891D01*
X106155843Y-135781252D01*
X106304822Y-136031355D01*
X106499731Y-136247588D01*
X106606198Y-136327001D01*
X105262905Y-136327001D01*
X105304502Y-136249180D01*
X105340812Y-136129482D01*
X105353072Y-136005000D01*
X105350000Y-135540750D01*
X105191250Y-135382000D01*
X104092000Y-135382000D01*
X104092000Y-135402000D01*
X103838000Y-135402000D01*
X103838000Y-135382000D01*
X102738750Y-135382000D01*
X102580000Y-135540750D01*
X102576928Y-136005000D01*
X102589188Y-136129482D01*
X102625498Y-136249180D01*
X102667095Y-136327001D01*
X98173505Y-136327001D01*
X98215102Y-136249180D01*
X98251412Y-136129482D01*
X98263672Y-136005000D01*
X98263672Y-135303782D01*
X98294550Y-135349994D01*
X98459606Y-135515050D01*
X98653692Y-135644734D01*
X98869348Y-135734061D01*
X99098288Y-135779600D01*
X99331712Y-135779600D01*
X99560652Y-135734061D01*
X99776308Y-135644734D01*
X99970394Y-135515050D01*
X100135450Y-135349994D01*
X100265134Y-135155908D01*
X100354461Y-134940252D01*
X100377048Y-134826701D01*
X100409739Y-134991052D01*
X100499066Y-135206708D01*
X100628750Y-135400794D01*
X100793806Y-135565850D01*
X100987892Y-135695534D01*
X101203548Y-135784861D01*
X101432488Y-135830400D01*
X101665912Y-135830400D01*
X101894852Y-135784861D01*
X102110508Y-135695534D01*
X102304594Y-135565850D01*
X102469650Y-135400794D01*
X102599334Y-135206708D01*
X102663221Y-135052471D01*
X102738750Y-135128000D01*
X103838000Y-135128000D01*
X103838000Y-134028750D01*
X103824036Y-134014786D01*
X103840812Y-133959482D01*
X103853072Y-133835000D01*
X103850000Y-133470750D01*
X103691250Y-133312000D01*
X102692000Y-133312000D01*
X102692000Y-133332000D01*
X102438000Y-133332000D01*
X102438000Y-133312000D01*
X101438750Y-133312000D01*
X101280000Y-133470750D01*
X101279831Y-133490765D01*
X101203548Y-133505939D01*
X100987892Y-133595266D01*
X100793806Y-133724950D01*
X100628750Y-133890006D01*
X100499066Y-134084092D01*
X100409739Y-134299748D01*
X100387152Y-134413299D01*
X100354461Y-134248948D01*
X100265134Y-134033292D01*
X100135450Y-133839206D01*
X99970394Y-133674150D01*
X99776308Y-133544466D01*
X99560652Y-133455139D01*
X99553072Y-133453631D01*
X99553072Y-132969999D01*
X101350749Y-132969999D01*
X101438750Y-133058000D01*
%TA.AperFunction,Conductor*%
D32*
G36*
X101438750Y-133058000D02*
G01*
X102438000Y-133058000D01*
X102438000Y-133038000D01*
X102692000Y-133038000D01*
X102692000Y-133058000D01*
X103691250Y-133058000D01*
X103779251Y-132969999D01*
X103826342Y-132969999D01*
X104724174Y-133867831D01*
X104715000Y-133866928D01*
X104250750Y-133870000D01*
X104092000Y-134028750D01*
X104092000Y-135128000D01*
X105191250Y-135128000D01*
X105350000Y-134969250D01*
X105353072Y-134505000D01*
X105340812Y-134380518D01*
X105304502Y-134260820D01*
X105279755Y-134214522D01*
X105406444Y-134227000D01*
X105406452Y-134227000D01*
X105449921Y-134231281D01*
X105493390Y-134227000D01*
X106324533Y-134227000D01*
X106340907Y-134228613D01*
X106304822Y-134268645D01*
X106155843Y-134518748D01*
X106058519Y-134793109D01*
X106179186Y-135023000D01*
X107373000Y-135023000D01*
X107373000Y-135003000D01*
X107627000Y-135003000D01*
X107627000Y-135023000D01*
X107647000Y-135023000D01*
X107647000Y-135277000D01*
X107627000Y-135277000D01*
X107627000Y-135297000D01*
X107373000Y-135297000D01*
X107373000Y-135277000D01*
X106179186Y-135277000D01*
X106058519Y-135506891D01*
X106155843Y-135781252D01*
X106304822Y-136031355D01*
X106499731Y-136247588D01*
X106606198Y-136327001D01*
X105262905Y-136327001D01*
X105304502Y-136249180D01*
X105340812Y-136129482D01*
X105353072Y-136005000D01*
X105350000Y-135540750D01*
X105191250Y-135382000D01*
X104092000Y-135382000D01*
X104092000Y-135402000D01*
X103838000Y-135402000D01*
X103838000Y-135382000D01*
X102738750Y-135382000D01*
X102580000Y-135540750D01*
X102576928Y-136005000D01*
X102589188Y-136129482D01*
X102625498Y-136249180D01*
X102667095Y-136327001D01*
X98173505Y-136327001D01*
X98215102Y-136249180D01*
X98251412Y-136129482D01*
X98263672Y-136005000D01*
X98263672Y-135303782D01*
X98294550Y-135349994D01*
X98459606Y-135515050D01*
X98653692Y-135644734D01*
X98869348Y-135734061D01*
X99098288Y-135779600D01*
X99331712Y-135779600D01*
X99560652Y-135734061D01*
X99776308Y-135644734D01*
X99970394Y-135515050D01*
X100135450Y-135349994D01*
X100265134Y-135155908D01*
X100354461Y-134940252D01*
X100377048Y-134826701D01*
X100409739Y-134991052D01*
X100499066Y-135206708D01*
X100628750Y-135400794D01*
X100793806Y-135565850D01*
X100987892Y-135695534D01*
X101203548Y-135784861D01*
X101432488Y-135830400D01*
X101665912Y-135830400D01*
X101894852Y-135784861D01*
X102110508Y-135695534D01*
X102304594Y-135565850D01*
X102469650Y-135400794D01*
X102599334Y-135206708D01*
X102663221Y-135052471D01*
X102738750Y-135128000D01*
X103838000Y-135128000D01*
X103838000Y-134028750D01*
X103824036Y-134014786D01*
X103840812Y-133959482D01*
X103853072Y-133835000D01*
X103850000Y-133470750D01*
X103691250Y-133312000D01*
X102692000Y-133312000D01*
X102692000Y-133332000D01*
X102438000Y-133332000D01*
X102438000Y-133312000D01*
X101438750Y-133312000D01*
X101280000Y-133470750D01*
X101279831Y-133490765D01*
X101203548Y-133505939D01*
X100987892Y-133595266D01*
X100793806Y-133724950D01*
X100628750Y-133890006D01*
X100499066Y-134084092D01*
X100409739Y-134299748D01*
X100387152Y-134413299D01*
X100354461Y-134248948D01*
X100265134Y-134033292D01*
X100135450Y-133839206D01*
X99970394Y-133674150D01*
X99776308Y-133544466D01*
X99560652Y-133455139D01*
X99553072Y-133453631D01*
X99553072Y-132969999D01*
X101350749Y-132969999D01*
X101438750Y-133058000D01*
G37*
%TD.AperFunction*%
D31*
X94227000Y-135873000D02*
X94247000Y-135873000D01*
X94247000Y-136127000D01*
X94227000Y-136127000D01*
X94227000Y-136147000D01*
X93973000Y-136147000D01*
X93973000Y-136127000D01*
X93953000Y-136127000D01*
X93953000Y-135873000D01*
X93973000Y-135873000D01*
X93973000Y-135853000D01*
X94227000Y-135853000D01*
X94227000Y-135873000D01*
%TA.AperFunction,Conductor*%
D32*
G36*
X94227000Y-135873000D02*
G01*
X94247000Y-135873000D01*
X94247000Y-136127000D01*
X94227000Y-136127000D01*
X94227000Y-136147000D01*
X93973000Y-136147000D01*
X93973000Y-136127000D01*
X93953000Y-136127000D01*
X93953000Y-135873000D01*
X93973000Y-135873000D01*
X93973000Y-135853000D01*
X94227000Y-135853000D01*
X94227000Y-135873000D01*
G37*
%TD.AperFunction*%
D31*
X94293748Y-133435858D02*
X94279605Y-133450000D01*
X94293748Y-133464143D01*
X94114143Y-133643748D01*
X94100000Y-133629605D01*
X94085858Y-133643748D01*
X93906253Y-133464143D01*
X93920395Y-133450000D01*
X93906253Y-133435858D01*
X94085858Y-133256253D01*
X94100000Y-133270395D01*
X94114143Y-133256253D01*
X94293748Y-133435858D01*
%TA.AperFunction,Conductor*%
D32*
G36*
X94293748Y-133435858D02*
G01*
X94279605Y-133450000D01*
X94293748Y-133464143D01*
X94114143Y-133643748D01*
X94100000Y-133629605D01*
X94085858Y-133643748D01*
X93906253Y-133464143D01*
X93920395Y-133450000D01*
X93906253Y-133435858D01*
X94085858Y-133256253D01*
X94100000Y-133270395D01*
X94114143Y-133256253D01*
X94293748Y-133435858D01*
G37*
%TD.AperFunction*%
D31*
X149715001Y-74229229D02*
X149715000Y-111763421D01*
X147806535Y-109854957D01*
X147795226Y-109798102D01*
X147717205Y-109609744D01*
X147603937Y-109440226D01*
X147459774Y-109296063D01*
X147290256Y-109182795D01*
X147101898Y-109104774D01*
X146901939Y-109065000D01*
X146698061Y-109065000D01*
X146498102Y-109104774D01*
X146309744Y-109182795D01*
X146140226Y-109296063D01*
X145996063Y-109440226D01*
X145882795Y-109609744D01*
X145804774Y-109798102D01*
X145765000Y-109998061D01*
X145765000Y-110201939D01*
X145804774Y-110401898D01*
X145882795Y-110590256D01*
X145996063Y-110759774D01*
X146140226Y-110903937D01*
X146309744Y-111017205D01*
X146498102Y-111095226D01*
X146554957Y-111106535D01*
X148507001Y-113058580D01*
X148507001Y-114920621D01*
X148267592Y-114873000D01*
X147992408Y-114873000D01*
X147722510Y-114926686D01*
X147468273Y-115031995D01*
X147239465Y-115184880D01*
X147044880Y-115379465D01*
X146891995Y-115608273D01*
X146860000Y-115685515D01*
X146828005Y-115608273D01*
X146675120Y-115379465D01*
X146480535Y-115184880D01*
X146251727Y-115031995D01*
X146185968Y-115004757D01*
X146246456Y-114992725D01*
X146434814Y-114914704D01*
X146604332Y-114801436D01*
X146748495Y-114657273D01*
X146861763Y-114487755D01*
X146939784Y-114299397D01*
X146979558Y-114099438D01*
X146979558Y-113895560D01*
X146939784Y-113695601D01*
X146861763Y-113507243D01*
X146748495Y-113337725D01*
X146604332Y-113193562D01*
X146434814Y-113080294D01*
X146246456Y-113002273D01*
X146046497Y-112962499D01*
X145842619Y-112962499D01*
X145642660Y-113002273D01*
X145454302Y-113080294D01*
X145406104Y-113112499D01*
X144838072Y-113112499D01*
X144838072Y-112875000D01*
X144775373Y-112238406D01*
X144589685Y-111626276D01*
X144288145Y-111062134D01*
X143882340Y-110567660D01*
X143387866Y-110161855D01*
X143084345Y-109999620D01*
X143332312Y-109867079D01*
X143845729Y-109445729D01*
X144267079Y-108932312D01*
X144580170Y-108346559D01*
X144772971Y-107710980D01*
X144838072Y-107050000D01*
X144838072Y-105645099D01*
X145183966Y-105990993D01*
X145624872Y-106285597D01*
X146114780Y-106488524D01*
X146634864Y-106591975D01*
X147165136Y-106591975D01*
X147685220Y-106488524D01*
X148175128Y-106285597D01*
X148616034Y-105990993D01*
X148990993Y-105616034D01*
X149285597Y-105175128D01*
X149488524Y-104685220D01*
X149591975Y-104165136D01*
X149591975Y-103634864D01*
X149488524Y-103114780D01*
X149285597Y-102624872D01*
X148990993Y-102183966D01*
X148616034Y-101809007D01*
X148175128Y-101514403D01*
X147685220Y-101311476D01*
X147165136Y-101208025D01*
X146634864Y-101208025D01*
X146114780Y-101311476D01*
X145624872Y-101514403D01*
X145183966Y-101809007D01*
X144838072Y-102154901D01*
X144838072Y-101550000D01*
X144772971Y-100889020D01*
X144630901Y-100420678D01*
X145995049Y-99056530D01*
X146028817Y-99028817D01*
X146139411Y-98894059D01*
X146221589Y-98740313D01*
X146272195Y-98573490D01*
X146285000Y-98443477D01*
X146285000Y-98443467D01*
X146289281Y-98400001D01*
X146285000Y-98356535D01*
X146285000Y-94438454D01*
X146317205Y-94390256D01*
X146395226Y-94201898D01*
X146435000Y-94001939D01*
X146435000Y-93798061D01*
X146395226Y-93598102D01*
X146317205Y-93409744D01*
X146203937Y-93240226D01*
X146059774Y-93096063D01*
X145890256Y-92982795D01*
X145701898Y-92904774D01*
X145501939Y-92865000D01*
X145298061Y-92865000D01*
X145098102Y-92904774D01*
X144909744Y-92982795D01*
X144740226Y-93096063D01*
X144638072Y-93198217D01*
X144638072Y-91785000D01*
X144861546Y-91785000D01*
X144909744Y-91817205D01*
X145098102Y-91895226D01*
X145298061Y-91935000D01*
X145501939Y-91935000D01*
X145701898Y-91895226D01*
X145890256Y-91817205D01*
X146059774Y-91703937D01*
X146203937Y-91559774D01*
X146317205Y-91390256D01*
X146395226Y-91201898D01*
X146435000Y-91001939D01*
X146435000Y-90798061D01*
X146395226Y-90598102D01*
X146317205Y-90409744D01*
X146203937Y-90240226D01*
X146113711Y-90150000D01*
X146203937Y-90059774D01*
X146317205Y-89890256D01*
X146395226Y-89701898D01*
X146435000Y-89501939D01*
X146435000Y-89298061D01*
X146395226Y-89098102D01*
X146317205Y-88909744D01*
X146285000Y-88861546D01*
X146285000Y-83443469D01*
X146289281Y-83400000D01*
X146285000Y-83356531D01*
X146285000Y-83356523D01*
X146272195Y-83226510D01*
X146221589Y-83059687D01*
X146139411Y-82905941D01*
X146028817Y-82771183D01*
X145995049Y-82743470D01*
X144638072Y-81386494D01*
X144638072Y-78750000D01*
X144572971Y-78089020D01*
X144380170Y-77453441D01*
X144067079Y-76867688D01*
X143645729Y-76354271D01*
X143132312Y-75932921D01*
X142546559Y-75619830D01*
X141910980Y-75427029D01*
X141250000Y-75361928D01*
X124750000Y-75361928D01*
X124089020Y-75427029D01*
X123453441Y-75619830D01*
X122867688Y-75932921D01*
X122354271Y-76354271D01*
X121932921Y-76867688D01*
X121619830Y-77453441D01*
X121427029Y-78089020D01*
X121361928Y-78750000D01*
X121361928Y-82836333D01*
X120928448Y-81407340D01*
X120060897Y-79784267D01*
X118893369Y-78361631D01*
X117470733Y-77194103D01*
X115962849Y-76388122D01*
X116243550Y-76388122D01*
X116917448Y-76254076D01*
X117552246Y-75991134D01*
X118123548Y-75609402D01*
X118609402Y-75123548D01*
X118991134Y-74552246D01*
X119252927Y-73920221D01*
X119306157Y-73973451D01*
X119422613Y-73856995D01*
X119488137Y-74095860D01*
X119735116Y-74211760D01*
X119999960Y-74277250D01*
X120272492Y-74289812D01*
X120542238Y-74248965D01*
X120798832Y-74156277D01*
X120911863Y-74095860D01*
X120977388Y-73856993D01*
X120200000Y-73079605D01*
X120185858Y-73093748D01*
X120006253Y-72914143D01*
X120020395Y-72900000D01*
X120379605Y-72900000D01*
X121156993Y-73677388D01*
X121395860Y-73611863D01*
X121424890Y-73550000D01*
X130624428Y-73550000D01*
X130636688Y-73674482D01*
X130672998Y-73794180D01*
X130731963Y-73904494D01*
X130811315Y-74001185D01*
X130908006Y-74080537D01*
X131018320Y-74139502D01*
X131138018Y-74175812D01*
X131262500Y-74188072D01*
X131464250Y-74185000D01*
X131623000Y-74026250D01*
X131623000Y-72977000D01*
X130786250Y-72977000D01*
X130627500Y-73135750D01*
X130624428Y-73550000D01*
X121424890Y-73550000D01*
X121511760Y-73364884D01*
X121577250Y-73100040D01*
X121589812Y-72827508D01*
X121548965Y-72557762D01*
X121456277Y-72301168D01*
X121395860Y-72188137D01*
X121256835Y-72150000D01*
X130624428Y-72150000D01*
X130627500Y-72564250D01*
X130786250Y-72723000D01*
X131623000Y-72723000D01*
X131623000Y-71673750D01*
X131877000Y-71673750D01*
X131877000Y-72723000D01*
X131897000Y-72723000D01*
X131897000Y-72977000D01*
X131877000Y-72977000D01*
X131877000Y-74026250D01*
X132035750Y-74185000D01*
X132237500Y-74188072D01*
X132361982Y-74175812D01*
X132481680Y-74139502D01*
X132591994Y-74080537D01*
X132688685Y-74001185D01*
X132752492Y-73923436D01*
X132757708Y-73929792D01*
X132891336Y-74039458D01*
X133043791Y-74120947D01*
X133209215Y-74171128D01*
X133381250Y-74188072D01*
X133868750Y-74188072D01*
X134040785Y-74171128D01*
X134206209Y-74120947D01*
X134358664Y-74039458D01*
X134492292Y-73929792D01*
X134601958Y-73796164D01*
X134661376Y-73685000D01*
X135817805Y-73685000D01*
X135842028Y-73764852D01*
X135924095Y-73918388D01*
X136034537Y-74052963D01*
X136169112Y-74163405D01*
X136322648Y-74245472D01*
X136489243Y-74296008D01*
X136662497Y-74313072D01*
X137287503Y-74313072D01*
X137460757Y-74296008D01*
X137627352Y-74245472D01*
X137780888Y-74163405D01*
X137915463Y-74052963D01*
X138025905Y-73918388D01*
X138107972Y-73764852D01*
X138158508Y-73598257D01*
X138175572Y-73425003D01*
X138175572Y-72174997D01*
X138699428Y-72174997D01*
X138699428Y-73425003D01*
X138716492Y-73598257D01*
X138767028Y-73764852D01*
X138849095Y-73918388D01*
X138959537Y-74052963D01*
X139094112Y-74163405D01*
X139247648Y-74245472D01*
X139414243Y-74296008D01*
X139587497Y-74313072D01*
X140212503Y-74313072D01*
X140385757Y-74296008D01*
X140552352Y-74245472D01*
X140705888Y-74163405D01*
X140840463Y-74052963D01*
X140950905Y-73918388D01*
X141032972Y-73764852D01*
X141083508Y-73598257D01*
X141100572Y-73425003D01*
X141100572Y-72174997D01*
X141083508Y-72001743D01*
X141032972Y-71835148D01*
X140950905Y-71681612D01*
X140840463Y-71547037D01*
X140705888Y-71436595D01*
X140552352Y-71354528D01*
X140385757Y-71303992D01*
X140212503Y-71286928D01*
X139587497Y-71286928D01*
X139414243Y-71303992D01*
X139247648Y-71354528D01*
X139094112Y-71436595D01*
X138959537Y-71547037D01*
X138849095Y-71681612D01*
X138767028Y-71835148D01*
X138716492Y-72001743D01*
X138699428Y-72174997D01*
X138175572Y-72174997D01*
X138158508Y-72001743D01*
X138107972Y-71835148D01*
X138025905Y-71681612D01*
X137915463Y-71547037D01*
X137780888Y-71436595D01*
X137627352Y-71354528D01*
X137460757Y-71303992D01*
X137287503Y-71286928D01*
X136662497Y-71286928D01*
X136489243Y-71303992D01*
X136322648Y-71354528D01*
X136169112Y-71436595D01*
X136034537Y-71547037D01*
X135924095Y-71681612D01*
X135842028Y-71835148D01*
X135817805Y-71915000D01*
X134607925Y-71915000D01*
X134601958Y-71903836D01*
X134492292Y-71770208D01*
X134358664Y-71660542D01*
X134206209Y-71579053D01*
X134040785Y-71528872D01*
X133868750Y-71511928D01*
X133381250Y-71511928D01*
X133209215Y-71528872D01*
X133043791Y-71579053D01*
X132891336Y-71660542D01*
X132757708Y-71770208D01*
X132752492Y-71776564D01*
X132688685Y-71698815D01*
X132591994Y-71619463D01*
X132481680Y-71560498D01*
X132361982Y-71524188D01*
X132237500Y-71511928D01*
X132035750Y-71515000D01*
X131877000Y-71673750D01*
X131623000Y-71673750D01*
X131464250Y-71515000D01*
X131262500Y-71511928D01*
X131138018Y-71524188D01*
X131018320Y-71560498D01*
X130908006Y-71619463D01*
X130811315Y-71698815D01*
X130731963Y-71795506D01*
X130672998Y-71905820D01*
X130636688Y-72025518D01*
X130624428Y-72150000D01*
X121256835Y-72150000D01*
X121156993Y-72122612D01*
X120379605Y-72900000D01*
X120020395Y-72900000D01*
X120006253Y-72885858D01*
X120185858Y-72706253D01*
X120200000Y-72720395D01*
X120977388Y-71943007D01*
X120911863Y-71704140D01*
X120664884Y-71588240D01*
X120400040Y-71522750D01*
X120127508Y-71510188D01*
X119857762Y-71551035D01*
X119601168Y-71643723D01*
X119488137Y-71704140D01*
X119422613Y-71943005D01*
X119306157Y-71826549D01*
X119252927Y-71879779D01*
X118991134Y-71247754D01*
X118609402Y-70676452D01*
X118517950Y-70585000D01*
X145159715Y-70585000D01*
X149715001Y-74229229D01*
%TA.AperFunction,Conductor*%
D32*
G36*
X149715001Y-74229229D02*
G01*
X149715000Y-111763421D01*
X147806535Y-109854957D01*
X147795226Y-109798102D01*
X147717205Y-109609744D01*
X147603937Y-109440226D01*
X147459774Y-109296063D01*
X147290256Y-109182795D01*
X147101898Y-109104774D01*
X146901939Y-109065000D01*
X146698061Y-109065000D01*
X146498102Y-109104774D01*
X146309744Y-109182795D01*
X146140226Y-109296063D01*
X145996063Y-109440226D01*
X145882795Y-109609744D01*
X145804774Y-109798102D01*
X145765000Y-109998061D01*
X145765000Y-110201939D01*
X145804774Y-110401898D01*
X145882795Y-110590256D01*
X145996063Y-110759774D01*
X146140226Y-110903937D01*
X146309744Y-111017205D01*
X146498102Y-111095226D01*
X146554957Y-111106535D01*
X148507001Y-113058580D01*
X148507001Y-114920621D01*
X148267592Y-114873000D01*
X147992408Y-114873000D01*
X147722510Y-114926686D01*
X147468273Y-115031995D01*
X147239465Y-115184880D01*
X147044880Y-115379465D01*
X146891995Y-115608273D01*
X146860000Y-115685515D01*
X146828005Y-115608273D01*
X146675120Y-115379465D01*
X146480535Y-115184880D01*
X146251727Y-115031995D01*
X146185968Y-115004757D01*
X146246456Y-114992725D01*
X146434814Y-114914704D01*
X146604332Y-114801436D01*
X146748495Y-114657273D01*
X146861763Y-114487755D01*
X146939784Y-114299397D01*
X146979558Y-114099438D01*
X146979558Y-113895560D01*
X146939784Y-113695601D01*
X146861763Y-113507243D01*
X146748495Y-113337725D01*
X146604332Y-113193562D01*
X146434814Y-113080294D01*
X146246456Y-113002273D01*
X146046497Y-112962499D01*
X145842619Y-112962499D01*
X145642660Y-113002273D01*
X145454302Y-113080294D01*
X145406104Y-113112499D01*
X144838072Y-113112499D01*
X144838072Y-112875000D01*
X144775373Y-112238406D01*
X144589685Y-111626276D01*
X144288145Y-111062134D01*
X143882340Y-110567660D01*
X143387866Y-110161855D01*
X143084345Y-109999620D01*
X143332312Y-109867079D01*
X143845729Y-109445729D01*
X144267079Y-108932312D01*
X144580170Y-108346559D01*
X144772971Y-107710980D01*
X144838072Y-107050000D01*
X144838072Y-105645099D01*
X145183966Y-105990993D01*
X145624872Y-106285597D01*
X146114780Y-106488524D01*
X146634864Y-106591975D01*
X147165136Y-106591975D01*
X147685220Y-106488524D01*
X148175128Y-106285597D01*
X148616034Y-105990993D01*
X148990993Y-105616034D01*
X149285597Y-105175128D01*
X149488524Y-104685220D01*
X149591975Y-104165136D01*
X149591975Y-103634864D01*
X149488524Y-103114780D01*
X149285597Y-102624872D01*
X148990993Y-102183966D01*
X148616034Y-101809007D01*
X148175128Y-101514403D01*
X147685220Y-101311476D01*
X147165136Y-101208025D01*
X146634864Y-101208025D01*
X146114780Y-101311476D01*
X145624872Y-101514403D01*
X145183966Y-101809007D01*
X144838072Y-102154901D01*
X144838072Y-101550000D01*
X144772971Y-100889020D01*
X144630901Y-100420678D01*
X145995049Y-99056530D01*
X146028817Y-99028817D01*
X146139411Y-98894059D01*
X146221589Y-98740313D01*
X146272195Y-98573490D01*
X146285000Y-98443477D01*
X146285000Y-98443467D01*
X146289281Y-98400001D01*
X146285000Y-98356535D01*
X146285000Y-94438454D01*
X146317205Y-94390256D01*
X146395226Y-94201898D01*
X146435000Y-94001939D01*
X146435000Y-93798061D01*
X146395226Y-93598102D01*
X146317205Y-93409744D01*
X146203937Y-93240226D01*
X146059774Y-93096063D01*
X145890256Y-92982795D01*
X145701898Y-92904774D01*
X145501939Y-92865000D01*
X145298061Y-92865000D01*
X145098102Y-92904774D01*
X144909744Y-92982795D01*
X144740226Y-93096063D01*
X144638072Y-93198217D01*
X144638072Y-91785000D01*
X144861546Y-91785000D01*
X144909744Y-91817205D01*
X145098102Y-91895226D01*
X145298061Y-91935000D01*
X145501939Y-91935000D01*
X145701898Y-91895226D01*
X145890256Y-91817205D01*
X146059774Y-91703937D01*
X146203937Y-91559774D01*
X146317205Y-91390256D01*
X146395226Y-91201898D01*
X146435000Y-91001939D01*
X146435000Y-90798061D01*
X146395226Y-90598102D01*
X146317205Y-90409744D01*
X146203937Y-90240226D01*
X146113711Y-90150000D01*
X146203937Y-90059774D01*
X146317205Y-89890256D01*
X146395226Y-89701898D01*
X146435000Y-89501939D01*
X146435000Y-89298061D01*
X146395226Y-89098102D01*
X146317205Y-88909744D01*
X146285000Y-88861546D01*
X146285000Y-83443469D01*
X146289281Y-83400000D01*
X146285000Y-83356531D01*
X146285000Y-83356523D01*
X146272195Y-83226510D01*
X146221589Y-83059687D01*
X146139411Y-82905941D01*
X146028817Y-82771183D01*
X145995049Y-82743470D01*
X144638072Y-81386494D01*
X144638072Y-78750000D01*
X144572971Y-78089020D01*
X144380170Y-77453441D01*
X144067079Y-76867688D01*
X143645729Y-76354271D01*
X143132312Y-75932921D01*
X142546559Y-75619830D01*
X141910980Y-75427029D01*
X141250000Y-75361928D01*
X124750000Y-75361928D01*
X124089020Y-75427029D01*
X123453441Y-75619830D01*
X122867688Y-75932921D01*
X122354271Y-76354271D01*
X121932921Y-76867688D01*
X121619830Y-77453441D01*
X121427029Y-78089020D01*
X121361928Y-78750000D01*
X121361928Y-82836333D01*
X120928448Y-81407340D01*
X120060897Y-79784267D01*
X118893369Y-78361631D01*
X117470733Y-77194103D01*
X115962849Y-76388122D01*
X116243550Y-76388122D01*
X116917448Y-76254076D01*
X117552246Y-75991134D01*
X118123548Y-75609402D01*
X118609402Y-75123548D01*
X118991134Y-74552246D01*
X119252927Y-73920221D01*
X119306157Y-73973451D01*
X119422613Y-73856995D01*
X119488137Y-74095860D01*
X119735116Y-74211760D01*
X119999960Y-74277250D01*
X120272492Y-74289812D01*
X120542238Y-74248965D01*
X120798832Y-74156277D01*
X120911863Y-74095860D01*
X120977388Y-73856993D01*
X120200000Y-73079605D01*
X120185858Y-73093748D01*
X120006253Y-72914143D01*
X120020395Y-72900000D01*
X120379605Y-72900000D01*
X121156993Y-73677388D01*
X121395860Y-73611863D01*
X121424890Y-73550000D01*
X130624428Y-73550000D01*
X130636688Y-73674482D01*
X130672998Y-73794180D01*
X130731963Y-73904494D01*
X130811315Y-74001185D01*
X130908006Y-74080537D01*
X131018320Y-74139502D01*
X131138018Y-74175812D01*
X131262500Y-74188072D01*
X131464250Y-74185000D01*
X131623000Y-74026250D01*
X131623000Y-72977000D01*
X130786250Y-72977000D01*
X130627500Y-73135750D01*
X130624428Y-73550000D01*
X121424890Y-73550000D01*
X121511760Y-73364884D01*
X121577250Y-73100040D01*
X121589812Y-72827508D01*
X121548965Y-72557762D01*
X121456277Y-72301168D01*
X121395860Y-72188137D01*
X121256835Y-72150000D01*
X130624428Y-72150000D01*
X130627500Y-72564250D01*
X130786250Y-72723000D01*
X131623000Y-72723000D01*
X131623000Y-71673750D01*
X131877000Y-71673750D01*
X131877000Y-72723000D01*
X131897000Y-72723000D01*
X131897000Y-72977000D01*
X131877000Y-72977000D01*
X131877000Y-74026250D01*
X132035750Y-74185000D01*
X132237500Y-74188072D01*
X132361982Y-74175812D01*
X132481680Y-74139502D01*
X132591994Y-74080537D01*
X132688685Y-74001185D01*
X132752492Y-73923436D01*
X132757708Y-73929792D01*
X132891336Y-74039458D01*
X133043791Y-74120947D01*
X133209215Y-74171128D01*
X133381250Y-74188072D01*
X133868750Y-74188072D01*
X134040785Y-74171128D01*
X134206209Y-74120947D01*
X134358664Y-74039458D01*
X134492292Y-73929792D01*
X134601958Y-73796164D01*
X134661376Y-73685000D01*
X135817805Y-73685000D01*
X135842028Y-73764852D01*
X135924095Y-73918388D01*
X136034537Y-74052963D01*
X136169112Y-74163405D01*
X136322648Y-74245472D01*
X136489243Y-74296008D01*
X136662497Y-74313072D01*
X137287503Y-74313072D01*
X137460757Y-74296008D01*
X137627352Y-74245472D01*
X137780888Y-74163405D01*
X137915463Y-74052963D01*
X138025905Y-73918388D01*
X138107972Y-73764852D01*
X138158508Y-73598257D01*
X138175572Y-73425003D01*
X138175572Y-72174997D01*
X138699428Y-72174997D01*
X138699428Y-73425003D01*
X138716492Y-73598257D01*
X138767028Y-73764852D01*
X138849095Y-73918388D01*
X138959537Y-74052963D01*
X139094112Y-74163405D01*
X139247648Y-74245472D01*
X139414243Y-74296008D01*
X139587497Y-74313072D01*
X140212503Y-74313072D01*
X140385757Y-74296008D01*
X140552352Y-74245472D01*
X140705888Y-74163405D01*
X140840463Y-74052963D01*
X140950905Y-73918388D01*
X141032972Y-73764852D01*
X141083508Y-73598257D01*
X141100572Y-73425003D01*
X141100572Y-72174997D01*
X141083508Y-72001743D01*
X141032972Y-71835148D01*
X140950905Y-71681612D01*
X140840463Y-71547037D01*
X140705888Y-71436595D01*
X140552352Y-71354528D01*
X140385757Y-71303992D01*
X140212503Y-71286928D01*
X139587497Y-71286928D01*
X139414243Y-71303992D01*
X139247648Y-71354528D01*
X139094112Y-71436595D01*
X138959537Y-71547037D01*
X138849095Y-71681612D01*
X138767028Y-71835148D01*
X138716492Y-72001743D01*
X138699428Y-72174997D01*
X138175572Y-72174997D01*
X138158508Y-72001743D01*
X138107972Y-71835148D01*
X138025905Y-71681612D01*
X137915463Y-71547037D01*
X137780888Y-71436595D01*
X137627352Y-71354528D01*
X137460757Y-71303992D01*
X137287503Y-71286928D01*
X136662497Y-71286928D01*
X136489243Y-71303992D01*
X136322648Y-71354528D01*
X136169112Y-71436595D01*
X136034537Y-71547037D01*
X135924095Y-71681612D01*
X135842028Y-71835148D01*
X135817805Y-71915000D01*
X134607925Y-71915000D01*
X134601958Y-71903836D01*
X134492292Y-71770208D01*
X134358664Y-71660542D01*
X134206209Y-71579053D01*
X134040785Y-71528872D01*
X133868750Y-71511928D01*
X133381250Y-71511928D01*
X133209215Y-71528872D01*
X133043791Y-71579053D01*
X132891336Y-71660542D01*
X132757708Y-71770208D01*
X132752492Y-71776564D01*
X132688685Y-71698815D01*
X132591994Y-71619463D01*
X132481680Y-71560498D01*
X132361982Y-71524188D01*
X132237500Y-71511928D01*
X132035750Y-71515000D01*
X131877000Y-71673750D01*
X131623000Y-71673750D01*
X131464250Y-71515000D01*
X131262500Y-71511928D01*
X131138018Y-71524188D01*
X131018320Y-71560498D01*
X130908006Y-71619463D01*
X130811315Y-71698815D01*
X130731963Y-71795506D01*
X130672998Y-71905820D01*
X130636688Y-72025518D01*
X130624428Y-72150000D01*
X121256835Y-72150000D01*
X121156993Y-72122612D01*
X120379605Y-72900000D01*
X120020395Y-72900000D01*
X120006253Y-72885858D01*
X120185858Y-72706253D01*
X120200000Y-72720395D01*
X120977388Y-71943007D01*
X120911863Y-71704140D01*
X120664884Y-71588240D01*
X120400040Y-71522750D01*
X120127508Y-71510188D01*
X119857762Y-71551035D01*
X119601168Y-71643723D01*
X119488137Y-71704140D01*
X119422613Y-71943005D01*
X119306157Y-71826549D01*
X119252927Y-71879779D01*
X118991134Y-71247754D01*
X118609402Y-70676452D01*
X118517950Y-70585000D01*
X145159715Y-70585000D01*
X149715001Y-74229229D01*
G37*
%TD.AperFunction*%
D31*
X113190598Y-70676452D02*
X112808866Y-71247754D01*
X112572867Y-71817506D01*
X112356043Y-71672629D01*
X112103989Y-71568225D01*
X111836411Y-71515000D01*
X111563589Y-71515000D01*
X111296011Y-71568225D01*
X111043957Y-71672629D01*
X110817114Y-71824201D01*
X110626315Y-72015000D01*
X109577785Y-72015000D01*
X109534316Y-72010719D01*
X109490847Y-72015000D01*
X109490839Y-72015000D01*
X109360826Y-72027805D01*
X109194002Y-72078411D01*
X109040257Y-72160589D01*
X108939269Y-72243468D01*
X108939267Y-72243470D01*
X108905499Y-72271183D01*
X108877786Y-72304951D01*
X108600572Y-72582165D01*
X108600572Y-72024997D01*
X108583508Y-71851743D01*
X108532972Y-71685148D01*
X108450905Y-71531612D01*
X108340463Y-71397037D01*
X108205888Y-71286595D01*
X108052352Y-71204528D01*
X107885757Y-71153992D01*
X107712503Y-71136928D01*
X107087497Y-71136928D01*
X106914243Y-71153992D01*
X106747648Y-71204528D01*
X106594112Y-71286595D01*
X106459537Y-71397037D01*
X106349095Y-71531612D01*
X106267028Y-71685148D01*
X106216492Y-71851743D01*
X106199428Y-72024997D01*
X106199428Y-73275003D01*
X106216492Y-73448257D01*
X106267028Y-73614852D01*
X106349095Y-73768388D01*
X106459537Y-73902963D01*
X106594112Y-74013405D01*
X106747648Y-74095472D01*
X106914243Y-74146008D01*
X107025748Y-74156990D01*
X106872115Y-74310623D01*
X106815260Y-74321932D01*
X106626902Y-74399953D01*
X106457384Y-74513221D01*
X106313221Y-74657384D01*
X106199953Y-74826902D01*
X106121932Y-75015260D01*
X106082158Y-75215219D01*
X106082158Y-75419097D01*
X106120514Y-75611928D01*
X94755000Y-75611928D01*
X92923478Y-75792317D01*
X91162340Y-76326552D01*
X89539267Y-77194103D01*
X88116631Y-78361631D01*
X86949103Y-79784267D01*
X86081552Y-81407340D01*
X85547317Y-83168478D01*
X85366928Y-85000000D01*
X85366928Y-101642560D01*
X85175128Y-101514403D01*
X84685220Y-101311476D01*
X84165136Y-101208025D01*
X83634864Y-101208025D01*
X83114780Y-101311476D01*
X82624872Y-101514403D01*
X82183966Y-101809007D01*
X81809007Y-102183966D01*
X81514403Y-102624872D01*
X81311476Y-103114780D01*
X81208025Y-103634864D01*
X81208025Y-104165136D01*
X81311476Y-104685220D01*
X81514403Y-105175128D01*
X81809007Y-105616034D01*
X82183966Y-105990993D01*
X82624872Y-106285597D01*
X83114780Y-106488524D01*
X83634864Y-106591975D01*
X84165136Y-106591975D01*
X84685220Y-106488524D01*
X85175128Y-106285597D01*
X85366928Y-106157440D01*
X85366928Y-109529785D01*
X85317205Y-109409744D01*
X85203937Y-109240226D01*
X85059774Y-109096063D01*
X84890256Y-108982795D01*
X84701898Y-108904774D01*
X84501939Y-108865000D01*
X84298061Y-108865000D01*
X84098102Y-108904774D01*
X83909744Y-108982795D01*
X83861546Y-109015000D01*
X83643469Y-109015000D01*
X83600000Y-109010719D01*
X83556531Y-109015000D01*
X83556523Y-109015000D01*
X83441306Y-109026348D01*
X83426509Y-109027805D01*
X83375903Y-109043157D01*
X83259687Y-109078411D01*
X83210365Y-109104774D01*
X83105941Y-109160589D01*
X83004953Y-109243468D01*
X83004951Y-109243470D01*
X82971183Y-109271183D01*
X82943470Y-109304951D01*
X81085000Y-111163422D01*
X81085000Y-74229228D01*
X83668525Y-72162408D01*
X87703000Y-72162408D01*
X87703000Y-72437592D01*
X87756686Y-72707490D01*
X87861995Y-72961727D01*
X88014880Y-73190535D01*
X88209465Y-73385120D01*
X88382695Y-73500869D01*
X88240226Y-73596063D01*
X88096063Y-73740226D01*
X87982795Y-73909744D01*
X87904774Y-74098102D01*
X87865000Y-74298061D01*
X87865000Y-74501939D01*
X87904774Y-74701898D01*
X87982795Y-74890256D01*
X88096063Y-75059774D01*
X88240226Y-75203937D01*
X88409744Y-75317205D01*
X88598102Y-75395226D01*
X88798061Y-75435000D01*
X89001939Y-75435000D01*
X89201898Y-75395226D01*
X89390256Y-75317205D01*
X89438454Y-75285000D01*
X96111546Y-75285000D01*
X96159744Y-75317205D01*
X96348102Y-75395226D01*
X96548061Y-75435000D01*
X96751939Y-75435000D01*
X96951898Y-75395226D01*
X97140256Y-75317205D01*
X97309774Y-75203937D01*
X97453937Y-75059774D01*
X97567205Y-74890256D01*
X97645226Y-74701898D01*
X97685000Y-74501939D01*
X97685000Y-74298061D01*
X97645226Y-74098102D01*
X97567205Y-73909744D01*
X97453937Y-73740226D01*
X97309774Y-73596063D01*
X97140256Y-73482795D01*
X96951898Y-73404774D01*
X96751939Y-73365000D01*
X96548061Y-73365000D01*
X96348102Y-73404774D01*
X96159744Y-73482795D01*
X96111546Y-73515000D01*
X92336156Y-73515000D01*
X92530535Y-73385120D01*
X92565655Y-73350000D01*
X98149428Y-73350000D01*
X98161688Y-73474482D01*
X98197998Y-73594180D01*
X98256963Y-73704494D01*
X98336315Y-73801185D01*
X98433006Y-73880537D01*
X98543320Y-73939502D01*
X98663018Y-73975812D01*
X98787500Y-73988072D01*
X98989250Y-73985000D01*
X99148000Y-73826250D01*
X99148000Y-72777000D01*
X98311250Y-72777000D01*
X98152500Y-72935750D01*
X98149428Y-73350000D01*
X92565655Y-73350000D01*
X92725120Y-73190535D01*
X92878005Y-72961727D01*
X92983314Y-72707490D01*
X93037000Y-72437592D01*
X93037000Y-72162408D01*
X92994750Y-71950000D01*
X98149428Y-71950000D01*
X98152500Y-72364250D01*
X98311250Y-72523000D01*
X99148000Y-72523000D01*
X99148000Y-71473750D01*
X99402000Y-71473750D01*
X99402000Y-72523000D01*
X99422000Y-72523000D01*
X99422000Y-72777000D01*
X99402000Y-72777000D01*
X99402000Y-73826250D01*
X99560750Y-73985000D01*
X99762500Y-73988072D01*
X99886982Y-73975812D01*
X100006680Y-73939502D01*
X100116994Y-73880537D01*
X100213685Y-73801185D01*
X100277492Y-73723436D01*
X100282708Y-73729792D01*
X100416336Y-73839458D01*
X100568791Y-73920947D01*
X100734215Y-73971128D01*
X100906250Y-73988072D01*
X101393750Y-73988072D01*
X101565785Y-73971128D01*
X101731209Y-73920947D01*
X101883664Y-73839458D01*
X102017292Y-73729792D01*
X102126958Y-73596164D01*
X102159651Y-73535000D01*
X103317805Y-73535000D01*
X103342028Y-73614852D01*
X103424095Y-73768388D01*
X103534537Y-73902963D01*
X103669112Y-74013405D01*
X103822648Y-74095472D01*
X103989243Y-74146008D01*
X104162497Y-74163072D01*
X104787503Y-74163072D01*
X104960757Y-74146008D01*
X105127352Y-74095472D01*
X105280888Y-74013405D01*
X105415463Y-73902963D01*
X105525905Y-73768388D01*
X105607972Y-73614852D01*
X105658508Y-73448257D01*
X105675572Y-73275003D01*
X105675572Y-72024997D01*
X105658508Y-71851743D01*
X105607972Y-71685148D01*
X105525905Y-71531612D01*
X105415463Y-71397037D01*
X105280888Y-71286595D01*
X105127352Y-71204528D01*
X104960757Y-71153992D01*
X104787503Y-71136928D01*
X104162497Y-71136928D01*
X103989243Y-71153992D01*
X103822648Y-71204528D01*
X103669112Y-71286595D01*
X103534537Y-71397037D01*
X103424095Y-71531612D01*
X103342028Y-71685148D01*
X103317805Y-71765000D01*
X102159651Y-71765000D01*
X102126958Y-71703836D01*
X102017292Y-71570208D01*
X101883664Y-71460542D01*
X101731209Y-71379053D01*
X101565785Y-71328872D01*
X101393750Y-71311928D01*
X100906250Y-71311928D01*
X100734215Y-71328872D01*
X100568791Y-71379053D01*
X100416336Y-71460542D01*
X100282708Y-71570208D01*
X100277492Y-71576564D01*
X100213685Y-71498815D01*
X100116994Y-71419463D01*
X100006680Y-71360498D01*
X99886982Y-71324188D01*
X99762500Y-71311928D01*
X99560750Y-71315000D01*
X99402000Y-71473750D01*
X99148000Y-71473750D01*
X98989250Y-71315000D01*
X98787500Y-71311928D01*
X98663018Y-71324188D01*
X98543320Y-71360498D01*
X98433006Y-71419463D01*
X98336315Y-71498815D01*
X98256963Y-71595506D01*
X98197998Y-71705820D01*
X98161688Y-71825518D01*
X98149428Y-71950000D01*
X92994750Y-71950000D01*
X92983314Y-71892510D01*
X92878005Y-71638273D01*
X92725120Y-71409465D01*
X92530535Y-71214880D01*
X92301727Y-71061995D01*
X92047490Y-70956686D01*
X91777592Y-70903000D01*
X91502408Y-70903000D01*
X91232510Y-70956686D01*
X90978273Y-71061995D01*
X90749465Y-71214880D01*
X90554880Y-71409465D01*
X90401995Y-71638273D01*
X90370000Y-71715515D01*
X90338005Y-71638273D01*
X90185120Y-71409465D01*
X89990535Y-71214880D01*
X89761727Y-71061995D01*
X89507490Y-70956686D01*
X89237592Y-70903000D01*
X88962408Y-70903000D01*
X88692510Y-70956686D01*
X88438273Y-71061995D01*
X88209465Y-71214880D01*
X88014880Y-71409465D01*
X87861995Y-71638273D01*
X87756686Y-71892510D01*
X87703000Y-72162408D01*
X83668525Y-72162408D01*
X85640285Y-70585000D01*
X113282050Y-70585000D01*
X113190598Y-70676452D01*
%TA.AperFunction,Conductor*%
D32*
G36*
X113190598Y-70676452D02*
G01*
X112808866Y-71247754D01*
X112572867Y-71817506D01*
X112356043Y-71672629D01*
X112103989Y-71568225D01*
X111836411Y-71515000D01*
X111563589Y-71515000D01*
X111296011Y-71568225D01*
X111043957Y-71672629D01*
X110817114Y-71824201D01*
X110626315Y-72015000D01*
X109577785Y-72015000D01*
X109534316Y-72010719D01*
X109490847Y-72015000D01*
X109490839Y-72015000D01*
X109360826Y-72027805D01*
X109194002Y-72078411D01*
X109040257Y-72160589D01*
X108939269Y-72243468D01*
X108939267Y-72243470D01*
X108905499Y-72271183D01*
X108877786Y-72304951D01*
X108600572Y-72582165D01*
X108600572Y-72024997D01*
X108583508Y-71851743D01*
X108532972Y-71685148D01*
X108450905Y-71531612D01*
X108340463Y-71397037D01*
X108205888Y-71286595D01*
X108052352Y-71204528D01*
X107885757Y-71153992D01*
X107712503Y-71136928D01*
X107087497Y-71136928D01*
X106914243Y-71153992D01*
X106747648Y-71204528D01*
X106594112Y-71286595D01*
X106459537Y-71397037D01*
X106349095Y-71531612D01*
X106267028Y-71685148D01*
X106216492Y-71851743D01*
X106199428Y-72024997D01*
X106199428Y-73275003D01*
X106216492Y-73448257D01*
X106267028Y-73614852D01*
X106349095Y-73768388D01*
X106459537Y-73902963D01*
X106594112Y-74013405D01*
X106747648Y-74095472D01*
X106914243Y-74146008D01*
X107025748Y-74156990D01*
X106872115Y-74310623D01*
X106815260Y-74321932D01*
X106626902Y-74399953D01*
X106457384Y-74513221D01*
X106313221Y-74657384D01*
X106199953Y-74826902D01*
X106121932Y-75015260D01*
X106082158Y-75215219D01*
X106082158Y-75419097D01*
X106120514Y-75611928D01*
X94755000Y-75611928D01*
X92923478Y-75792317D01*
X91162340Y-76326552D01*
X89539267Y-77194103D01*
X88116631Y-78361631D01*
X86949103Y-79784267D01*
X86081552Y-81407340D01*
X85547317Y-83168478D01*
X85366928Y-85000000D01*
X85366928Y-101642560D01*
X85175128Y-101514403D01*
X84685220Y-101311476D01*
X84165136Y-101208025D01*
X83634864Y-101208025D01*
X83114780Y-101311476D01*
X82624872Y-101514403D01*
X82183966Y-101809007D01*
X81809007Y-102183966D01*
X81514403Y-102624872D01*
X81311476Y-103114780D01*
X81208025Y-103634864D01*
X81208025Y-104165136D01*
X81311476Y-104685220D01*
X81514403Y-105175128D01*
X81809007Y-105616034D01*
X82183966Y-105990993D01*
X82624872Y-106285597D01*
X83114780Y-106488524D01*
X83634864Y-106591975D01*
X84165136Y-106591975D01*
X84685220Y-106488524D01*
X85175128Y-106285597D01*
X85366928Y-106157440D01*
X85366928Y-109529785D01*
X85317205Y-109409744D01*
X85203937Y-109240226D01*
X85059774Y-109096063D01*
X84890256Y-108982795D01*
X84701898Y-108904774D01*
X84501939Y-108865000D01*
X84298061Y-108865000D01*
X84098102Y-108904774D01*
X83909744Y-108982795D01*
X83861546Y-109015000D01*
X83643469Y-109015000D01*
X83600000Y-109010719D01*
X83556531Y-109015000D01*
X83556523Y-109015000D01*
X83441306Y-109026348D01*
X83426509Y-109027805D01*
X83375903Y-109043157D01*
X83259687Y-109078411D01*
X83210365Y-109104774D01*
X83105941Y-109160589D01*
X83004953Y-109243468D01*
X83004951Y-109243470D01*
X82971183Y-109271183D01*
X82943470Y-109304951D01*
X81085000Y-111163422D01*
X81085000Y-74229228D01*
X83668525Y-72162408D01*
X87703000Y-72162408D01*
X87703000Y-72437592D01*
X87756686Y-72707490D01*
X87861995Y-72961727D01*
X88014880Y-73190535D01*
X88209465Y-73385120D01*
X88382695Y-73500869D01*
X88240226Y-73596063D01*
X88096063Y-73740226D01*
X87982795Y-73909744D01*
X87904774Y-74098102D01*
X87865000Y-74298061D01*
X87865000Y-74501939D01*
X87904774Y-74701898D01*
X87982795Y-74890256D01*
X88096063Y-75059774D01*
X88240226Y-75203937D01*
X88409744Y-75317205D01*
X88598102Y-75395226D01*
X88798061Y-75435000D01*
X89001939Y-75435000D01*
X89201898Y-75395226D01*
X89390256Y-75317205D01*
X89438454Y-75285000D01*
X96111546Y-75285000D01*
X96159744Y-75317205D01*
X96348102Y-75395226D01*
X96548061Y-75435000D01*
X96751939Y-75435000D01*
X96951898Y-75395226D01*
X97140256Y-75317205D01*
X97309774Y-75203937D01*
X97453937Y-75059774D01*
X97567205Y-74890256D01*
X97645226Y-74701898D01*
X97685000Y-74501939D01*
X97685000Y-74298061D01*
X97645226Y-74098102D01*
X97567205Y-73909744D01*
X97453937Y-73740226D01*
X97309774Y-73596063D01*
X97140256Y-73482795D01*
X96951898Y-73404774D01*
X96751939Y-73365000D01*
X96548061Y-73365000D01*
X96348102Y-73404774D01*
X96159744Y-73482795D01*
X96111546Y-73515000D01*
X92336156Y-73515000D01*
X92530535Y-73385120D01*
X92565655Y-73350000D01*
X98149428Y-73350000D01*
X98161688Y-73474482D01*
X98197998Y-73594180D01*
X98256963Y-73704494D01*
X98336315Y-73801185D01*
X98433006Y-73880537D01*
X98543320Y-73939502D01*
X98663018Y-73975812D01*
X98787500Y-73988072D01*
X98989250Y-73985000D01*
X99148000Y-73826250D01*
X99148000Y-72777000D01*
X98311250Y-72777000D01*
X98152500Y-72935750D01*
X98149428Y-73350000D01*
X92565655Y-73350000D01*
X92725120Y-73190535D01*
X92878005Y-72961727D01*
X92983314Y-72707490D01*
X93037000Y-72437592D01*
X93037000Y-72162408D01*
X92994750Y-71950000D01*
X98149428Y-71950000D01*
X98152500Y-72364250D01*
X98311250Y-72523000D01*
X99148000Y-72523000D01*
X99148000Y-71473750D01*
X99402000Y-71473750D01*
X99402000Y-72523000D01*
X99422000Y-72523000D01*
X99422000Y-72777000D01*
X99402000Y-72777000D01*
X99402000Y-73826250D01*
X99560750Y-73985000D01*
X99762500Y-73988072D01*
X99886982Y-73975812D01*
X100006680Y-73939502D01*
X100116994Y-73880537D01*
X100213685Y-73801185D01*
X100277492Y-73723436D01*
X100282708Y-73729792D01*
X100416336Y-73839458D01*
X100568791Y-73920947D01*
X100734215Y-73971128D01*
X100906250Y-73988072D01*
X101393750Y-73988072D01*
X101565785Y-73971128D01*
X101731209Y-73920947D01*
X101883664Y-73839458D01*
X102017292Y-73729792D01*
X102126958Y-73596164D01*
X102159651Y-73535000D01*
X103317805Y-73535000D01*
X103342028Y-73614852D01*
X103424095Y-73768388D01*
X103534537Y-73902963D01*
X103669112Y-74013405D01*
X103822648Y-74095472D01*
X103989243Y-74146008D01*
X104162497Y-74163072D01*
X104787503Y-74163072D01*
X104960757Y-74146008D01*
X105127352Y-74095472D01*
X105280888Y-74013405D01*
X105415463Y-73902963D01*
X105525905Y-73768388D01*
X105607972Y-73614852D01*
X105658508Y-73448257D01*
X105675572Y-73275003D01*
X105675572Y-72024997D01*
X105658508Y-71851743D01*
X105607972Y-71685148D01*
X105525905Y-71531612D01*
X105415463Y-71397037D01*
X105280888Y-71286595D01*
X105127352Y-71204528D01*
X104960757Y-71153992D01*
X104787503Y-71136928D01*
X104162497Y-71136928D01*
X103989243Y-71153992D01*
X103822648Y-71204528D01*
X103669112Y-71286595D01*
X103534537Y-71397037D01*
X103424095Y-71531612D01*
X103342028Y-71685148D01*
X103317805Y-71765000D01*
X102159651Y-71765000D01*
X102126958Y-71703836D01*
X102017292Y-71570208D01*
X101883664Y-71460542D01*
X101731209Y-71379053D01*
X101565785Y-71328872D01*
X101393750Y-71311928D01*
X100906250Y-71311928D01*
X100734215Y-71328872D01*
X100568791Y-71379053D01*
X100416336Y-71460542D01*
X100282708Y-71570208D01*
X100277492Y-71576564D01*
X100213685Y-71498815D01*
X100116994Y-71419463D01*
X100006680Y-71360498D01*
X99886982Y-71324188D01*
X99762500Y-71311928D01*
X99560750Y-71315000D01*
X99402000Y-71473750D01*
X99148000Y-71473750D01*
X98989250Y-71315000D01*
X98787500Y-71311928D01*
X98663018Y-71324188D01*
X98543320Y-71360498D01*
X98433006Y-71419463D01*
X98336315Y-71498815D01*
X98256963Y-71595506D01*
X98197998Y-71705820D01*
X98161688Y-71825518D01*
X98149428Y-71950000D01*
X92994750Y-71950000D01*
X92983314Y-71892510D01*
X92878005Y-71638273D01*
X92725120Y-71409465D01*
X92530535Y-71214880D01*
X92301727Y-71061995D01*
X92047490Y-70956686D01*
X91777592Y-70903000D01*
X91502408Y-70903000D01*
X91232510Y-70956686D01*
X90978273Y-71061995D01*
X90749465Y-71214880D01*
X90554880Y-71409465D01*
X90401995Y-71638273D01*
X90370000Y-71715515D01*
X90338005Y-71638273D01*
X90185120Y-71409465D01*
X89990535Y-71214880D01*
X89761727Y-71061995D01*
X89507490Y-70956686D01*
X89237592Y-70903000D01*
X88962408Y-70903000D01*
X88692510Y-70956686D01*
X88438273Y-71061995D01*
X88209465Y-71214880D01*
X88014880Y-71409465D01*
X87861995Y-71638273D01*
X87756686Y-71892510D01*
X87703000Y-72162408D01*
X83668525Y-72162408D01*
X85640285Y-70585000D01*
X113282050Y-70585000D01*
X113190598Y-70676452D01*
G37*
%TD.AperFunction*%
%TD*%
D31*
%TO.N,GND*%
X182106876Y-75195343D02*
X184190513Y-75388420D01*
X186254200Y-75734852D01*
X188286668Y-76232747D01*
X190276814Y-76879385D01*
X192213769Y-77671234D01*
X194086955Y-78603969D01*
X195886141Y-79672498D01*
X197601500Y-80870982D01*
X199223663Y-82192878D01*
X200743772Y-83630964D01*
X202153522Y-85177387D01*
X203445216Y-86823701D01*
X204611798Y-88560913D01*
X205646897Y-90379537D01*
X206544859Y-92269639D01*
X207300780Y-94220896D01*
X207910532Y-96222652D01*
X208370783Y-98263972D01*
X208679021Y-100333709D01*
X208833563Y-102420558D01*
X208833563Y-104513122D01*
X208679021Y-106599971D01*
X208370783Y-108669708D01*
X207910532Y-110711028D01*
X207300780Y-112712784D01*
X206544859Y-114664041D01*
X205646897Y-116554143D01*
X204611798Y-118372767D01*
X203445216Y-120109979D01*
X202153522Y-121756293D01*
X200743772Y-123302716D01*
X199223663Y-124740802D01*
X197601500Y-126062698D01*
X195886141Y-127261182D01*
X194086955Y-128329711D01*
X192213769Y-129262446D01*
X190276814Y-130054295D01*
X188286668Y-130700933D01*
X186865815Y-131049000D01*
X186962394Y-130997377D01*
X187059085Y-130918025D01*
X187138437Y-130821334D01*
X187197402Y-130711020D01*
X187233712Y-130591322D01*
X187245972Y-130466840D01*
X187245972Y-128766840D01*
X187233712Y-128642358D01*
X187197402Y-128522660D01*
X187138437Y-128412346D01*
X187059085Y-128315655D01*
X186962394Y-128236303D01*
X186852080Y-128177338D01*
X186732382Y-128141028D01*
X186607900Y-128128768D01*
X185874960Y-128128768D01*
X185172900Y-127426709D01*
X185172900Y-127184832D01*
X185285400Y-127195912D01*
X185752150Y-127192840D01*
X185910900Y-127034090D01*
X185910900Y-126283840D01*
X186164900Y-126283840D01*
X186164900Y-127034090D01*
X186323650Y-127192840D01*
X186790400Y-127195912D01*
X186914882Y-127183652D01*
X187034580Y-127147342D01*
X187144894Y-127088377D01*
X187241585Y-127009025D01*
X187320937Y-126912334D01*
X187379902Y-126802020D01*
X187416212Y-126682322D01*
X187428472Y-126557840D01*
X187425400Y-126442590D01*
X187266650Y-126283840D01*
X186164900Y-126283840D01*
X185910900Y-126283840D01*
X185890900Y-126283840D01*
X185890900Y-126029840D01*
X185910900Y-126029840D01*
X185910900Y-125013840D01*
X186164900Y-125013840D01*
X186164900Y-126029840D01*
X187266650Y-126029840D01*
X187425400Y-125871090D01*
X187428472Y-125755840D01*
X187416212Y-125631358D01*
X187382990Y-125521840D01*
X187416212Y-125412322D01*
X187428472Y-125287840D01*
X187425400Y-125172590D01*
X187266650Y-125013840D01*
X186164900Y-125013840D01*
X185910900Y-125013840D01*
X185890900Y-125013840D01*
X185890900Y-124759840D01*
X185910900Y-124759840D01*
X185910900Y-123743840D01*
X186164900Y-123743840D01*
X186164900Y-124759840D01*
X187266650Y-124759840D01*
X187425400Y-124601090D01*
X187428472Y-124485840D01*
X187416212Y-124361358D01*
X187382990Y-124251840D01*
X187416212Y-124142322D01*
X187428472Y-124017840D01*
X187425400Y-123902590D01*
X187266650Y-123743840D01*
X186164900Y-123743840D01*
X185910900Y-123743840D01*
X185890900Y-123743840D01*
X185890900Y-123686840D01*
X187534828Y-123686840D01*
X187547088Y-123811322D01*
X187583398Y-123931020D01*
X187642363Y-124041334D01*
X187721715Y-124138025D01*
X187818406Y-124217377D01*
X187928720Y-124276342D01*
X188048418Y-124312652D01*
X188172900Y-124324912D01*
X188612150Y-124321840D01*
X188770900Y-124163090D01*
X188770900Y-123313840D01*
X189024900Y-123313840D01*
X189024900Y-124163090D01*
X189183650Y-124321840D01*
X189622900Y-124324912D01*
X189747382Y-124312652D01*
X189867080Y-124276342D01*
X189977394Y-124217377D01*
X190074085Y-124138025D01*
X190153437Y-124041334D01*
X190212402Y-123931020D01*
X190248712Y-123811322D01*
X190260972Y-123686840D01*
X190257900Y-123472590D01*
X190099150Y-123313840D01*
X189024900Y-123313840D01*
X188770900Y-123313840D01*
X187696650Y-123313840D01*
X187537900Y-123472590D01*
X187534828Y-123686840D01*
X185890900Y-123686840D01*
X185890900Y-123489840D01*
X185910900Y-123489840D01*
X185910900Y-123481840D01*
X186093652Y-123481840D01*
X186164900Y-123474823D01*
X186164900Y-123489840D01*
X187266650Y-123489840D01*
X187425400Y-123331090D01*
X187428472Y-123215840D01*
X187416212Y-123091358D01*
X187382990Y-122981840D01*
X187416212Y-122872322D01*
X187428472Y-122747840D01*
X187428472Y-121945840D01*
X187416212Y-121821358D01*
X187379902Y-121701660D01*
X187320937Y-121591346D01*
X187241585Y-121494655D01*
X187144894Y-121415303D01*
X187034580Y-121356338D01*
X186914882Y-121320028D01*
X186790400Y-121307768D01*
X186501669Y-121307768D01*
X186474347Y-121293164D01*
X186260399Y-121228263D01*
X186093652Y-121211840D01*
X184950149Y-121211840D01*
X184894397Y-121206349D01*
X184838646Y-121211840D01*
X184671899Y-121228263D01*
X184457951Y-121293164D01*
X184260775Y-121398556D01*
X184087949Y-121540391D01*
X184052406Y-121583700D01*
X183274760Y-122361347D01*
X183231452Y-122396889D01*
X183089617Y-122569715D01*
X183078760Y-122590028D01*
X182984224Y-122766892D01*
X182919323Y-122980840D01*
X182897409Y-123203338D01*
X182902901Y-123259099D01*
X182902900Y-127011840D01*
X182243155Y-127011840D01*
X182246585Y-127009025D01*
X182325937Y-126912334D01*
X182384902Y-126802020D01*
X182421212Y-126682322D01*
X182433472Y-126557840D01*
X182430400Y-126442590D01*
X182271650Y-126283840D01*
X181169900Y-126283840D01*
X181169900Y-126303840D01*
X180915900Y-126303840D01*
X180915900Y-126283840D01*
X179814150Y-126283840D01*
X179655400Y-126442590D01*
X179652328Y-126557840D01*
X179664588Y-126682322D01*
X179700898Y-126802020D01*
X179759863Y-126912334D01*
X179839215Y-127009025D01*
X179842645Y-127011840D01*
X179657279Y-127011840D01*
X179370972Y-126725534D01*
X179370972Y-126664040D01*
X179354869Y-126500540D01*
X179307178Y-126343324D01*
X179229731Y-126198432D01*
X179125506Y-126071434D01*
X178998508Y-125967209D01*
X178853616Y-125889762D01*
X178696400Y-125842071D01*
X178532900Y-125825968D01*
X178132900Y-125825968D01*
X177969400Y-125842071D01*
X177812184Y-125889762D01*
X177696971Y-125951345D01*
X179146477Y-124501840D01*
X179652328Y-124501840D01*
X179652328Y-125287840D01*
X179664588Y-125412322D01*
X179697810Y-125521840D01*
X179664588Y-125631358D01*
X179652328Y-125755840D01*
X179655400Y-125871090D01*
X179814150Y-126029840D01*
X180915900Y-126029840D01*
X180915900Y-126009840D01*
X181169900Y-126009840D01*
X181169900Y-126029840D01*
X182271650Y-126029840D01*
X182430400Y-125871090D01*
X182433472Y-125755840D01*
X182421212Y-125631358D01*
X182387990Y-125521840D01*
X182421212Y-125412322D01*
X182433472Y-125287840D01*
X182433472Y-124485840D01*
X182421212Y-124361358D01*
X182387990Y-124251840D01*
X182421212Y-124142322D01*
X182433472Y-124017840D01*
X182433472Y-123215840D01*
X182421212Y-123091358D01*
X182387990Y-122981840D01*
X182421212Y-122872322D01*
X182433472Y-122747840D01*
X182433472Y-122207847D01*
X182632949Y-122008370D01*
X182666717Y-121980657D01*
X182723610Y-121911334D01*
X182777310Y-121845900D01*
X182790428Y-121821358D01*
X182859489Y-121692153D01*
X182910095Y-121525330D01*
X182922900Y-121395317D01*
X182922900Y-121395307D01*
X182927181Y-121351841D01*
X182922900Y-121308375D01*
X182922900Y-120537305D01*
X182924762Y-120538834D01*
X183184757Y-120798829D01*
X183314278Y-120905124D01*
X183511454Y-121010516D01*
X183725401Y-121075417D01*
X183947900Y-121097331D01*
X184170399Y-121075417D01*
X184384347Y-121010516D01*
X184581523Y-120905124D01*
X184754349Y-120763289D01*
X184896184Y-120590463D01*
X185001576Y-120393287D01*
X185066477Y-120179339D01*
X185088391Y-119956840D01*
X185066477Y-119734341D01*
X185001576Y-119520394D01*
X184896184Y-119323218D01*
X184789889Y-119193697D01*
X184701377Y-119105185D01*
X184669701Y-119045923D01*
X184662178Y-119021124D01*
X184584731Y-118876232D01*
X184480506Y-118749234D01*
X184353508Y-118645009D01*
X184254037Y-118591840D01*
X188203573Y-118591840D01*
X188169616Y-118633217D01*
X188064224Y-118830393D01*
X187999323Y-119044341D01*
X187977409Y-119266840D01*
X187999323Y-119489339D01*
X188064224Y-119703287D01*
X188169616Y-119900463D01*
X188311451Y-120073289D01*
X188405509Y-120150481D01*
X188249646Y-120165832D01*
X188083050Y-120216368D01*
X187929514Y-120298435D01*
X187794938Y-120408878D01*
X187684495Y-120543454D01*
X187602428Y-120696990D01*
X187551892Y-120863586D01*
X187534828Y-121036840D01*
X187534828Y-121536840D01*
X187551892Y-121710094D01*
X187602428Y-121876690D01*
X187684495Y-122030226D01*
X187794938Y-122164802D01*
X187801494Y-122170182D01*
X187721715Y-122235655D01*
X187642363Y-122332346D01*
X187583398Y-122442660D01*
X187547088Y-122562358D01*
X187534828Y-122686840D01*
X187537900Y-122901090D01*
X187696650Y-123059840D01*
X188770900Y-123059840D01*
X188770900Y-123039840D01*
X189024900Y-123039840D01*
X189024900Y-123059840D01*
X190099150Y-123059840D01*
X190257900Y-122901090D01*
X190260972Y-122686840D01*
X190248712Y-122562358D01*
X190212402Y-122442660D01*
X190153437Y-122332346D01*
X190074085Y-122235655D01*
X189994306Y-122170182D01*
X190000862Y-122164802D01*
X190111305Y-122030226D01*
X190193372Y-121876690D01*
X190243908Y-121710094D01*
X190260972Y-121536840D01*
X190260972Y-121036840D01*
X190243908Y-120863586D01*
X190193372Y-120696990D01*
X190111305Y-120543454D01*
X190000862Y-120408878D01*
X189866286Y-120298435D01*
X189740973Y-120231453D01*
X189771523Y-120215124D01*
X189944349Y-120073289D01*
X190086184Y-119900463D01*
X190191576Y-119703287D01*
X190256477Y-119489339D01*
X190278391Y-119266840D01*
X190256477Y-119044341D01*
X190191576Y-118830393D01*
X190086184Y-118633217D01*
X190052227Y-118591840D01*
X197454431Y-118591840D01*
X197497900Y-118596121D01*
X197541369Y-118591840D01*
X197541377Y-118591840D01*
X197671390Y-118579035D01*
X197838213Y-118528429D01*
X197991959Y-118446251D01*
X198126717Y-118335657D01*
X198154434Y-118301884D01*
X199182944Y-117273375D01*
X199239798Y-117262066D01*
X199428156Y-117184045D01*
X199597674Y-117070777D01*
X199741837Y-116926614D01*
X199855105Y-116757096D01*
X199933126Y-116568738D01*
X199972900Y-116368779D01*
X199972900Y-116164901D01*
X199933126Y-115964942D01*
X199855105Y-115776584D01*
X199741837Y-115607066D01*
X199597674Y-115462903D01*
X199428156Y-115349635D01*
X199239798Y-115271614D01*
X199039839Y-115231840D01*
X198835961Y-115231840D01*
X198636002Y-115271614D01*
X198447644Y-115349635D01*
X198278126Y-115462903D01*
X198133963Y-115607066D01*
X198020695Y-115776584D01*
X197942674Y-115964942D01*
X197931365Y-116021796D01*
X197131322Y-116821840D01*
X179455972Y-116821840D01*
X179455972Y-116606840D01*
X179443712Y-116482358D01*
X179407402Y-116362660D01*
X179348437Y-116252346D01*
X179269085Y-116155655D01*
X179172394Y-116076303D01*
X179064900Y-116018845D01*
X179064900Y-111787013D01*
X186972900Y-111787013D01*
X186972900Y-112266667D01*
X187066476Y-112737103D01*
X187250031Y-113180245D01*
X187516512Y-113579062D01*
X187855678Y-113918228D01*
X188254495Y-114184709D01*
X188697637Y-114368264D01*
X189168073Y-114461840D01*
X189647727Y-114461840D01*
X190118163Y-114368264D01*
X190561305Y-114184709D01*
X190960122Y-113918228D01*
X191299288Y-113579062D01*
X191565769Y-113180245D01*
X191749324Y-112737103D01*
X191842900Y-112266667D01*
X191842900Y-111787013D01*
X191749324Y-111316577D01*
X191565769Y-110873435D01*
X191299288Y-110474618D01*
X190960122Y-110135452D01*
X190579359Y-109881034D01*
X190753156Y-109809045D01*
X190801354Y-109776840D01*
X194146322Y-109776840D01*
X200081365Y-115711884D01*
X200092674Y-115768738D01*
X200170695Y-115957096D01*
X200283963Y-116126614D01*
X200428126Y-116270777D01*
X200597644Y-116384045D01*
X200786002Y-116462066D01*
X200985961Y-116501840D01*
X201189839Y-116501840D01*
X201389798Y-116462066D01*
X201578156Y-116384045D01*
X201747674Y-116270777D01*
X201891837Y-116126614D01*
X202005105Y-115957096D01*
X202083126Y-115768738D01*
X202122900Y-115568779D01*
X202122900Y-115364901D01*
X202083126Y-115164942D01*
X202005105Y-114976584D01*
X201891837Y-114807066D01*
X201747674Y-114662903D01*
X201578156Y-114549635D01*
X201389798Y-114471614D01*
X201332944Y-114460305D01*
X195169434Y-108296796D01*
X195141717Y-108263023D01*
X195006959Y-108152429D01*
X194853213Y-108070251D01*
X194686390Y-108019645D01*
X194556377Y-108006840D01*
X194556369Y-108006840D01*
X194512900Y-108002559D01*
X194469431Y-108006840D01*
X190801354Y-108006840D01*
X190753156Y-107974635D01*
X190564798Y-107896614D01*
X190364839Y-107856840D01*
X190160961Y-107856840D01*
X189961002Y-107896614D01*
X189772644Y-107974635D01*
X189603126Y-108087903D01*
X189458963Y-108232066D01*
X189345695Y-108401584D01*
X189267674Y-108589942D01*
X189227900Y-108789901D01*
X189227900Y-108993779D01*
X189267674Y-109193738D01*
X189345695Y-109382096D01*
X189458963Y-109551614D01*
X189499189Y-109591840D01*
X189168073Y-109591840D01*
X188697637Y-109685416D01*
X188254495Y-109868971D01*
X187855678Y-110135452D01*
X187516512Y-110474618D01*
X187250031Y-110873435D01*
X187066476Y-111316577D01*
X186972900Y-111787013D01*
X179064900Y-111787013D01*
X179064900Y-108866840D01*
X179062460Y-108842064D01*
X179055233Y-108818239D01*
X179043497Y-108796283D01*
X179027703Y-108777037D01*
X179008457Y-108761243D01*
X178986501Y-108749507D01*
X178962676Y-108742280D01*
X178937900Y-108739840D01*
X176264900Y-108739840D01*
X176264900Y-107588176D01*
X176373720Y-107646342D01*
X176493418Y-107682652D01*
X176617900Y-107694912D01*
X178817900Y-107694912D01*
X178942382Y-107682652D01*
X179062080Y-107646342D01*
X179172394Y-107587377D01*
X179269085Y-107508025D01*
X179348437Y-107411334D01*
X179407402Y-107301020D01*
X179443712Y-107181322D01*
X179455972Y-107056840D01*
X179455972Y-103856840D01*
X179443712Y-103732358D01*
X179407402Y-103612660D01*
X179348437Y-103502346D01*
X179269085Y-103405655D01*
X179172394Y-103326303D01*
X179062080Y-103267338D01*
X178942382Y-103231028D01*
X178817900Y-103218768D01*
X176617900Y-103218768D01*
X176493418Y-103231028D01*
X176373720Y-103267338D01*
X176264900Y-103325504D01*
X176264900Y-101338176D01*
X176373720Y-101396342D01*
X176493418Y-101432652D01*
X176617900Y-101444912D01*
X178817900Y-101444912D01*
X178942382Y-101432652D01*
X179062080Y-101396342D01*
X179172394Y-101337377D01*
X179269085Y-101258025D01*
X179348437Y-101161334D01*
X179407402Y-101051020D01*
X179443712Y-100931322D01*
X179455972Y-100806840D01*
X179455972Y-97606840D01*
X179443712Y-97482358D01*
X179407402Y-97362660D01*
X179348437Y-97252346D01*
X179269085Y-97155655D01*
X179172394Y-97076303D01*
X179062080Y-97017338D01*
X178942382Y-96981028D01*
X178817900Y-96968768D01*
X176617900Y-96968768D01*
X176493418Y-96981028D01*
X176373720Y-97017338D01*
X176264900Y-97075504D01*
X176264900Y-95266840D01*
X176262558Y-95242565D01*
X176255427Y-95218711D01*
X176243780Y-95196708D01*
X176228063Y-95177399D01*
X176208881Y-95161528D01*
X176186972Y-95149704D01*
X176163177Y-95142381D01*
X176138411Y-95139841D01*
X161218411Y-95079841D01*
X161193489Y-95082208D01*
X161169644Y-95089365D01*
X161147653Y-95101037D01*
X161128361Y-95116774D01*
X161112511Y-95135973D01*
X161100710Y-95157895D01*
X161093414Y-95181698D01*
X161090901Y-95206467D01*
X161011505Y-122260697D01*
X161010900Y-122266840D01*
X161010900Y-122466840D01*
X161013268Y-122491251D01*
X161020425Y-122515096D01*
X161032097Y-122537087D01*
X161047834Y-122556379D01*
X161067033Y-122572229D01*
X161088955Y-122584030D01*
X161112758Y-122591326D01*
X161137527Y-122593839D01*
X161162311Y-122591472D01*
X161186156Y-122584315D01*
X161208147Y-122572643D01*
X161227439Y-122556906D01*
X161243289Y-122537707D01*
X161255090Y-122515785D01*
X161262386Y-122491982D01*
X161264899Y-122467213D01*
X161265114Y-122393840D01*
X176337900Y-122393840D01*
X176362676Y-122391400D01*
X176386501Y-122384173D01*
X176408457Y-122372437D01*
X176427703Y-122356643D01*
X176443497Y-122337397D01*
X176455233Y-122315441D01*
X176462460Y-122291616D01*
X176464900Y-122266840D01*
X176464900Y-122174001D01*
X176493418Y-122182652D01*
X176617900Y-122194912D01*
X177432150Y-122191840D01*
X177590900Y-122033090D01*
X177590900Y-120583840D01*
X177570900Y-120583840D01*
X177570900Y-120329840D01*
X177590900Y-120329840D01*
X177590900Y-120309840D01*
X177844900Y-120309840D01*
X177844900Y-120329840D01*
X179294150Y-120329840D01*
X179452900Y-120171090D01*
X179455972Y-119356840D01*
X179443712Y-119232358D01*
X179407402Y-119112660D01*
X179390928Y-119081840D01*
X179407402Y-119051020D01*
X179443712Y-118931322D01*
X179455972Y-118806840D01*
X179455972Y-118591840D01*
X181471763Y-118591840D01*
X181372292Y-118645009D01*
X181245294Y-118749234D01*
X181141069Y-118876232D01*
X181063622Y-119021124D01*
X181015931Y-119178340D01*
X180999828Y-119341840D01*
X180999828Y-119891840D01*
X181015931Y-120055340D01*
X181063622Y-120212556D01*
X181141069Y-120357448D01*
X181152900Y-120371865D01*
X181152901Y-120985260D01*
X180830394Y-121307768D01*
X180290400Y-121307768D01*
X180165918Y-121320028D01*
X180046220Y-121356338D01*
X179935906Y-121415303D01*
X179879200Y-121461840D01*
X179455614Y-121461840D01*
X179452900Y-120742590D01*
X179294150Y-120583840D01*
X177844900Y-120583840D01*
X177844900Y-122033090D01*
X177983504Y-122171694D01*
X175002851Y-125152347D01*
X174969084Y-125180059D01*
X174941371Y-125213827D01*
X174941368Y-125213830D01*
X174858490Y-125314817D01*
X174776312Y-125468563D01*
X174725705Y-125635386D01*
X174708619Y-125808876D01*
X174712901Y-125852355D01*
X174712900Y-128422184D01*
X174651268Y-128463365D01*
X174444425Y-128670208D01*
X174322705Y-128852374D01*
X174253078Y-128735485D01*
X174058169Y-128519252D01*
X173824820Y-128345199D01*
X173561999Y-128220015D01*
X173414790Y-128175364D01*
X173184900Y-128296685D01*
X173184900Y-129489840D01*
X173204900Y-129489840D01*
X173204900Y-129743840D01*
X173184900Y-129743840D01*
X173184900Y-129763840D01*
X172930900Y-129763840D01*
X172930900Y-129743840D01*
X171737086Y-129743840D01*
X171616419Y-129973731D01*
X171713743Y-130248092D01*
X171804660Y-130400721D01*
X171788084Y-130396005D01*
X169823191Y-129676270D01*
X168903409Y-129259949D01*
X171616419Y-129259949D01*
X171737086Y-129489840D01*
X172930900Y-129489840D01*
X172930900Y-128296685D01*
X172701010Y-128175364D01*
X172553801Y-128220015D01*
X172290980Y-128345199D01*
X172057631Y-128519252D01*
X171862722Y-128735485D01*
X171713743Y-128985588D01*
X171616419Y-129259949D01*
X168903409Y-129259949D01*
X167916818Y-128813389D01*
X166079378Y-127812073D01*
X164320905Y-126677792D01*
X162651003Y-125416741D01*
X161078793Y-124035807D01*
X159612863Y-122542532D01*
X158261217Y-120945073D01*
X157031239Y-119252153D01*
X155929646Y-117473020D01*
X154962456Y-115617390D01*
X154134949Y-113695398D01*
X153451646Y-111717541D01*
X152916279Y-109694621D01*
X152531771Y-107637688D01*
X152300223Y-105557974D01*
X152222900Y-103466840D01*
X152300223Y-101375706D01*
X152531771Y-99295992D01*
X152916279Y-97239059D01*
X153451646Y-95216139D01*
X154134949Y-93238282D01*
X154962456Y-91316290D01*
X155691876Y-89916840D01*
X160469828Y-89916840D01*
X160469828Y-94416840D01*
X160482088Y-94541322D01*
X160518398Y-94661020D01*
X160577363Y-94771334D01*
X160656715Y-94868025D01*
X160753406Y-94947377D01*
X160863720Y-95006342D01*
X160983418Y-95042652D01*
X161107900Y-95054912D01*
X163607900Y-95054912D01*
X163732382Y-95042652D01*
X163852080Y-95006342D01*
X163962394Y-94947377D01*
X164059085Y-94868025D01*
X164138437Y-94771334D01*
X164197402Y-94661020D01*
X164233712Y-94541322D01*
X164245972Y-94416840D01*
X164245972Y-89916840D01*
X164233712Y-89792358D01*
X164197402Y-89672660D01*
X164138437Y-89562346D01*
X164059085Y-89465655D01*
X163962394Y-89386303D01*
X163852080Y-89327338D01*
X163732382Y-89291028D01*
X163607900Y-89278768D01*
X163492900Y-89278768D01*
X163492900Y-86146971D01*
X167348032Y-82291840D01*
X167936278Y-82291840D01*
X167544651Y-82410639D01*
X167086890Y-82655318D01*
X166786203Y-82902085D01*
X166036202Y-83652086D01*
X165935660Y-83734599D01*
X165606378Y-84135829D01*
X165497091Y-84340291D01*
X165361699Y-84593591D01*
X165211027Y-85090291D01*
X165160152Y-85606840D01*
X165172901Y-85736284D01*
X165172900Y-92296281D01*
X165211027Y-92683389D01*
X165361699Y-93180089D01*
X165606377Y-93637850D01*
X165935659Y-94039081D01*
X166336889Y-94368363D01*
X166369952Y-94386035D01*
X166468556Y-94506185D01*
X166755584Y-94741743D01*
X167083053Y-94916779D01*
X167438377Y-95024565D01*
X167807900Y-95060960D01*
X168177424Y-95024565D01*
X168532748Y-94916779D01*
X168860217Y-94741743D01*
X169147245Y-94506185D01*
X169245851Y-94386033D01*
X169278910Y-94368363D01*
X169680141Y-94039081D01*
X170009423Y-93637851D01*
X170254101Y-93180090D01*
X170404773Y-92683390D01*
X170442900Y-92296282D01*
X170442900Y-92293840D01*
X171372900Y-92293840D01*
X171372900Y-93293840D01*
X171433896Y-93659145D01*
X171564988Y-94005531D01*
X171761137Y-94319687D01*
X172014806Y-94589539D01*
X172316247Y-94804718D01*
X172653875Y-94956954D01*
X172838255Y-95004535D01*
X173130900Y-94888412D01*
X173130900Y-92293840D01*
X173384900Y-92293840D01*
X173384900Y-94888412D01*
X173677545Y-95004535D01*
X173861925Y-94956954D01*
X174199553Y-94804718D01*
X174500994Y-94589539D01*
X174754663Y-94319687D01*
X174950812Y-94005531D01*
X175081904Y-93659145D01*
X175142900Y-93293840D01*
X175142900Y-92293840D01*
X182072900Y-92293840D01*
X182072900Y-93293840D01*
X182133896Y-93659145D01*
X182264988Y-94005531D01*
X182461137Y-94319687D01*
X182714806Y-94589539D01*
X183016247Y-94804718D01*
X183353875Y-94956954D01*
X183538255Y-95004535D01*
X183830900Y-94888412D01*
X183830900Y-92293840D01*
X184084900Y-92293840D01*
X184084900Y-94888412D01*
X184377545Y-95004535D01*
X184561925Y-94956954D01*
X184899553Y-94804718D01*
X185200994Y-94589539D01*
X185454663Y-94319687D01*
X185650812Y-94005531D01*
X185781904Y-93659145D01*
X185842900Y-93293840D01*
X185842900Y-92293840D01*
X184084900Y-92293840D01*
X183830900Y-92293840D01*
X182072900Y-92293840D01*
X175142900Y-92293840D01*
X173384900Y-92293840D01*
X173130900Y-92293840D01*
X171372900Y-92293840D01*
X170442900Y-92293840D01*
X170442900Y-91039840D01*
X171372900Y-91039840D01*
X171372900Y-92039840D01*
X173130900Y-92039840D01*
X173130900Y-89445268D01*
X173384900Y-89445268D01*
X173384900Y-92039840D01*
X175142900Y-92039840D01*
X175142900Y-91039840D01*
X182072900Y-91039840D01*
X182072900Y-92039840D01*
X183830900Y-92039840D01*
X183830900Y-89445268D01*
X184084900Y-89445268D01*
X184084900Y-92039840D01*
X185842900Y-92039840D01*
X185842900Y-91039840D01*
X185781904Y-90674535D01*
X185650812Y-90328149D01*
X185454663Y-90013993D01*
X185200994Y-89744141D01*
X184899553Y-89528962D01*
X184561925Y-89376726D01*
X184377545Y-89329145D01*
X184084900Y-89445268D01*
X183830900Y-89445268D01*
X183538255Y-89329145D01*
X183353875Y-89376726D01*
X183016247Y-89528962D01*
X182714806Y-89744141D01*
X182461137Y-90013993D01*
X182264988Y-90328149D01*
X182133896Y-90674535D01*
X182072900Y-91039840D01*
X175142900Y-91039840D01*
X175081904Y-90674535D01*
X174950812Y-90328149D01*
X174754663Y-90013993D01*
X174500994Y-89744141D01*
X174199553Y-89528962D01*
X173861925Y-89376726D01*
X173677545Y-89329145D01*
X173384900Y-89445268D01*
X173130900Y-89445268D01*
X172838255Y-89329145D01*
X172653875Y-89376726D01*
X172316247Y-89528962D01*
X172014806Y-89744141D01*
X171761137Y-90013993D01*
X171564988Y-90328149D01*
X171433896Y-90674535D01*
X171372900Y-91039840D01*
X170442900Y-91039840D01*
X170442900Y-86698292D01*
X170512655Y-86628537D01*
X170759422Y-86327850D01*
X171004101Y-85870089D01*
X171057900Y-85692738D01*
X171111699Y-85870090D01*
X171356377Y-86327851D01*
X171685659Y-86729081D01*
X172086889Y-87058363D01*
X172544650Y-87303041D01*
X173041350Y-87453713D01*
X173428458Y-87491840D01*
X183887342Y-87491840D01*
X184274450Y-87453713D01*
X184771150Y-87303041D01*
X185228911Y-87058363D01*
X185630141Y-86729081D01*
X185959423Y-86327851D01*
X186204101Y-85870090D01*
X186257900Y-85692738D01*
X186311699Y-85870089D01*
X186556378Y-86327850D01*
X186772901Y-86591684D01*
X186772900Y-92296281D01*
X186811027Y-92683389D01*
X186961699Y-93180089D01*
X187206377Y-93637850D01*
X187535659Y-94039081D01*
X187936889Y-94368363D01*
X187969950Y-94386034D01*
X188068555Y-94506185D01*
X188355583Y-94741743D01*
X188683052Y-94916779D01*
X189038376Y-95024565D01*
X189407900Y-95060960D01*
X189777423Y-95024565D01*
X190132747Y-94916779D01*
X190460217Y-94741743D01*
X190747245Y-94506185D01*
X190845851Y-94386033D01*
X190878910Y-94368363D01*
X191280141Y-94039081D01*
X191609423Y-93637851D01*
X191854101Y-93180090D01*
X192004773Y-92683390D01*
X192042900Y-92296282D01*
X192042900Y-85636274D01*
X192055648Y-85506840D01*
X192042900Y-85377406D01*
X192042900Y-85377398D01*
X192004773Y-84990290D01*
X191854101Y-84493590D01*
X191609423Y-84035829D01*
X191280141Y-83634599D01*
X191179589Y-83552078D01*
X190529597Y-82902085D01*
X190228910Y-82655318D01*
X189771149Y-82410639D01*
X189379520Y-82291840D01*
X190457769Y-82291840D01*
X193722901Y-85556973D01*
X193722900Y-89278768D01*
X193607900Y-89278768D01*
X193483418Y-89291028D01*
X193363720Y-89327338D01*
X193253406Y-89386303D01*
X193156715Y-89465655D01*
X193077363Y-89562346D01*
X193018398Y-89672660D01*
X192982088Y-89792358D01*
X192969828Y-89916840D01*
X192969828Y-94416840D01*
X192982088Y-94541322D01*
X193018398Y-94661020D01*
X193077363Y-94771334D01*
X193156715Y-94868025D01*
X193253406Y-94947377D01*
X193363720Y-95006342D01*
X193483418Y-95042652D01*
X193607900Y-95054912D01*
X196107900Y-95054912D01*
X196232382Y-95042652D01*
X196352080Y-95006342D01*
X196462394Y-94947377D01*
X196559085Y-94868025D01*
X196638437Y-94771334D01*
X196697402Y-94661020D01*
X196733712Y-94541322D01*
X196745972Y-94416840D01*
X196745972Y-89916840D01*
X196733712Y-89792358D01*
X196697402Y-89672660D01*
X196638437Y-89562346D01*
X196559085Y-89465655D01*
X196462394Y-89386303D01*
X196352080Y-89327338D01*
X196232382Y-89291028D01*
X196107900Y-89278768D01*
X195992900Y-89278768D01*
X195992900Y-85142581D01*
X195998390Y-85086839D01*
X195992900Y-85031097D01*
X195992900Y-85031088D01*
X195976477Y-84864341D01*
X195911576Y-84650393D01*
X195806184Y-84453217D01*
X195664349Y-84280391D01*
X195621041Y-84244849D01*
X191769896Y-80393705D01*
X191734349Y-80350391D01*
X191561523Y-80208556D01*
X191364347Y-80103164D01*
X191150399Y-80038263D01*
X190983652Y-80021840D01*
X190983651Y-80021840D01*
X190927900Y-80016349D01*
X190872149Y-80021840D01*
X166933641Y-80021840D01*
X166877899Y-80016350D01*
X166822157Y-80021840D01*
X166822148Y-80021840D01*
X166655401Y-80038263D01*
X166441453Y-80103164D01*
X166244277Y-80208556D01*
X166071451Y-80350391D01*
X166035909Y-80393699D01*
X161594760Y-84834849D01*
X161551452Y-84870391D01*
X161409617Y-85043217D01*
X161353284Y-85148610D01*
X161304224Y-85240394D01*
X161239323Y-85454342D01*
X161217409Y-85676840D01*
X161222901Y-85732601D01*
X161222900Y-89278768D01*
X161107900Y-89278768D01*
X160983418Y-89291028D01*
X160863720Y-89327338D01*
X160753406Y-89386303D01*
X160656715Y-89465655D01*
X160577363Y-89562346D01*
X160518398Y-89672660D01*
X160482088Y-89792358D01*
X160469828Y-89916840D01*
X155691876Y-89916840D01*
X155929646Y-89460660D01*
X157031239Y-87681527D01*
X158261217Y-85988607D01*
X159612863Y-84391148D01*
X161078793Y-82897873D01*
X162651003Y-81516939D01*
X164320905Y-80255888D01*
X166079378Y-79121607D01*
X167916818Y-78120291D01*
X169823191Y-77257410D01*
X171788084Y-76537675D01*
X173800765Y-75965018D01*
X175850242Y-75542566D01*
X177925321Y-75272627D01*
X180014670Y-75156675D01*
X182106876Y-75195343D01*
%TA.AperFunction,Conductor*%
D32*
G36*
X182106876Y-75195343D02*
G01*
X184190513Y-75388420D01*
X186254200Y-75734852D01*
X188286668Y-76232747D01*
X190276814Y-76879385D01*
X192213769Y-77671234D01*
X194086955Y-78603969D01*
X195886141Y-79672498D01*
X197601500Y-80870982D01*
X199223663Y-82192878D01*
X200743772Y-83630964D01*
X202153522Y-85177387D01*
X203445216Y-86823701D01*
X204611798Y-88560913D01*
X205646897Y-90379537D01*
X206544859Y-92269639D01*
X207300780Y-94220896D01*
X207910532Y-96222652D01*
X208370783Y-98263972D01*
X208679021Y-100333709D01*
X208833563Y-102420558D01*
X208833563Y-104513122D01*
X208679021Y-106599971D01*
X208370783Y-108669708D01*
X207910532Y-110711028D01*
X207300780Y-112712784D01*
X206544859Y-114664041D01*
X205646897Y-116554143D01*
X204611798Y-118372767D01*
X203445216Y-120109979D01*
X202153522Y-121756293D01*
X200743772Y-123302716D01*
X199223663Y-124740802D01*
X197601500Y-126062698D01*
X195886141Y-127261182D01*
X194086955Y-128329711D01*
X192213769Y-129262446D01*
X190276814Y-130054295D01*
X188286668Y-130700933D01*
X186865815Y-131049000D01*
X186962394Y-130997377D01*
X187059085Y-130918025D01*
X187138437Y-130821334D01*
X187197402Y-130711020D01*
X187233712Y-130591322D01*
X187245972Y-130466840D01*
X187245972Y-128766840D01*
X187233712Y-128642358D01*
X187197402Y-128522660D01*
X187138437Y-128412346D01*
X187059085Y-128315655D01*
X186962394Y-128236303D01*
X186852080Y-128177338D01*
X186732382Y-128141028D01*
X186607900Y-128128768D01*
X185874960Y-128128768D01*
X185172900Y-127426709D01*
X185172900Y-127184832D01*
X185285400Y-127195912D01*
X185752150Y-127192840D01*
X185910900Y-127034090D01*
X185910900Y-126283840D01*
X186164900Y-126283840D01*
X186164900Y-127034090D01*
X186323650Y-127192840D01*
X186790400Y-127195912D01*
X186914882Y-127183652D01*
X187034580Y-127147342D01*
X187144894Y-127088377D01*
X187241585Y-127009025D01*
X187320937Y-126912334D01*
X187379902Y-126802020D01*
X187416212Y-126682322D01*
X187428472Y-126557840D01*
X187425400Y-126442590D01*
X187266650Y-126283840D01*
X186164900Y-126283840D01*
X185910900Y-126283840D01*
X185890900Y-126283840D01*
X185890900Y-126029840D01*
X185910900Y-126029840D01*
X185910900Y-125013840D01*
X186164900Y-125013840D01*
X186164900Y-126029840D01*
X187266650Y-126029840D01*
X187425400Y-125871090D01*
X187428472Y-125755840D01*
X187416212Y-125631358D01*
X187382990Y-125521840D01*
X187416212Y-125412322D01*
X187428472Y-125287840D01*
X187425400Y-125172590D01*
X187266650Y-125013840D01*
X186164900Y-125013840D01*
X185910900Y-125013840D01*
X185890900Y-125013840D01*
X185890900Y-124759840D01*
X185910900Y-124759840D01*
X185910900Y-123743840D01*
X186164900Y-123743840D01*
X186164900Y-124759840D01*
X187266650Y-124759840D01*
X187425400Y-124601090D01*
X187428472Y-124485840D01*
X187416212Y-124361358D01*
X187382990Y-124251840D01*
X187416212Y-124142322D01*
X187428472Y-124017840D01*
X187425400Y-123902590D01*
X187266650Y-123743840D01*
X186164900Y-123743840D01*
X185910900Y-123743840D01*
X185890900Y-123743840D01*
X185890900Y-123686840D01*
X187534828Y-123686840D01*
X187547088Y-123811322D01*
X187583398Y-123931020D01*
X187642363Y-124041334D01*
X187721715Y-124138025D01*
X187818406Y-124217377D01*
X187928720Y-124276342D01*
X188048418Y-124312652D01*
X188172900Y-124324912D01*
X188612150Y-124321840D01*
X188770900Y-124163090D01*
X188770900Y-123313840D01*
X189024900Y-123313840D01*
X189024900Y-124163090D01*
X189183650Y-124321840D01*
X189622900Y-124324912D01*
X189747382Y-124312652D01*
X189867080Y-124276342D01*
X189977394Y-124217377D01*
X190074085Y-124138025D01*
X190153437Y-124041334D01*
X190212402Y-123931020D01*
X190248712Y-123811322D01*
X190260972Y-123686840D01*
X190257900Y-123472590D01*
X190099150Y-123313840D01*
X189024900Y-123313840D01*
X188770900Y-123313840D01*
X187696650Y-123313840D01*
X187537900Y-123472590D01*
X187534828Y-123686840D01*
X185890900Y-123686840D01*
X185890900Y-123489840D01*
X185910900Y-123489840D01*
X185910900Y-123481840D01*
X186093652Y-123481840D01*
X186164900Y-123474823D01*
X186164900Y-123489840D01*
X187266650Y-123489840D01*
X187425400Y-123331090D01*
X187428472Y-123215840D01*
X187416212Y-123091358D01*
X187382990Y-122981840D01*
X187416212Y-122872322D01*
X187428472Y-122747840D01*
X187428472Y-121945840D01*
X187416212Y-121821358D01*
X187379902Y-121701660D01*
X187320937Y-121591346D01*
X187241585Y-121494655D01*
X187144894Y-121415303D01*
X187034580Y-121356338D01*
X186914882Y-121320028D01*
X186790400Y-121307768D01*
X186501669Y-121307768D01*
X186474347Y-121293164D01*
X186260399Y-121228263D01*
X186093652Y-121211840D01*
X184950149Y-121211840D01*
X184894397Y-121206349D01*
X184838646Y-121211840D01*
X184671899Y-121228263D01*
X184457951Y-121293164D01*
X184260775Y-121398556D01*
X184087949Y-121540391D01*
X184052406Y-121583700D01*
X183274760Y-122361347D01*
X183231452Y-122396889D01*
X183089617Y-122569715D01*
X183078760Y-122590028D01*
X182984224Y-122766892D01*
X182919323Y-122980840D01*
X182897409Y-123203338D01*
X182902901Y-123259099D01*
X182902900Y-127011840D01*
X182243155Y-127011840D01*
X182246585Y-127009025D01*
X182325937Y-126912334D01*
X182384902Y-126802020D01*
X182421212Y-126682322D01*
X182433472Y-126557840D01*
X182430400Y-126442590D01*
X182271650Y-126283840D01*
X181169900Y-126283840D01*
X181169900Y-126303840D01*
X180915900Y-126303840D01*
X180915900Y-126283840D01*
X179814150Y-126283840D01*
X179655400Y-126442590D01*
X179652328Y-126557840D01*
X179664588Y-126682322D01*
X179700898Y-126802020D01*
X179759863Y-126912334D01*
X179839215Y-127009025D01*
X179842645Y-127011840D01*
X179657279Y-127011840D01*
X179370972Y-126725534D01*
X179370972Y-126664040D01*
X179354869Y-126500540D01*
X179307178Y-126343324D01*
X179229731Y-126198432D01*
X179125506Y-126071434D01*
X178998508Y-125967209D01*
X178853616Y-125889762D01*
X178696400Y-125842071D01*
X178532900Y-125825968D01*
X178132900Y-125825968D01*
X177969400Y-125842071D01*
X177812184Y-125889762D01*
X177696971Y-125951345D01*
X179146477Y-124501840D01*
X179652328Y-124501840D01*
X179652328Y-125287840D01*
X179664588Y-125412322D01*
X179697810Y-125521840D01*
X179664588Y-125631358D01*
X179652328Y-125755840D01*
X179655400Y-125871090D01*
X179814150Y-126029840D01*
X180915900Y-126029840D01*
X180915900Y-126009840D01*
X181169900Y-126009840D01*
X181169900Y-126029840D01*
X182271650Y-126029840D01*
X182430400Y-125871090D01*
X182433472Y-125755840D01*
X182421212Y-125631358D01*
X182387990Y-125521840D01*
X182421212Y-125412322D01*
X182433472Y-125287840D01*
X182433472Y-124485840D01*
X182421212Y-124361358D01*
X182387990Y-124251840D01*
X182421212Y-124142322D01*
X182433472Y-124017840D01*
X182433472Y-123215840D01*
X182421212Y-123091358D01*
X182387990Y-122981840D01*
X182421212Y-122872322D01*
X182433472Y-122747840D01*
X182433472Y-122207847D01*
X182632949Y-122008370D01*
X182666717Y-121980657D01*
X182723610Y-121911334D01*
X182777310Y-121845900D01*
X182790428Y-121821358D01*
X182859489Y-121692153D01*
X182910095Y-121525330D01*
X182922900Y-121395317D01*
X182922900Y-121395307D01*
X182927181Y-121351841D01*
X182922900Y-121308375D01*
X182922900Y-120537305D01*
X182924762Y-120538834D01*
X183184757Y-120798829D01*
X183314278Y-120905124D01*
X183511454Y-121010516D01*
X183725401Y-121075417D01*
X183947900Y-121097331D01*
X184170399Y-121075417D01*
X184384347Y-121010516D01*
X184581523Y-120905124D01*
X184754349Y-120763289D01*
X184896184Y-120590463D01*
X185001576Y-120393287D01*
X185066477Y-120179339D01*
X185088391Y-119956840D01*
X185066477Y-119734341D01*
X185001576Y-119520394D01*
X184896184Y-119323218D01*
X184789889Y-119193697D01*
X184701377Y-119105185D01*
X184669701Y-119045923D01*
X184662178Y-119021124D01*
X184584731Y-118876232D01*
X184480506Y-118749234D01*
X184353508Y-118645009D01*
X184254037Y-118591840D01*
X188203573Y-118591840D01*
X188169616Y-118633217D01*
X188064224Y-118830393D01*
X187999323Y-119044341D01*
X187977409Y-119266840D01*
X187999323Y-119489339D01*
X188064224Y-119703287D01*
X188169616Y-119900463D01*
X188311451Y-120073289D01*
X188405509Y-120150481D01*
X188249646Y-120165832D01*
X188083050Y-120216368D01*
X187929514Y-120298435D01*
X187794938Y-120408878D01*
X187684495Y-120543454D01*
X187602428Y-120696990D01*
X187551892Y-120863586D01*
X187534828Y-121036840D01*
X187534828Y-121536840D01*
X187551892Y-121710094D01*
X187602428Y-121876690D01*
X187684495Y-122030226D01*
X187794938Y-122164802D01*
X187801494Y-122170182D01*
X187721715Y-122235655D01*
X187642363Y-122332346D01*
X187583398Y-122442660D01*
X187547088Y-122562358D01*
X187534828Y-122686840D01*
X187537900Y-122901090D01*
X187696650Y-123059840D01*
X188770900Y-123059840D01*
X188770900Y-123039840D01*
X189024900Y-123039840D01*
X189024900Y-123059840D01*
X190099150Y-123059840D01*
X190257900Y-122901090D01*
X190260972Y-122686840D01*
X190248712Y-122562358D01*
X190212402Y-122442660D01*
X190153437Y-122332346D01*
X190074085Y-122235655D01*
X189994306Y-122170182D01*
X190000862Y-122164802D01*
X190111305Y-122030226D01*
X190193372Y-121876690D01*
X190243908Y-121710094D01*
X190260972Y-121536840D01*
X190260972Y-121036840D01*
X190243908Y-120863586D01*
X190193372Y-120696990D01*
X190111305Y-120543454D01*
X190000862Y-120408878D01*
X189866286Y-120298435D01*
X189740973Y-120231453D01*
X189771523Y-120215124D01*
X189944349Y-120073289D01*
X190086184Y-119900463D01*
X190191576Y-119703287D01*
X190256477Y-119489339D01*
X190278391Y-119266840D01*
X190256477Y-119044341D01*
X190191576Y-118830393D01*
X190086184Y-118633217D01*
X190052227Y-118591840D01*
X197454431Y-118591840D01*
X197497900Y-118596121D01*
X197541369Y-118591840D01*
X197541377Y-118591840D01*
X197671390Y-118579035D01*
X197838213Y-118528429D01*
X197991959Y-118446251D01*
X198126717Y-118335657D01*
X198154434Y-118301884D01*
X199182944Y-117273375D01*
X199239798Y-117262066D01*
X199428156Y-117184045D01*
X199597674Y-117070777D01*
X199741837Y-116926614D01*
X199855105Y-116757096D01*
X199933126Y-116568738D01*
X199972900Y-116368779D01*
X199972900Y-116164901D01*
X199933126Y-115964942D01*
X199855105Y-115776584D01*
X199741837Y-115607066D01*
X199597674Y-115462903D01*
X199428156Y-115349635D01*
X199239798Y-115271614D01*
X199039839Y-115231840D01*
X198835961Y-115231840D01*
X198636002Y-115271614D01*
X198447644Y-115349635D01*
X198278126Y-115462903D01*
X198133963Y-115607066D01*
X198020695Y-115776584D01*
X197942674Y-115964942D01*
X197931365Y-116021796D01*
X197131322Y-116821840D01*
X179455972Y-116821840D01*
X179455972Y-116606840D01*
X179443712Y-116482358D01*
X179407402Y-116362660D01*
X179348437Y-116252346D01*
X179269085Y-116155655D01*
X179172394Y-116076303D01*
X179064900Y-116018845D01*
X179064900Y-111787013D01*
X186972900Y-111787013D01*
X186972900Y-112266667D01*
X187066476Y-112737103D01*
X187250031Y-113180245D01*
X187516512Y-113579062D01*
X187855678Y-113918228D01*
X188254495Y-114184709D01*
X188697637Y-114368264D01*
X189168073Y-114461840D01*
X189647727Y-114461840D01*
X190118163Y-114368264D01*
X190561305Y-114184709D01*
X190960122Y-113918228D01*
X191299288Y-113579062D01*
X191565769Y-113180245D01*
X191749324Y-112737103D01*
X191842900Y-112266667D01*
X191842900Y-111787013D01*
X191749324Y-111316577D01*
X191565769Y-110873435D01*
X191299288Y-110474618D01*
X190960122Y-110135452D01*
X190579359Y-109881034D01*
X190753156Y-109809045D01*
X190801354Y-109776840D01*
X194146322Y-109776840D01*
X200081365Y-115711884D01*
X200092674Y-115768738D01*
X200170695Y-115957096D01*
X200283963Y-116126614D01*
X200428126Y-116270777D01*
X200597644Y-116384045D01*
X200786002Y-116462066D01*
X200985961Y-116501840D01*
X201189839Y-116501840D01*
X201389798Y-116462066D01*
X201578156Y-116384045D01*
X201747674Y-116270777D01*
X201891837Y-116126614D01*
X202005105Y-115957096D01*
X202083126Y-115768738D01*
X202122900Y-115568779D01*
X202122900Y-115364901D01*
X202083126Y-115164942D01*
X202005105Y-114976584D01*
X201891837Y-114807066D01*
X201747674Y-114662903D01*
X201578156Y-114549635D01*
X201389798Y-114471614D01*
X201332944Y-114460305D01*
X195169434Y-108296796D01*
X195141717Y-108263023D01*
X195006959Y-108152429D01*
X194853213Y-108070251D01*
X194686390Y-108019645D01*
X194556377Y-108006840D01*
X194556369Y-108006840D01*
X194512900Y-108002559D01*
X194469431Y-108006840D01*
X190801354Y-108006840D01*
X190753156Y-107974635D01*
X190564798Y-107896614D01*
X190364839Y-107856840D01*
X190160961Y-107856840D01*
X189961002Y-107896614D01*
X189772644Y-107974635D01*
X189603126Y-108087903D01*
X189458963Y-108232066D01*
X189345695Y-108401584D01*
X189267674Y-108589942D01*
X189227900Y-108789901D01*
X189227900Y-108993779D01*
X189267674Y-109193738D01*
X189345695Y-109382096D01*
X189458963Y-109551614D01*
X189499189Y-109591840D01*
X189168073Y-109591840D01*
X188697637Y-109685416D01*
X188254495Y-109868971D01*
X187855678Y-110135452D01*
X187516512Y-110474618D01*
X187250031Y-110873435D01*
X187066476Y-111316577D01*
X186972900Y-111787013D01*
X179064900Y-111787013D01*
X179064900Y-108866840D01*
X179062460Y-108842064D01*
X179055233Y-108818239D01*
X179043497Y-108796283D01*
X179027703Y-108777037D01*
X179008457Y-108761243D01*
X178986501Y-108749507D01*
X178962676Y-108742280D01*
X178937900Y-108739840D01*
X176264900Y-108739840D01*
X176264900Y-107588176D01*
X176373720Y-107646342D01*
X176493418Y-107682652D01*
X176617900Y-107694912D01*
X178817900Y-107694912D01*
X178942382Y-107682652D01*
X179062080Y-107646342D01*
X179172394Y-107587377D01*
X179269085Y-107508025D01*
X179348437Y-107411334D01*
X179407402Y-107301020D01*
X179443712Y-107181322D01*
X179455972Y-107056840D01*
X179455972Y-103856840D01*
X179443712Y-103732358D01*
X179407402Y-103612660D01*
X179348437Y-103502346D01*
X179269085Y-103405655D01*
X179172394Y-103326303D01*
X179062080Y-103267338D01*
X178942382Y-103231028D01*
X178817900Y-103218768D01*
X176617900Y-103218768D01*
X176493418Y-103231028D01*
X176373720Y-103267338D01*
X176264900Y-103325504D01*
X176264900Y-101338176D01*
X176373720Y-101396342D01*
X176493418Y-101432652D01*
X176617900Y-101444912D01*
X178817900Y-101444912D01*
X178942382Y-101432652D01*
X179062080Y-101396342D01*
X179172394Y-101337377D01*
X179269085Y-101258025D01*
X179348437Y-101161334D01*
X179407402Y-101051020D01*
X179443712Y-100931322D01*
X179455972Y-100806840D01*
X179455972Y-97606840D01*
X179443712Y-97482358D01*
X179407402Y-97362660D01*
X179348437Y-97252346D01*
X179269085Y-97155655D01*
X179172394Y-97076303D01*
X179062080Y-97017338D01*
X178942382Y-96981028D01*
X178817900Y-96968768D01*
X176617900Y-96968768D01*
X176493418Y-96981028D01*
X176373720Y-97017338D01*
X176264900Y-97075504D01*
X176264900Y-95266840D01*
X176262558Y-95242565D01*
X176255427Y-95218711D01*
X176243780Y-95196708D01*
X176228063Y-95177399D01*
X176208881Y-95161528D01*
X176186972Y-95149704D01*
X176163177Y-95142381D01*
X176138411Y-95139841D01*
X161218411Y-95079841D01*
X161193489Y-95082208D01*
X161169644Y-95089365D01*
X161147653Y-95101037D01*
X161128361Y-95116774D01*
X161112511Y-95135973D01*
X161100710Y-95157895D01*
X161093414Y-95181698D01*
X161090901Y-95206467D01*
X161011505Y-122260697D01*
X161010900Y-122266840D01*
X161010900Y-122466840D01*
X161013268Y-122491251D01*
X161020425Y-122515096D01*
X161032097Y-122537087D01*
X161047834Y-122556379D01*
X161067033Y-122572229D01*
X161088955Y-122584030D01*
X161112758Y-122591326D01*
X161137527Y-122593839D01*
X161162311Y-122591472D01*
X161186156Y-122584315D01*
X161208147Y-122572643D01*
X161227439Y-122556906D01*
X161243289Y-122537707D01*
X161255090Y-122515785D01*
X161262386Y-122491982D01*
X161264899Y-122467213D01*
X161265114Y-122393840D01*
X176337900Y-122393840D01*
X176362676Y-122391400D01*
X176386501Y-122384173D01*
X176408457Y-122372437D01*
X176427703Y-122356643D01*
X176443497Y-122337397D01*
X176455233Y-122315441D01*
X176462460Y-122291616D01*
X176464900Y-122266840D01*
X176464900Y-122174001D01*
X176493418Y-122182652D01*
X176617900Y-122194912D01*
X177432150Y-122191840D01*
X177590900Y-122033090D01*
X177590900Y-120583840D01*
X177570900Y-120583840D01*
X177570900Y-120329840D01*
X177590900Y-120329840D01*
X177590900Y-120309840D01*
X177844900Y-120309840D01*
X177844900Y-120329840D01*
X179294150Y-120329840D01*
X179452900Y-120171090D01*
X179455972Y-119356840D01*
X179443712Y-119232358D01*
X179407402Y-119112660D01*
X179390928Y-119081840D01*
X179407402Y-119051020D01*
X179443712Y-118931322D01*
X179455972Y-118806840D01*
X179455972Y-118591840D01*
X181471763Y-118591840D01*
X181372292Y-118645009D01*
X181245294Y-118749234D01*
X181141069Y-118876232D01*
X181063622Y-119021124D01*
X181015931Y-119178340D01*
X180999828Y-119341840D01*
X180999828Y-119891840D01*
X181015931Y-120055340D01*
X181063622Y-120212556D01*
X181141069Y-120357448D01*
X181152900Y-120371865D01*
X181152901Y-120985260D01*
X180830394Y-121307768D01*
X180290400Y-121307768D01*
X180165918Y-121320028D01*
X180046220Y-121356338D01*
X179935906Y-121415303D01*
X179879200Y-121461840D01*
X179455614Y-121461840D01*
X179452900Y-120742590D01*
X179294150Y-120583840D01*
X177844900Y-120583840D01*
X177844900Y-122033090D01*
X177983504Y-122171694D01*
X175002851Y-125152347D01*
X174969084Y-125180059D01*
X174941371Y-125213827D01*
X174941368Y-125213830D01*
X174858490Y-125314817D01*
X174776312Y-125468563D01*
X174725705Y-125635386D01*
X174708619Y-125808876D01*
X174712901Y-125852355D01*
X174712900Y-128422184D01*
X174651268Y-128463365D01*
X174444425Y-128670208D01*
X174322705Y-128852374D01*
X174253078Y-128735485D01*
X174058169Y-128519252D01*
X173824820Y-128345199D01*
X173561999Y-128220015D01*
X173414790Y-128175364D01*
X173184900Y-128296685D01*
X173184900Y-129489840D01*
X173204900Y-129489840D01*
X173204900Y-129743840D01*
X173184900Y-129743840D01*
X173184900Y-129763840D01*
X172930900Y-129763840D01*
X172930900Y-129743840D01*
X171737086Y-129743840D01*
X171616419Y-129973731D01*
X171713743Y-130248092D01*
X171804660Y-130400721D01*
X171788084Y-130396005D01*
X169823191Y-129676270D01*
X168903409Y-129259949D01*
X171616419Y-129259949D01*
X171737086Y-129489840D01*
X172930900Y-129489840D01*
X172930900Y-128296685D01*
X172701010Y-128175364D01*
X172553801Y-128220015D01*
X172290980Y-128345199D01*
X172057631Y-128519252D01*
X171862722Y-128735485D01*
X171713743Y-128985588D01*
X171616419Y-129259949D01*
X168903409Y-129259949D01*
X167916818Y-128813389D01*
X166079378Y-127812073D01*
X164320905Y-126677792D01*
X162651003Y-125416741D01*
X161078793Y-124035807D01*
X159612863Y-122542532D01*
X158261217Y-120945073D01*
X157031239Y-119252153D01*
X155929646Y-117473020D01*
X154962456Y-115617390D01*
X154134949Y-113695398D01*
X153451646Y-111717541D01*
X152916279Y-109694621D01*
X152531771Y-107637688D01*
X152300223Y-105557974D01*
X152222900Y-103466840D01*
X152300223Y-101375706D01*
X152531771Y-99295992D01*
X152916279Y-97239059D01*
X153451646Y-95216139D01*
X154134949Y-93238282D01*
X154962456Y-91316290D01*
X155691876Y-89916840D01*
X160469828Y-89916840D01*
X160469828Y-94416840D01*
X160482088Y-94541322D01*
X160518398Y-94661020D01*
X160577363Y-94771334D01*
X160656715Y-94868025D01*
X160753406Y-94947377D01*
X160863720Y-95006342D01*
X160983418Y-95042652D01*
X161107900Y-95054912D01*
X163607900Y-95054912D01*
X163732382Y-95042652D01*
X163852080Y-95006342D01*
X163962394Y-94947377D01*
X164059085Y-94868025D01*
X164138437Y-94771334D01*
X164197402Y-94661020D01*
X164233712Y-94541322D01*
X164245972Y-94416840D01*
X164245972Y-89916840D01*
X164233712Y-89792358D01*
X164197402Y-89672660D01*
X164138437Y-89562346D01*
X164059085Y-89465655D01*
X163962394Y-89386303D01*
X163852080Y-89327338D01*
X163732382Y-89291028D01*
X163607900Y-89278768D01*
X163492900Y-89278768D01*
X163492900Y-86146971D01*
X167348032Y-82291840D01*
X167936278Y-82291840D01*
X167544651Y-82410639D01*
X167086890Y-82655318D01*
X166786203Y-82902085D01*
X166036202Y-83652086D01*
X165935660Y-83734599D01*
X165606378Y-84135829D01*
X165497091Y-84340291D01*
X165361699Y-84593591D01*
X165211027Y-85090291D01*
X165160152Y-85606840D01*
X165172901Y-85736284D01*
X165172900Y-92296281D01*
X165211027Y-92683389D01*
X165361699Y-93180089D01*
X165606377Y-93637850D01*
X165935659Y-94039081D01*
X166336889Y-94368363D01*
X166369952Y-94386035D01*
X166468556Y-94506185D01*
X166755584Y-94741743D01*
X167083053Y-94916779D01*
X167438377Y-95024565D01*
X167807900Y-95060960D01*
X168177424Y-95024565D01*
X168532748Y-94916779D01*
X168860217Y-94741743D01*
X169147245Y-94506185D01*
X169245851Y-94386033D01*
X169278910Y-94368363D01*
X169680141Y-94039081D01*
X170009423Y-93637851D01*
X170254101Y-93180090D01*
X170404773Y-92683390D01*
X170442900Y-92296282D01*
X170442900Y-92293840D01*
X171372900Y-92293840D01*
X171372900Y-93293840D01*
X171433896Y-93659145D01*
X171564988Y-94005531D01*
X171761137Y-94319687D01*
X172014806Y-94589539D01*
X172316247Y-94804718D01*
X172653875Y-94956954D01*
X172838255Y-95004535D01*
X173130900Y-94888412D01*
X173130900Y-92293840D01*
X173384900Y-92293840D01*
X173384900Y-94888412D01*
X173677545Y-95004535D01*
X173861925Y-94956954D01*
X174199553Y-94804718D01*
X174500994Y-94589539D01*
X174754663Y-94319687D01*
X174950812Y-94005531D01*
X175081904Y-93659145D01*
X175142900Y-93293840D01*
X175142900Y-92293840D01*
X182072900Y-92293840D01*
X182072900Y-93293840D01*
X182133896Y-93659145D01*
X182264988Y-94005531D01*
X182461137Y-94319687D01*
X182714806Y-94589539D01*
X183016247Y-94804718D01*
X183353875Y-94956954D01*
X183538255Y-95004535D01*
X183830900Y-94888412D01*
X183830900Y-92293840D01*
X184084900Y-92293840D01*
X184084900Y-94888412D01*
X184377545Y-95004535D01*
X184561925Y-94956954D01*
X184899553Y-94804718D01*
X185200994Y-94589539D01*
X185454663Y-94319687D01*
X185650812Y-94005531D01*
X185781904Y-93659145D01*
X185842900Y-93293840D01*
X185842900Y-92293840D01*
X184084900Y-92293840D01*
X183830900Y-92293840D01*
X182072900Y-92293840D01*
X175142900Y-92293840D01*
X173384900Y-92293840D01*
X173130900Y-92293840D01*
X171372900Y-92293840D01*
X170442900Y-92293840D01*
X170442900Y-91039840D01*
X171372900Y-91039840D01*
X171372900Y-92039840D01*
X173130900Y-92039840D01*
X173130900Y-89445268D01*
X173384900Y-89445268D01*
X173384900Y-92039840D01*
X175142900Y-92039840D01*
X175142900Y-91039840D01*
X182072900Y-91039840D01*
X182072900Y-92039840D01*
X183830900Y-92039840D01*
X183830900Y-89445268D01*
X184084900Y-89445268D01*
X184084900Y-92039840D01*
X185842900Y-92039840D01*
X185842900Y-91039840D01*
X185781904Y-90674535D01*
X185650812Y-90328149D01*
X185454663Y-90013993D01*
X185200994Y-89744141D01*
X184899553Y-89528962D01*
X184561925Y-89376726D01*
X184377545Y-89329145D01*
X184084900Y-89445268D01*
X183830900Y-89445268D01*
X183538255Y-89329145D01*
X183353875Y-89376726D01*
X183016247Y-89528962D01*
X182714806Y-89744141D01*
X182461137Y-90013993D01*
X182264988Y-90328149D01*
X182133896Y-90674535D01*
X182072900Y-91039840D01*
X175142900Y-91039840D01*
X175081904Y-90674535D01*
X174950812Y-90328149D01*
X174754663Y-90013993D01*
X174500994Y-89744141D01*
X174199553Y-89528962D01*
X173861925Y-89376726D01*
X173677545Y-89329145D01*
X173384900Y-89445268D01*
X173130900Y-89445268D01*
X172838255Y-89329145D01*
X172653875Y-89376726D01*
X172316247Y-89528962D01*
X172014806Y-89744141D01*
X171761137Y-90013993D01*
X171564988Y-90328149D01*
X171433896Y-90674535D01*
X171372900Y-91039840D01*
X170442900Y-91039840D01*
X170442900Y-86698292D01*
X170512655Y-86628537D01*
X170759422Y-86327850D01*
X171004101Y-85870089D01*
X171057900Y-85692738D01*
X171111699Y-85870090D01*
X171356377Y-86327851D01*
X171685659Y-86729081D01*
X172086889Y-87058363D01*
X172544650Y-87303041D01*
X173041350Y-87453713D01*
X173428458Y-87491840D01*
X183887342Y-87491840D01*
X184274450Y-87453713D01*
X184771150Y-87303041D01*
X185228911Y-87058363D01*
X185630141Y-86729081D01*
X185959423Y-86327851D01*
X186204101Y-85870090D01*
X186257900Y-85692738D01*
X186311699Y-85870089D01*
X186556378Y-86327850D01*
X186772901Y-86591684D01*
X186772900Y-92296281D01*
X186811027Y-92683389D01*
X186961699Y-93180089D01*
X187206377Y-93637850D01*
X187535659Y-94039081D01*
X187936889Y-94368363D01*
X187969950Y-94386034D01*
X188068555Y-94506185D01*
X188355583Y-94741743D01*
X188683052Y-94916779D01*
X189038376Y-95024565D01*
X189407900Y-95060960D01*
X189777423Y-95024565D01*
X190132747Y-94916779D01*
X190460217Y-94741743D01*
X190747245Y-94506185D01*
X190845851Y-94386033D01*
X190878910Y-94368363D01*
X191280141Y-94039081D01*
X191609423Y-93637851D01*
X191854101Y-93180090D01*
X192004773Y-92683390D01*
X192042900Y-92296282D01*
X192042900Y-85636274D01*
X192055648Y-85506840D01*
X192042900Y-85377406D01*
X192042900Y-85377398D01*
X192004773Y-84990290D01*
X191854101Y-84493590D01*
X191609423Y-84035829D01*
X191280141Y-83634599D01*
X191179589Y-83552078D01*
X190529597Y-82902085D01*
X190228910Y-82655318D01*
X189771149Y-82410639D01*
X189379520Y-82291840D01*
X190457769Y-82291840D01*
X193722901Y-85556973D01*
X193722900Y-89278768D01*
X193607900Y-89278768D01*
X193483418Y-89291028D01*
X193363720Y-89327338D01*
X193253406Y-89386303D01*
X193156715Y-89465655D01*
X193077363Y-89562346D01*
X193018398Y-89672660D01*
X192982088Y-89792358D01*
X192969828Y-89916840D01*
X192969828Y-94416840D01*
X192982088Y-94541322D01*
X193018398Y-94661020D01*
X193077363Y-94771334D01*
X193156715Y-94868025D01*
X193253406Y-94947377D01*
X193363720Y-95006342D01*
X193483418Y-95042652D01*
X193607900Y-95054912D01*
X196107900Y-95054912D01*
X196232382Y-95042652D01*
X196352080Y-95006342D01*
X196462394Y-94947377D01*
X196559085Y-94868025D01*
X196638437Y-94771334D01*
X196697402Y-94661020D01*
X196733712Y-94541322D01*
X196745972Y-94416840D01*
X196745972Y-89916840D01*
X196733712Y-89792358D01*
X196697402Y-89672660D01*
X196638437Y-89562346D01*
X196559085Y-89465655D01*
X196462394Y-89386303D01*
X196352080Y-89327338D01*
X196232382Y-89291028D01*
X196107900Y-89278768D01*
X195992900Y-89278768D01*
X195992900Y-85142581D01*
X195998390Y-85086839D01*
X195992900Y-85031097D01*
X195992900Y-85031088D01*
X195976477Y-84864341D01*
X195911576Y-84650393D01*
X195806184Y-84453217D01*
X195664349Y-84280391D01*
X195621041Y-84244849D01*
X191769896Y-80393705D01*
X191734349Y-80350391D01*
X191561523Y-80208556D01*
X191364347Y-80103164D01*
X191150399Y-80038263D01*
X190983652Y-80021840D01*
X190983651Y-80021840D01*
X190927900Y-80016349D01*
X190872149Y-80021840D01*
X166933641Y-80021840D01*
X166877899Y-80016350D01*
X166822157Y-80021840D01*
X166822148Y-80021840D01*
X166655401Y-80038263D01*
X166441453Y-80103164D01*
X166244277Y-80208556D01*
X166071451Y-80350391D01*
X166035909Y-80393699D01*
X161594760Y-84834849D01*
X161551452Y-84870391D01*
X161409617Y-85043217D01*
X161353284Y-85148610D01*
X161304224Y-85240394D01*
X161239323Y-85454342D01*
X161217409Y-85676840D01*
X161222901Y-85732601D01*
X161222900Y-89278768D01*
X161107900Y-89278768D01*
X160983418Y-89291028D01*
X160863720Y-89327338D01*
X160753406Y-89386303D01*
X160656715Y-89465655D01*
X160577363Y-89562346D01*
X160518398Y-89672660D01*
X160482088Y-89792358D01*
X160469828Y-89916840D01*
X155691876Y-89916840D01*
X155929646Y-89460660D01*
X157031239Y-87681527D01*
X158261217Y-85988607D01*
X159612863Y-84391148D01*
X161078793Y-82897873D01*
X162651003Y-81516939D01*
X164320905Y-80255888D01*
X166079378Y-79121607D01*
X167916818Y-78120291D01*
X169823191Y-77257410D01*
X171788084Y-76537675D01*
X173800765Y-75965018D01*
X175850242Y-75542566D01*
X177925321Y-75272627D01*
X180014670Y-75156675D01*
X182106876Y-75195343D01*
G37*
%TD.AperFunction*%
%TD*%
M02*
