%TF.GenerationSoftware,KiCad,Pcbnew,(5.1.10)-1*%
%TF.CreationDate,2021-07-22T01:03:41+03:00*%
%TF.ProjectId,Dimmer,44696d6d-6572-42e6-9b69-6361645f7063,rev?*%
%TF.SameCoordinates,Original*%
%TF.FileFunction,Paste,Bot*%
%TF.FilePolarity,Positive*%
%FSLAX46Y46*%
G04 Gerber Fmt 4.6, Leading zero omitted, Abs format (unit mm)*
G04 Created by KiCad (PCBNEW (5.1.10)-1) date 2021-07-22 01:03:41*
%MOMM*%
%LPD*%
G01*
G04 APERTURE LIST*
%ADD10R,0.650000X1.060000*%
%ADD11R,0.700000X0.600000*%
%ADD12R,0.900000X0.800000*%
%ADD13R,0.800000X0.900000*%
%ADD14R,0.900000X2.000000*%
%ADD15R,2.000000X0.900000*%
%ADD16R,5.000000X5.000000*%
G04 APERTURE END LIST*
%TO.C,R8*%
G36*
G01*
X213950000Y-113825000D02*
X213950000Y-113275000D01*
G75*
G02*
X214150000Y-113075000I200000J0D01*
G01*
X214550000Y-113075000D01*
G75*
G02*
X214750000Y-113275000I0J-200000D01*
G01*
X214750000Y-113825000D01*
G75*
G02*
X214550000Y-114025000I-200000J0D01*
G01*
X214150000Y-114025000D01*
G75*
G02*
X213950000Y-113825000I0J200000D01*
G01*
G37*
G36*
G01*
X215600000Y-113825000D02*
X215600000Y-113275000D01*
G75*
G02*
X215800000Y-113075000I200000J0D01*
G01*
X216200000Y-113075000D01*
G75*
G02*
X216400000Y-113275000I0J-200000D01*
G01*
X216400000Y-113825000D01*
G75*
G02*
X216200000Y-114025000I-200000J0D01*
G01*
X215800000Y-114025000D01*
G75*
G02*
X215600000Y-113825000I0J200000D01*
G01*
G37*
%TD*%
%TO.C,U3*%
G36*
G01*
X215975000Y-119860000D02*
X215975000Y-120160000D01*
G75*
G02*
X215825000Y-120310000I-150000J0D01*
G01*
X214175000Y-120310000D01*
G75*
G02*
X214025000Y-120160000I0J150000D01*
G01*
X214025000Y-119860000D01*
G75*
G02*
X214175000Y-119710000I150000J0D01*
G01*
X215825000Y-119710000D01*
G75*
G02*
X215975000Y-119860000I0J-150000D01*
G01*
G37*
G36*
G01*
X215975000Y-121130000D02*
X215975000Y-121430000D01*
G75*
G02*
X215825000Y-121580000I-150000J0D01*
G01*
X214175000Y-121580000D01*
G75*
G02*
X214025000Y-121430000I0J150000D01*
G01*
X214025000Y-121130000D01*
G75*
G02*
X214175000Y-120980000I150000J0D01*
G01*
X215825000Y-120980000D01*
G75*
G02*
X215975000Y-121130000I0J-150000D01*
G01*
G37*
G36*
G01*
X215975000Y-122400000D02*
X215975000Y-122700000D01*
G75*
G02*
X215825000Y-122850000I-150000J0D01*
G01*
X214175000Y-122850000D01*
G75*
G02*
X214025000Y-122700000I0J150000D01*
G01*
X214025000Y-122400000D01*
G75*
G02*
X214175000Y-122250000I150000J0D01*
G01*
X215825000Y-122250000D01*
G75*
G02*
X215975000Y-122400000I0J-150000D01*
G01*
G37*
G36*
G01*
X215975000Y-123670000D02*
X215975000Y-123970000D01*
G75*
G02*
X215825000Y-124120000I-150000J0D01*
G01*
X214175000Y-124120000D01*
G75*
G02*
X214025000Y-123970000I0J150000D01*
G01*
X214025000Y-123670000D01*
G75*
G02*
X214175000Y-123520000I150000J0D01*
G01*
X215825000Y-123520000D01*
G75*
G02*
X215975000Y-123670000I0J-150000D01*
G01*
G37*
G36*
G01*
X211025000Y-123670000D02*
X211025000Y-123970000D01*
G75*
G02*
X210875000Y-124120000I-150000J0D01*
G01*
X209225000Y-124120000D01*
G75*
G02*
X209075000Y-123970000I0J150000D01*
G01*
X209075000Y-123670000D01*
G75*
G02*
X209225000Y-123520000I150000J0D01*
G01*
X210875000Y-123520000D01*
G75*
G02*
X211025000Y-123670000I0J-150000D01*
G01*
G37*
G36*
G01*
X211025000Y-122400000D02*
X211025000Y-122700000D01*
G75*
G02*
X210875000Y-122850000I-150000J0D01*
G01*
X209225000Y-122850000D01*
G75*
G02*
X209075000Y-122700000I0J150000D01*
G01*
X209075000Y-122400000D01*
G75*
G02*
X209225000Y-122250000I150000J0D01*
G01*
X210875000Y-122250000D01*
G75*
G02*
X211025000Y-122400000I0J-150000D01*
G01*
G37*
G36*
G01*
X211025000Y-121130000D02*
X211025000Y-121430000D01*
G75*
G02*
X210875000Y-121580000I-150000J0D01*
G01*
X209225000Y-121580000D01*
G75*
G02*
X209075000Y-121430000I0J150000D01*
G01*
X209075000Y-121130000D01*
G75*
G02*
X209225000Y-120980000I150000J0D01*
G01*
X210875000Y-120980000D01*
G75*
G02*
X211025000Y-121130000I0J-150000D01*
G01*
G37*
G36*
G01*
X211025000Y-119860000D02*
X211025000Y-120160000D01*
G75*
G02*
X210875000Y-120310000I-150000J0D01*
G01*
X209225000Y-120310000D01*
G75*
G02*
X209075000Y-120160000I0J150000D01*
G01*
X209075000Y-119860000D01*
G75*
G02*
X209225000Y-119710000I150000J0D01*
G01*
X210875000Y-119710000D01*
G75*
G02*
X211025000Y-119860000I0J-150000D01*
G01*
G37*
%TD*%
D10*
%TO.C,D7*%
X225850000Y-113950000D03*
X224900000Y-113950000D03*
X223950000Y-113950000D03*
X223950000Y-111750000D03*
X225850000Y-111750000D03*
%TD*%
D11*
%TO.C,D4*%
X213500000Y-106550000D03*
X213500000Y-105150000D03*
%TD*%
%TO.C,U4*%
G36*
G01*
X225800000Y-118912500D02*
X225800000Y-119187500D01*
G75*
G02*
X225662500Y-119325000I-137500J0D01*
G01*
X224337500Y-119325000D01*
G75*
G02*
X224200000Y-119187500I0J137500D01*
G01*
X224200000Y-118912500D01*
G75*
G02*
X224337500Y-118775000I137500J0D01*
G01*
X225662500Y-118775000D01*
G75*
G02*
X225800000Y-118912500I0J-137500D01*
G01*
G37*
G36*
G01*
X225800000Y-121452500D02*
X225800000Y-121727500D01*
G75*
G02*
X225662500Y-121865000I-137500J0D01*
G01*
X224337500Y-121865000D01*
G75*
G02*
X224200000Y-121727500I0J137500D01*
G01*
X224200000Y-121452500D01*
G75*
G02*
X224337500Y-121315000I137500J0D01*
G01*
X225662500Y-121315000D01*
G75*
G02*
X225800000Y-121452500I0J-137500D01*
G01*
G37*
G36*
G01*
X219300000Y-121452500D02*
X219300000Y-121727500D01*
G75*
G02*
X219162500Y-121865000I-137500J0D01*
G01*
X217837500Y-121865000D01*
G75*
G02*
X217700000Y-121727500I0J137500D01*
G01*
X217700000Y-121452500D01*
G75*
G02*
X217837500Y-121315000I137500J0D01*
G01*
X219162500Y-121315000D01*
G75*
G02*
X219300000Y-121452500I0J-137500D01*
G01*
G37*
G36*
G01*
X219300000Y-118912500D02*
X219300000Y-119187500D01*
G75*
G02*
X219162500Y-119325000I-137500J0D01*
G01*
X217837500Y-119325000D01*
G75*
G02*
X217700000Y-119187500I0J137500D01*
G01*
X217700000Y-118912500D01*
G75*
G02*
X217837500Y-118775000I137500J0D01*
G01*
X219162500Y-118775000D01*
G75*
G02*
X219300000Y-118912500I0J-137500D01*
G01*
G37*
%TD*%
D12*
%TO.C,D1*%
X214500000Y-109450000D03*
X214500000Y-111350000D03*
X212500000Y-110400000D03*
%TD*%
%TO.C,C1*%
G36*
G01*
X220070000Y-101275000D02*
X220070000Y-102225000D01*
G75*
G02*
X219820000Y-102475000I-250000J0D01*
G01*
X219320000Y-102475000D01*
G75*
G02*
X219070000Y-102225000I0J250000D01*
G01*
X219070000Y-101275000D01*
G75*
G02*
X219320000Y-101025000I250000J0D01*
G01*
X219820000Y-101025000D01*
G75*
G02*
X220070000Y-101275000I0J-250000D01*
G01*
G37*
G36*
G01*
X221970000Y-101275000D02*
X221970000Y-102225000D01*
G75*
G02*
X221720000Y-102475000I-250000J0D01*
G01*
X221220000Y-102475000D01*
G75*
G02*
X220970000Y-102225000I0J250000D01*
G01*
X220970000Y-101275000D01*
G75*
G02*
X221220000Y-101025000I250000J0D01*
G01*
X221720000Y-101025000D01*
G75*
G02*
X221970000Y-101275000I0J-250000D01*
G01*
G37*
%TD*%
%TO.C,R7*%
G36*
G01*
X221925000Y-96575000D02*
X221925000Y-99425000D01*
G75*
G02*
X221675000Y-99675000I-250000J0D01*
G01*
X220950000Y-99675000D01*
G75*
G02*
X220700000Y-99425000I0J250000D01*
G01*
X220700000Y-96575000D01*
G75*
G02*
X220950000Y-96325000I250000J0D01*
G01*
X221675000Y-96325000D01*
G75*
G02*
X221925000Y-96575000I0J-250000D01*
G01*
G37*
G36*
G01*
X216000000Y-96575000D02*
X216000000Y-99425000D01*
G75*
G02*
X215750000Y-99675000I-250000J0D01*
G01*
X215025000Y-99675000D01*
G75*
G02*
X214775000Y-99425000I0J250000D01*
G01*
X214775000Y-96575000D01*
G75*
G02*
X215025000Y-96325000I250000J0D01*
G01*
X215750000Y-96325000D01*
G75*
G02*
X216000000Y-96575000I0J-250000D01*
G01*
G37*
%TD*%
%TO.C,R4*%
G36*
G01*
X211275000Y-105950000D02*
X210725000Y-105950000D01*
G75*
G02*
X210525000Y-105750000I0J200000D01*
G01*
X210525000Y-105350000D01*
G75*
G02*
X210725000Y-105150000I200000J0D01*
G01*
X211275000Y-105150000D01*
G75*
G02*
X211475000Y-105350000I0J-200000D01*
G01*
X211475000Y-105750000D01*
G75*
G02*
X211275000Y-105950000I-200000J0D01*
G01*
G37*
G36*
G01*
X211275000Y-104300000D02*
X210725000Y-104300000D01*
G75*
G02*
X210525000Y-104100000I0J200000D01*
G01*
X210525000Y-103700000D01*
G75*
G02*
X210725000Y-103500000I200000J0D01*
G01*
X211275000Y-103500000D01*
G75*
G02*
X211475000Y-103700000I0J-200000D01*
G01*
X211475000Y-104100000D01*
G75*
G02*
X211275000Y-104300000I-200000J0D01*
G01*
G37*
%TD*%
%TO.C,Q3*%
X222500000Y-106000000D03*
X222500000Y-104100000D03*
X224500000Y-105050000D03*
%TD*%
D13*
%TO.C,D2*%
X218550000Y-113550000D03*
X220450000Y-113550000D03*
X219500000Y-115550000D03*
%TD*%
%TO.C,R6*%
G36*
G01*
X209775000Y-113200000D02*
X209225000Y-113200000D01*
G75*
G02*
X209025000Y-113000000I0J200000D01*
G01*
X209025000Y-112600000D01*
G75*
G02*
X209225000Y-112400000I200000J0D01*
G01*
X209775000Y-112400000D01*
G75*
G02*
X209975000Y-112600000I0J-200000D01*
G01*
X209975000Y-113000000D01*
G75*
G02*
X209775000Y-113200000I-200000J0D01*
G01*
G37*
G36*
G01*
X209775000Y-111550000D02*
X209225000Y-111550000D01*
G75*
G02*
X209025000Y-111350000I0J200000D01*
G01*
X209025000Y-110950000D01*
G75*
G02*
X209225000Y-110750000I200000J0D01*
G01*
X209775000Y-110750000D01*
G75*
G02*
X209975000Y-110950000I0J-200000D01*
G01*
X209975000Y-111350000D01*
G75*
G02*
X209775000Y-111550000I-200000J0D01*
G01*
G37*
%TD*%
%TO.C,D3*%
X218550000Y-108550000D03*
X220450000Y-108550000D03*
X219500000Y-110550000D03*
%TD*%
%TO.C,C2*%
G36*
G01*
X215600000Y-106525000D02*
X215600000Y-105575000D01*
G75*
G02*
X215850000Y-105325000I250000J0D01*
G01*
X216350000Y-105325000D01*
G75*
G02*
X216600000Y-105575000I0J-250000D01*
G01*
X216600000Y-106525000D01*
G75*
G02*
X216350000Y-106775000I-250000J0D01*
G01*
X215850000Y-106775000D01*
G75*
G02*
X215600000Y-106525000I0J250000D01*
G01*
G37*
G36*
G01*
X217500000Y-106525000D02*
X217500000Y-105575000D01*
G75*
G02*
X217750000Y-105325000I250000J0D01*
G01*
X218250000Y-105325000D01*
G75*
G02*
X218500000Y-105575000I0J-250000D01*
G01*
X218500000Y-106525000D01*
G75*
G02*
X218250000Y-106775000I-250000J0D01*
G01*
X217750000Y-106775000D01*
G75*
G02*
X217500000Y-106525000I0J250000D01*
G01*
G37*
%TD*%
%TO.C,R10*%
G36*
G01*
X217125000Y-101474999D02*
X217125000Y-102725001D01*
G75*
G02*
X216875001Y-102975000I-249999J0D01*
G01*
X216249999Y-102975000D01*
G75*
G02*
X216000000Y-102725001I0J249999D01*
G01*
X216000000Y-101474999D01*
G75*
G02*
X216249999Y-101225000I249999J0D01*
G01*
X216875001Y-101225000D01*
G75*
G02*
X217125000Y-101474999I0J-249999D01*
G01*
G37*
G36*
G01*
X214200000Y-101474999D02*
X214200000Y-102725001D01*
G75*
G02*
X213950001Y-102975000I-249999J0D01*
G01*
X213324999Y-102975000D01*
G75*
G02*
X213075000Y-102725001I0J249999D01*
G01*
X213075000Y-101474999D01*
G75*
G02*
X213324999Y-101225000I249999J0D01*
G01*
X213950001Y-101225000D01*
G75*
G02*
X214200000Y-101474999I0J-249999D01*
G01*
G37*
%TD*%
%TO.C,R13*%
G36*
G01*
X105734663Y-79969409D02*
X106371061Y-80605807D01*
G75*
G02*
X106371061Y-80959359I-176776J-176776D01*
G01*
X105999829Y-81330591D01*
G75*
G02*
X105646277Y-81330591I-176776J176776D01*
G01*
X105009879Y-80694193D01*
G75*
G02*
X105009879Y-80340641I176776J176776D01*
G01*
X105381111Y-79969409D01*
G75*
G02*
X105734663Y-79969409I176776J-176776D01*
G01*
G37*
G36*
G01*
X104444193Y-81259879D02*
X105080591Y-81896277D01*
G75*
G02*
X105080591Y-82249829I-176776J-176776D01*
G01*
X104709359Y-82621061D01*
G75*
G02*
X104355807Y-82621061I-176776J176776D01*
G01*
X103719409Y-81984663D01*
G75*
G02*
X103719409Y-81631111I176776J176776D01*
G01*
X104090641Y-81259879D01*
G75*
G02*
X104444193Y-81259879I176776J-176776D01*
G01*
G37*
%TD*%
D14*
%TO.C,U2*%
X104130000Y-110900000D03*
X105400000Y-110900000D03*
X106670000Y-110900000D03*
X107940000Y-110900000D03*
X109210000Y-110900000D03*
X110480000Y-110900000D03*
X111750000Y-110900000D03*
X113020000Y-110900000D03*
X114290000Y-110900000D03*
X115560000Y-110900000D03*
X116830000Y-110900000D03*
X118100000Y-110900000D03*
X119370000Y-110900000D03*
X120640000Y-110900000D03*
D15*
X121640000Y-108115000D03*
X121640000Y-106845000D03*
X121640000Y-105575000D03*
X121640000Y-104305000D03*
X121640000Y-103035000D03*
X121640000Y-101765000D03*
X121640000Y-100495000D03*
X121640000Y-99225000D03*
X121640000Y-97955000D03*
X121640000Y-96685000D03*
D14*
X120640000Y-93900000D03*
X119370000Y-93900000D03*
X118100000Y-93900000D03*
X116830000Y-93900000D03*
X115560000Y-93900000D03*
X114290000Y-93900000D03*
X113020000Y-93900000D03*
X111750000Y-93900000D03*
X110480000Y-93900000D03*
X109210000Y-93900000D03*
X107940000Y-93900000D03*
X106670000Y-93900000D03*
X105400000Y-93900000D03*
X104130000Y-93900000D03*
D16*
X111630000Y-101400000D03*
%TD*%
%TO.C,TH2*%
G36*
G01*
X103382322Y-77551561D02*
X102498439Y-76667678D01*
G75*
G02*
X102498439Y-76314124I176777J176777D01*
G01*
X103064124Y-75748439D01*
G75*
G02*
X103417678Y-75748439I176777J-176777D01*
G01*
X104301561Y-76632322D01*
G75*
G02*
X104301561Y-76985876I-176777J-176777D01*
G01*
X103735876Y-77551561D01*
G75*
G02*
X103382322Y-77551561I-176777J176777D01*
G01*
G37*
G36*
G01*
X101190290Y-79743593D02*
X100306407Y-78859710D01*
G75*
G02*
X100306407Y-78506156I176777J176777D01*
G01*
X100872092Y-77940471D01*
G75*
G02*
X101225646Y-77940471I176777J-176777D01*
G01*
X102109529Y-78824354D01*
G75*
G02*
X102109529Y-79177908I-176777J-176777D01*
G01*
X101543844Y-79743593D01*
G75*
G02*
X101190290Y-79743593I-176777J176777D01*
G01*
G37*
%TD*%
%TO.C,R5*%
G36*
G01*
X124150000Y-114025000D02*
X124150000Y-114575000D01*
G75*
G02*
X123950000Y-114775000I-200000J0D01*
G01*
X123550000Y-114775000D01*
G75*
G02*
X123350000Y-114575000I0J200000D01*
G01*
X123350000Y-114025000D01*
G75*
G02*
X123550000Y-113825000I200000J0D01*
G01*
X123950000Y-113825000D01*
G75*
G02*
X124150000Y-114025000I0J-200000D01*
G01*
G37*
G36*
G01*
X125800000Y-114025000D02*
X125800000Y-114575000D01*
G75*
G02*
X125600000Y-114775000I-200000J0D01*
G01*
X125200000Y-114775000D01*
G75*
G02*
X125000000Y-114575000I0J200000D01*
G01*
X125000000Y-114025000D01*
G75*
G02*
X125200000Y-113825000I200000J0D01*
G01*
X125600000Y-113825000D01*
G75*
G02*
X125800000Y-114025000I0J-200000D01*
G01*
G37*
%TD*%
%TO.C,R1*%
G36*
G01*
X110940839Y-81489690D02*
X110056954Y-80605805D01*
G75*
G02*
X110056954Y-80252253I176776J176776D01*
G01*
X110498897Y-79810310D01*
G75*
G02*
X110852449Y-79810310I176776J-176776D01*
G01*
X111736334Y-80694195D01*
G75*
G02*
X111736334Y-81047747I-176776J-176776D01*
G01*
X111294391Y-81489690D01*
G75*
G02*
X110940839Y-81489690I-176776J176776D01*
G01*
G37*
G36*
G01*
X108872551Y-83557978D02*
X107988666Y-82674093D01*
G75*
G02*
X107988666Y-82320541I176776J176776D01*
G01*
X108430609Y-81878598D01*
G75*
G02*
X108784161Y-81878598I176776J-176776D01*
G01*
X109668046Y-82762483D01*
G75*
G02*
X109668046Y-83116035I-176776J-176776D01*
G01*
X109226103Y-83557978D01*
G75*
G02*
X108872551Y-83557978I-176776J176776D01*
G01*
G37*
%TD*%
%TO.C,C4*%
G36*
G01*
X90899999Y-85075000D02*
X93100001Y-85075000D01*
G75*
G02*
X93350000Y-85324999I0J-249999D01*
G01*
X93350000Y-85975001D01*
G75*
G02*
X93100001Y-86225000I-249999J0D01*
G01*
X90899999Y-86225000D01*
G75*
G02*
X90650000Y-85975001I0J249999D01*
G01*
X90650000Y-85324999D01*
G75*
G02*
X90899999Y-85075000I249999J0D01*
G01*
G37*
G36*
G01*
X90899999Y-82125000D02*
X93100001Y-82125000D01*
G75*
G02*
X93350000Y-82374999I0J-249999D01*
G01*
X93350000Y-83025001D01*
G75*
G02*
X93100001Y-83275000I-249999J0D01*
G01*
X90899999Y-83275000D01*
G75*
G02*
X90650000Y-83025001I0J249999D01*
G01*
X90650000Y-82374999D01*
G75*
G02*
X90899999Y-82125000I249999J0D01*
G01*
G37*
%TD*%
%TO.C,R2*%
G36*
G01*
X97324174Y-82460572D02*
X97960572Y-81824174D01*
G75*
G02*
X98314124Y-81824174I176776J-176776D01*
G01*
X98685356Y-82195406D01*
G75*
G02*
X98685356Y-82548958I-176776J-176776D01*
G01*
X98048958Y-83185356D01*
G75*
G02*
X97695406Y-83185356I-176776J176776D01*
G01*
X97324174Y-82814124D01*
G75*
G02*
X97324174Y-82460572I176776J176776D01*
G01*
G37*
G36*
G01*
X98614644Y-83751042D02*
X99251042Y-83114644D01*
G75*
G02*
X99604594Y-83114644I176776J-176776D01*
G01*
X99975826Y-83485876D01*
G75*
G02*
X99975826Y-83839428I-176776J-176776D01*
G01*
X99339428Y-84475826D01*
G75*
G02*
X98985876Y-84475826I-176776J176776D01*
G01*
X98614644Y-84104594D01*
G75*
G02*
X98614644Y-83751042I176776J176776D01*
G01*
G37*
%TD*%
M02*
