%TF.GenerationSoftware,KiCad,Pcbnew,(5.1.10)-1*%
%TF.CreationDate,2021-07-22T01:03:41+03:00*%
%TF.ProjectId,Dimmer,44696d6d-6572-42e6-9b69-6361645f7063,rev?*%
%TF.SameCoordinates,Original*%
%TF.FileFunction,Paste,Top*%
%TF.FilePolarity,Positive*%
%FSLAX46Y46*%
G04 Gerber Fmt 4.6, Leading zero omitted, Abs format (unit mm)*
G04 Created by KiCad (PCBNEW (5.1.10)-1) date 2021-07-22 01:03:41*
%MOMM*%
%LPD*%
G01*
G04 APERTURE LIST*
%ADD10R,1.120000X2.160000*%
%ADD11R,2.160000X1.120000*%
G04 APERTURE END LIST*
%TO.C,TH1*%
G36*
G01*
X211750000Y-125775000D02*
X211750000Y-124525000D01*
G75*
G02*
X212000000Y-124275000I250000J0D01*
G01*
X212800000Y-124275000D01*
G75*
G02*
X213050000Y-124525000I0J-250000D01*
G01*
X213050000Y-125775000D01*
G75*
G02*
X212800000Y-126025000I-250000J0D01*
G01*
X212000000Y-126025000D01*
G75*
G02*
X211750000Y-125775000I0J250000D01*
G01*
G37*
G36*
G01*
X208650000Y-125775000D02*
X208650000Y-124525000D01*
G75*
G02*
X208900000Y-124275000I250000J0D01*
G01*
X209700000Y-124275000D01*
G75*
G02*
X209950000Y-124525000I0J-250000D01*
G01*
X209950000Y-125775000D01*
G75*
G02*
X209700000Y-126025000I-250000J0D01*
G01*
X208900000Y-126025000D01*
G75*
G02*
X208650000Y-125775000I0J250000D01*
G01*
G37*
%TD*%
%TO.C,C8*%
G36*
G01*
X211300000Y-121875000D02*
X211300000Y-122825000D01*
G75*
G02*
X211050000Y-123075000I-250000J0D01*
G01*
X210550000Y-123075000D01*
G75*
G02*
X210300000Y-122825000I0J250000D01*
G01*
X210300000Y-121875000D01*
G75*
G02*
X210550000Y-121625000I250000J0D01*
G01*
X211050000Y-121625000D01*
G75*
G02*
X211300000Y-121875000I0J-250000D01*
G01*
G37*
G36*
G01*
X213200000Y-121875000D02*
X213200000Y-122825000D01*
G75*
G02*
X212950000Y-123075000I-250000J0D01*
G01*
X212450000Y-123075000D01*
G75*
G02*
X212200000Y-122825000I0J250000D01*
G01*
X212200000Y-121875000D01*
G75*
G02*
X212450000Y-121625000I250000J0D01*
G01*
X212950000Y-121625000D01*
G75*
G02*
X213200000Y-121875000I0J-250000D01*
G01*
G37*
%TD*%
%TO.C,C11*%
G36*
G01*
X201425000Y-125265000D02*
X202375000Y-125265000D01*
G75*
G02*
X202625000Y-125515000I0J-250000D01*
G01*
X202625000Y-126015000D01*
G75*
G02*
X202375000Y-126265000I-250000J0D01*
G01*
X201425000Y-126265000D01*
G75*
G02*
X201175000Y-126015000I0J250000D01*
G01*
X201175000Y-125515000D01*
G75*
G02*
X201425000Y-125265000I250000J0D01*
G01*
G37*
G36*
G01*
X201425000Y-123365000D02*
X202375000Y-123365000D01*
G75*
G02*
X202625000Y-123615000I0J-250000D01*
G01*
X202625000Y-124115000D01*
G75*
G02*
X202375000Y-124365000I-250000J0D01*
G01*
X201425000Y-124365000D01*
G75*
G02*
X201175000Y-124115000I0J250000D01*
G01*
X201175000Y-123615000D01*
G75*
G02*
X201425000Y-123365000I250000J0D01*
G01*
G37*
%TD*%
%TO.C,R9*%
G36*
G01*
X206049999Y-124837500D02*
X206950001Y-124837500D01*
G75*
G02*
X207200000Y-125087499I0J-249999D01*
G01*
X207200000Y-125612501D01*
G75*
G02*
X206950001Y-125862500I-249999J0D01*
G01*
X206049999Y-125862500D01*
G75*
G02*
X205800000Y-125612501I0J249999D01*
G01*
X205800000Y-125087499D01*
G75*
G02*
X206049999Y-124837500I249999J0D01*
G01*
G37*
G36*
G01*
X206049999Y-123012500D02*
X206950001Y-123012500D01*
G75*
G02*
X207200000Y-123262499I0J-249999D01*
G01*
X207200000Y-123787501D01*
G75*
G02*
X206950001Y-124037500I-249999J0D01*
G01*
X206049999Y-124037500D01*
G75*
G02*
X205800000Y-123787501I0J249999D01*
G01*
X205800000Y-123262499D01*
G75*
G02*
X206049999Y-123012500I249999J0D01*
G01*
G37*
%TD*%
%TO.C,D5*%
G36*
G01*
X100662500Y-73106250D02*
X100662500Y-72193750D01*
G75*
G02*
X100906250Y-71950000I243750J0D01*
G01*
X101393750Y-71950000D01*
G75*
G02*
X101637500Y-72193750I0J-243750D01*
G01*
X101637500Y-73106250D01*
G75*
G02*
X101393750Y-73350000I-243750J0D01*
G01*
X100906250Y-73350000D01*
G75*
G02*
X100662500Y-73106250I0J243750D01*
G01*
G37*
G36*
G01*
X98787500Y-73106250D02*
X98787500Y-72193750D01*
G75*
G02*
X99031250Y-71950000I243750J0D01*
G01*
X99518750Y-71950000D01*
G75*
G02*
X99762500Y-72193750I0J-243750D01*
G01*
X99762500Y-73106250D01*
G75*
G02*
X99518750Y-73350000I-243750J0D01*
G01*
X99031250Y-73350000D01*
G75*
G02*
X98787500Y-73106250I0J243750D01*
G01*
G37*
%TD*%
%TO.C,D6*%
G36*
G01*
X133137500Y-73306250D02*
X133137500Y-72393750D01*
G75*
G02*
X133381250Y-72150000I243750J0D01*
G01*
X133868750Y-72150000D01*
G75*
G02*
X134112500Y-72393750I0J-243750D01*
G01*
X134112500Y-73306250D01*
G75*
G02*
X133868750Y-73550000I-243750J0D01*
G01*
X133381250Y-73550000D01*
G75*
G02*
X133137500Y-73306250I0J243750D01*
G01*
G37*
G36*
G01*
X131262500Y-73306250D02*
X131262500Y-72393750D01*
G75*
G02*
X131506250Y-72150000I243750J0D01*
G01*
X131993750Y-72150000D01*
G75*
G02*
X132237500Y-72393750I0J-243750D01*
G01*
X132237500Y-73306250D01*
G75*
G02*
X131993750Y-73550000I-243750J0D01*
G01*
X131506250Y-73550000D01*
G75*
G02*
X131262500Y-73306250I0J243750D01*
G01*
G37*
%TD*%
%TO.C,k2*%
G36*
G01*
X122200000Y-129450000D02*
X122200000Y-123950000D01*
G75*
G02*
X124950000Y-121200000I2750000J0D01*
G01*
X141450000Y-121200000D01*
G75*
G02*
X144200000Y-123950000I0J-2750000D01*
G01*
X144200000Y-129450000D01*
G75*
G02*
X141450000Y-132200000I-2750000J0D01*
G01*
X124950000Y-132200000D01*
G75*
G02*
X122200000Y-129450000I0J2750000D01*
G01*
G37*
%TD*%
%TO.C,k5*%
G36*
G01*
X122200000Y-118125000D02*
X122200000Y-112875000D01*
G75*
G02*
X124825000Y-110250000I2625000J0D01*
G01*
X141575000Y-110250000D01*
G75*
G02*
X144200000Y-112875000I0J-2625000D01*
G01*
X144200000Y-118125000D01*
G75*
G02*
X141575000Y-120750000I-2625000J0D01*
G01*
X124825000Y-120750000D01*
G75*
G02*
X122200000Y-118125000I0J2625000D01*
G01*
G37*
%TD*%
%TO.C,k4*%
G36*
G01*
X122200000Y-107050000D02*
X122200000Y-101550000D01*
G75*
G02*
X124950000Y-98800000I2750000J0D01*
G01*
X141450000Y-98800000D01*
G75*
G02*
X144200000Y-101550000I0J-2750000D01*
G01*
X144200000Y-107050000D01*
G75*
G02*
X141450000Y-109800000I-2750000J0D01*
G01*
X124950000Y-109800000D01*
G75*
G02*
X122200000Y-107050000I0J2750000D01*
G01*
G37*
%TD*%
%TO.C,k7*%
G36*
G01*
X144000000Y-78750000D02*
X144000000Y-84250000D01*
G75*
G02*
X141250000Y-87000000I-2750000J0D01*
G01*
X124750000Y-87000000D01*
G75*
G02*
X122000000Y-84250000I0J2750000D01*
G01*
X122000000Y-78750000D01*
G75*
G02*
X124750000Y-76000000I2750000J0D01*
G01*
X141250000Y-76000000D01*
G75*
G02*
X144000000Y-78750000I0J-2750000D01*
G01*
G37*
%TD*%
%TO.C,k6*%
G36*
G01*
X144000000Y-90150000D02*
X144000000Y-95650000D01*
G75*
G02*
X141250000Y-98400000I-2750000J0D01*
G01*
X124750000Y-98400000D01*
G75*
G02*
X122000000Y-95650000I0J2750000D01*
G01*
X122000000Y-90150000D01*
G75*
G02*
X124750000Y-87400000I2750000J0D01*
G01*
X141250000Y-87400000D01*
G75*
G02*
X144000000Y-90150000I0J-2750000D01*
G01*
G37*
%TD*%
D10*
%TO.C,SW_RST*%
X83800000Y-123935000D03*
X83800000Y-130665000D03*
%TD*%
%TO.C,k3*%
G36*
G01*
X121000000Y-84825000D02*
X121000000Y-122575000D01*
G75*
G02*
X112375000Y-131200000I-8625000J0D01*
G01*
X95125000Y-131200000D01*
G75*
G02*
X86500000Y-122575000I0J8625000D01*
G01*
X86500000Y-84825000D01*
G75*
G02*
X95125000Y-76200000I8625000J0D01*
G01*
X112375000Y-76200000D01*
G75*
G02*
X121000000Y-84825000I0J-8625000D01*
G01*
G37*
%TD*%
D11*
%TO.C,SW_MODE*%
X104365000Y-135300000D03*
X97635000Y-135300000D03*
%TD*%
%TO.C,R12*%
G36*
G01*
X137537500Y-72174999D02*
X137537500Y-73425001D01*
G75*
G02*
X137287501Y-73675000I-249999J0D01*
G01*
X136662499Y-73675000D01*
G75*
G02*
X136412500Y-73425001I0J249999D01*
G01*
X136412500Y-72174999D01*
G75*
G02*
X136662499Y-71925000I249999J0D01*
G01*
X137287501Y-71925000D01*
G75*
G02*
X137537500Y-72174999I0J-249999D01*
G01*
G37*
G36*
G01*
X140462500Y-72174999D02*
X140462500Y-73425001D01*
G75*
G02*
X140212501Y-73675000I-249999J0D01*
G01*
X139587499Y-73675000D01*
G75*
G02*
X139337500Y-73425001I0J249999D01*
G01*
X139337500Y-72174999D01*
G75*
G02*
X139587499Y-71925000I249999J0D01*
G01*
X140212501Y-71925000D01*
G75*
G02*
X140462500Y-72174999I0J-249999D01*
G01*
G37*
%TD*%
%TO.C,R11*%
G36*
G01*
X107962500Y-72024999D02*
X107962500Y-73275001D01*
G75*
G02*
X107712501Y-73525000I-249999J0D01*
G01*
X107087499Y-73525000D01*
G75*
G02*
X106837500Y-73275001I0J249999D01*
G01*
X106837500Y-72024999D01*
G75*
G02*
X107087499Y-71775000I249999J0D01*
G01*
X107712501Y-71775000D01*
G75*
G02*
X107962500Y-72024999I0J-249999D01*
G01*
G37*
G36*
G01*
X105037500Y-72024999D02*
X105037500Y-73275001D01*
G75*
G02*
X104787501Y-73525000I-249999J0D01*
G01*
X104162499Y-73525000D01*
G75*
G02*
X103912500Y-73275001I0J249999D01*
G01*
X103912500Y-72024999D01*
G75*
G02*
X104162499Y-71775000I249999J0D01*
G01*
X104787501Y-71775000D01*
G75*
G02*
X105037500Y-72024999I0J-249999D01*
G01*
G37*
%TD*%
M02*
